<svg xmlns="http://www.w3.org/2000/svg" width="85" height="93" viewBox="0 0 85 93"><g transform="translate(-180 -1192)"><rect width="85" height="93" rx="11" transform="translate(180 1192)" fill="#ffd667"/><g transform="translate(188 1203)"><g transform="translate(11.27 2.12)"><g transform="translate(40.173 31.362)"><path d="M53.721,43.441v4.48H47V30a17.106,17.106,0,0,1,1.792,1.568c.146.146.3.3.437.459A16.672,16.672,0,0,1,53.721,43.441Z" transform="translate(-47 -30)" fill="#b4dd7f"/></g><g transform="translate(20.012 29.122)"><path d="M44.681,28V66.083H29a2.247,2.247,0,0,0,2.24-2.24V54.882a2.243,2.243,0,0,0-.952-1.826,39.305,39.305,0,0,0,5.32-6.127c1.1-1.512,2.139-3.114,3.114-4.727,3.461-5.757,5.959-11.682,5.959-14.2Z" transform="translate(-29 -28)" fill="#b4dd7f"/></g><g transform="translate(15.531 28.002)"><path d="M39.505,27.168,39.561,27c.246,0,.493,0,.739.022a52.552,52.552,0,0,1-5.164,11.246c-.952,1.613-1.983,3.237-3.069,4.772A35.65,35.65,0,0,1,25,50.88V27.963A16.621,16.621,0,0,1,30.6,27l.056.168a4.673,4.673,0,0,0,4.424,3.192,4.623,4.623,0,0,0,2.722-.885A4.73,4.73,0,0,0,39.505,27.168Z" transform="translate(-25 -27)" fill="#b4dd7f"/></g><g transform="translate(4.33 31.362)"><path d="M21.721,30V47.921H15v-4.48a16.672,16.672,0,0,1,4.492-11.414c.134-.157.291-.314.437-.459A17.106,17.106,0,0,1,21.721,30Z" transform="translate(-15 -30)" fill="#b4dd7f"/></g><g transform="translate(32.993 10.081)"><path d="M44.544,18.975a3.354,3.354,0,0,0-.045-4.794l.336-.672A6.389,6.389,0,0,0,45.507,11H52.25a2.247,2.247,0,0,1,2.24,2.24v6.721a2.247,2.247,0,0,1-2.24,2.24H40.59a5.72,5.72,0,0,0,.459-2.24h1.12A3.352,3.352,0,0,0,44.544,18.975Z" transform="translate(-40.59 -11)" fill="#ffc729"/></g><g transform="translate(4.33 10.081)"><path d="M27.321,19.961h1.12A5.719,5.719,0,0,0,28.9,22.2H17.24A2.247,2.247,0,0,1,15,19.961V13.24A2.247,2.247,0,0,1,17.24,11h6.721v.179a5.741,5.741,0,0,0,.3,1.837l.47,1.434a3.365,3.365,0,0,0,2.587,5.511Z" transform="translate(-15 -11)" fill="#ffc729"/></g><g transform="translate(13.291)"><path d="M43.15,5.36l.862.426a6.549,6.549,0,0,1,3.629,5.869,2.711,2.711,0,0,1-.022.426,6.389,6.389,0,0,1-.672,2.509l-.336.672a3.343,3.343,0,0,0-2.33-.941h-1.12v-2.24H39.208a21.141,21.141,0,0,1-9.487-2.24,4.047,4.047,0,0,0-2.24,3.629v.851H26.36a3.358,3.358,0,0,0-2.587,1.21L23.3,14.1A5.741,5.741,0,0,1,23,12.26v-.179a5.623,5.623,0,0,1,1.635-3.875l.6-.6a5.583,5.583,0,0,1,5.6-5.6H39.9a3.255,3.255,0,0,1,3.259,3.259.31.31,0,0,1-.011.1Z" transform="translate(-23 -2)" fill="#656d78"/></g><g transform="translate(29.207 21.282)"><path d="M48.176,31.081l-4.48-2.4a16.282,16.282,0,0,0-4.861-.941c-.246-.022-.493-.022-.739-.022l-.885-3.528A5.554,5.554,0,0,0,40.985,21h9.431V33.1l-.011.011c-.134-.157-.291-.314-.437-.459A17.106,17.106,0,0,0,48.176,31.081Z" transform="translate(-37.21 -21)" fill="#fcd770"/></g><g transform="translate(8.811 21.282)"><path d="M25.721,28.684a16.905,16.905,0,0,0-4.48,2.4,17.106,17.106,0,0,0-1.792,1.568c-.146.146-.3.3-.437.459L19,33.1V21h9.431a5.554,5.554,0,0,0,3.775,3.192l-.885,3.528A16.621,16.621,0,0,0,25.721,28.684Z" transform="translate(-19 -21)" fill="#fcd770"/></g><g transform="translate(35.693 28.965)"><path d="M43,27.86l4.48,2.4V66.1H43V27.86Z" transform="translate(-43 -27.86)" fill="#969faa"/></g><g transform="translate(11.051 28.965)"><path d="M25.48,50.777A7.831,7.831,0,0,1,21,52.659v-22.4a16.905,16.905,0,0,1,4.48-2.4Z" transform="translate(-21 -27.86)" fill="#969faa"/></g><g transform="translate(40.173 49.284)"><path d="M47,46h6.721V63.921H47Z" transform="translate(-47 -46)" fill="#f0d0b4"/></g><g transform="translate(4.33 49.284)"><path d="M21.721,46v4.48H15V46Z" transform="translate(-15 -46)" fill="#f0d0b4"/></g><g transform="translate(25.668 28.025)"><path d="M44.075,27.961v.157c0,2.52-2.5,8.445-5.959,14.2l-4.044-4.044-.022-.011A52.552,52.552,0,0,0,39.214,27.02,16.282,16.282,0,0,1,44.075,27.961Z" transform="translate(-34.05 -27.02)" fill="#cf9e76"/></g><g transform="translate(11.051 44.042)"><path d="M21,51.042a7.831,7.831,0,0,0,4.48-1.882,35.65,35.65,0,0,0,7.068-7.841h.011l4.01,4.01a39.305,39.305,0,0,1-5.32,6.127,2.157,2.157,0,0,0-1.288-.414H21Z" transform="translate(-21 -41.32)" fill="#cf9e76"/></g><g transform="translate(22.599 39.27)"><path d="M34.4,37.071l4.044,4.044c-.974,1.613-2.016,3.215-3.114,4.727l-4.01-4.01H31.31c1.086-1.535,2.117-3.159,3.069-4.772Z" transform="translate(-31.31 -37.06)" fill="#ffeaa7"/></g><g transform="translate(15.531 53.764)"><path d="M25,50h4.48a2.157,2.157,0,0,1,1.288.414,2.243,2.243,0,0,1,.952,1.826V61.2a2.247,2.247,0,0,1-2.24,2.24H25a2.247,2.247,0,0,0,2.24-2.24V52.24A2.247,2.247,0,0,0,25,50Z" transform="translate(-25 -50)" fill="#aab2bd"/></g><g transform="translate(4.33 53.764)"><path d="M21.721,50H26.2a2.247,2.247,0,0,1,2.24,2.24V61.2a2.247,2.247,0,0,1-2.24,2.24H17.24A2.247,2.247,0,0,1,15,61.2v-2.24h4.48a4.48,4.48,0,1,0,0-8.961Z" transform="translate(-15 -50)" fill="#ccd1d9"/></g><g transform="translate(4.33 53.764)"><path d="M15,58.961A4.48,4.48,0,0,0,15,50h4.48a4.48,4.48,0,1,1,0,8.961Z" transform="translate(-15 -50)" fill="#4fc1e9"/></g><g transform="translate(0 53.983)"><circle cx="4.365" cy="4.365" r="4.365" transform="translate(0 0)" fill="#69d6f4"/></g><g transform="translate(33.453 12.321)"><path d="M44.45,13.941a3.361,3.361,0,0,1-2.33,5.78H41V13h1.12a3.343,3.343,0,0,1,2.33.941Z" transform="translate(-41 -13)" fill="#f0d0b4"/></g><g transform="translate(21.132 24.474)"><path d="M38.076,23.85l.885,3.528-.056.168a4.73,4.73,0,0,1-1.7,2.307,4.623,4.623,0,0,1-2.722.885,4.673,4.673,0,0,1-4.424-3.192L30,27.378l.885-3.528a5.413,5.413,0,0,0,1.355.168h4.48A5.413,5.413,0,0,0,38.076,23.85Z" transform="translate(-30 -23.85)" fill="#f0d0b4"/></g><g transform="translate(17.771 7.841)"><path d="M38.436,25.633a5.413,5.413,0,0,1-1.355.168H32.6a5.413,5.413,0,0,1-1.355-.168,5.554,5.554,0,0,1-3.775-3.192h-.011A5.72,5.72,0,0,1,27,20.2V12.629A4.047,4.047,0,0,1,29.24,9a21.141,21.141,0,0,0,9.487,2.24h3.954V20.2a5.72,5.72,0,0,1-.459,2.24h-.011a5.554,5.554,0,0,1-3.775,3.192Z" transform="translate(-27 -9)" fill="#f0d0b4"/></g><g transform="translate(13.291 12.321)"><path d="M27.48,13v6.721H26.36a3.36,3.36,0,1,1,0-6.721Z" transform="translate(-23 -13)" fill="#f0d0b4"/></g></g><g transform="translate(10 1)"><ellipse cx="0.935" cy="1.247" rx="0.935" ry="1.247" transform="translate(22.471 13.326)"/><ellipse cx="0.935" cy="1.247" rx="0.935" ry="1.247" transform="translate(29.33 13.326)"/><path d="M35.48,19.12H31v2.24h4.48A3.364,3.364,0,0,0,38.841,18H36.6A1.12,1.12,0,0,1,35.48,19.12Z" transform="translate(-7.478 1.041)"/><circle cx="1.247" cy="1.247" r="1.247" transform="translate(4.388 58.221)"/><path d="M55.924,24.522a3.364,3.364,0,0,0,3.36-3.36V14.441a3.364,3.364,0,0,0-3.36-3.36H50.275a7.623,7.623,0,0,0-4.2-6.175l-.3-.149A4.366,4.366,0,0,0,41.469,1H32.4a6.728,6.728,0,0,0-6.7,6.239l-.289.289a6.634,6.634,0,0,0-1.851,3.553H17.841a3.364,3.364,0,0,0-3.36,3.36v6.721a3.364,3.364,0,0,0,3.36,3.36h1.12V35.11a17.827,17.827,0,0,0-4.48,11.814v7.954a5.6,5.6,0,0,0,0,10.975v1.233a3.364,3.364,0,0,0,3.36,3.36H59.284V46.924A17.829,17.829,0,0,0,54.8,35.11V24.522Zm1.12-10.081v6.721a1.12,1.12,0,0,1-1.12,1.12H45.843A4.469,4.469,0,0,0,49.5,15.23l.011-.024a7.672,7.672,0,0,0,.642-1.886h5.77a1.122,1.122,0,0,1,1.12,1.121Zm-11.2,1.12a2.24,2.24,0,0,1,0,4.48ZM26.994,9.112l.927-.927V7.721A4.485,4.485,0,0,1,32.4,3.24h9.067a2.135,2.135,0,0,1,.673,4.16l-1.135.379L41.716,9.9l1.135-.379a4.359,4.359,0,0,0,2.61-2.388,5.4,5.4,0,0,1,2.622,4.637,5.454,5.454,0,0,1-.375,1.967,4.446,4.446,0,0,0-1.865-.419v-2.24H40.771a20.186,20.186,0,0,1-8.988-2.123l-.5-.25-.5.251a5.137,5.137,0,0,0-2.842,4.362h-.018a4.424,4.424,0,0,0-2.011.5,4.894,4.894,0,0,1-.23-1.539,4.452,4.452,0,0,1,1.313-3.169ZM50.323,68.205h-2.24V32.777a15.746,15.746,0,0,1,2.24,1.3ZM31.665,31.279a5.767,5.767,0,0,0,7.833,2.7c-2.541,5.809-7.216,13.386-11.576,17.6V31.9A15.584,15.584,0,0,1,31.665,31.279Zm6.07,17.153-2.408-2.408c.634-.93,1.248-1.878,1.836-2.837L39.575,45.6q-.884,1.44-1.84,2.833ZM25.681,53.451a8,8,0,0,1-2.24,1.136V34.073a15.639,15.639,0,0,1,2.24-1.3ZM21.2,54.764h-4.48v-2.24H21.2ZM20.081,57a3.36,3.36,0,0,1,0,6.721h-.029a5.487,5.487,0,0,0,0-6.721Zm7.515-2.24a35.017,35.017,0,0,0,6.417-6.886l2.4,2.4a37.57,37.57,0,0,1-4.061,4.676,3.319,3.319,0,0,0-1.07-.19Zm6.53,1.591c4.383-4.3,9.042-11.744,11.717-17.711V68.205H34.436a3.323,3.323,0,0,0,.206-1.12V58.124a3.323,3.323,0,0,0-.516-1.77ZM40.753,43.61,38.342,41.2a55.99,55.99,0,0,0,4.571-9.878,15.521,15.521,0,0,1,2.865.566C45.441,34.188,43.486,38.829,40.753,43.61ZM40.192,30.06a3.53,3.53,0,0,1-6.62,0l.55-2.2c.172.012.345.026.52.026h4.48c.175,0,.347-.013.52-.026Zm-1.07-4.418h-4.48a4.485,4.485,0,0,1-4.48-4.48V13.585a2.919,2.919,0,0,1,1.181-2.353,22.459,22.459,0,0,0,9.429,2.089H43.6v7.841A4.485,4.485,0,0,1,39.122,25.642Zm-11.2-10.081v4.48a2.24,2.24,0,1,1,0-4.48Zm-11.2,5.6V14.441a1.12,1.12,0,0,1,1.12-1.12h5.677a6.942,6.942,0,0,0,.28,1.251l.306.916a4.456,4.456,0,0,0,3.818,6.793H17.841a1.12,1.12,0,0,1-1.12-1.12Zm12.11,3.36a6.758,6.758,0,0,0,3.118,2.793l-.427,1.708A17.815,17.815,0,0,0,21.2,32.967V24.522ZM21.2,35.97V50.284h-4.48v-3.36A15.622,15.622,0,0,1,21.2,35.97ZM12.24,60.365a3.36,3.36,0,1,1,3.36,3.36A3.364,3.364,0,0,1,12.24,60.365Zm13.441,7.841H17.841a1.12,1.12,0,0,1-1.12-1.12v-1.12h3.36a5.607,5.607,0,0,0,5.6-5.6A5.542,5.542,0,0,0,24.532,57H26.8a1.12,1.12,0,0,1,1.12,1.12v8.961a1.12,1.12,0,0,1-1.12,1.12Zm4.48,0h-.206a3.322,3.322,0,0,0,.206-1.12V58.124A3.322,3.322,0,0,0,29.955,57h1.326a1.12,1.12,0,0,1,1.12,1.12v8.961a1.12,1.12,0,0,1-1.12,1.12Zm22.4,0V52.524h4.48V68.205Zm4.48-17.921h-4.48V35.97a15.626,15.626,0,0,1,4.48,10.953Zm-4.48-17.317a17.815,17.815,0,0,0-10.322-3.944l-.427-1.708a6.752,6.752,0,0,0,3.118-2.793h7.63Z" transform="translate(-10 -1)"/></g></g></g></svg>