<svg xmlns="http://www.w3.org/2000/svg" xmlns:xlink="http://www.w3.org/1999/xlink" width="297.153" height="226.127" viewBox="0 0 297.153 226.127"><defs><filter id="a" x="0" y="17.187" width="297.153" height="208.94" filterUnits="userSpaceOnUse"><feOffset dy="3" input="SourceAlpha"/><feGaussianBlur stdDeviation="3" result="b"/><feFlood flood-opacity="0.161"/><feComposite operator="in" in2="b"/><feComposite in="SourceGraphic"/></filter><clipPath id="c"><rect width="215.106" height="213.128" fill="none"/></clipPath><clipPath id="f"><rect width="25.498" height="29.366" fill="none"/></clipPath><clipPath id="g"><rect width="15.492" height="41.689" fill="none"/></clipPath><clipPath id="h"><rect width="22.867" height="14.066" fill="none"/></clipPath><clipPath id="i"><rect width="24.383" height="19.019" fill="none"/></clipPath></defs><g transform="translate(-1006.824 -5216.913)"><g transform="matrix(1, 0, 0, 1, 1006.82, 5216.91)" filter="url(#a)"><path d="M541.049,346.85c-6.106,0-33.633.007-68.558,0-9.643,0-19.853-.005-30.329-.009-7.949,0-16.054-.007-24.186-.012L404.2,346.82c-61.47-.048-71.267.639-81.023.029-18.149,0-64.633-70.531-9.3-116.841,21.488-17.982-6.09-41.873,29.6-59.816,23.47-11.8,40.518,8.93,68.851,1.462,20.932-5.517,25.19-18.459,66.573-14.873,39.8,3.449,40.6,36.124,27.972,63.106-7.971,17.035,31.111,11.775,49.184,37.2C586.91,300.481,541.323,346.2,541.049,346.85Z" transform="translate(-278.62 -132.98)" fill="#ffe293"/></g><g transform="translate(1045 5216.913)"><g clip-path="url(#c)"><g clip-path="url(#c)"><path d="M293.191,23.776A23.776,23.776,0,1,0,316.967,0a23.776,23.776,0,0,0-23.776,23.776" transform="translate(-141.937)" fill="#fafafa"/><path d="M293.78,78.3c0,.024.255.039.674.211a3.115,3.115,0,0,1,1.422,1.221,2.96,2.96,0,0,1,.439,1.216,2.573,2.573,0,0,1-.257,1.441,2.818,2.818,0,0,1-5.276-.313,2.58,2.58,0,0,1-.085-1.462,2.958,2.958,0,0,1,.58-1.156,3.116,3.116,0,0,1,1.556-1.044c.436-.121.7-.106.694-.13a.608.608,0,0,0-.185-.015,1.162,1.162,0,0,0-.225.012,1.811,1.811,0,0,0-.3.05,3.163,3.163,0,0,0-2.292,2.238,2.745,2.745,0,0,0,.07,1.571,3.213,3.213,0,0,0,.986,1.43,2.839,2.839,0,0,0,3.517.208,3.208,3.208,0,0,0,1.147-1.3,2.744,2.744,0,0,0,.256-1.552,3.164,3.164,0,0,0-2.011-2.494,1.809,1.809,0,0,0-.3-.086,1.115,1.115,0,0,0-.222-.038.614.614,0,0,0-.186-.007" transform="translate(-140.605 -37.889)" fill="#263238"/><path d="M285.8,91.265c0,.012.127.02.336.105a1.557,1.557,0,0,1,.71.609,1.472,1.472,0,0,1,.219.606,1.281,1.281,0,0,1-.128.719,1.406,1.406,0,0,1-2.633-.156,1.292,1.292,0,0,1-.042-.729,1.487,1.487,0,0,1,.289-.576,1.554,1.554,0,0,1,.777-.521c.218-.06.347-.053.346-.064a.269.269,0,0,0-.092-.008.6.6,0,0,0-.112.006.9.9,0,0,0-.152.025,1.579,1.579,0,0,0-1.144,1.117,1.37,1.37,0,0,0,.035.784,1.6,1.6,0,0,0,.492.713,1.417,1.417,0,0,0,1.755.1,1.6,1.6,0,0,0,.572-.651,1.364,1.364,0,0,0,.127-.774,1.578,1.578,0,0,0-1-1.244.926.926,0,0,0-.148-.043.562.562,0,0,0-.111-.019.3.3,0,0,0-.093,0" transform="translate(-137.551 -44.175)" fill="#263238"/><path d="M293.339,25.622s0-.131,0-.385-.011-.636-.02-1.127q-.008-.372-.017-.83c.007-.305.046-.638.07-1s.059-.75.091-1.165a4.064,4.064,0,0,1,.085-.638l.121-.674a22.583,22.583,0,0,1,2.122-6.477,23.559,23.559,0,0,1,5.463-7.15l.958-.838c.339-.263.7-.507,1.053-.766l.538-.386a4.611,4.611,0,0,1,.558-.368l1.176-.681c.2-.113.4-.233.6-.344l.634-.289,1.287-.586c.438-.184.9-.317,1.357-.48L310.1,1.2c.116-.038.23-.083.348-.115l.36-.083A21.9,21.9,0,0,1,313.76.429c.506-.057,1.013-.147,1.529-.179l1.563-.042c.262,0,.526-.025.789-.01l.794.059c.53.045,1.067.065,1.6.133a24.956,24.956,0,0,1,3.208.675l.8.225c.134.039.269.073.4.116l.391.153,1.577.614c.517.23,1.018.507,1.533.76.253.135.52.247.762.4l.733.464a26.565,26.565,0,0,1,2.844,2.058l1.3,1.223.327.307c.1.109.2.224.3.336l.594.678.6.681.534.737.533.742.268.372c.081.129.155.264.233.4l.928,1.6.774,1.692a25.186,25.186,0,0,1,1.793,7.323,25.2,25.2,0,0,1-.633,7.515l-.5,1.792-.67,1.721-.169.427-.207.41-.412.816-.413.81-.484.766-.482.762-.242.379-.275.354-1.093,1.41a26.6,26.6,0,0,1-2.491,2.476l-.652.572c-.216.192-.462.343-.691.516-.469.33-.921.681-1.4.989l-1.463.852-.363.212c-.124.063-.253.118-.379.177l-.758.347a24.9,24.9,0,0,1-3.065,1.165c-.518.15-1.046.252-1.563.38l-.775.182c-.258.055-.523.074-.782.112l-1.551.2c-.514.048-1.03.038-1.538.06a21.983,21.983,0,0,1-3-.113l-.368-.026c-.122-.014-.242-.041-.362-.06l-.719-.125c-.476-.091-.954-.15-1.415-.264l-1.362-.38-.671-.187-.644-.247-1.268-.491a4.653,4.653,0,0,1-.608-.277l-.591-.3c-.39-.2-.784-.386-1.159-.593l-1.077-.679a23.558,23.558,0,0,1-6.505-6.216c-.193-.271-.391-.533-.572-.8l-.478-.818-.461-.787c-.073-.129-.154-.253-.219-.384l-.181-.393-.686-1.489c-.2-.479-.341-.958-.5-1.4l-.224-.647a3.988,3.988,0,0,1-.183-.618l-.27-1.136c-.08-.353-.17-.675-.225-.976s-.078-.577-.111-.822L293.4,26c-.036-.251-.06-.38-.06-.38s.009.129.038.382.076.631.134,1.12q.046.37.1.825c.051.3.137.626.215.98l.261,1.142a4.06,4.06,0,0,0,.18.621l.22.652c.159.443.294.925.5,1.407l.68,1.5.18.4c.064.132.145.256.218.387l.459.793.477.824c.181.268.378.532.572.805a23.606,23.606,0,0,0,6.521,6.276l1.082.687c.378.209.773.4,1.165.6l.594.3a4.652,4.652,0,0,0,.612.28l1.275.5c.215.083.43.171.648.25l.676.19,1.371.385c.464.116.946.176,1.425.269l.724.128c.122.02.242.046.365.061l.37.027a22.074,22.074,0,0,0,3.025.12c.513-.021,1.032-.011,1.55-.058l1.564-.2c.262-.038.528-.057.788-.112l.782-.182c.521-.128,1.053-.231,1.576-.381a25.146,25.146,0,0,0,3.093-1.17l.765-.349c.127-.059.257-.114.383-.178l.366-.213,1.476-.857c.48-.31.937-.663,1.41-1,.231-.174.48-.327.7-.52l.659-.577a26.756,26.756,0,0,0,2.515-2.5l1.1-1.422.278-.358.245-.382.487-.769.489-.773.418-.818.416-.823.208-.413.171-.431.676-1.736.508-1.808a25.389,25.389,0,0,0,.64-7.585,25.371,25.371,0,0,0-1.81-7.391l-.782-1.707-.937-1.611c-.079-.133-.153-.269-.236-.4l-.27-.376-.539-.748-.539-.743-.6-.688-.6-.684c-.1-.113-.2-.229-.3-.339l-.33-.31L332.429,5.7a26.788,26.788,0,0,0-2.872-2.075l-.74-.467c-.245-.157-.514-.269-.77-.405-.519-.255-1.025-.533-1.547-.765l-1.591-.619-.4-.153c-.134-.044-.271-.077-.405-.117L323.3.87a25.021,25.021,0,0,0-3.236-.676c-.54-.068-1.081-.087-1.616-.132l-.8-.058c-.266-.014-.532.009-.8.012L315.275.06c-.52.034-1.031.124-1.541.183a22.068,22.068,0,0,0-2.969.588L310.4.915c-.119.033-.234.078-.351.117l-.7.239c-.459.165-.926.3-1.367.486l-1.294.593-.638.293c-.2.111-.4.233-.6.347l-1.182.69a4.671,4.671,0,0,0-.561.372l-.541.39c-.356.262-.718.508-1.059.773l-.962.847a23.606,23.606,0,0,0-5.469,7.211,22.5,22.5,0,0,0-2.1,6.518q-.06.348-.117.677a4.079,4.079,0,0,0-.08.641q-.043.625-.081,1.169c-.021.362-.056.7-.06,1s.02.583.028.831c.018.492.032.868.042,1.128s.022.383.022.383" transform="translate(-141.965 0)" fill="#263238"/><rect width="16.951" height="3.782" transform="translate(167.699 28.431) rotate(-45)" fill="#ff725e"/><rect width="3.783" height="16.951" transform="translate(167.699 19.12) rotate(-45)" fill="#ff725e"/></g><g clip-path="url(#c)"><path d="M154.663,113.028l-6.282-29.212c-8.712,13.337-6.378,46.682-8.758,58.441s-8.528,20.374-12.072,31.836c-1.542,4.989-3.443,9.9-4.258,15.057s-.445,10.718,2.3,15.162l1.335-4.088c.228,3.419,2.962,6.323,6.182,7.5a16.764,16.764,0,0,0,10.116-.042,20.374,20.374,0,0,0,7.241-3.469c4.724-3.714,6.908-9.887,7.418-15.875s-.412-11.993-.714-18c-.484-9.613,4.579-21.813,4.937-31.432s-4.03-16.88-7.442-25.881" transform="translate(-59.503 -40.576)" fill="#263238"/><path d="M219.885,81.288c-.83-9.214-5.7-18.175-13.5-23.146s-18.477-5.47-26.286-.511a27.446,27.446,0,0,0-10.588,13.727c-2.053,5.512-1.162,10.078-1.115,15.959.025,3.047.412,11.24,3.043,12.779l41.045,7.362c5.257-7.612,8.235-16.957,7.4-26.17" transform="translate(-81.409 -26.216)" fill="#263238"/><path d="M171.167,89.117c.409-8.035,8.964-16.158,16.975-15.408l26.007,4.623-.033,4.321-1.373,74.421s-18.891,1.542-28.613,2.381l.083-28.912s-10.279-1.58-12.565-14.938c-1.137-6.644-.934-17.561-.48-26.488" transform="translate(-82.689 -35.66)" fill="#a57867"/><path d="M181.559,119.638a1.716,1.716,0,0,0,1.676,1.712,1.641,1.641,0,0,0,1.75-1.569,1.716,1.716,0,0,0-1.674-1.713,1.643,1.643,0,0,0-1.753,1.57" transform="translate(-87.895 -57.158)" fill="#263238"/><path d="M178.307,113.085c.215.221,1.5-.757,3.352-.774,1.845-.043,3.211.89,3.409.661.1-.1-.124-.5-.72-.925a4.714,4.714,0,0,0-2.733-.806,4.52,4.52,0,0,0-2.664.9c-.563.442-.751.85-.644.949" transform="translate(-86.307 -53.853)" fill="#263238"/><path d="M215.553,119.638a1.717,1.717,0,0,0,1.676,1.712,1.642,1.642,0,0,0,1.75-1.569,1.717,1.717,0,0,0-1.674-1.713,1.643,1.643,0,0,0-1.752,1.57" transform="translate(-104.352 -57.158)" fill="#263238"/><path d="M212.3,113.089c.216.221,1.506-.756,3.352-.774,1.845-.044,3.212.89,3.41.661.1-.1-.123-.5-.721-.925a4.7,4.7,0,0,0-2.732-.806,4.526,4.526,0,0,0-2.665.9c-.561.443-.75.85-.644.949" transform="translate(-102.764 -53.855)" fill="#263238"/><path d="M195.222,127.077a12.234,12.234,0,0,0-3.007-.505c-.472-.043-.92-.131-1-.452a2.4,2.4,0,0,1,.3-1.4q.644-1.72,1.352-3.608c1.875-5.137,3.226-9.358,3.019-9.432s-1.9,4.03-3.772,9.167q-.676,1.9-1.292,3.629a2.729,2.729,0,0,0-.222,1.854,1.184,1.184,0,0,0,.784.68,3.2,3.2,0,0,0,.8.1,12.021,12.021,0,0,0,3.041-.032" transform="translate(-92.223 -54.064)" fill="#263238"/><path d="M196.722,179.269a35.435,35.435,0,0,0,18.323-5.03s-4.545,9.439-18.412,8.38Z" transform="translate(-95.193 -84.351)" fill="#7c5246"/><path d="M211.146,108.019c.393.362,1.92-.7,3.964-1.466,2.028-.808,3.872-1.05,3.919-1.582.014-.251-.473-.529-1.324-.636a7.344,7.344,0,0,0-6.006,2.322c-.559.651-.733,1.186-.553,1.361" transform="translate(-102.186 -50.491)" fill="#263238"/><path d="M179.094,105.9c.258.519,1.883.569,3.689,1.109,1.821.488,3.24,1.3,3.721.992.216-.156.1-.632-.447-1.217a6.261,6.261,0,0,0-2.786-1.586,6.157,6.157,0,0,0-3.184-.107c-.764.214-1.1.562-.993.81" transform="translate(-86.692 -50.799)" fill="#263238"/><path d="M195.77,147.9l4.56-1.4a2.7,2.7,0,0,1,1.987-.086,2.015,2.015,0,0,1,.933,1.362c.137.551.152,1.127.283,1.679.17.721.5,1.575.006,2.124a1.822,1.822,0,0,1-1.183.441l-4.417.523a3.421,3.421,0,0,1-1.693-.085,2.3,2.3,0,0,1-1.238-1.5,6.8,6.8,0,0,1-.195-1.995,1.7,1.7,0,0,1,.148-.848.585.585,0,0,1,.733-.284" transform="translate(-94.312 -70.802)" fill="#7c5246"/><path d="M202.626,147.037a1.269,1.269,0,0,0-.309-.972.938.938,0,0,0-.75-.106,13.1,13.1,0,0,0-1.9.51l-4.182,1.35-.026.166a1.235,1.235,0,0,0,.3,1.282,1.651,1.651,0,0,0,1.2.43,4.92,4.92,0,0,0,1.305.043c1.174-.351,2.368-.626,3.542-.977a1.328,1.328,0,0,0,.668-.46,2.576,2.576,0,0,0,.149-1.266" transform="translate(-94.589 -70.647)" fill="#fff"/><path d="M196.936,153.829a1.535,1.535,0,0,0,.282,1.085c.195.171.359.4.618.383a17.085,17.085,0,0,0,2.148.029c1.426-.281,3.062-.641,4.488-.921l.2-.217c.21-.377-.425-1.437-.717-1.755a1.743,1.743,0,0,0-1.16-.5,5.189,5.189,0,0,0-1.285.117l-3.6.633a.97.97,0,0,0-.983,1.148" transform="translate(-95.337 -73.548)" fill="#fff"/><path d="M196.178,152.09a21.833,21.833,0,0,0,3.034-.1c.931-.113,2.026-.336,3.245-.614a1.975,1.975,0,0,0,.781-.3.842.842,0,0,0,.256-.7,4.01,4.01,0,0,0-.171-.968q-.128-.5-.258-1.022a4.728,4.728,0,0,0-.74-1.844,1.417,1.417,0,0,0-1.507-.509c-.57.112-1.149.328-1.681.477l-1.485.442a17.386,17.386,0,0,1-2.977.756,17.351,17.351,0,0,1,2.861-1.118l1.465-.5c.535-.169,1.069-.393,1.726-.54a2.234,2.234,0,0,1,1.071.015,1.883,1.883,0,0,1,.939.651,5.037,5.037,0,0,1,.846,2.03c.089.355.177.707.264,1.053a4.26,4.26,0,0,1,.175,1.076,1.348,1.348,0,0,1-.461,1.1,2.376,2.376,0,0,1-1,.386,26.2,26.2,0,0,1-3.311.509,6.334,6.334,0,0,1-3.072-.282" transform="translate(-94.243 -70.435)" fill="#263238"/><path d="M179.555,63.171c-4.929,3.339-8.339,8.837-9.992,14.862l.813,4.951c1.154-2.4,1.3-4.965,3.662-7.424a17.029,17.029,0,0,1,7.642-4c8.918-2.27,11.922-5.508,15.86-11.333a23.693,23.693,0,0,0-17.985,2.943" transform="translate(-82.088 -28.85)" fill="#263238"/><path d="M235.873,73.782c-1.169-3.926-4.646-6.83-8.461-8.321s-7.979-1.777-12.069-2l-3.227,4.969c-2.036,2.9-.862,7.087,1.48,9.751s5.6,4.308,8.463,6.4,5.531,5.019,5.69,8.562c.084,1.853-.495,3.89.507,5.451,1.168,1.82,4.059.082,5.719-1.3a7.272,7.272,0,0,0,2.391-5.659c.018-2.162-.562-2.736-.626-4.9-.128-4.34,1.372-8.79.133-12.951" transform="translate(-102.182 -30.722)" fill="#263238"/><path d="M149.854,142.123a1.035,1.035,0,0,1-.144-.132c-.09-.092-.23-.223-.413-.394-.365-.348-.972-.767-1.716-1.377a6.939,6.939,0,0,1-1.892-2.916,8.506,8.506,0,0,1-.521-4.571,7.088,7.088,0,0,1,1.016-2.5A12.45,12.45,0,0,1,148.075,128a55.31,55.31,0,0,0,4.671-4.366,8.165,8.165,0,0,0,1.645-2.965,5.46,5.46,0,0,0-.2-3.466c-.909-2.27-2.9-4-4.276-6.243a8.975,8.975,0,0,1-1.281-3.671,13.2,13.2,0,0,1,.134-3.773,33.137,33.137,0,0,1,2.131-6.778,75.444,75.444,0,0,1,5.561-10.647c1.8-2.91,3.358-5.195,4.436-6.774l1.254-1.809.332-.466a1.011,1.011,0,0,1,.121-.154,1.081,1.081,0,0,1-.1.169l-.31.481-1.211,1.837c-1.051,1.6-2.586,3.9-4.361,6.814a77.239,77.239,0,0,0-5.494,10.642,33.16,33.16,0,0,0-2.1,6.728,12.968,12.968,0,0,0-.128,3.7,8.7,8.7,0,0,0,1.246,3.563c1.337,2.2,3.344,3.932,4.291,6.287a5.716,5.716,0,0,1,.2,3.63,8.39,8.39,0,0,1-1.7,3.055,54.392,54.392,0,0,1-4.707,4.369,12.273,12.273,0,0,0-1.872,2.182,6.909,6.909,0,0,0-1,2.429,8.393,8.393,0,0,0,.475,4.482,6.892,6.892,0,0,0,1.821,2.891c.723.614,1.331,1.054,1.684,1.416a5.82,5.82,0,0,1,.521.565" transform="translate(-70.219 -37.22)" fill="#263238"/><path d="M228.585,110.179a5.932,5.932,0,0,0,.777-1.3,3.785,3.785,0,0,0,.2-1.74,7.9,7.9,0,0,0-.665-2.252c-.35-.8-.809-1.653-1.3-2.571a14.507,14.507,0,0,0-1.79-2.753,33.779,33.779,0,0,0-5.608-5.055,32,32,0,0,1-5.62-5.129,12.633,12.633,0,0,1-1.747-2.842,10.634,10.634,0,0,1-.777-2.8,7.808,7.808,0,0,1,.5-4.139,4.981,4.981,0,0,1,.792-1.317,12.028,12.028,0,0,0-.7,1.357,7.916,7.916,0,0,0-.413,4.073,10.639,10.639,0,0,0,.793,2.738,12.569,12.569,0,0,0,1.736,2.776,32.58,32.58,0,0,0,5.591,5.073A33.136,33.136,0,0,1,226,99.407a14.553,14.553,0,0,1,1.8,2.806c.478.92.931,1.78,1.274,2.6a7.866,7.866,0,0,1,.641,2.312,3.822,3.822,0,0,1-.248,1.793l-.146.323c-.052.1-.114.182-.165.263a2.093,2.093,0,0,1-.289.388,2.245,2.245,0,0,1-.275.287" transform="translate(-102.621 -37.896)" fill="#263238"/><path d="M202.949,151.414a8.959,8.959,0,0,1-5.356.983c0-.081,1.23-.063,2.706-.339s2.619-.72,2.65-.644" transform="translate(-95.657 -73.297)" fill="#263238"/><path d="M170.734,87.664a2.747,2.747,0,0,1-.091-.436c-.057-.286-.118-.713-.177-1.265a21.29,21.29,0,0,1,.044-4.7,22.208,22.208,0,0,1,1.892-6.7,21.935,21.935,0,0,1,5.028-6.867,22.173,22.173,0,0,1,7.248-4.468,9.3,9.3,0,0,1,3.673-.7,7.171,7.171,0,0,1,3.138.882,2.9,2.9,0,0,1,1.034,1,3.129,3.129,0,0,1,.369,1.23,4.015,4.015,0,0,1-.311,2,2.867,2.867,0,0,1-.75,1.038,1.639,1.639,0,0,1-.368.253c-.009-.013.124-.093.331-.294a2.964,2.964,0,0,0,.69-1.04,3.97,3.97,0,0,0,.258-1.946,3,3,0,0,0-.367-1.159,2.738,2.738,0,0,0-.984-.928,7.041,7.041,0,0,0-3.051-.822,9.14,9.14,0,0,0-3.575.706,22.207,22.207,0,0,0-7.152,4.434,21.97,21.97,0,0,0-4.987,6.774,22.471,22.471,0,0,0-1.927,6.616,22.7,22.7,0,0,0-.129,4.663c.043.551.086.978.126,1.267a2.721,2.721,0,0,1,.038.444" transform="translate(-82.472 -30.272)" fill="#455a64"/><path d="M215.181,54.351a1.325,1.325,0,0,1,.265.373,6.152,6.152,0,0,1,.513,1.138A6.623,6.623,0,0,1,215.117,62a9.609,9.609,0,0,1-1.184,1.424,7.431,7.431,0,0,1-.95.807,1.352,1.352,0,0,1-.4.231c-.027-.038.507-.407,1.209-1.17a10.805,10.805,0,0,0,1.114-1.429,7.41,7.41,0,0,0,.939-1.986,7.538,7.538,0,0,0-.072-3.961c-.291-.992-.642-1.545-.6-1.568" transform="translate(-102.916 -26.312)" fill="#455a64"/><path d="M28.653,257.475s2.274,15.689,2.842,18.19,5.116,14.918,11.369,16.257,10.8-2.729,12.96-5.571,25.5-25.506,25.5-25.506L69.885,246.218,49.8,267.479a9.118,9.118,0,0,1-5.571-2.728c-2.274-2.5-4.206-10.459-4.206-10.459Z" transform="translate(-13.871 -119.197)" fill="#a57867"/><path d="M71.9,305.041a4.657,4.657,0,0,1,.3-.68,16.887,16.887,0,0,0,.73-1.876,15.209,15.209,0,0,0-1.517-12.75,16.817,16.817,0,0,0-1.15-1.652,4.691,4.691,0,0,1-.449-.592,3.416,3.416,0,0,1,.529.524,13.1,13.1,0,0,1,1.231,1.618,14.679,14.679,0,0,1,1.536,12.912,13.117,13.117,0,0,1-.817,1.862,3.4,3.4,0,0,1-.392.634" transform="translate(-33.797 -139.178)" fill="#7c5246"/><path d="M27.043,228.019s.84-4.479.35-7a43,43,0,0,1-.77-8.258c.14-1.47.369-9.386-1.327-10.5-1.933-1.265-3.751-.537-4.1,4.5s.39,7.253-.66,8.793-1.259,2.379-2.03,1.959a11.943,11.943,0,0,1-4.058-2.169,40.091,40.091,0,0,1-5.6-6.018,16.884,16.884,0,0,0-2.158-3.619,1.924,1.924,0,0,0-3.3,1.4,11.574,11.574,0,0,0,1.33,4.6c2.239,4.619,4.96,7.12,5.808,8.328.8,1.146,1.329,1.19.07,2.1s-3.289-.205-4.479-.767-1.959-.982-1.959-.982-.464-2.271-2.107-2.551a1.564,1.564,0,0,0-1.681,1,5.768,5.768,0,0,0-.287,2.958,4.589,4.589,0,0,0,2.231,3.382c1.2.572,2.916,1.245,5.251,2.193a26.342,26.342,0,0,0,4.063,1.148c.208.044.629.848.425.908a14.655,14.655,0,0,1-3.008-.093,3.979,3.979,0,0,0-1.509-1.291c-1.116-.406-2.141.05-2.231.89-.145,1.351.946,4.306,1.765,4.785a4.416,4.416,0,0,0,1.635.347c1.05.21,4.114.653,4.114.653A41.3,41.3,0,0,0,15.7,240.1c.7.959,4.978,1.286,4.978,1.286s.07,1.679,2.169,1.05,2.379-1.75,2.379-1.75,2.83-1.6,2.239-3.458-.677-7.526-.42-9.209" transform="translate(0 -97.657)" fill="#a57867"/><path d="M38.007,246.057a1.5,1.5,0,0,1-.232-.394,10.26,10.26,0,0,1-.491-1.145,14.683,14.683,0,0,1-.554-8.113,10.256,10.256,0,0,1,.331-1.2,1.506,1.506,0,0,1,.176-.422c.044.013-.141.635-.32,1.659a16.737,16.737,0,0,0,.547,8.015c.317.991.584,1.581.543,1.6" transform="translate(-17.623 -113.661)" fill="#7c5246"/><path d="M46.209,217.665a2.664,2.664,0,0,1-3-1.071,9.824,9.824,0,0,0,1.414.782,9.763,9.763,0,0,0,1.59.289" transform="translate(-20.913 -104.854)" fill="#7c5246"/><path d="M13.789,218.824a7,7,0,0,0,.838-1.173,2.572,2.572,0,0,0,.277-.95c.017-.252-.033-.409.006-.427s.149.13.184.421a1.991,1.991,0,0,1-.225,1.074c-.372.794-1.053,1.136-1.079,1.055" transform="translate(-6.674 -104.7)" fill="#7c5246"/><path d="M5.84,241.173a9.413,9.413,0,0,0,.993-2.885,9.4,9.4,0,0,0-.245-3.041,2.173,2.173,0,0,1,.362.849,5.829,5.829,0,0,1-.549,4.345,2.155,2.155,0,0,1-.562.732" transform="translate(-2.825 -113.886)" fill="#7c5246"/><path d="M49.489,270.375a2.676,2.676,0,0,1,0,.951,4.451,4.451,0,0,1-.223,1.02,2.526,2.526,0,0,1-.72,1.086,2.2,2.2,0,0,1-.631.291c-.2.067-.4.122-.585.172l-.991.253a4.955,4.955,0,0,1-.92.206,2.529,2.529,0,0,1,.867-.388c.277-.094.609-.2.976-.309a4.965,4.965,0,0,0,1.111-.431,3.3,3.3,0,0,0,.929-1.93,4.456,4.456,0,0,1,.192-.923" transform="translate(-21.986 -130.892)" fill="#7c5246"/><path d="M41.573,273.471a3.255,3.255,0,0,1-.279.532c-.186.336-.436.832-.724,1.458s-.611,1.382-1.042,2.2a4.307,4.307,0,0,1-.841,1.206,1.439,1.439,0,0,1-.74.358,1.394,1.394,0,0,1-.833-.156,2,2,0,0,1-.989-1.259,3.646,3.646,0,0,1-.037-1.473c.157-.914.361-1.7.507-2.379l.377-1.591a2.61,2.61,0,0,1,.174-.576,2.611,2.611,0,0,1-.071.6c-.08.436-.177.973-.294,1.609-.12.676-.308,1.487-.447,2.374a3.452,3.452,0,0,0,.045,1.37,1.749,1.749,0,0,0,.857,1.089,1.087,1.087,0,0,0,1.278-.161,4.192,4.192,0,0,0,.8-1.125c.436-.793.775-1.543,1.089-2.16a14.177,14.177,0,0,1,.805-1.43,2.134,2.134,0,0,1,.368-.478" transform="translate(-17.443 -131.575)" fill="#7c5246"/><path d="M13.135,252.245c0-.029.287-.09.73.052a2.734,2.734,0,0,1,1.385,1.095,4.386,4.386,0,0,1,.859,2.3,18.714,18.714,0,0,0-1.082-2.148,2.983,2.983,0,0,0-1.23-1.067c-.387-.174-.663-.185-.662-.229" transform="translate(-6.359 -122.096)" fill="#7c5246"/><path d="M19.284,255.2c.008.072-.463.177-1.05.129s-1.034-.228-1.015-.3.477-.015,1.037.029,1.021.063,1.028.139" transform="translate(-8.336 -123.446)" fill="#7c5246"/><path d="M29.468,269.69a5.012,5.012,0,0,1-.628-.653c-.379-.407-.925-.947-1.555-1.514a18.767,18.767,0,0,0-1.686-1.36c-.452-.32-.766-.452-.754-.492A1.8,1.8,0,0,1,25.7,266a11.174,11.174,0,0,1,1.763,1.321,7.721,7.721,0,0,1,2,2.366" transform="translate(-12.027 -128.611)" fill="#7c5246"/><path d="M320.28,236.428l22.554,20.912c.841.17,8.7-5.98,9.895-9.062s1.949-4.536,1.949-4.536l11.844,5.8s-4.2,12.593-6.9,17.54-4.5,10.644-9.3,11.844a12.024,12.024,0,0,1-11.393-2.849c-3-2.548-25.187-19.339-25.187-19.339Z" transform="translate(-151.89 -114.458)" fill="#a57867"/><path d="M373.2,184.154a1.706,1.706,0,0,0-2.54.663c-.414.9-.535,2.325.51,4.487,2.2,4.545,2.707,3.225,4.07,5.952a41.505,41.505,0,0,1,3.181,7.953c.757,2.8.909,3.56.909,3.56a16,16,0,0,1-2.8.379c-1.136,0-4.317-.984-4.393.833a3.111,3.111,0,0,0,2.878,3.56,14.115,14.115,0,0,0,4.317,0s.909,3.711,2.651,5.226,6.287,3.56,7.953,3.409a13.7,13.7,0,0,0,3.994-1.381s.475.168.475-2.482a30.348,30.348,0,0,0-2.2-9.923,64.37,64.37,0,0,1-3.333-7.574c-.681-2.348,2.878-8.18,2.878-8.18l-.075-1.136-3.56-10.755s-2.726-.454-2.954,2.045l-.243-2.949-4.074-4.928s-2.424.682-.757,3.939l1.212,2.5v5.226l-.454,5.3a3.489,3.489,0,0,0-1.591,2.424,53.659,53.659,0,0,1-4.146-5.952,6.375,6.375,0,0,0-1.909-2.2" transform="translate(-179.293 -83.709)" fill="#a57867"/><path d="M389.086,205.8a7.217,7.217,0,0,0-.6.533,4.018,4.018,0,0,0-.88,1.908v-.025c.1,1.15.178,2.572.24,4.108.066,1.928.124,3.672.17,5.022q.026.894.044,1.522a2.25,2.25,0,0,1-.015.561,2.268,2.268,0,0,1-.089-.554c-.039-.358-.084-.877-.13-1.519-.091-1.284-.171-3.06-.249-5.021-.061-1.534-.126-2.953-.19-4.1v-.016l0-.009a3.893,3.893,0,0,1,1.005-1.959,2.258,2.258,0,0,1,.493-.367c.127-.062.2-.09.2-.08" transform="translate(-187.538 -99.628)" fill="#7c5246"/><path d="M390.8,233.622a2.707,2.707,0,0,1-.761.706,10.754,10.754,0,0,1-2.2,1.2,15.778,15.778,0,0,1-2.377.768,3.417,3.417,0,0,1-1.023.159c-.02-.082,1.516-.437,3.3-1.175a15.2,15.2,0,0,0,2.193-1.109,7.537,7.537,0,0,1,.868-.549" transform="translate(-186.113 -113.098)" fill="#7c5246"/><path d="M394.112,251.6c-.041.025-.308-.415-.862-1.018a8.46,8.46,0,0,0-5.612-2.695c-.817-.055-1.327.012-1.334-.036,0-.018.123-.048.353-.088a5.307,5.307,0,0,1,.988-.066,7.73,7.73,0,0,1,5.746,2.759,5.332,5.332,0,0,1,.566.813c.113.2.168.321.152.331" transform="translate(-187.015 -119.914)" fill="#7c5246"/><path d="M396.6,221.18a6.463,6.463,0,0,0,.09-.724,4.615,4.615,0,0,0-.461-1.91,9.362,9.362,0,0,1-.993-2.834,5.432,5.432,0,0,1,.876-3.563,5.33,5.33,0,0,1,.624-.761,1.409,1.409,0,0,1,.881-.487.748.748,0,0,1,.507.171,1.38,1.38,0,0,1,.311.378c.152.271.266.526.391.782.484,1.017.877,1.953,1.184,2.747s.528,1.447.67,1.9a3.644,3.644,0,0,1,.189.716,4.24,4.24,0,0,1-.288-.681c-.172-.442-.42-1.082-.747-1.864s-.737-1.7-1.23-2.709c-.124-.248-.25-.517-.388-.757a.684.684,0,0,0-.587-.418,1.177,1.177,0,0,0-.7.413,5.18,5.18,0,0,0-.59.722,5.267,5.267,0,0,0-.853,3.389,9.7,9.7,0,0,0,.922,2.786,4.409,4.409,0,0,1,.391,1.988,2.2,2.2,0,0,1-.111.544c-.043.12-.076.178-.084.175" transform="translate(-191.321 -102.099)" fill="#7c5246"/><path d="M399.316,185.275a5.486,5.486,0,0,0-.407,1.9,6.817,6.817,0,0,0,.305,2.083c.229.755.627,1.57.87,2.484a5.047,5.047,0,0,1,.122,2.664,7.857,7.857,0,0,1-.992,1.933,4.246,4.246,0,0,0-.579,1.293c-.069.328-.054.519-.08.521a1.153,1.153,0,0,1-.023-.538,3.837,3.837,0,0,1,.517-1.371,8.362,8.362,0,0,0,.916-1.9,4.943,4.943,0,0,0-.141-2.53c-.237-.894-.62-1.69-.849-2.487a6.572,6.572,0,0,1-.257-2.158,4.125,4.125,0,0,1,.322-1.43,1.4,1.4,0,0,1,.274-.462" transform="translate(-192.928 -89.694)" fill="#7c5246"/><path d="M366.047,289.36a1.855,1.855,0,0,1-.361-.407,8.19,8.19,0,0,1-.781-1.261,9.46,9.46,0,0,1-1-4.761,8.188,8.188,0,0,1,1.806-4.507,10.688,10.688,0,0,1,.983-1.108,1.958,1.958,0,0,1,.413-.353c.036.033-.52.573-1.243,1.573a8.473,8.473,0,0,0-1.69,4.409,9.927,9.927,0,0,0,.9,4.663c.518,1.12,1.013,1.72.971,1.75" transform="translate(-176.166 -134.081)" fill="#7c5246"/><path d="M397.554,259.592a2.7,2.7,0,0,1-1.258.007,6.988,6.988,0,0,1-2.786-1.2,20.031,20.031,0,0,1-2.321-1.938,2,2,0,0,1-.53-.77c-.07-.216-.044-.344-.03-.343s.034.119.127.3a2.254,2.254,0,0,0,.563.67c.589.484,1.388,1.2,2.342,1.855a7.8,7.8,0,0,0,2.671,1.231c.74.167,1.22.134,1.221.18" transform="translate(-189.101 -123.619)" fill="#7c5246"/><path d="M394.6,206.13c-.045.061-.441-.16-.924-.432s-.875-.5-.847-.567.481.051.979.334.836.608.792.666" transform="translate(-190.173 -99.297)" fill="#7c5246"/><path d="M379.353,205.152c.034-.006.118.24.155.658a2.989,2.989,0,0,1-.292,1.617,2.043,2.043,0,0,1-1.281,1.039c-.429.1-.693-.011-.684-.037,0-.045.263-.01.629-.144a2.1,2.1,0,0,0,1.1-.982,3.47,3.47,0,0,0,.34-1.488,2.437,2.437,0,0,1,.035-.662" transform="translate(-182.632 -99.317)" fill="#7c5246"/><path d="M256.376,99.265a.547.547,0,0,1,.028-.139c.028-.105.063-.237.107-.4l.424-1.539a23.144,23.144,0,0,0,.923-5.761,11.04,11.04,0,0,0-.687-3.936,7.681,7.681,0,0,0-2.686-3.629,23.681,23.681,0,0,0-4.683-2.023,6.729,6.729,0,0,1-2.329-1.472,4.219,4.219,0,0,1-1.125-2.6,9.657,9.657,0,0,1,.316-2.814c.2-.9.457-1.775.591-2.647a11.5,11.5,0,0,0-.317-5.036,11.689,11.689,0,0,0-2.089-4.073,10.383,10.383,0,0,0-1.449-1.5,10.766,10.766,0,0,0-1.564-1.125,12.055,12.055,0,0,0-5.523-1.695,12.941,12.941,0,0,0-1.59.019l-.413.035a.56.56,0,0,1-.142,0,8.718,8.718,0,0,1,2.149-.16,11.9,11.9,0,0,1,5.616,1.636,10.756,10.756,0,0,1,1.6,1.13,10.467,10.467,0,0,1,1.488,1.519,11.851,11.851,0,0,1,2.154,4.144,11.7,11.7,0,0,1,.339,5.147c-.271,1.775-1.008,3.534-.9,5.4a3.951,3.951,0,0,0,1.051,2.439,6.488,6.488,0,0,0,2.236,1.414,23.425,23.425,0,0,1,4.724,2.064,7.887,7.887,0,0,1,2.752,3.753,11.151,11.151,0,0,1,.668,4.015,22.167,22.167,0,0,1-1.013,5.788c-.2.666-.36,1.179-.473,1.527l-.133.394a.548.548,0,0,1-.054.132" transform="translate(-113.364 -28.448)" fill="#263238"/><path d="M204.245,200.33l-26.466-6.677c.035,7.961-2.343,17.086-15.595,16.752-12.436-.314-14.327-16.268-14.327-16.268l-26.083,5.626a20.823,20.823,0,0,0-10.756,6.086L95.744,223.9l12.525,23.682,13.4-10.523,1.076.123,4.764,34.776-3.965,34.921H202.36l-9.1-33.55,7.906-37.492,10.465,7.434c6.062-6.645,15.6-19.1,15.6-19.1l-17.939-20.324a8.682,8.682,0,0,0-5.043-3.518" transform="translate(-46.351 -93.75)" fill="#ff725e"/><path d="M141.4,246.368a2.151,2.151,0,0,1,.065-.382c.06-.273.139-.632.238-1.082.11-.468.239-1.042.365-1.713s.3-1.43.43-2.28.3-1.775.43-2.778c.152-1,.254-2.074.376-3.2.2-2.262.343-4.757.345-7.379-.013-2.622-.161-5.117-.374-7.379-.126-1.129-.233-2.2-.389-3.2-.13-1-.291-1.929-.441-2.776-.135-.849-.307-1.608-.439-2.278s-.26-1.244-.371-1.712l-.242-1.081a2.128,2.128,0,0,1-.067-.382,2.045,2.045,0,0,1,.119.368q.111.4.291,1.07c.127.465.273,1.036.416,1.705s.332,1.426.479,2.275c.163.847.335,1.775.475,2.779.166,1,.281,2.077.415,3.209.226,2.268.383,4.772.4,7.4,0,2.631-.149,5.135-.367,7.4-.129,1.132-.24,2.21-.4,3.21-.136,1-.305,1.933-.464,2.78-.143.85-.326,1.608-.469,2.277s-.285,1.242-.41,1.707L141.515,246a2.126,2.126,0,0,1-.118.369" transform="translate(-68.416 -101.054)" fill="#ff725e"/><path d="M205.69,317.311c-.3.672-2.416.475-5.576-.5a70.378,70.378,0,0,1-22.327-12.381c-2.5-2.165-3.787-3.855-3.376-4.466.852-1.238,8.048,2.263,16.58,6.978,8.516,4.738,15.3,8.989,14.7,10.367" transform="translate(-84.398 -145.096)" fill="#ff725e"/><path d="M137.964,243.535a1.209,1.209,0,0,1-.1-.277l-.225-.805c-.186-.7-.469-1.714-.836-2.958-.73-2.49-1.849-5.9-3.339-9.567s-3.074-6.889-4.29-9.181c-.607-1.147-1.11-2.069-1.467-2.7l-.4-.734a1.2,1.2,0,0,1-.124-.266,1.2,1.2,0,0,1,.171.238l.445.709c.384.616.914,1.526,1.544,2.664a87.069,87.069,0,0,1,7.644,18.786c.344,1.254.6,2.275.755,2.985.072.331.13.6.176.818a1.176,1.176,0,0,1,.044.289" transform="translate(-61.572 -105.075)" fill="#263238"/><path d="M227.762,196.363a.711.711,0,0,1,.028.156l.056.461a12.66,12.66,0,0,1,.074,1.783,16.111,16.111,0,0,1-.317,2.809,17.649,17.649,0,0,1-7.393,10.935,20.78,20.78,0,0,1-11.3,3.444,18.346,18.346,0,0,1-11.309-3.278,16.42,16.42,0,0,1-3.555-3.808,23.231,23.231,0,0,1-2.161-3.99,45.19,45.19,0,0,1-2.043-6.231l-.433-1.729c-.043-.187-.077-.336-.1-.452a.08.08,0,1,1,.026-.007l.13.446.481,1.714a48.869,48.869,0,0,0,2.117,6.184,23.368,23.368,0,0,0,2.17,3.939,16.293,16.293,0,0,0,3.521,3.736,18.191,18.191,0,0,0,11.155,3.207,20.648,20.648,0,0,0,11.162-3.381,17.662,17.662,0,0,0,7.384-10.761,16.774,16.774,0,0,0,.36-2.781,14.779,14.779,0,0,0-.024-1.775c-.012-.191-.022-.344-.029-.462a.708.708,0,0,1,0-.159" transform="translate(-91.634 -95.035)" fill="#263238"/><path d="M172.653,249.791a7.927,7.927,0,0,0-1.662-2.736,3.207,3.207,0,0,0-2.938-.939c-1.037.27-1.9,1.223-2.97,1.119-1.42-.138-2-1.974-3.279-2.612a2.272,2.272,0,0,0-3.114,1.654,2.653,2.653,0,0,0-1.227,1.595,1.334,1.334,0,0,0,.873,1.676c.894.162,1.662-.88,2.562-.754,1.005.139,1.263,1.518,2.091,2.1.969.687,2.293.08,3.318-.521s2.376-1.175,3.314-.447a4.5,4.5,0,0,1,1,1.582c.3.555.829,1.1,1.451,1.009a1.25,1.25,0,0,0,.943-1.167,3.4,3.4,0,0,0-.359-1.562" transform="translate(-76.205 -118.33)" fill="#fff"/><path d="M214.545,386.595a7.94,7.94,0,0,0-1.662-2.736,3.208,3.208,0,0,0-2.938-.939c-1.037.271-1.9,1.224-2.97,1.119-1.42-.139-2-1.974-3.279-2.612a2.272,2.272,0,0,0-3.114,1.655,2.647,2.647,0,0,0-1.227,1.594,1.333,1.333,0,0,0,.873,1.675c.894.162,1.662-.879,2.562-.754,1.005.14,1.263,1.518,2.091,2.1.969.687,2.293.079,3.318-.521s2.376-1.175,3.314-.447a4.51,4.51,0,0,1,1,1.582c.3.556.829,1.1,1.451,1.009a1.25,1.25,0,0,0,.943-1.167,3.4,3.4,0,0,0-.359-1.562" transform="translate(-96.486 -184.559)" fill="#fff"/><path d="M114.636,279.121a5.389,5.389,0,0,0,1.391,1.669,2.177,2.177,0,0,0,2.066.334c.669-.286,1.154-1.013,1.88-1.051.967-.05,1.543,1.123,2.464,1.422a1.542,1.542,0,0,0,1.923-1.424,1.8,1.8,0,0,0,.662-1.194.9.9,0,0,0-.755-1.036c-.615-.019-1.027.757-1.643.764-.689.008-1-.891-1.615-1.2-.72-.363-1.547.178-2.174.684s-1.476,1.028-2.179.635a3.064,3.064,0,0,1-.829-.961,1.073,1.073,0,0,0-1.076-.53.848.848,0,0,0-.515.878,2.309,2.309,0,0,0,.4,1.012" transform="translate(-55.303 -134.197)" fill="#fff"/><path d="M224.7,318.024a5.383,5.383,0,0,0-1.128-1.857,2.176,2.176,0,0,0-1.993-.637c-.7.184-1.292.83-2.016.759-.964-.094-.908-1.129-1.775-1.562l-3.35,1.809c-.13.463.073,1.237.546,1.323.606.11,1.128-.6,1.739-.512.683.095.857,1.03,1.419,1.428.658.466,1.556.054,2.252-.353s1.612-.8,2.249-.3a3.058,3.058,0,0,1,.676,1.073c.2.377.563.748.985.685a.848.848,0,0,0,.64-.792,2.313,2.313,0,0,0-.243-1.06" transform="translate(-103.796 -152.363)" fill="#fff"/><path d="M168.824,198.076a12.745,12.745,0,0,1-.815,2.481c-.452.621-1.312.04-1.983.929a10.884,10.884,0,0,0-.274,9.293c.489,1.1,1.41,2.241,2.606,2.134a2.944,2.944,0,0,0,1.545-.773c1.4-1.156,2.567-3.04,1.877-4.718a13.56,13.56,0,0,0-1.745-2.319c-.554-.8-.75-2.054.034-2.628.893-.654,2.4.06,3.146-.755s-.075-2.259.538-3.174c.641-.957,1.912-1.511,2.863-2.16Z" transform="translate(-79.802 -95.073)" fill="#fff"/><path d="M231.648,243.833a2.6,2.6,0,0,0-3.04,1.109c-.388.586-.712,1.376-1.41,1.462-.268.033-.538-.056-.808-.048a1.845,1.845,0,0,0-1.459,1.29,8.7,8.7,0,0,1-.789,1.9c-.4.556-1.175.036-1.775.832a9.742,9.742,0,0,0-.245,8.319c.437.982,1.262,2.006,2.332,1.91a2.63,2.63,0,0,0,1.383-.692c1.253-1.035,2.3-2.721,1.681-4.224a12.141,12.141,0,0,0-1.563-2.076c-.5-.715-.671-1.839.03-2.352.8-.586,2.146.053,2.816-.676s-.067-2.022.482-2.841c.573-.857,1.974-.478,2.826-1.059a1.74,1.74,0,0,0-.46-2.85" transform="translate(-107.137 -117.964)" fill="#fff"/><path d="M181.148,344.041a2.6,2.6,0,0,0-3.04,1.109c-.388.586-.712,1.377-1.41,1.462-.269.033-.539-.056-.809-.048a1.845,1.845,0,0,0-1.459,1.29,8.7,8.7,0,0,1-.789,1.9c-.4.556-1.175.036-1.775.832a9.741,9.741,0,0,0-.246,8.319c.437.982,1.262,2.006,2.332,1.91a2.629,2.629,0,0,0,1.383-.692c1.253-1.035,2.3-2.721,1.681-4.224a12.143,12.143,0,0,0-1.563-2.076c-.5-.715-.671-1.839.03-2.352.8-.586,2.146.053,2.816-.676s-.067-2.022.482-2.841c.573-.857,1.974-.478,2.826-1.059a1.74,1.74,0,0,0-.46-2.85" transform="translate(-82.689 -166.476)" fill="#fff"/><path d="M297.408,239.717a2.6,2.6,0,0,0,2.036,2.515c.68.177,1.533.228,1.84.86.118.244.121.527.217.78a1.844,1.844,0,0,0,1.694.962,8.688,8.688,0,0,1,2.05.131c.657.2.415,1.1,1.362,1.409a9.743,9.743,0,0,0,7.949-2.467c.787-.733,1.488-1.845,1.05-2.827A2.634,2.634,0,0,0,314.5,240c-1.385-.849-3.32-1.291-4.54-.219a12.128,12.128,0,0,0-1.457,2.151c-.515.7-1.521,1.231-2.235.735-.813-.565-.645-2.047-1.553-2.444s-1.891.72-2.844.467c-1-.265-1.092-1.713-1.919-2.33a1.74,1.74,0,0,0-2.546,1.36" transform="translate(-143.976 -115.272)" fill="#fff"/><path d="M178.091,294.035a1.994,1.994,0,0,0-2.328-1.158c-1.467.421-2.136,2.442-3.652,2.611-1.007.112-2.13-.657-2.964-.081-.48.332-.639,1-1.125,1.326a1.344,1.344,0,0,1-1.773-.47,2.274,2.274,0,0,1-.133-1.965,7.078,7.078,0,0,1,1.911-2.574c.351-.347.813-.723,1.283-.574.273.087.462.332.711.473.764.433,1.758-.343,1.876-1.214a3.178,3.178,0,0,0-.765-2.166,5.529,5.529,0,0,0-2.048-1.349,1.889,1.889,0,0,0-2.174.713c-.2.368-.226.814-.44,1.175-.592,1-2.112.771-3.149,1.306a2.291,2.291,0,0,0-.229,3.731,6.939,6.939,0,0,0-.937,3.521,2.715,2.715,0,0,0,2.206,2.576c.618.053,1.241-.181,1.852-.073a4.828,4.828,0,0,1,1.827,1.09,1.83,1.83,0,0,0,1.991.323c.9-.594.7-2.349,1.758-2.554.926-.18,1.919,1.154,2.625.53.431-.38.186-1.106.411-1.635.349-.818,1.515-.752,2.314-1.143a1.994,1.994,0,0,0,.949-2.421" transform="translate(-78.497 -138.847)" fill="#fff"/><path d="M258.369,348.333a1.994,1.994,0,0,0-2.328-1.158c-1.466.421-2.136,2.442-3.652,2.611-1.007.112-2.13-.657-2.964-.081-.48.332-.639,1-1.125,1.326a1.344,1.344,0,0,1-1.773-.47,2.274,2.274,0,0,1-.133-1.965,7.078,7.078,0,0,1,1.911-2.574c.351-.347.813-.723,1.283-.574.273.087.462.332.711.473.764.433,1.758-.343,1.877-1.214a3.179,3.179,0,0,0-.765-2.166,5.525,5.525,0,0,0-2.048-1.349,1.889,1.889,0,0,0-2.174.714c-.2.368-.226.814-.44,1.175-.592,1-2.112.771-3.149,1.306a2.292,2.292,0,0,0-.229,3.731,6.944,6.944,0,0,0-.937,3.521,2.715,2.715,0,0,0,2.206,2.576c.618.053,1.241-.181,1.852-.073a4.829,4.829,0,0,1,1.827,1.09,1.83,1.83,0,0,0,1.991.323c.9-.594.7-2.349,1.758-2.554.926-.18,1.919,1.154,2.625.53.431-.38.186-1.106.411-1.635.349-.818,1.516-.752,2.314-1.143a1.994,1.994,0,0,0,.949-2.421" transform="translate(-117.36 -165.133)" fill="#fff"/><path d="M269.032,389.665A1.964,1.964,0,0,0,271,387.629c-.079-.939-.837-1.925-.335-2.724.406-.645,1.381-.659,1.9-1.219.767-.827.165-2.378.979-3.16a2.365,2.365,0,0,1,1.7-.429c.708.007,1.552.093,1.884.718a1.459,1.459,0,0,1-.457,1.669,10.033,10.033,0,0,1-1.582.979,2.009,2.009,0,0,0-1.069,1.441,4.006,4.006,0,0,0,.554,1.669c.22.55.2,1.328-.343,1.568a4.548,4.548,0,0,0-.686.211c-.281.183-.327.564-.454.874-.408,1-1.668,1.264-2.738,1.393a1.929,1.929,0,0,1-.786-.014.658.658,0,0,1-.5-.553c-.01-.264.286-.516.523-.4" transform="translate(-130.242 -184.009)" fill="#fff"/><path d="M157.928,401.387c-.253-.8-1.19-.9-1.963-.906a2.367,2.367,0,0,0-1.7.43c-.814.782-.212,2.332-.979,3.16a1.754,1.754,0,0,1-.518.362,3.6,3.6,0,0,0-1.876,2.2l-.108.368h4.611c-.219-.551-.692-1.126-.651-1.717a2.009,2.009,0,0,1,1.069-1.441,5.462,5.462,0,0,0,1.926-1.377,1.277,1.277,0,0,0,.191-1.083" transform="translate(-72.995 -193.877)" fill="#fff"/><path d="M119.4,235.695c-.332-.625-1.177-.71-1.884-.718a2.364,2.364,0,0,0-1.7.43c-.814.782-.213,2.332-.979,3.16-.518.559-1.493.573-1.9,1.219-.5.8.256,1.784.335,2.724.1,1.16-.472,1.5-1.4,1.781a.55.55,0,0,0-.528.643.658.658,0,0,0,.495.554,1.929,1.929,0,0,0,.786.013c1.069-.128,2.331-.4,2.738-1.393.127-.31.173-.692.453-.874a4.543,4.543,0,0,1,.686-.211c.543-.24.563-1.017.344-1.568a4,4,0,0,1-.555-1.669,2.013,2.013,0,0,1,1.069-1.441,10.012,10.012,0,0,0,1.582-.979,1.458,1.458,0,0,0,.458-1.669" transform="translate(-53.901 -113.755)" fill="#fff"/><g transform="translate(125.197 156.476)" opacity="0.3"><g clip-path="url(#f)"><path d="M245.248,306.871a19.322,19.322,0,0,0-2.512,11.025,4.888,4.888,0,0,0,.509,2.071,2,2,0,0,0,1.731,1.084c1.261-.059,2.122-1.633,3.381-1.534a1.911,1.911,0,0,1,1.477,1.184,7.106,7.106,0,0,1,.441,1.93,18.167,18.167,0,0,0,1.967,5.9c.984,1.828,2.454,3.6,4.481,4.04,2.3.505,4.688-.9,6.033-2.836a17.254,17.254,0,0,0,2.319-6.625q1.943-9.835,3.105-19.8Z" transform="translate(-242.683 -303.314)"/></g></g><g transform="translate(145.298 103.857)" opacity="0.3"><g clip-path="url(#g)"><path d="M288.376,213.983c0-2.846.42-5.747-.294-8.5a5.364,5.364,0,0,0-5.76-4.156,51.356,51.356,0,0,0,1.183,22.068c1.631,6.063,4.29,11.937,4.632,18.207l2.3,1.406c.153-.971.57-2.489.723-3.461a6.329,6.329,0,0,0,5.974.3c-4.322-8.121-8.755-16.662-8.761-25.861" transform="translate(-281.646 -201.318)"/></g></g><path d="M245.624,231.138a.9.9,0,0,1-.125-.13l-.346-.4c-.3-.354-.741-.879-1.284-1.575a27.828,27.828,0,0,1-1.843-2.637,14.856,14.856,0,0,1-1.71-3.907,9.807,9.807,0,0,1-.313-2.472,10.819,10.819,0,0,1,.368-2.674c.218-.906.508-1.821.729-2.778a9.464,9.464,0,0,0,.286-2.981,11.531,11.531,0,0,0-.764-3.061c-.388-1.013-.863-2.02-1.308-3.066a15.739,15.739,0,0,1-1.073-3.31,12.659,12.659,0,0,1-.122-3.585,43.228,43.228,0,0,1,1.511-6.872,34.452,34.452,0,0,0,1.07-6.418,52.221,52.221,0,0,0-.568-11.015c-.448-3.118-.891-5.631-1.156-7.375-.138-.871-.234-1.549-.3-2.008-.029-.219-.052-.392-.069-.524a.9.9,0,0,1-.014-.18.922.922,0,0,1,.042.176l.095.52c.083.474.2,1.144.347,2,.3,1.738.768,4.245,1.241,7.366a51.355,51.355,0,0,1,.627,11.059,34.4,34.4,0,0,1-1.062,6.468,43.481,43.481,0,0,0-1.5,6.83,12.442,12.442,0,0,0,.118,3.511,15.527,15.527,0,0,0,1.053,3.257c.441,1.041.916,2.051,1.306,3.078a11.716,11.716,0,0,1,.77,3.132,9.679,9.679,0,0,1-.3,3.056c-.229.966-.523,1.88-.743,2.775a10.648,10.648,0,0,0-.377,2.624,9.681,9.681,0,0,0,.29,2.425,14.854,14.854,0,0,0,1.655,3.875,29.224,29.224,0,0,0,1.8,2.652c.529.7.956,1.239,1.243,1.6l.326.415a.923.923,0,0,1,.1.148" transform="translate(-115.241 -79.476)" fill="#263238"/><path d="M220.5,295.306a1.3,1.3,0,0,1-.184.247l-.568.674c-.246.294-.554.646-.933,1.037s-.791.854-1.292,1.322-1.03,1-1.642,1.524c-.594.545-1.27,1.079-1.973,1.65a45.3,45.3,0,0,1-10.11,6.011c-.838.345-1.63.684-2.393.946-.754.287-1.469.513-2.124.715s-1.254.361-1.778.5-.981.249-1.356.324l-.864.177a1.315,1.315,0,0,1-.3.043,1.388,1.388,0,0,1,.293-.1l.851-.225c.371-.091.823-.208,1.341-.368s1.117-.312,1.761-.54,1.357-.448,2.1-.742c.756-.269,1.54-.614,2.372-.963a47.7,47.7,0,0,0,10.057-5.98c.7-.563,1.382-1.087,1.979-1.623.615-.515,1.161-1.025,1.657-1.493s.93-.907,1.315-1.289.707-.721.964-1l.6-.64a1.338,1.338,0,0,1,.225-.212" transform="translate(-94.39 -142.961)" fill="#263238"/><path d="M304.926,213c.073.015-1.239,6.76-2.928,15.065s-3.12,15.027-3.192,15.012,1.239-6.759,2.929-15.066,3.119-15.026,3.192-15.011" transform="translate(-144.654 -103.116)" fill="#263238"/><g transform="translate(102.304 153.379)" opacity="0.3"><g clip-path="url(#h)"><path d="M198.307,311.1s10.362,1.2,14.748-1.415a17.194,17.194,0,0,0,8.12-12.376s-9.21,10.831-22.867,13.791" transform="translate(-198.307 -297.311)"/></g></g><g transform="translate(98.204 103.872)" opacity="0.3"><g clip-path="url(#i)"><path d="M190.36,201.347a39.415,39.415,0,0,0,4.342,11.06,16.968,16.968,0,0,0,9.006,7.433c3.8,1.178,8.312.393,11.035-2.5-6.784,1.6-18.427,3.368-24.383-15.988" transform="translate(-190.36 -201.347)"/></g></g><path d="M273.873,157.975s-.06-.056-.169-.176l-.476-.536a16.32,16.32,0,0,1-3.178-6.313,16.032,16.032,0,0,1-.471-2.685,15.443,15.443,0,0,1,0-3.057,28.152,28.152,0,0,1,1.788-6.756,19.375,19.375,0,0,0,1.468-7.771,14.315,14.315,0,0,0-3.088-8.068,43.951,43.951,0,0,0-3.246-3.354,13.215,13.215,0,0,1-2.9-3.876,12.387,12.387,0,0,1-1.031-4.734,35.363,35.363,0,0,1,.238-4.7c.158-1.529.337-3.026.412-4.5a28.012,28.012,0,0,0-.115-4.311,35.223,35.223,0,0,0-1.759-7.775,49.886,49.886,0,0,0-2.73-6.406c-1.935-3.8-3.811-6.71-5.079-8.73l-1.478-2.318-.381-.605c-.085-.137-.122-.212-.122-.212s.053.064.145.2l.4.591,1.52,2.291a97.537,97.537,0,0,1,5.16,8.7,49.449,49.449,0,0,1,2.772,6.42,35.264,35.264,0,0,1,1.794,7.822,28.163,28.163,0,0,1,.125,4.349c-.073,1.482-.25,2.984-.406,4.51a35.238,35.238,0,0,0-.233,4.658,12.144,12.144,0,0,0,1.008,4.632,12.979,12.979,0,0,0,2.849,3.8,43.768,43.768,0,0,1,3.262,3.378,14.544,14.544,0,0,1,3.13,8.219,14.384,14.384,0,0,1-.368,4.128,34.439,34.439,0,0,1-1.137,3.731,28.166,28.166,0,0,0-1.809,6.7,15.35,15.35,0,0,0-.021,3.024,16.038,16.038,0,0,0,.446,2.663,16.724,16.724,0,0,0,1.569,4.027,18.028,18.028,0,0,0,1.506,2.289l.454.551c.1.125.148.194.148.194" transform="translate(-121.781 -34.42)" fill="#263238"/><path d="M267.565,188.522a7.228,7.228,0,0,0,7.8,2.043c-3.614-3.017-5.909-7.365-7.281-11.869a88.326,88.326,0,0,1-2.535-13.876c-2.339-17.136-9.711-42.319-11.346-60.993l-14.8,32.128c1.221,7.382,6.182,20.323,3.153,26.6s-3.01,17.849-2.129,24.765c.79,6.2,5.818,10.658,4.719,16.812-.59,3.306-2.616,6.155-3.839,9.283s-1.432,7.154,1.068,9.4c.627-2.152,1.326-4.423,3-5.918s4.645-1.765,5.965.046c1.816,2.491-.765,6.428,1,8.956a4.986,4.986,0,0,0,3.865,1.741c5.422.363,10.655-3.052,13.413-7.734s3.309-10.407,2.571-15.791-2.671-10.522-4.625-15.593" transform="translate(-115.9 -50.264)" fill="#263238"/><path d="M256.715,157.5a82.875,82.875,0,0,0-.169-8.6,15.236,15.236,0,0,0-2.96-7.96c-1.605-1.987-3.875-3.352-5.495-5.327-2.377-2.9,1.393-8.859,1.7-12.6s-2.937-5.328-1.688-8.862l-6.973,6.485c-2.265,8.3-3.375,17.51-.992,25.774s8.293,16.286,7.588,24.858c-.349,4.245-1.556,8.4-1.622,12.663s1.3,8.9,4.867,11.225c2.476-5.548,4.978-11.181,5.869-17.191,1-6.76-.086-13.635-.13-20.468" transform="translate(-115.61 -55.265)" fill="#263238"/><path d="M250.326,206.025s-.052-.073-.141-.222-.224-.381-.392-.666a17.734,17.734,0,0,1-1.2-2.714,21.166,21.166,0,0,1-.959-4.6,28.65,28.65,0,0,1,.121-6.219,42.55,42.55,0,0,1,1.646-7.358c.8-2.591,1.837-5.3,2.9-8.148a80.472,80.472,0,0,0,2.943-9.065,37.438,37.438,0,0,0,.874-4.954,33.712,33.712,0,0,0,.13-5.175,34.64,34.64,0,0,0-6.368-18.4c-1.743-2.488-3.565-4.75-4.975-7.076a22.3,22.3,0,0,1-1.767-3.512,16.235,16.235,0,0,1-.935-3.505c-.325-2.3-.256-4.388-.35-6.21a12.384,12.384,0,0,0-.889-4.556,11.216,11.216,0,0,0-1.5-2.536c-.212-.264-.375-.464-.491-.593s-.166-.2-.166-.2a8.7,8.7,0,0,1,.7.763,10.8,10.8,0,0,1,1.552,2.529,12.371,12.371,0,0,1,.943,4.59c.107,1.827.054,3.92.388,6.189a18.421,18.421,0,0,0,2.7,6.929c1.408,2.305,3.233,4.556,4.988,7.051a34.74,34.74,0,0,1,6.433,18.53,33.724,33.724,0,0,1-.132,5.216,37.488,37.488,0,0,1-.885,4.989,79.952,79.952,0,0,1-2.966,9.089c-1.073,2.85-2.113,5.548-2.922,8.128a42.672,42.672,0,0,0-1.67,7.315,28.835,28.835,0,0,0-.16,6.181,21.456,21.456,0,0,0,.91,4.577,19.051,19.051,0,0,0,1.15,2.722c.158.29.28.515.367.677s.118.236.118.236" transform="translate(-115.61 -53.404)" fill="#455a64"/><path d="M253.516,145.991a1.464,1.464,0,0,1-.014-.229c0-.163-.009-.386-.015-.671a19.093,19.093,0,0,0-.268-2.563,21.125,21.125,0,0,0-1.149-3.9,37.556,37.556,0,0,0-2.4-4.836l-3.32-5.663c-1.186-2.04-2.473-4.211-3.7-6.57a39.694,39.694,0,0,1-3.132-7.727,26.371,26.371,0,0,1-.79-4.35c-.148-1.491-.186-3.009-.2-4.541a61.412,61.412,0,0,0-.391-8.905,16.4,16.4,0,0,0-2.975-7.615,16.717,16.717,0,0,0-5.933-4.455c-2.108-1.045-4.155-1.869-5.926-2.829a16.406,16.406,0,0,1-4.372-3.2,10.077,10.077,0,0,1-2.147-3.478,7.164,7.164,0,0,1-.434-2.548,4.673,4.673,0,0,1,.051-.671,1.481,1.481,0,0,1,.036-.227c.022,0-.042.31-.033.9a7.383,7.383,0,0,0,.478,2.512,10.086,10.086,0,0,0,2.159,3.411,16.413,16.413,0,0,0,4.351,3.139c1.766.943,3.811,1.754,5.937,2.8a16.881,16.881,0,0,1,6.028,4.5,16.6,16.6,0,0,1,3.04,7.726,61.141,61.141,0,0,1,.4,8.943c.012,1.529.048,3.04.2,4.517a26.145,26.145,0,0,0,.777,4.307,39.741,39.741,0,0,0,3.1,7.683c1.216,2.353,2.5,4.526,3.673,6.572l3.292,5.681a37.027,37.027,0,0,1,2.377,4.876,20.722,20.722,0,0,1,1.113,3.942,17.46,17.46,0,0,1,.219,2.579c-.005.286-.009.509-.012.673a1.463,1.463,0,0,1-.013.229" transform="translate(-104.737 -34.374)" fill="#455a64"/></g></g></g></g></svg>