<svg xmlns="http://www.w3.org/2000/svg" xmlns:xlink="http://www.w3.org/1999/xlink" width="297.153" height="208.94" viewBox="0 0 297.153 208.94"><defs><filter id="a" x="0" y="0" width="297.153" height="208.94" filterUnits="userSpaceOnUse"><feOffset dy="3" input="SourceAlpha"/><feGaussianBlur stdDeviation="3" result="b"/><feFlood flood-opacity="0.161"/><feComposite operator="in" in2="b"/><feComposite in="SourceGraphic"/></filter><clipPath id="c"><rect width="198.592" height="195.577" fill="none"/></clipPath><clipPath id="e"><rect width="67.455" height="64.746" fill="none"/></clipPath><clipPath id="f"><rect width="30.765" height="32.102" fill="none"/></clipPath></defs><g transform="translate(6877.821 6467.241)"><g transform="matrix(1, 0, 0, 1, -6877.82, -6467.24)" filter="url(#a)"><path d="M313.339,346.849c6.106,0,33.633.007,68.558,0,9.643,0,19.853-.005,30.329-.009,7.949,0,16.054-.007,24.186-.012l13.775-.009c61.47-.048,71.267.639,81.023.029,18.149,0,64.633-70.531,9.3-116.841-21.488-17.982,6.09-41.873-29.6-59.816-23.47-11.8-40.518,8.93-68.851,1.462-20.932-5.517-25.19-18.459-66.573-14.873-39.8,3.449-40.6,36.124-27.972,63.106,7.971,17.035-31.111,11.775-49.184,37.2C267.477,300.481,313.065,346.2,313.339,346.849Z" transform="translate(-278.62 -150.16)" fill="#ffe293"/></g><g transform="translate(-6835.349 -6465.69)"><g clip-path="url(#c)"><g clip-path="url(#c)"><path d="M201.386,32.93s-.36-1.724-.963-6.707L194.94,15.477s1.22-2.248,4.041,2.514c1.286,2.17,5.6,1.261,4.883-2.145a4.357,4.357,0,0,0-7.849-1.587s-1.756.174-1.959-1.194,3.759-4.758,7.131-3.769a10.242,10.242,0,0,1,3.735,2.105S204.188.109,205.1.008s2.194.59,2.887,12.975c0,0,.381-9.776.573-11.022C208.747.755,210.44-.131,210.647,3c.023.348.64,9.954.64,9.954s1.1-6.351,1.214-6.859c.314-1.34,1.634-1.2,1.761.576.095,1.344.529,7.085.529,7.085l.822,17.706.111-.011" transform="translate(-73.728 0)" fill="#ffbe9d"/><path d="M151.8,43.416l-20.583-.53L129.166,92.7,105.9,82.422l-.036.084c-1.4-.625-2.625-1.181-3.276-1.536C89.718,73.952,81.273,73.1,67.47,78.028L41.014,88.617C35.9,91.031,22.566,93.254,18,114.328l-.6,2.516L38.531,132.03l14.514,38.252,17.388,38.3,39.962-1.3,20.882-26.02-17.72-33.85L102.544,109.5c7.78,5.163,22.224,12.193,39.517,8.526,18.731-3.971,9.74-74.615,9.74-74.615" transform="translate(-6.609 -16.294)" fill="#e8505b"/><g transform="translate(46.3 125.632)" opacity="0.3"><g clip-path="url(#e)"><path d="M74.672,230.617a40.5,40.5,0,0,0,10.168,4.417c1.945.584,4.175,1.009,5.9-.055s2-4.223.068-4.857l16.769-3.784c-2.275-6.55,1.476-14.024,7.151-18.008s12.12-5.118,19.028-5.715l8.365,25.949L114.168,266.7l-22.894.665Z" transform="translate(-74.672 -202.615)"/></g></g><path d="M37.6,175.619s-10.484,22.93-8.085,34.375c1.34,6.4,22.28,11.862,35.621,13.492l-4,22.394s-49.582-4.717-58.875-24.356c-5.272-11.142.066-38.441,10.1-69.319Z" transform="translate(-0.075 -57.83)" fill="#e8505b"/><path d="M114.457,233.289a1.911,1.911,0,0,1-.357.19l-1.047.487c-.911.42-2.243,1-3.9,1.688-3.312,1.38-7.947,3.15-13.162,4.826s-10.019,2.928-13.516,3.732c-1.749.4-3.168.707-4.154.895l-1.135.213a1.882,1.882,0,0,1-.4.052,1.943,1.943,0,0,1,.387-.116l1.122-.272c.977-.226,2.388-.563,4.127-.994,3.479-.86,8.262-2.149,13.471-3.818s9.845-3.405,13.175-4.73c1.665-.661,3.01-1.207,3.935-1.592l1.071-.432a1.956,1.956,0,0,1,.383-.131" transform="translate(-29.175 -88.637)" fill="#fff"/><path d="M106.249,105.511c.03.084-19.514,7.17-43.647,15.824s-43.731,15.606-43.761,15.522,19.509-7.168,43.652-15.826,43.726-15.6,43.756-15.521" transform="translate(-7.159 -40.088)" fill="#fff"/><path d="M42.208,183.371a.5.5,0,0,1,.045-.137l.162-.388.641-1.482c.548-1.289,1.322-3.166,2.108-5.542a42.417,42.417,0,0,0,1.9-8.556A28.639,28.639,0,0,0,46.3,156.63a20.942,20.942,0,0,0-5.172-9.243,17.927,17.927,0,0,0-7.411-4.47,15.439,15.439,0,0,0-5.835-.619l-.921.113c-.266.038-.487.1-.668.128l-.412.078a.493.493,0,0,1-.144.015.506.506,0,0,1,.135-.047l.407-.109c.18-.043.4-.11.667-.159l.924-.144a15.045,15.045,0,0,1,5.913.525,17.955,17.955,0,0,1,7.557,4.478,21.056,21.056,0,0,1,5.273,9.368,28.59,28.59,0,0,1,.751,10.755,41.385,41.385,0,0,1-1.981,8.6c-.818,2.377-1.626,4.245-2.21,5.521-.295.637-.528,1.129-.7,1.459l-.192.374a.476.476,0,0,1-.075.123" transform="translate(-9.778 -53.981)" fill="#263238"/><path d="M132.647,97.179a1.768,1.768,0,0,1,.357.156,8.621,8.621,0,0,1,.962.564,13.043,13.043,0,0,1,2.991,2.8,20.174,20.174,0,0,1,2.938,5.318,69.4,69.4,0,0,1,2.155,7.113c1.342,5.073,2.558,9.662,3.45,13.033l1.009,3.959c.106.442.192.8.259,1.081a1.711,1.711,0,0,1,.069.383,1.788,1.788,0,0,1-.131-.366c-.082-.277-.187-.629-.317-1.065-.273-.968-.649-2.3-1.109-3.932l-3.541-13.009c-.682-2.542-1.308-4.969-2.121-7.09a20.547,20.547,0,0,0-2.841-5.284A13.815,13.815,0,0,0,133.894,98c-.782-.557-1.262-.795-1.248-.823" transform="translate(-50.399 -36.923)" fill="#263238"/><path d="M120.237,118.683s-.092.05-.275.131l-.822.357-3.169,1.342c-2.754,1.162-6.751,2.816-11.7,4.833-9.9,4.037-23.623,9.486-38.882,15.244S36.217,151.324,26.119,154.83c-5.048,1.754-9.141,3.153-11.976,4.1l-3.265,1.086-.853.275c-.192.06-.294.083-.294.083s.095-.044.283-.115l.841-.3L14.1,158.81l11.942-4.2c10.077-3.561,23.968-8.57,39.231-14.326s28.992-11.171,38.91-15.154l11.737-4.737,3.193-1.286.833-.327c.188-.072.289-.1.289-.1" transform="translate(-3.698 -45.093)" fill="#fff"/><path d="M99.824,158.571a1.637,1.637,0,0,1-.237.113l-.707.3-2.733,1.135c-2.374.984-5.824,2.37-10.1,4.048-8.554,3.358-20.444,7.814-33.71,12.353s-25.4,8.291-34.222,10.873c-4.409,1.292-7.986,2.309-10.465,2.984l-2.854.775-.745.194a1.456,1.456,0,0,1-.257.055,1.643,1.643,0,0,1,.248-.087l.737-.225,2.837-.833c2.468-.712,6.034-1.763,10.434-3.082,8.8-2.637,20.914-6.427,34.183-10.96s25.159-8.958,33.731-12.26c4.287-1.651,7.749-3,10.137-3.952l2.755-1.078.72-.273a1.62,1.62,0,0,1,.249-.082" transform="translate(-1.442 -60.248)" fill="#fff"/><path d="M211.1,123.95a2.677,2.677,0,0,1-.364.311l-1.084.842c-.47.366-1.052.806-1.742,1.295s-1.463,1.067-2.352,1.656c-1.754,1.212-3.893,2.579-6.315,4.022-2.432,1.426-5.151,2.915-8.071,4.35s-5.775,2.652-8.394,3.695c-2.627,1.024-5.021,1.872-7.054,2.511-1.011.339-1.94.6-2.752.838s-1.515.432-2.092.579l-1.33.337a2.718,2.718,0,0,1-.469.1,2.68,2.68,0,0,1,.453-.159l1.313-.395c.572-.165,1.271-.37,2.074-.631s1.729-.53,2.733-.882c2.021-.665,4.4-1.533,7.015-2.57,2.607-1.055,5.443-2.29,8.362-3.709s5.629-2.909,8.063-4.317c2.424-1.425,4.572-2.769,6.339-3.954.894-.576,1.677-1.137,2.374-1.614s1.292-.9,1.773-1.249l1.119-.793a2.674,2.674,0,0,1,.4-.259" transform="translate(-64.244 -47.094)" fill="#fff"/><path d="M222.757,97.275c.032.083-5.659,2.371-12.71,5.11s-12.8,4.893-12.829,4.81,5.659-2.371,12.712-5.11,12.8-4.892,12.828-4.809" transform="translate(-74.932 -36.958)" fill="#fff"/><path d="M222.656,72.392c.024.086-4.975,1.578-11.164,3.332s-11.229,3.108-11.253,3.022,4.973-1.578,11.165-3.333,11.228-3.107,11.252-3.022" transform="translate(-76.08 -27.504)" fill="#fff"/><path d="M221.351,48.049c.019.087-4.815,1.223-10.8,2.538s-10.847,2.31-10.866,2.223,4.813-1.223,10.8-2.538,10.846-2.31,10.865-2.222" transform="translate(-75.872 -18.254)" fill="#fff"/><path d="M127.137,186.1c.033.083-13.763,5.6-30.81,12.318s-30.9,12.1-30.931,12.018,13.76-5.6,30.813-12.319,30.9-12.1,30.928-12.017" transform="translate(-24.847 -70.707)" fill="#fff"/><path d="M29.349,230.126a1.179,1.179,0,0,1-.282.139l-.832.339c-.725.289-1.78.69-3.088,1.173-2.617.965-6.256,2.237-10.311,3.531S7.075,237.67,4.382,238.4c-1.346.365-2.439.647-3.2.831l-.874.2a1.14,1.14,0,0,1-.311.05,1.175,1.175,0,0,1,.293-.113l.859-.264,3.168-.929C7,237.394,10.685,236.291,14.737,235s7.7-2.529,10.333-3.438l3.122-1.076.853-.283a1.166,1.166,0,0,1,.305-.077" transform="translate(0 -87.435)" fill="#fff"/><path d="M40.831,255.466c.033.082-6.652,2.875-14.93,6.236s-15.02,6.02-15.053,5.938,6.65-2.875,14.931-6.237,15.018-6.019,15.051-5.937" transform="translate(-4.122 -97.063)" fill="#fff"/><path d="M68.419,262.473c.068.058-3.681,4.5-8.372,9.92S51.5,282.16,51.43,282.1s3.68-4.5,8.373-9.92,8.549-9.766,8.616-9.708" transform="translate(-19.541 -99.726)" fill="#fff"/><path d="M94.593,267.571c.084.029-1.42,4.755-3.361,10.556s-3.583,10.482-3.667,10.454,1.42-4.754,3.361-10.557,3.583-10.481,3.667-10.453" transform="translate(-33.269 -101.663)" fill="#fff"/><path d="M220.26,155.046c.033.083-3.534,1.557-7.965,3.292s-8.051,3.074-8.084,2.991,3.533-1.556,7.966-3.292,8.051-3.074,8.083-2.991" transform="translate(-77.59 -58.908)" fill="#fff"/><g transform="translate(89.75 70.236)" opacity="0.3"><g clip-path="url(#f)"><path d="M144.746,113.274c5.755,15.581,16.105,24.295,30.766,32.1a53.983,53.983,0,0,1-24.171-8.857" transform="translate(-144.746 -113.274)"/></g></g><path d="M136.343,274.978H246.794V227.79a16,16,0,0,0-16.005-16H152.348a16,16,0,0,0-16,16Z" transform="translate(-51.803 -80.467)" fill="#455a64"/><path d="M173.862,274.978H137.17a.827.827,0,0,1-.827-.827V226.1a14.315,14.315,0,0,1,14.315-14.316h17.548a6.483,6.483,0,0,1,6.483,6.483v55.883a.827.827,0,0,1-.827.827" transform="translate(-51.803 -80.467)" fill="#455a64"/><path d="M144.11,274.978V227.722a15.936,15.936,0,0,1,15.937-15.937H148.683s-13.337,1.773-13.337,18.465.43,44.728.43,44.728Z" transform="translate(-51.425 -80.467)" fill="#263238"/><rect width="92.667" height="5.259" transform="translate(30.218 190.022)" fill="#263238"/><rect width="75.706" height="5.259" transform="translate(122.885 190.022)" fill="#455a64"/><path d="M186.816,273.126a.821.821,0,0,1-.015-.189c0-.143-.007-.325-.012-.554,0-.508-.009-1.221-.015-2.127,0-1.87,0-4.537,0-7.823.035-6.624.084-15.738.137-25.8.027-2.52.081-4.977-.071-7.341a26.618,26.618,0,0,0-1.191-6.687,14.822,14.822,0,0,0-7.109-8.678,15.737,15.737,0,0,0-7.433-1.992,10.4,10.4,0,0,0-1.221.034,7.053,7.053,0,0,0-.892.087l-.548.071a.832.832,0,0,1-.189.014.791.791,0,0,1,.183-.046l.544-.1a6.344,6.344,0,0,1,.893-.118,9.784,9.784,0,0,1,1.23-.064,15.572,15.572,0,0,1,7.542,1.917,15,15,0,0,1,7.282,8.784,26.719,26.719,0,0,1,1.224,6.761c.158,2.381.106,4.849.079,7.367-.091,10.067-.172,19.179-.232,25.8-.045,3.285-.081,5.951-.107,7.821-.019.906-.034,1.618-.045,2.126-.008.228-.015.41-.02.553a.808.808,0,0,1-.018.188" transform="translate(-63.931 -80.475)" fill="#263238"/><path d="M272.242,306.185c0,.089-17.246.19-38.516.226s-38.52-.007-38.52-.1,17.242-.19,38.52-.226,38.516.007,38.516.1" transform="translate(-74.168 -116.293)" fill="#263238"/><path d="M272.582,315.1c0,.089-17.122.115-38.237.057s-38.241-.176-38.241-.265,17.118-.115,38.242-.057,38.237.176,38.237.265" transform="translate(-74.509 -119.608)" fill="#263238"/><path d="M272.9,288.878s-.006-.079-.01-.226-.006-.372-.01-.648c-.006-.58-.014-1.416-.024-2.5-.012-2.181-.031-5.349-.054-9.352l.1.1-49.566.065c.071-.072-.164.161.159-.161v1.628q0,.813,0,1.621,0,1.616,0,3.209,0,3.185,0,6.266l-.158-.158,35.345.072,10.423.045,2.813.021.733.011c.166,0,.256.01.256.01a1.883,1.883,0,0,1-.236.01l-.714.01-2.778.021-10.386.045-35.455.072h-.158v-.159q0-3.078,0-6.266,0-1.592,0-3.209v-3.249c.323-.323.091-.089.164-.162l49.566.064h.1v.1c-.023,4.028-.042,7.215-.054,9.41-.011,1.072-.018,1.9-.024,2.476,0,.269-.007.477-.01.631a1.666,1.666,0,0,1-.01.207" transform="translate(-84.793 -104.858)" fill="#263238"/><path d="M254.629,281.546V287.2h-.574v-4.525l-2.222,3.805h-.283l-2.222-3.781v4.5h-.574v-5.656h.493l2.457,4.194,2.432-4.194Z" transform="translate(-94.514 -106.973)" fill="#263238"/><path d="M264.192,285.692h-3.151l-.679,1.511h-.622l2.586-5.656h.59L265.5,287.2h-.631Zm-.218-.485-1.358-3.038-1.357,3.038Z" transform="translate(-98.688 -106.973)" fill="#263238"/><rect width="0.598" height="5.656" transform="translate(167.749 174.573)" fill="#263238"/><path d="M274.475,281.546h.6v5.139h3.167v.517h-3.765Z" transform="translate(-104.286 -106.973)" fill="#263238"/><path d="M280.223,185.227v-9.291h-17.37v37.295a7.36,7.36,0,1,0,7.136-.2v-27.8Z" transform="translate(-98.496 -66.847)" fill="#e8505b"/><path d="M272.542,244.364a2.843,2.843,0,1,1-2.843-2.843,2.843,2.843,0,0,1,2.843,2.843" transform="translate(-101.392 -91.766)" fill="#263238"/><path d="M84.918,99.98a1.991,1.991,0,0,1,.164.381,10.032,10.032,0,0,1,.365,1.132,13.945,13.945,0,0,1,.421,4.352,14.432,14.432,0,0,1-1.8,6.216,12.953,12.953,0,0,1-5.8,5.347,12.207,12.207,0,0,1-7.824.934,12.974,12.974,0,0,1-5.738-2.981,13.266,13.266,0,0,1-2.734-3.41,9.96,9.96,0,0,1-.519-1.071,1.956,1.956,0,0,1-.145-.389c.036-.016.244.517.773,1.4a13.946,13.946,0,0,0,2.776,3.3,12.942,12.942,0,0,0,5.651,2.862,12.011,12.011,0,0,0,7.624-.936,12.766,12.766,0,0,0,5.677-5.2,14.449,14.449,0,0,0,1.833-6.083,14.7,14.7,0,0,0-.316-4.306c-.226-1-.443-1.531-.406-1.544" transform="translate(-23.293 -37.987)" fill="#263238"/><path d="M184.509,254.715l8.463-.112-.328,28.751-7.857.313Z" transform="translate(-70.104 -96.736)" fill="#ebebeb"/><path d="M184.956,296.354A100.715,100.715,0,0,1,192.7,288a50.4,50.4,0,0,1-3.753,4.289,50.449,50.449,0,0,1-3.99,4.069" transform="translate(-70.273 -109.423)" fill="#263238"/><path d="M192.971,264.452a62.194,62.194,0,0,1-4.352-4.6,62.223,62.223,0,0,1-4.112-4.813,61.988,61.988,0,0,1,4.352,4.6,62.008,62.008,0,0,1,4.112,4.812" transform="translate(-70.103 -96.902)" fill="#263238"/><path d="M55.242,36.2a2.23,2.23,0,0,0,3.769,1.62c1.194-1.138.787-3.135.041-4.606s-1.773-2.971-1.554-4.605c.167-1.251,1.037-2.273,1.62-3.392a7.121,7.121,0,0,0,.151-6.351,5.984,5.984,0,0,0-5.3-3.319c-2.243.045-4.6,1.448-6.593.415-1.443-.75-2.047-2.507-3.3-3.543C42.13,10.814,39.2,11.349,36.9,12.4s-4.5,2.552-7.025,2.675c-2.106.1-4.126-.781-6.215-1.068a11.352,11.352,0,0,0-11.374,5.98,11.352,11.352,0,0,0,1.972,12.7,7.06,7.06,0,0,0,4.262,2.259" transform="translate(-4.242 -4.333)" fill="#263238"/><path d="M62.5,89.614h0a12.555,12.555,0,0,1-15.835-7.958c-1.251-3.754-2.3-6.917-2.3-6.917s-9.986,1.527-13.11-7.954-8.073-30.58-8.073-30.58l-.3-1.275c9.521-8.214,23.065-9.587,34.877-5.274l.605,1.965L70.737,74.595A12.553,12.553,0,0,1,62.5,89.614" transform="translate(-8.694 -10.358)" fill="#ffbe9d"/><path d="M35.449,62.618a1.463,1.463,0,0,0-.719-2.632,1.339,1.339,0,0,0-.99.27,1.462,1.462,0,0,0,.718,2.633,1.338,1.338,0,0,0,.99-.272" transform="translate(-12.593 -22.787)" fill="#263238"/><path d="M30.443,60.924c.2.118.908-.9,2.217-1.317,1.3-.44,2.474-.043,2.566-.257.047-.1-.2-.348-.71-.532A3.389,3.389,0,0,0,30.7,60.073c-.305.454-.351.8-.255.85" transform="translate(-11.55 -22.283)" fill="#263238"/><path d="M56.058,55.353a1.449,1.449,0,1,0,2.044-.147,1.449,1.449,0,0,0-2.044.147" transform="translate(-21.165 -20.841)" fill="#263238"/><path d="M53.441,55.779c.2.118.909-.9,2.217-1.317,1.3-.439,2.474-.043,2.566-.257.047-.1-.2-.348-.71-.532A3.389,3.389,0,0,0,53.7,54.929c-.3.454-.351.8-.255.85" transform="translate(-20.288 -20.328)" fill="#263238"/><path d="M48.19,70.16a7.009,7.009,0,0,0-2.258.236c-.352.071-.656.084-.749-.1a1.948,1.948,0,0,1-.07-1.071l.193-2.991c.234-4.247.258-7.7.054-7.709s-.558,3.421-.791,7.669c-.047,1.036-.092,2.025-.136,2.994a2.28,2.28,0,0,0,.257,1.473.926.926,0,0,0,.75.355,2.322,2.322,0,0,0,.605-.107,7.014,7.014,0,0,0,2.145-.745" transform="translate(-16.878 -22.235)" fill="#263238"/><path d="M54.526,77.324c1.109-1.244-3.129,3.186-5.838,3.9a3.8,3.8,0,0,0,4.73.092c2.519-1.942,1.109-3.99,1.109-3.99" transform="translate(-18.499 -29.296)" fill="#fff"/><path d="M57.437,99.057a23.2,23.2,0,0,0,11.294-7.445s-.769,7.776-10.537,9.918Z" transform="translate(-21.823 -34.808)" fill="#eb996e"/><path d="M82.371,44.463c.19-.131,6.925-2.772,8.317,5.613s-7.537,7.017-7.591,6.779-.727-12.392-.727-12.392" transform="translate(-31.297 -16.705)" fill="#ffbe9d"/><path d="M86.649,55.082c.032-.033.163.078.429.15a1.482,1.482,0,0,0,1.1-.158c.832-.472,1.344-2,1.134-3.521a4.9,4.9,0,0,0-.756-2.024,1.71,1.71,0,0,0-1.285-.938.753.753,0,0,0-.8.543c-.073.253.007.412-.035.433-.02.025-.2-.11-.193-.468a.948.948,0,0,1,.243-.58,1.118,1.118,0,0,1,.773-.348A2.081,2.081,0,0,1,89,49.218a5.016,5.016,0,0,1,.894,2.253c.227,1.7-.375,3.423-1.529,3.975a1.584,1.584,0,0,1-1.373,0c-.295-.164-.37-.344-.343-.364" transform="translate(-32.768 -18.301)" fill="#eb996e"/><path d="M20.489,39.12s6.582,1.182,13.071-4.7c4.258-3.857,9.69-6.681,11.24-6.042s3.248,5.664,8.569,5.779c0,0,2.39,9.826,6.173,8.392s-2.865-15.827-2.865-15.827L46,22.815,35.1,23.76,24.026,28.232l-5.393,5.757Z" transform="translate(-7.08 -8.669)" fill="#263238"/><path d="M75.246,15.652a10.058,10.058,0,0,0-2.023,1.022A10.07,10.07,0,0,0,71.7,18.349a3.109,3.109,0,0,1,1.332-1.931,3.111,3.111,0,0,1,2.218-.765" transform="translate(-27.236 -5.935)" fill="#263238"/><path d="M69.251,11.308a2.419,2.419,0,0,1,.445.82,8.854,8.854,0,0,1,.618,2.168,6.376,6.376,0,0,1-.057,2.262,2.082,2.082,0,0,1-.323.88,12.945,12.945,0,0,0,.061-3.1c-.262-1.69-.852-2.994-.744-3.034" transform="translate(-26.307 -4.296)" fill="#263238"/><path d="M110.363,249.183,153.3,241.2l6.414,29.018-44.593,7.531Z" transform="translate(-41.932 -91.643)" fill="#e0e0e0"/><path d="M153.3,241.2a.469.469,0,0,1-.074.122l-.242.337-.957,1.278-3.572,4.673c-3.06,3.953-7.268,9.389-11.947,15.431l-.082.107-.12-.063-.831-.44-17.79-9.459-5.373-2.9-1.453-.8-.374-.216a.507.507,0,0,1-.123-.084.5.5,0,0,1,.138.055l.389.187,1.482.749,5.421,2.809,17.834,9.375.831.44-.2.044,12.023-15.372,3.652-4.611,1-1.241.267-.317c.061-.071.095-.1.1-.1" transform="translate(-41.932 -91.643)" fill="#263238"/><path d="M118.039,288.267c-.075-.048,2.687-4.427,6.167-9.779s6.364-9.653,6.439-9.6-2.686,4.427-6.168,9.78-6.364,9.651-6.438,9.6" transform="translate(-44.848 -102.162)" fill="#263238"/><path d="M179.088,279.425c-.055.07-4.072-3-8.97-6.867s-8.826-7.051-8.771-7.121,4.071,3,8.97,6.867,8.825,7.051,8.77,7.121" transform="translate(-61.304 -100.852)" fill="#263238"/><path d="M107.135,264.522s.306,5.621,3.011,5.558,12.27-5.267,13.381-3.458-1.824,4.32-1.824,4.32,3.37-.05,2.117,1.966-5,11.449-8.468,12.334c-4.986,1.274-16.451,1.772-16.451,1.772l3.542-19.763Z" transform="translate(-37.577 -100.505)" fill="#ffbe9d"/><path d="M130.23,272.978c.015.017-.114.159-.361.4s-.617.583-1.089.984a30.913,30.913,0,0,1-8.276,4.982c-.576.231-1.048.4-1.38.5a1.727,1.727,0,0,1-.525.13,17.7,17.7,0,0,1,1.814-.843,40.849,40.849,0,0,0,8.223-4.95,17.53,17.53,0,0,1,1.594-1.209" transform="translate(-45.061 -103.717)" fill="#eb996e"/><path d="M131.323,281.959a6.184,6.184,0,0,1-.986,1.416,15.773,15.773,0,0,1-6.8,4.7,6.19,6.19,0,0,1-1.673.422c-.014-.051.616-.237,1.592-.636a18.691,18.691,0,0,0,6.706-4.639c.717-.772,1.114-1.3,1.157-1.265" transform="translate(-46.304 -107.129)" fill="#eb996e"/></g></g></g></g></svg>