<svg xmlns="http://www.w3.org/2000/svg" xmlns:xlink="http://www.w3.org/1999/xlink" width="400" height="372.764" viewBox="0 0 400 372.764"><defs><clipPath id="a"><rect width="400" height="372.764" fill="none"/></clipPath><clipPath id="d"><rect width="12.623" height="21.916" fill="none"/></clipPath><clipPath id="e"><rect width="13.559" height="9.026" fill="none"/></clipPath><clipPath id="f"><rect width="12.902" height="5.958" fill="none"/></clipPath><clipPath id="g"><rect width="4.515" height="7.556" fill="none"/></clipPath><clipPath id="h"><rect width="4.064" height="3.666" fill="none"/></clipPath><clipPath id="i"><rect width="7.508" height="20.738" fill="none"/></clipPath><clipPath id="j"><rect width="13.249" height="5.012" fill="none"/></clipPath><clipPath id="k"><rect width="10.521" height="6.761" fill="none"/></clipPath><clipPath id="l"><rect width="2.336" height="7.253" fill="none"/></clipPath><clipPath id="m"><rect width="4.173" height="2.298" fill="none"/></clipPath><clipPath id="n"><rect width="13.568" height="16.807" fill="none"/></clipPath><clipPath id="o"><rect width="9.995" height="9.676" fill="none"/></clipPath><clipPath id="p"><rect width="11.046" height="5.319" fill="none"/></clipPath><clipPath id="q"><rect width="4.984" height="5.662" fill="none"/></clipPath><clipPath id="r"><rect width="2.92" height="3.711" fill="none"/></clipPath><clipPath id="t"><rect width="109.326" height="110.392" fill="none"/></clipPath></defs><g clip-path="url(#a)"><g clip-path="url(#a)"><path d="M432.135,287.162c-6.025-3.108-13.12-3.513-19.808-2.408-3.594.594-7.341,1.67-9.786,4.369s-2.908,7.45-.1,9.769c1.671,1.38,4,1.59,6.17,1.565,5.236-.061,11.046-.983,15.23,2.168,2.386,1.8,3.975,4.786,6.829,5.669,2.792.865,5.942-.783,7.423-3.3a11.535,11.535,0,0,0,.839-8.509,12.992,12.992,0,0,0-6.8-9.322" transform="translate(-400.515 -27.929)" fill="#ebebeb"/><path d="M413.968,251.977c-3.684,5.262-10.845,3.519-14.165.308s-4.723-7.868-6-12.307c-2.918-10.143-5.861-20.783-3.691-31.111a17.3,17.3,0,0,1,3.973-8.458c2.17-2.291,5.507-3.654,8.557-2.848,3.611.954,5.855,4.49,7.476,7.854a74.154,74.154,0,0,1,7.328,31.826c.018,5.126-.586,10.5-3.478,14.735" transform="translate(-368.543 -19.392)" fill="#ebebeb"/><path d="M338.83,261.373c-4-4.748-4.759-11.672-2.979-17.62s5.8-11.007,10.436-15.138a56.17,56.17,0,0,1,18.687-11.025,19.932,19.932,0,0,1,8.4-1.428,8.822,8.822,0,0,1,7.053,4.267c1.967,3.751.081,8.3-1.958,12.013A142.317,142.317,0,0,1,366.2,251.132c-3.678,4.742-7.893,9.421-13.5,11.565s-11.431,1.891-14.4-2" transform="translate(-283.288 -21.237)" fill="#ebebeb"/><path d="M420.366,340.688a11.429,11.429,0,0,1-.334-2.391c-.169-1.74-.381-3.925-.635-6.525a94.209,94.209,0,0,0-1.468-9.572,73.859,73.859,0,0,0-3.479-11.3,41.65,41.65,0,0,0-5.768-10.222,21.547,21.547,0,0,0-7.293-6.063,20.407,20.407,0,0,0-6.142-1.912,11.486,11.486,0,0,1-2.381-.345,11.294,11.294,0,0,1,2.423-.037,18.613,18.613,0,0,1,6.4,1.666,21.5,21.5,0,0,1,7.693,6.116,40.673,40.673,0,0,1,5.979,10.428,69.027,69.027,0,0,1,3.454,11.482,80.985,80.985,0,0,1,1.272,9.692c.207,2.771.286,5.015.324,6.565a11.256,11.256,0,0,1-.051,2.415" transform="translate(-374.693 -28.725)" fill="#e0e0e0"/><path d="M405.09,328.638a4.717,4.717,0,0,1-.064-1.11c0-.833,0-1.884.008-3.172.008-2.754.006-6.739-.142-11.658-.243-9.841-1.09-20.43-2.727-35.362-1.55-14.04-3.629-30.379-5.825-41-.471-2.416-.944-4.591-1.391-6.493-.426-1.908-.789-3.554-1.14-4.885l-.741-3.084a4.735,4.735,0,0,1-.195-1.095,4.639,4.639,0,0,1,.386,1.041l.921,3.04c.409,1.319.828,2.953,1.306,4.854.5,1.9,1.021,4.065,1.537,6.477a359.868,359.868,0,0,1,6.124,38.046c1.64,14.962,2.379,28.586,2.444,38.451.059,4.932-.046,8.925-.172,11.68-.078,1.289-.143,2.338-.194,3.171a4.673,4.673,0,0,1-.134,1.1" transform="translate(-359.866 -21.696)" fill="#e0e0e0"/><path d="M354.578,303.237a21.049,21.049,0,0,1,.023-3.315c.122-2.129.415-5.208,1.014-8.979a118.58,118.58,0,0,1,2.921-13.082,107,107,0,0,1,5.471-15.48c4.538-10.765,10.7-19.566,16.065-25.017a40.8,40.8,0,0,1,3.78-3.513c.58-.49,1.092-.978,1.614-1.366l1.466-1.011a21.109,21.109,0,0,1,2.79-1.786c.159.215-3.953,2.635-9.145,8.159a86.883,86.883,0,0,0-15.665,24.925,122.493,122.493,0,0,0-5.5,15.338,132.907,132.907,0,0,0-3.107,12.952c-.684,3.732-1.081,6.78-1.32,8.89a21.372,21.372,0,0,1-.406,3.283" transform="translate(-309.419 -22.572)" fill="#e0e0e0"/><path d="M416.954,362.655l-2.633,36.072h-46.34l-2.633-36.072Z" transform="translate(-346.399 -35.639)" fill="#e0e0e0"/><rect width="61.611" height="14.218" transform="translate(13.42 312.798)" fill="#e0e0e0"/><path d="M420.978,401.127v3.941H360.385v-3.941Z" transform="translate(-345.947 -39.42)" fill="#ebebeb"/><path d="M416.248,412.434l2.838-6.936H363.6l3.31,6.936Z" transform="translate(-346.949 -39.849)" fill="#e0e0e0"/><path d="M366.216,375.177a1.463,1.463,0,0,0,.216.331l.692.919,2.7,3.455.12.153.116-.161,6.632-9.172h-.381l6.529,9.245.2.29.229-.273,7.744-9.213-.446-.006.426.536,6.924,8.681.231.289.213-.3,6.533-9.244-.38.018,8.045,9.167.142.162.109-.183,2.519-4.233c.263-.459.476-.83.646-1.126a1.887,1.887,0,0,0,.2-.4,1.783,1.783,0,0,0-.271.357l-.715,1.085-2.645,4.155.252-.021-7.916-9.278-.2-.234-.18.253-6.592,9.2.444-.012-6.908-8.694c-.145-.184-.291-.367-.426-.536l-.22-.276-.226.271-7.722,9.231.434.017-6.6-9.2-.193-.27-.188.27-6.492,9.272.236-.006-2.808-3.367-.753-.87c-.173-.194-.267-.289-.278-.281" transform="translate(-346.406 -36.372)" fill="#f5f5f5"/><path d="M365.776,362.36c0,.16,11.612.289,25.931.289s25.934-.129,25.934-.289-11.609-.289-25.934-.289-25.931.129-25.931.289" transform="translate(-347.471 -35.582)" fill="#f5f5f5"/><path d="M363.379,405.9c0,.16,12.619.289,28.182.289s28.185-.129,28.185-.289-12.617-.289-28.185-.289-28.182.13-28.182.289" transform="translate(-347.415 -39.86)" fill="#f5f5f5"/><rect width="112.371" height="117.138" transform="translate(1.801 4.46)" fill="#e0e0e0"/><rect width="112.371" height="117.138" transform="translate(9.41 4.46)" fill="#fafafa"/><path d="M308.5,122.115H420.941V4.908H308.5Zm112.372-.07h-112.3V4.977h112.3Z" transform="translate(-299.124 -0.482)" fill="#e0e0e0"/><rect width="82.16" height="85.644" transform="translate(24.516 20.207)" fill="#fafafa"/><path d="M308.664,118.018a13.392,13.392,0,0,0,2.027,2.357c1.312,1.385,3.156,3.259,5.223,5.295s3.967,3.849,5.367,5.137a13.088,13.088,0,0,0,2.375,1.978,13.057,13.057,0,0,0-2.017-2.348c-1.312-1.384-3.16-3.263-5.234-5.3s-3.977-3.859-5.378-5.147a12.812,12.812,0,0,0-2.363-1.968" transform="translate(-201.988 -11.597)" fill="#e0e0e0"/><path d="M431.171,117.786a13.38,13.38,0,0,0-2.357,2.027c-1.385,1.312-3.259,3.156-5.295,5.223s-3.85,3.967-5.138,5.367a13.111,13.111,0,0,0-1.977,2.375,13.136,13.136,0,0,0,2.347-2.016c1.385-1.313,3.263-3.161,5.306-5.234s3.859-3.977,5.146-5.378a12.855,12.855,0,0,0,1.969-2.363" transform="translate(-406.655 -11.575)" fill="#e0e0e0"/><path d="M431.147,21.052a13.373,13.373,0,0,0-2.028-2.357c-1.312-1.385-3.155-3.259-5.222-5.294s-3.967-3.85-5.368-5.139a13.082,13.082,0,0,0-2.374-1.977,13.06,13.06,0,0,0,2.016,2.347c1.312,1.385,3.161,3.263,5.234,5.306s3.977,3.858,5.378,5.147a12.812,12.812,0,0,0,2.363,1.968" transform="translate(-406.406 -0.617)" fill="#e0e0e0"/><path d="M308.665,21.261a13.425,13.425,0,0,0,2.357-2.027c1.385-1.312,3.259-3.156,5.3-5.223s3.85-3.967,5.137-5.368a13.021,13.021,0,0,0,1.977-2.374,13.083,13.083,0,0,0-2.347,2.016c-1.384,1.312-3.262,3.161-5.3,5.235S311.92,17.5,310.633,18.9a12.817,12.817,0,0,0-1.968,2.363" transform="translate(-201.763 -0.616)" fill="#e0e0e0"/><path d="M325.2,108.014a3.908,3.908,0,0,0,.018-.416c0-.292.01-.686.018-1.2.009-1.074.021-2.618.037-4.623.019-4.057.048-9.96.083-17.455.039-15,.094-36.369.161-61.955l-.317.317,81.926.047h.008l-.363-.363c.019,31.435.037,60.843.051,85.644l.312-.312-59.326.16-16.665.081-4.409.036L325.6,108a3.733,3.733,0,0,0-.4.017,2.548,2.548,0,0,0,.362.018l1.106.017,4.349.036,16.593.082,59.525.16h.313v-.314c.014-24.8.032-54.209.051-85.644v-.363h-.372l-81.926.046h-.317v.317c.067,25.67.123,47.109.161,62.158.036,7.464.064,13.343.083,17.383.016,1.979.029,3.5.037,4.563.008.5.014.877.018,1.161a2.818,2.818,0,0,0,.018.381" transform="translate(-300.463 -2.163)" fill="#e0e0e0"/><rect width="27.415" height="27.415" transform="translate(51.889 49.322)" fill="#ebebeb"/><rect width="211.774" height="6.705" transform="translate(188.226 144.148)" fill="#e0e0e0"/><rect width="10.723" height="21.236" transform="translate(353.514 147.502)" fill="#e0e0e0"/><rect width="10.722" height="24.588" transform="translate(226.369 144.149)" fill="#e0e0e0"/><path d="M90.837,109.9,83.9,155.46H43.625l-9.349-44.9Z" transform="translate(278.256 -10.8)" fill="#ebebeb"/><path d="M39.629,142.254c0,.131,10.321.236,23.05.236s23.052-.105,23.052-.236-10.319-.236-23.052-.236-23.05.105-23.05.236" transform="translate(278.535 -13.957)" fill="#fafafa"/><path d="M39.456,139.769c0,.131,10.391.236,23.206.236s23.208-.105,23.208-.236-10.389-.236-23.208-.236-23.206.105-23.206.236" transform="translate(278.552 -13.712)" fill="#fafafa"/><path d="M39.367,136.963c0,.131,10.391.236,23.206.236s23.209-.105,23.209-.236-10.389-.236-23.209-.236-23.206.105-23.206.236" transform="translate(278.72 -13.437)" fill="#fafafa"/><path d="M44.87,156.283a36.559,36.559,0,0,0,1.235-5.737,36.493,36.493,0,0,0,.769-5.817,36.623,36.623,0,0,0-1.235,5.737,36.606,36.606,0,0,0-.769,5.817" transform="translate(312.662 -14.223)" fill="#fafafa"/><path d="M49.353,155.783a44.445,44.445,0,0,0,.5-5.6,44.437,44.437,0,0,0,.262-5.613,27.073,27.073,0,0,0-.734,5.582,27.064,27.064,0,0,0-.028,5.629" transform="translate(305.439 -14.208)" fill="#fafafa"/><path d="M54.131,155.743A28.08,28.08,0,0,0,55.179,150a28.057,28.057,0,0,0,.307-5.827,50.578,50.578,0,0,0-.776,5.772,50.357,50.357,0,0,0-.578,5.794" transform="translate(295.668 -14.169)" fill="#fafafa"/><path d="M58.963,156a28.6,28.6,0,0,0,.558-5.831,28.553,28.553,0,0,0-.179-5.855,50.36,50.36,0,0,0-.294,5.84A50.3,50.3,0,0,0,58.963,156" transform="translate(287.33 -14.182)" fill="#fafafa"/><path d="M66.015,155.8a32.708,32.708,0,0,0,.424-5.534,32.689,32.689,0,0,0-.049-5.551,32.711,32.711,0,0,0-.424,5.535,32.681,32.681,0,0,0,.049,5.55" transform="translate(274.072 -14.221)" fill="#fafafa"/><path d="M71.542,156.023a34.852,34.852,0,0,0,.19-5.725,35,35,0,0,0-.283-5.722,34.865,34.865,0,0,0-.19,5.726,34.876,34.876,0,0,0,.283,5.721" transform="translate(264.012 -14.208)" fill="#fafafa"/><path d="M77.335,155.3a38.073,38.073,0,0,0-.344-5.982,38.138,38.138,0,0,0-.813-5.939,38.09,38.09,0,0,0,.344,5.984,38.088,38.088,0,0,0,.813,5.937" transform="translate(253.969 -14.09)" fill="#fafafa"/><path d="M84.415,154.845a20.3,20.3,0,0,0-.678-5.088,20.224,20.224,0,0,0-1.5-4.911,45.294,45.294,0,0,0,1.036,5.012,45.1,45.1,0,0,0,1.14,4.987" transform="translate(241.409 -14.234)" fill="#fafafa"/><path d="M66.2,10.2a.924.924,0,0,0,.049.225c.051.172.112.383.188.644l.766,2.459c.344,1.063.757,2.368,1.182,3.9s.974,3.253,1.453,5.194c.512,1.932,1.065,4.05,1.569,6.345.56,2.283,1.029,4.749,1.554,7.338.965,5.193,1.847,10.936,2.468,17,.589,6.07.861,11.876.942,17.159,0,2.641.023,5.152-.073,7.5-.042,2.349-.165,4.535-.285,6.529-.087,2-.275,3.8-.4,5.379s-.261,2.943-.389,4.054c-.112,1.083-.2,1.939-.265,2.562-.023.271-.041.49-.057.668a.97.97,0,0,0,0,.23.8.8,0,0,0,.051-.224c.029-.177.061-.394.1-.662.085-.621.2-1.474.353-2.553.155-1.108.327-2.467.468-4.051s.361-3.382.469-5.382c.142-2,.284-4.185.343-6.539.114-2.353.1-4.868.116-7.516-.056-5.295-.316-11.117-.905-17.2-.625-6.079-1.52-11.836-2.512-17.037-.537-2.592-1.022-5.061-1.6-7.345-.523-2.3-1.1-4.413-1.629-6.343-.5-1.939-1.063-3.661-1.523-5.183s-.888-2.822-1.26-3.878c-.359-1.029-.645-1.841-.85-2.433-.1-.254-.171-.461-.234-.629A.782.782,0,0,0,66.2,10.2" transform="translate(263.504 -1.002)" fill="#ebebeb"/><path d="M79.981,40.533a14.955,14.955,0,0,0-6.262-7.91,3.583,3.583,0,0,0-3.313-.608c-1.4.679-1.519,2.656-1.1,4.16a11.017,11.017,0,0,0,4.558,6.213,9.3,9.3,0,0,0,6.841,1.726" transform="translate(256.992 -3.125)" fill="#ebebeb"/><path d="M78.194,61.2c-1.041-3.932-4.177-9.522-7.435-11.956a4.793,4.793,0,0,0-1.691-.9,1.965,1.965,0,0,0-1.808.391,2.772,2.772,0,0,0-.4,2.61A15.854,15.854,0,0,0,78.609,63.176" transform="translate(261.225 -4.744)" fill="#ebebeb"/><path d="M78.512,80.074a23.014,23.014,0,0,0-7.5-9.433,3.578,3.578,0,0,0-2.618-.932c-1.423.258-2.069,2-1.943,3.436.26,2.966,2.525,5.344,4.863,7.187A30.16,30.16,0,0,0,78.252,83.9" transform="translate(261.582 -6.847)" fill="#ebebeb"/><path d="M77.3,93.686a22.15,22.15,0,0,0-6.382-7.266A4.631,4.631,0,0,0,69,85.562a1.955,1.955,0,0,0-1.879.715c-.639.94-.03,2.21.656,3.116a18.2,18.2,0,0,0,9.107,6.681" transform="translate(262.414 -8.406)" fill="#ebebeb"/><path d="M53.75,88.05a71.072,71.072,0,0,1,9.126-9.3c.518-.438,1.173-.9,1.818-.688a1.361,1.361,0,0,1,.838,1.227,3.461,3.461,0,0,1-.347,1.523A17.693,17.693,0,0,1,53.434,90.7" transform="translate(286.281 -7.667)" fill="#ebebeb"/><path d="M51.754,70.5l7.17-8.74a8.674,8.674,0,0,1,2.326-2.207,2.945,2.945,0,0,1,3.059-.036,2.9,2.9,0,0,1,.981,2.886,7.589,7.589,0,0,1-1.4,2.871,21.273,21.273,0,0,1-5.224,5.55c-2.1,1.448-4.018,2.39-6.546,2.017" transform="translate(287.985 -5.809)" fill="#ebebeb"/><path d="M53.928,50.858a25,25,0,0,1,7.215-10.832,4.216,4.216,0,0,1,1.88-1.1,3.161,3.161,0,0,1,3.289,2.309,5.921,5.921,0,0,1-.655,4.747,12.5,12.5,0,0,1-3.37,3.563,28.916,28.916,0,0,1-7.976,4.307" transform="translate(284.814 -3.822)" fill="#ebebeb"/><path d="M59.154,33.062c.694-5.067,3.332-9.283,6.388-13.383.644-.864,1.543-1.781,2.609-1.619a2.066,2.066,0,0,1,1.5,1.285,4.835,4.835,0,0,1,.284,2.025A15.653,15.653,0,0,1,59.773,35.352" transform="translate(276.724 -1.773)" fill="#ebebeb"/><path d="M82.169,23.882a41.865,41.865,0,0,0,.262-7.834,14.018,14.018,0,0,0-2.6-7.3,6.015,6.015,0,0,0-2.6-2.076,3.285,3.285,0,0,0-3.193.424A3.473,3.473,0,0,0,72.94,9.911a8.848,8.848,0,0,0,.808,3c1.91,4.6,5.1,9.684,8.421,10.97" transform="translate(251.703 -0.634)" fill="#ebebeb"/><path d="M51.36,32.478a3.275,3.275,0,0,0-.04.643c0,.467-.012,1.078-.02,1.839,0,.8,0,1.775-.046,2.908s-.045,2.424-.139,3.848c-.124,2.849-.4,6.236-.833,9.982-.463,3.741-1.1,7.839-1.984,12.1-.9,4.257-1.967,8.267-3.045,11.88-1.11,3.6-2.217,6.816-3.249,9.476-.486,1.342-1,2.527-1.418,3.579s-.8,1.95-1.127,2.681l-.72,1.693a3.291,3.291,0,0,0-.223.6,3.148,3.148,0,0,0,.308-.564q.307-.632.8-1.656c.349-.72.762-1.607,1.2-2.654s.979-2.223,1.486-3.56c1.074-2.651,2.218-5.862,3.354-9.471,1.106-3.618,2.185-7.639,3.093-11.911.885-4.276,1.512-8.391,1.953-12.146.41-3.76.652-7.161.735-10.019.072-1.428.057-2.722.069-3.858s0-2.115-.034-2.913c-.029-.761-.051-1.372-.069-1.84a3.277,3.277,0,0,0-.056-.64" transform="translate(313.745 -3.192)" fill="#e0e0e0"/><path d="M46.278,54.656a10.678,10.678,0,0,0-2.56-6.733A2.56,2.56,0,0,0,41.593,46.8c-1.1.16-1.606,1.482-1.645,2.6A7.864,7.864,0,0,0,41.715,54.6,6.639,6.639,0,0,0,46,57.25" transform="translate(317.704 -4.597)" fill="#e0e0e0"/><path d="M48.271,69.287c.138-2.9-.794-7.382-2.488-9.74a3.408,3.408,0,0,0-.958-.977,1.4,1.4,0,0,0-1.315-.124,1.98,1.98,0,0,0-.838,1.69,11.321,11.321,0,0,0,5.455,10.584" transform="translate(313.276 -5.733)" fill="#e0e0e0"/><path d="M52.97,82.3a16.441,16.441,0,0,0-3.077-8.037,2.559,2.559,0,0,0-1.581-1.2c-1.024-.131-1.839.913-2.063,1.922-.462,2.076.569,4.182,1.764,5.941a21.544,21.544,0,0,0,3.957,3.921" transform="translate(305.427 -7.179)" fill="#e0e0e0"/><path d="M55.087,91.5a15.826,15.826,0,0,0-2.781-6.321,3.294,3.294,0,0,0-1.119-1,1.394,1.394,0,0,0-1.433.081c-.638.5-.5,1.5-.225,2.263a12.986,12.986,0,0,0,4.762,6.509" transform="translate(300.458 -8.257)" fill="#e0e0e0"/><path d="M37.656,88.193a50.861,50.861,0,0,1,8.215-4.365,1.467,1.467,0,0,1,1.387-.077.972.972,0,0,1,.3,1.015,2.457,2.457,0,0,1-.564.962,12.629,12.629,0,0,1-10.126,4.2" transform="translate(319.157 -8.216)" fill="#e0e0e0"/><path d="M32.154,76.184l6.763-4.408a6.177,6.177,0,0,1,2.059-1,2.1,2.1,0,0,1,2.09.634,2.071,2.071,0,0,1,.047,2.176,5.415,5.415,0,0,1-1.571,1.654,15.187,15.187,0,0,1-4.751,2.655,6.237,6.237,0,0,1-4.891-.036" transform="translate(327.837 -6.95)" fill="#e0e0e0"/><path d="M29.644,62.534a17.846,17.846,0,0,1,7.244-5.822,3,3,0,0,1,1.516-.342,2.257,2.257,0,0,1,1.742,2.28,4.227,4.227,0,0,1-1.467,3.09,8.948,8.948,0,0,1-3.061,1.7,20.63,20.63,0,0,1-6.357,1.215" transform="translate(333.47 -5.539)" fill="#e0e0e0"/><path d="M28.172,49.718c1.564-3.3,4.267-5.6,7.23-7.737a2.192,2.192,0,0,1,2.124-.541,1.476,1.476,0,0,1,.742,1.2,3.429,3.429,0,0,1-.243,1.439A11.175,11.175,0,0,1,28.1,51.41" transform="translate(336.382 -4.06)" fill="#e0e0e0"/><path d="M39.938,42.631A29.9,29.9,0,0,0,41.8,37.354a10,10,0,0,0-.2-5.528,4.3,4.3,0,0,0-1.326-1.974,2.351,2.351,0,0,0-2.266-.4,2.48,2.48,0,0,0-1.349,1.679,6.309,6.309,0,0,0-.1,2.217c.311,3.54,1.385,7.69,3.372,9.281" transform="translate(324.981 -2.881)" fill="#e0e0e0"/><path d="M81.094,31.988a3.276,3.276,0,0,0-.056.64c-.017.468-.04,1.078-.069,1.84-.03.8-.052,1.777-.034,2.913s0,2.43.069,3.859c.081,2.859.324,6.259.734,10.019.442,3.756,1.069,7.871,1.953,12.146.908,4.272,1.987,8.293,3.093,11.911,1.135,3.609,2.28,6.82,3.353,9.471.508,1.337,1.041,2.516,1.487,3.56s.854,1.934,1.2,2.654l.8,1.656a3.176,3.176,0,0,0,.309.564,3.338,3.338,0,0,0-.223-.6L93,90.924c-.323-.73-.711-1.626-1.127-2.681s-.932-2.237-1.418-3.579C89.418,82,88.311,78.791,87.2,75.188c-1.078-3.613-2.141-7.623-3.045-11.88-.882-4.262-1.52-8.359-1.984-12.1-.433-3.746-.709-7.133-.833-9.982-.094-1.424-.1-2.715-.139-3.848s-.048-2.11-.045-2.908c-.009-.76-.015-1.372-.021-1.84a3.27,3.27,0,0,0-.04-.642" transform="translate(233.085 -3.144)" fill="#ebebeb"/><path d="M86.9,54.166a10.682,10.682,0,0,1,2.561-6.733,2.561,2.561,0,0,1,2.124-1.127c1.1.16,1.606,1.482,1.644,2.6a7.864,7.864,0,0,1-1.766,5.212,6.642,6.642,0,0,1-4.287,2.647" transform="translate(228.399 -4.549)" fill="#ebebeb"/><path d="M84.986,68.8c-.138-2.9.794-7.382,2.488-9.74a3.42,3.42,0,0,1,.958-.977,1.4,1.4,0,0,1,1.315-.124,1.98,1.98,0,0,1,.837,1.69,11.319,11.319,0,0,1-5.455,10.584" transform="translate(232.751 -5.684)" fill="#ebebeb"/><path d="M80.157,81.806a16.433,16.433,0,0,1,3.077-8.037,2.554,2.554,0,0,1,1.581-1.2c1.024-.132,1.839.913,2.063,1.921.462,2.076-.569,4.182-1.764,5.941a21.545,21.545,0,0,1-3.957,3.921" transform="translate(240.73 -7.131)" fill="#ebebeb"/><path d="M78.154,91.009a15.826,15.826,0,0,1,2.781-6.321,3.305,3.305,0,0,1,1.119-1,1.394,1.394,0,0,1,1.433.083c.638.5.5,1.5.225,2.262a13,13,0,0,1-4.762,6.509" transform="translate(245.586 -8.209)" fill="#ebebeb"/><path d="M95.046,87.7a50.823,50.823,0,0,0-8.215-4.365,1.465,1.465,0,0,0-1.386-.077.97.97,0,0,0-.306,1.015,2.468,2.468,0,0,0,.564.962,12.632,12.632,0,0,0,10.127,4.2" transform="translate(227.425 -8.168)" fill="#ebebeb"/><path d="M100.465,75.694,93.7,71.286a6.185,6.185,0,0,0-2.059-1,2.1,2.1,0,0,0-2.09.633,2.069,2.069,0,0,0-.047,2.176,5.408,5.408,0,0,0,1.571,1.655A15.2,15.2,0,0,0,95.828,77.4a6.237,6.237,0,0,0,4.891-.036" transform="translate(218.828 -6.902)" fill="#ebebeb"/><path d="M103.042,62.044A17.846,17.846,0,0,0,95.8,56.223a3,3,0,0,0-1.516-.342,2.257,2.257,0,0,0-1.742,2.28,4.227,4.227,0,0,0,1.467,3.09,8.94,8.94,0,0,0,3.061,1.7,20.624,20.624,0,0,0,6.357,1.215" transform="translate(213.128 -5.49)" fill="#ebebeb"/><path d="M104.59,49.228c-1.563-3.3-4.266-5.6-7.229-7.737a2.192,2.192,0,0,0-2.124-.541,1.477,1.477,0,0,0-.743,1.2,3.43,3.43,0,0,0,.243,1.439,11.177,11.177,0,0,0,9.925,7.334" transform="translate(210.14 -4.012)" fill="#ebebeb"/><path d="M93.326,42.141a29.76,29.76,0,0,1-1.865-5.278,10,10,0,0,1,.2-5.528,4.3,4.3,0,0,1,1.326-1.974,2.349,2.349,0,0,1,2.265-.4,2.479,2.479,0,0,1,1.35,1.679,6.309,6.309,0,0,1,.1,2.217c-.311,3.54-1.385,7.69-3.372,9.281" transform="translate(221.039 -2.832)" fill="#ebebeb"/><path d="M94.19,99.893v8.525a3.357,3.357,0,0,1-3.356,3.357H32.506a3.357,3.357,0,0,1-3.356-3.357V99.893Z" transform="translate(279.525 -9.817)" fill="#ebebeb"/><path d="M90.426,113.07l-.484,2.714-53.82,3.835-1.363-6.549Z" transform="translate(278.231 -11.112)" fill="#e0e0e0"/><path d="M213.824,93.094s9.668,7.366.4,17.1a.841.841,0,0,1-.612.259l-84.473-.492s-7.214-8.091-1.228-17.414Z" transform="translate(68.554 -9.095)" fill="#ebebeb"/><path d="M151.541,101.661c0,.094,10.519.17,23.492.17s23.494-.077,23.494-.17-10.517-.17-23.494-.17-23.492.077-23.492.17" transform="translate(64.825 -9.974)" fill="#e0e0e0"/><path d="M164.579,105.05c0,.094,4.945.17,11.044.17s11.045-.077,11.045-.17-4.944-.17-11.045-.17-11.044.077-11.044.17" transform="translate(64.926 -10.307)" fill="#e0e0e0"/><path d="M214.312,109.662c.055-.014-.186-.97-.447-2.535a35,35,0,0,1,.116-12.317c.291-1.559.55-2.51.5-2.526a2.7,2.7,0,0,0-.245.65c-.141.424-.309,1.048-.486,1.827a29.936,29.936,0,0,0-.117,12.41c.161.782.318,1.409.451,1.836a2.718,2.718,0,0,0,.234.655" transform="translate(-6.583 -9.069)" fill="#e0e0e0"/><path d="M222.566,92.427a2.918,2.918,0,0,0-.376.614,7.211,7.211,0,0,0-.375.757c-.133.3-.3.639-.431,1.033a17.994,17.994,0,0,0-.8,2.8,18.834,18.834,0,0,0-.058,7.116,18.025,18.025,0,0,0,.759,2.816c.126.395.288.736.414,1.04a7.289,7.289,0,0,0,.363.763,2.938,2.938,0,0,0,.366.619c.059-.029-.412-.939-.915-2.5a20.442,20.442,0,0,1-.677-2.793,20.14,20.14,0,0,1,.056-7,20.374,20.374,0,0,1,.723-2.781c.528-1.553,1.014-2.455.955-2.485" transform="translate(-21.142 -9.083)" fill="#e0e0e0"/><path d="M142.8,109.877a2.648,2.648,0,0,0,.393-.564,5.967,5.967,0,0,0,.395-.705,9.726,9.726,0,0,0,.451-.971,14.761,14.761,0,0,0,.824-2.665,15.673,15.673,0,0,0-.091-6.8,14.766,14.766,0,0,0-.9-2.642,9.977,9.977,0,0,0-.477-.959,5.948,5.948,0,0,0-.414-.694,2.634,2.634,0,0,0-.408-.554c-.058.035.486.852,1.078,2.3a16.461,16.461,0,0,1,.811,2.617,16.53,16.53,0,0,1,.089,6.666,16.465,16.465,0,0,1-.739,2.638c-.553,1.464-1.074,2.295-1.015,2.329" transform="translate(126.252 -9.171)" fill="#e0e0e0"/><path d="M131.972,111.923a3.364,3.364,0,0,0,.435-.64,7.488,7.488,0,0,0,.441-.794,12.027,12.027,0,0,0,.51-1.089,17.874,17.874,0,0,0,.968-2.982,18.85,18.85,0,0,0,.17-7.641,18.048,18.048,0,0,0-.834-3.022c-.141-.424-.321-.786-.463-1.111a7.217,7.217,0,0,0-.406-.812,3.323,3.323,0,0,0-.4-.658c-.061.032.48.993,1.045,2.662a19.7,19.7,0,0,1,.752,3,19.918,19.918,0,0,1-.166,7.518,19.844,19.844,0,0,1-.885,2.959c-.639,1.643-1.222,2.58-1.162,2.614" transform="translate(146.198 -9.156)" fill="#e0e0e0"/><rect width="31.28" height="16.165" transform="translate(200.796 126.59)" fill="#ebebeb"/><path d="M211.355,148.432c-.005.142-.012.285-.019.428a9.262,9.262,0,0,1-9.3,8.674H108.875v-1.169H130.99a8.083,8.083,0,0,0,0-16.165H108.875v-1.718l93.185.315a9.32,9.32,0,0,1,9.3,9.635" transform="translate(90.463 -13.609)" fill="#e0e0e0"/><path d="M189.055,149.57c0,.094,6.433.17,14.364.17s14.365-.077,14.365-.17-6.43-.17-14.365-.17-14.364.077-14.364.17" transform="translate(11.74 -14.682)" fill="#e0e0e0"/><path d="M190.266,153.61c0,.095,6.086.17,13.591.17s13.593-.076,13.593-.17-6.085-.17-13.593-.17-13.591.077-13.591.17" transform="translate(10.982 -15.079)" fill="#e0e0e0"/><path d="M193.811,157.3c0,.095,5.473.17,12.22.17s12.22-.076,12.22-.17-5.471-.17-12.22-.17-12.22.077-12.22.17" transform="translate(6.984 -15.442)" fill="#e0e0e0"/><path d="M189.708,145.941c0,.095,6.3.17,14.069.17s14.072-.076,14.072-.17-6.3-.17-14.072-.17-14.069.077-14.069.17" transform="translate(11.087 -14.325)" fill="#e0e0e0"/><path d="M192.635,142.311c0,.094,5.608.17,12.523.17s12.524-.077,12.524-.17-5.606-.17-12.524-.17-12.523.077-12.523.17" transform="translate(8.613 -13.969)" fill="#e0e0e0"/><path d="M116.688,139.131a20.627,20.627,0,0,1,1.979,2.354,11.972,11.972,0,0,1-.164,13.853,20.842,20.842,0,0,1-2.033,2.306,3.251,3.251,0,0,0,.672-.5,10.69,10.69,0,0,0,1.556-1.667,11.793,11.793,0,0,0,.167-14.134,10.626,10.626,0,0,0-1.517-1.7,3.231,3.231,0,0,0-.66-.512" transform="translate(173.843 -13.673)" fill="#f5f5f5"/><path d="M113.2,138.748a20.626,20.626,0,0,1,1.979,2.354,11.972,11.972,0,0,1-.164,13.853,20.728,20.728,0,0,1-2.033,2.306,3.3,3.3,0,0,0,.672-.5,10.688,10.688,0,0,0,1.556-1.667,11.793,11.793,0,0,0,.167-14.134,10.629,10.629,0,0,0-1.517-1.7,3.23,3.23,0,0,0-.66-.512" transform="translate(180.486 -13.635)" fill="#f5f5f5"/><path d="M183.392,139.131a20.745,20.745,0,0,1,1.979,2.354,11.972,11.972,0,0,1-.164,13.853,20.559,20.559,0,0,1-2.034,2.306,3.211,3.211,0,0,0,.673-.5,10.693,10.693,0,0,0,1.556-1.667,11.793,11.793,0,0,0,.167-14.134,10.625,10.625,0,0,0-1.517-1.7,3.26,3.26,0,0,0-.66-.512" transform="translate(46.991 -13.673)" fill="#f5f5f5"/><path d="M179.9,138.748a20.742,20.742,0,0,1,1.979,2.354,11.972,11.972,0,0,1-.164,13.853,20.845,20.845,0,0,1-2.033,2.306,3.3,3.3,0,0,0,.672-.5,10.689,10.689,0,0,0,1.556-1.667,11.793,11.793,0,0,0,.167-14.134,10.63,10.63,0,0,0-1.517-1.7,3.23,3.23,0,0,0-.66-.512" transform="translate(53.635 -13.635)" fill="#f5f5f5"/><path d="M127.73,151.01q.045-3.287.088-6.573a4.694,4.694,0,0,1,.232-1.693,1.6,1.6,0,0,1,1.247-1.053c.823-.363,2.106.322,2.682,1.271a6.231,6.231,0,0,1,.646,3.221,46.679,46.679,0,0,1-.252,5.193,6,6,0,0,1-.611,2.377,2.218,2.218,0,0,1-2.005,1.2A2.242,2.242,0,0,1,128,153.433a6.608,6.608,0,0,1-.27-2.423" transform="translate(152.199 -13.915)" fill="#f5f5f5"/><path d="M139.919,149.921c0,.094,6.735.17,15.041.17s15.041-.077,15.041-.17-6.733-.17-15.041-.17-15.041.076-15.041.17" transform="translate(103.831 -14.716)" fill="#f5f5f5"/><path d="M134.5,136.744l.172-15.322h-8.34l-.288,15.322Z" transform="translate(151.669 -11.933)" fill="#f5f5f5"/><path d="M126.151,124.426a22.121,22.121,0,0,0,3.876.17,22.119,22.119,0,0,0,3.877-.17,22.229,22.229,0,0,0-3.877-.17,22.231,22.231,0,0,0-3.876.17" transform="translate(152.343 -12.211)" fill="#e0e0e0"/><path d="M126.151,127.049a22.125,22.125,0,0,0,3.876.17,22.123,22.123,0,0,0,3.877-.17,22.224,22.224,0,0,0-3.877-.17,22.226,22.226,0,0,0-3.876.17" transform="translate(152.343 -12.469)" fill="#e0e0e0"/><path d="M126.151,129.672a22.119,22.119,0,0,0,3.876.17,22.117,22.117,0,0,0,3.877-.17,22.23,22.23,0,0,0-3.877-.17,22.232,22.232,0,0,0-3.876.17" transform="translate(152.343 -12.727)" fill="#e0e0e0"/><path d="M126.151,132.294a22.126,22.126,0,0,0,3.876.17,22.124,22.124,0,0,0,3.877-.17,22.222,22.222,0,0,0-3.877-.17,22.224,22.224,0,0,0-3.876.17" transform="translate(152.343 -12.984)" fill="#e0e0e0"/><path d="M126.151,134.917a22.126,22.126,0,0,0,3.876.17,22.124,22.124,0,0,0,3.877-.17,22.225,22.225,0,0,0-3.877-.17,22.227,22.227,0,0,0-3.876.17" transform="translate(152.343 -13.242)" fill="#e0e0e0"/><path d="M218.793,120.972H126.351a43.431,43.431,0,0,0,0,16.562H218.4v-1.127h-5.625a2.655,2.655,0,0,1-2.656-2.656v-9.165a2.655,2.655,0,0,1,2.656-2.656h6.019Z" transform="translate(67.991 -11.888)" fill="#ebebeb"/><path d="M149.2,129.815h-1.542a.349.349,0,0,0-.167.041.315.315,0,0,0-.166.29.349.349,0,0,0,.013.1c.031.131.065.261.1.394a4.377,4.377,0,0,0,.966,1.746,1.825,1.825,0,0,0,1.315.681,1.461,1.461,0,0,0,.186-.013,1.5,1.5,0,0,0,1.05-.759,3.47,3.47,0,0,0,.46-1.858,5,5,0,0,0-.182-1.323,4.447,4.447,0,0,0-.916-1.787,1.862,1.862,0,0,0-1.39-.739,1.31,1.31,0,0,0-.584.133,1.889,1.889,0,0,0-.9,1.125.337.337,0,0,0-.037.153.324.324,0,0,0,.045.166.316.316,0,0,0,.286.165.356.356,0,0,0,.1-.015.316.316,0,0,0,.212-.208l.016-.03a1.653,1.653,0,0,1,.187-.365.881.881,0,0,1,.739-.44.865.865,0,0,1,.509.187,2.731,2.731,0,0,1,.842,1.21,4.544,4.544,0,0,1,.365,1.74,3.124,3.124,0,0,1-.266,1.367.9.9,0,0,1-.8.6,1.111,1.111,0,0,1-.747-.449,4.112,4.112,0,0,1-.792-1.433q1.066,0,1.107-.013c.24-.039.363-.163.369-.373a.359.359,0,0,0-.033-.112.35.35,0,0,0-.348-.187" transform="translate(115.726 -12.44)" fill="#fafafa"/><path d="M153.082,126.81a.932.932,0,0,0-.041.112q-.1.339-1.088,5.728a.246.246,0,0,0-.015.083.344.344,0,0,0,.045.17.3.3,0,0,0,.276.169c.016,0,.034,0,.053,0a.3.3,0,0,0,.255-.229l.368-1.9h1.9l.913,1.91a.343.343,0,0,0,.317.225.327.327,0,0,0,.18-.054.32.32,0,0,0,.151-.278.249.249,0,0,0-.022-.1c-.057-.133-.151-.343-.282-.628q-1.994-4.353-2.384-5.137a.358.358,0,0,0-.32-.232.347.347,0,0,0-.3.166m.414,1.28,1.027,2.161h-1.45Z" transform="translate(106.6 -12.446)" fill="#fafafa"/><path d="M158.227,133.071h2.786a.32.32,0,0,0,.179-.054.5.5,0,0,0,.157-.348v0q0-.169-.769-5.7a.874.874,0,0,0-.016-.123.3.3,0,0,0-.3-.2.324.324,0,0,0-.153.037.308.308,0,0,0-.175.295q.037.377.189,1.564.477,3.652.5,3.856h-2.367a.466.466,0,0,0-.179.033.311.311,0,0,0-.212.311.365.365,0,0,0,.016.107.391.391,0,0,0,.344.233" transform="translate(96.299 -12.445)" fill="#fafafa"/><path d="M163.025,126.81a.94.94,0,0,0-.042.112q-.1.339-1.088,5.728a.225.225,0,0,0-.015.083.344.344,0,0,0,.045.17.3.3,0,0,0,.276.169c.016,0,.034,0,.053,0a.3.3,0,0,0,.255-.229l.368-1.9h1.9l.913,1.91a.443.443,0,0,0,.03.063.371.371,0,0,0,.287.162.327.327,0,0,0,.18-.054.32.32,0,0,0,.151-.278.249.249,0,0,0-.022-.1c-.057-.133-.152-.343-.282-.628q-1.994-4.353-2.384-5.137a.358.358,0,0,0-.32-.232.347.347,0,0,0-.3.166m.414,1.28,1.027,2.161h-1.45Z" transform="translate(87.691 -12.446)" fill="#fafafa"/><path d="M169.7,130.1q-.325.9-.5,1.4-.431,1.192-.431,1.257a.293.293,0,0,0,.053.17.317.317,0,0,0,.279.152.3.3,0,0,0,.275-.225c.022-.06.04-.106.053-.141q.227-.521.745-1.964l1.576,2.154a.386.386,0,0,0,.295.175.36.36,0,0,0,.172-.046.306.306,0,0,0,.158-.279.4.4,0,0,0,0-.07.805.805,0,0,0-.166-.269q-.793-1.024-1.751-2.439c.068-.186.131-.361.192-.527q.889-2.383.888-2.463a.358.358,0,0,0-.041-.17.29.29,0,0,0-.269-.166.335.335,0,0,0-.311.185l-.93,2.508-1.858-2.53a.373.373,0,0,0-.3-.158.32.32,0,0,0-.152.037.315.315,0,0,0-.161.3.425.425,0,0,0,.033.153Z" transform="translate(76.576 -12.446)" fill="#fafafa"/><path d="M173.152,126.667a.334.334,0,0,0-.153.037.33.33,0,0,0-.179.286q.684,5.4.755,5.84a3.551,3.551,0,0,0,.6,1.521,2.151,2.151,0,0,0,2.741.672,1.978,1.978,0,0,0,.983-.863.36.36,0,0,0,.037-.161.325.325,0,0,0-.046-.166.314.314,0,0,0-.286-.166.326.326,0,0,0-.253.137,1.786,1.786,0,0,1-1.427.812,1.407,1.407,0,0,1-1.106-.562,3.072,3.072,0,0,1-.614-1.751,1.676,1.676,0,0,0,1.41.763,1.388,1.388,0,0,0,1.243-.772,3.436,3.436,0,0,0,.465-1.858q0-.506-.047-1.045-.078-.845-.376-2.4a.387.387,0,0,0-.03-.095.306.306,0,0,0-.3-.228.315.315,0,0,0-.161.045.294.294,0,0,0-.166.265,12.23,12.23,0,0,0,.153,1.271,17.583,17.583,0,0,1,.22,1.942,3.9,3.9,0,0,1-.249,1.511q-.287.679-.826.679a.559.559,0,0,1-.112-.013,1.518,1.518,0,0,1-.833-.666,4.166,4.166,0,0,1-.689-1.537l-.423-3.176a.4.4,0,0,0-.041-.141.3.3,0,0,0-.289-.182" transform="translate(66.231 -12.448)" fill="#fafafa"/><path d="M224.2,137.726c.094,0,.17-3.8.17-8.5s-.077-8.5-.17-8.5-.17,3.8-.17,8.5.077,8.5.17,8.5" transform="translate(-26.387 -11.865)" fill="#f5f5f5"/><path d="M140.311,137.726c.095,0,.17-3.8.17-8.5s-.076-8.5-.17-8.5-.17,3.8-.17,8.5.077,8.5.17,8.5" transform="translate(133.149 -11.865)" fill="#e0e0e0"/><path d="M226,137.726c.095,0,.17-3.8.17-8.5s-.076-8.5-.17-8.5-.17,3.8-.17,8.5.077,8.5.17,8.5" transform="translate(-29.808 -11.865)" fill="#f5f5f5"/><path d="M138.63,137.726c.095,0,.17-3.8.17-8.5s-.076-8.5-.17-8.5-.17,3.8-.17,8.5.077,8.5.17,8.5" transform="translate(136.346 -11.865)" fill="#e0e0e0"/><path d="M197.905,123.834l.015-.029-9.771,7.883-.086.069.107.029,1.3.342,8.249,2.164.017,0,.014-.007,7.476-3.17c.905-.388,1.622-.694,2.116-.907l.559-.243.142-.064a.207.207,0,0,0,.048-.025.219.219,0,0,0-.05.017l-.147.057-.564.23-2.128.88-7.492,3.133.032,0-8.245-2.176-1.3-.342.02.1,9.751-7.907.014-.012v-.017" transform="translate(22.323 -12.167)" fill="#e0e0e0"/><path d="M209.712,131.186l-.533.5-.714-.155.312.662-.368.632.725-.093.488.546.136-.719.669-.295-.641-.352Z" transform="translate(1.645 -12.892)" fill="#e0e0e0"/><path d="M199.25,134.631l-.363.3-.456-.128.176.439-.262.394.473-.031.293.372.116-.459.444-.164-.4-.253Z" transform="translate(21.479 -13.231)" fill="#e0e0e0"/><path d="M188.957,129.874l-.58.036-.359-.456-.144.563-.546.2.491.312.021.58.448-.37.559.159-.214-.54Z" transform="translate(42.124 -12.722)" fill="#e0e0e0"/><path d="M215.688,123.929l-.58.036-.359-.457-.144.563-.546.2.491.311.022.581.447-.37.559.159-.214-.54Z" transform="translate(-8.712 -12.137)" fill="#e0e0e0"/><path d="M199.877,123.523l-.371.023-.228-.292-.093.359-.348.128.313.2.014.371.286-.236.357.1-.136-.345Z" transform="translate(20.826 -12.113)" fill="#e0e0e0"/><path d="M199.313,124.359c0,.038,3.162-.067,7.059-.234s7.055-.333,7.053-.371-3.161.067-7.06.234-7.054.332-7.052.37" transform="translate(6.849 -12.161)" fill="#e0e0e0"/><path d="M114.661,119.961h93.755c1.228-2.786,1.529-5.433,0-7.8H114.661a9.043,9.043,0,0,0,0,7.8" transform="translate(87.951 -11.022)" fill="#e0e0e0"/><rect width="50.793" height="2.84" transform="translate(226.16 103.366)" fill="#ebebeb"/><path d="M117.124,120.025a2.707,2.707,0,0,0,.74-.942,6.895,6.895,0,0,0,.5-5.648,2.7,2.7,0,0,0-.564-1.058,9,9,0,0,0,.335,1.131,7.9,7.9,0,0,1-.481,5.463,9.091,9.091,0,0,0-.527,1.054" transform="translate(175.646 -11.044)" fill="#e0e0e0"/><path d="M119.374,120.025a2.707,2.707,0,0,0,.74-.942,6.895,6.895,0,0,0,.5-5.648,2.7,2.7,0,0,0-.564-1.058,9,9,0,0,0,.335,1.131,7.9,7.9,0,0,1-.481,5.463,9.09,9.09,0,0,0-.527,1.054" transform="translate(171.367 -11.044)" fill="#e0e0e0"/><path d="M215.684,119.824a16.011,16.011,0,0,1-.66-3.815,16.023,16.023,0,0,1,.616-3.823,7.941,7.941,0,0,0,.044,7.639" transform="translate(-9.278 -11.025)" fill="#f5f5f5"/><path d="M213.351,119.822c.1-.023-.292-1.671-.281-3.737-.005-2.067.393-3.712.291-3.737a11.446,11.446,0,0,0-.01,7.474" transform="translate(-5.201 -11.041)" fill="#f5f5f5"/></g><g clip-path="url(#a)"><path d="M79.036,297.719a40.2,40.2,0,0,0,4.1,3.18,100.105,100.105,0,0,1,9.436,8.136,100.151,100.151,0,0,1,8.3,9.294,40.235,40.235,0,0,0,3.25,4.048,21.7,21.7,0,0,0-2.711-4.451,72.1,72.1,0,0,0-17.879-17.573,21.739,21.739,0,0,0-4.5-2.634" transform="translate(224.603 -29.257)" fill="#263238"/><path d="M97.787,282.445c-.256.062.619,4.517,1.951,9.95s2.62,9.777,2.871,9.7-.621-4.529-1.951-9.951-2.616-9.762-2.871-9.7" transform="translate(209.209 -27.757)" fill="#263238"/><path d="M104.216,281.551c.665.294.857,1.918.307,2.7a2.017,2.017,0,0,1-2.575.446,2.172,2.172,0,0,1-.858-2.9,2.147,2.147,0,0,1,3.2-.2" transform="translate(204.242 -27.612)" fill="#455a64"/><path d="M100.915,288.551c-.109.239,1.49,1.2,3.571,2.151s3.858,1.523,3.967,1.283-1.491-1.2-3.572-2.15-3.857-1.523-3.966-1.284" transform="translate(200.55 -28.351)" fill="#263238"/><path d="M109.275,286.818a3.23,3.23,0,0,1,1.265,1.607,1.433,1.433,0,0,1-.753,1.734,1.354,1.354,0,0,1-1.258-.272,2.492,2.492,0,0,1-.727-1.11,2.013,2.013,0,0,1-.073-1.416.985.985,0,0,1,1.152-.627" transform="translate(192.351 -28.174)" fill="#455a64"/><path d="M108.722,295.715a1.95,1.95,0,1,0,.42.015" transform="translate(192.947 -29.059)" fill="#455a64"/><path d="M63.115,235.72a20.957,20.957,0,0,0-.234,3.224c-.072,2.231-.169,5.2-.285,8.785-.2,7.419-.408,17.666-.581,28.983s-.275,21.569-.3,28.989c.007,3.591.014,6.555.017,8.786a20.922,20.922,0,0,0,.137,3.225,21.054,21.054,0,0,0,.234-3.218c.073-2.231.17-5.194.286-8.784.2-7.418.408-17.669.581-28.994s.275-21.571.3-28.99c-.007-3.591-.014-6.555-.018-8.786a20.772,20.772,0,0,0-.136-3.22" transform="translate(281.082 -23.165)" fill="#263238"/><path d="M46.27,227.424A14.3,14.3,0,1,0,61.656,214.3,14.3,14.3,0,0,0,46.27,227.424" transform="translate(283.49 -21.055)" fill="#406834"/><g transform="translate(343.686 199.922)" opacity="0.3"><g transform="translate(0)"><g transform="translate(0)" clip-path="url(#d)"><path d="M49.372,243.626a29.855,29.855,0,0,0-.123-4.139,23.557,23.557,0,0,1,1.464-9.623,13.36,13.36,0,0,1,6.458-6.918c2.271-1.048,3.917-.9,3.905-1.088,0-.055-.393-.146-1.126-.148a8.641,8.641,0,0,0-3.042.616,13.124,13.124,0,0,0-7.074,7.173,21.231,21.231,0,0,0-1.256,10.029,13.034,13.034,0,0,0,.794,4.1" transform="translate(-48.454 -221.71)"/></g></g></g><g transform="translate(331.267 201.642)" opacity="0.3"><g transform="translate(0)"><g transform="translate(0)" clip-path="url(#e)"><path d="M61.188,223.886c-.037.289,4.009.011,7.933,2.569,3.944,2.533,5.347,6.337,5.6,6.185.109-.036-.071-1.021-.833-2.434a12.787,12.787,0,0,0-10.135-6.557,4.693,4.693,0,0,0-2.562.237" transform="translate(-61.188 -223.618)"/></g></g></g><g transform="translate(337.607 197.093)" opacity="0.3"><g transform="translate(0)"><g transform="translate(0)" clip-path="url(#f)"><path d="M54.942,224.53c.157.035.34-.944,1.226-2.161a6.44,6.44,0,0,1,10.023-.837c1.077,1.054,1.419,1.988,1.568,1.928.1-.014-.016-1.086-1.072-2.382A6.706,6.706,0,0,0,55.6,222c-.826,1.454-.761,2.53-.662,2.528" transform="translate(-54.885 -218.573)"/></g></g></g><g transform="translate(341.449 198.236)" opacity="0.3"><g transform="translate(0)"><g transform="translate(0)" clip-path="url(#g)"><path d="M60.079,227.4c.279.026.583-1.94,1.788-3.986,1.171-2.067,2.722-3.311,2.56-3.539-.107-.224-2.078.778-3.385,3.062-1.326,2.272-1.21,4.481-.963,4.463" transform="translate(-59.924 -219.84)"/></g></g></g><g transform="translate(342.999 201.404)" opacity="0.3"><g transform="translate(0)"><g transform="translate(0)" clip-path="url(#h)"><path d="M58.709,223.484c-.069.282,1.114.656,2.092,1.611.972.977,1.656,2.06,1.909,1.913.2-.1-.065-1.386-1.251-2.6-1.276-1.2-2.741-1.153-2.75-.923" transform="translate(-58.706 -223.354)"/></g></g></g><path d="M44.766,284.4c-.251-.08-4.184,11.5-8.785,25.863S27.852,336.34,28.1,336.421s4.183-11.5,8.786-25.866,8.128-26.073,7.877-26.154" transform="translate(329.892 -27.949)" fill="#263238"/><path d="M18.319,314.533c.16.171,4.177-3,9.2-6.866s8.951-7.2,8.777-7.421c-.156-.193-4.339,2.786-9.362,6.669s-8.813,7.4-8.616,7.618" transform="translate(347.185 -29.505)" fill="#263238"/><path d="M19.592,298.836c.774.707.492,2.287-.38,3.16s-2.906.453-3.565-.591a2.353,2.353,0,0,1,.88-3.18,2.586,2.586,0,0,1,3.258.865" transform="translate(366.122 -29.281)" fill="#455a64"/><path d="M32.4,278.135c-.289.058.573,4.184,2.277,9.019s2.749,8.808,2.991,8.77c.28-.042-.382-4.217-2.088-9.073-1.7-4.839-2.95-8.759-3.179-8.716" transform="translate(333.1 -27.333)" fill="#263238"/><path d="M38.94,274.146c.951.682.994,1.093,1.358,2.2a2.177,2.177,0,0,1-1.3,2.822,2.514,2.514,0,0,1-2.516-1.7A3.01,3.01,0,0,1,36.5,274.6a1.664,1.664,0,0,1,2.556-.281" transform="translate(327.012 -26.911)" fill="#455a64"/><path d="M27.506,311.771c.095-.245-1.6-1.188-3.774-2.106s-4.036-1.467-4.144-1.228,1.581,1.182,3.775,2.106,4.049,1.473,4.143,1.228" transform="translate(354.832 -30.305)" fill="#263238"/><path d="M18.821,310.323c.656.341.928,1.922.892,2.585a2.138,2.138,0,0,1-1.014,1.628,2.549,2.549,0,1,1,.122-4.214" transform="translate(366.933 -30.451)" fill="#455a64"/><path d="M29.89,281.236a3.4,3.4,0,0,1-5.874,2.991,2.485,2.485,0,0,1-.659-1.94,3.944,3.944,0,0,1,3.069-2.822,3.516,3.516,0,0,1,3.464,1.77" transform="translate(348.99 -27.463)" fill="#455a64"/><path d="M67.735,297.218A18.075,18.075,0,0,0,68.869,301l3.152,8.966,3.229,8.941a18.161,18.161,0,0,0,1.517,3.648c.272-.079-1.335-5.907-3.849-12.908-2.481-7.011-4.922-12.542-5.183-12.432" transform="translate(262.142 -29.208)" fill="#263238"/><path d="M68.018,288.327a12.24,12.24,0,1,0,9.428-14.516,12.239,12.239,0,0,0-9.428,14.516" transform="translate(246.677 -26.882)" fill="#406834"/><g transform="translate(327.438 249.787)" opacity="0.3"><g clip-path="url(#i)"><path d="M75.347,297.746a20.107,20.107,0,0,0-1.062-3.382,20.351,20.351,0,0,1-1.12-8.228,11.466,11.466,0,0,1,3.577-7.219,20.989,20.989,0,0,1,2.909-1.881c.008-.086-1.493-.027-3.337,1.362a11.22,11.22,0,0,0-4.1,7.638,18.041,18.041,0,0,0,1.434,8.559,10.008,10.008,0,0,0,1.7,3.152" transform="translate(-72.144 -277.01)"/></g></g><g transform="translate(314.844 256.307)" opacity="0.3"><g transform="translate(0)"><g transform="translate(0)" clip-path="url(#j)"><path d="M79.746,285.353c.057.28,3.3-.895,7.116.243,3.825,1.107,5.917,3.851,6.116,3.647.1-.068-.279-.844-1.243-1.831a10.846,10.846,0,0,0-9.953-2.924c-1.345.307-2.079.757-2.036.866" transform="translate(-79.744 -284.24)"/></g></g></g><g transform="translate(320.12 250.036)" opacity="0.3"><g transform="translate(0)"><g transform="translate(0)" clip-path="url(#k)"><path d="M77.168,284.046c.156-.013.087-.858.527-2.059a5.5,5.5,0,0,1,7.949-3.1c1.136.586,1.657,1.255,1.781,1.159.092-.046-.25-.911-1.435-1.736a5.764,5.764,0,0,0-8.941,3.486c-.315,1.409.02,2.277.119,2.249" transform="translate(-76.917 -277.286)"/></g></g></g><g transform="translate(323.705 250.836)" opacity="0.3"><g transform="translate(0)"><g transform="translate(0)" clip-path="url(#l)"><path d="M82.588,285.424c.271-.057.077-1.735.563-3.69.454-1.963,1.39-3.37,1.173-3.543-.171-.183-1.578,1.111-2.1,3.321-.538,2.2.128,4,.363,3.912" transform="translate(-82.019 -278.173)"/></g></g></g><g transform="translate(324.381 253.909)" opacity="0.3"><g transform="translate(0)"><g transform="translate(0)" clip-path="url(#m)"><path d="M79.234,281.926c.018.285,1.068.34,2.077.874,1.016.552,1.867,1.252,2.064,1.043.166-.156-.34-1.17-1.628-1.89-1.365-.685-2.567-.254-2.513-.027" transform="translate(-79.232 -281.581)"/></g></g></g><path d="M53.873,268.749a8.874,8.874,0,0,0-.474,2.034q-.383,2.279-.94,5.579c-.752,4.713-1.725,11.229-2.741,18.433s-1.884,13.736-2.464,18.47q-.377,3.317-.639,5.614a8.7,8.7,0,0,0-.106,2.078,8.762,8.762,0,0,0,.473-2.025q.383-2.276.939-5.574c.752-4.714,1.726-11.237,2.744-18.45s1.885-13.747,2.465-18.481q.377-3.314.639-5.611a8.636,8.636,0,0,0,.1-2.069" transform="translate(304.186 -26.411)" fill="#263238"/><path d="M31.858,253.514a12.24,12.24,0,1,0,15.089-8.483,12.24,12.24,0,0,0-15.089,8.483" transform="translate(315.797 -24.035)" fill="#406834"/><g transform="translate(357.424 228.112)" opacity="0.3"><g transform="translate(0)"><g transform="translate(0)" clip-path="url(#n)"><path d="M32.314,269.779a20.093,20.093,0,0,0,.629-3.49,20.339,20.339,0,0,1,2.826-7.808,11.465,11.465,0,0,1,6.519-4.735,20.968,20.968,0,0,1,3.449-.316c.048-.072-1.309-.717-3.588-.343a11.227,11.227,0,0,0-7.172,4.866,18.04,18.04,0,0,0-2.7,8.247,10,10,0,0,0,.039,3.579" transform="translate(-32.17 -252.972)"/></g></g></g><g transform="translate(349.656 225.893)" opacity="0.3"><g transform="translate(0)"><g transform="translate(0)" clip-path="url(#o)"><path d="M44.748,250.6c-.079.275,3.34.739,6.191,3.517,2.875,2.757,3.455,6.157,3.727,6.069.115-.016.144-.876-.253-2.2a10.843,10.843,0,0,0-7.459-7.209c-1.335-.352-2.194-.294-2.206-.178" transform="translate(-44.746 -250.511)"/></g></g></g><g transform="translate(354.81 223.893)" opacity="0.3"><g transform="translate(0)"><g transform="translate(0)" clip-path="url(#p)"><path d="M37.9,252.4c.143.061.475-.72,1.422-1.579a5.5,5.5,0,0,1,8.478.943c.736,1.046.887,1.881,1.041,1.853.1,0,.2-.923-.465-2.2a5.764,5.764,0,0,0-9.537-1.061c-.933,1.1-1.04,2.027-.939,2.048" transform="translate(-37.864 -248.294)"/></g></g></g><g transform="translate(357.614 225.288)" opacity="0.3"><g transform="translate(0)"><g transform="translate(0)" clip-path="url(#q)"><path d="M41.562,255.5c.267.076.873-1.5,2.21-3.007,1.313-1.528,2.794-2.34,2.684-2.594-.067-.242-1.913.252-3.4,1.968s-1.741,3.6-1.493,3.634" transform="translate(-41.477 -249.841)"/></g></g></g><g transform="translate(359.564 227.518)" opacity="0.3"><g transform="translate(0)"><g transform="translate(0)" clip-path="url(#r)"><path d="M41.614,252.4c-.116.261.788.8,1.435,1.738.644.96,1.071,1.975,1.344,1.882.219-.061.241-1.194-.565-2.429-.892-1.241-2.156-1.417-2.214-1.19" transform="translate(-41.604 -252.314)"/></g></g></g><path d="M72.832,404.394l11.115-80.151H36.127l9.762,80.151Z" transform="translate(283.477 -31.864)" fill="#263238"/><path d="M40.946,358.96c0,.222,8.96.4,20.011.4s20.013-.18,20.013-.4-8.959-.4-20.013-.4-20.011.18-20.011.4" transform="translate(282.108 -35.237)" fill="#fafafa"/><path d="M41.74,364.677c0,.222,8.577.4,19.155.4s19.157-.179,19.157-.4-8.575-.4-19.157-.4-19.155.18-19.155.4" transform="translate(282.309 -35.798)" fill="#fafafa"/><path d="M42.5,370.145c0,.222,8.29.4,18.513.4s18.515-.179,18.515-.4-8.288-.4-18.515-.4-18.513.179-18.513.4" transform="translate(282.152 -36.336)" fill="#fafafa"/><path d="M43.322,376.085c0,.222,7.978.4,17.815.4s17.818-.179,17.818-.4-7.976-.4-17.818-.4-17.815.18-17.815.4" transform="translate(281.98 -36.919)" fill="#fafafa"/><path d="M44.47,381.514c0,.222,7.612.4,17,.4s17-.179,17-.4-7.611-.4-17-.4-17,.179-17,.4" transform="translate(281.429 -37.453)" fill="#fafafa"/><path d="M44.828,386.943c0,.222,7.327.4,16.363.4s16.364-.179,16.364-.4-7.325-.4-16.364-.4-16.363.18-16.363.4" transform="translate(282.023 -37.987)" fill="#fafafa"/><path d="M45.581,392.372c0,.222,7.121.4,15.9.4s15.9-.179,15.9-.4-7.119-.4-15.9-.4-15.9.179-15.9.4" transform="translate(281.51 -38.52)" fill="#fafafa"/><path d="M46.333,397.8c0,.222,6.835.4,15.265.4s15.267-.179,15.267-.4-6.834-.4-15.267-.4-15.265.179-15.265.4" transform="translate(281.355 -39.054)" fill="#fafafa"/></g><g clip-path="url(#a)"><path d="M157.906,24.515c1.428,2.333,4.831,2.8,7.314,1.649s4.19-3.49,5.537-5.869,2.472-4.929,4.288-6.974a12.713,12.713,0,0,1,12.608-3.834,11.614,11.614,0,0,1,8.328,10.025c.39,5.568-3.7,10.71-8.737,13.122s-10.825,2.606-16.4,2.381" transform="translate(61.604 -0.891)" fill="#263238"/><path d="M299.986,30.4c-5.422-2.592-12.309.576-15.4,5.732S281.5,47.755,282.7,53.645c1.133,5.576,2.966,12.222-1.006,16.3-3.113,3.194-8.807,3.378-11.013,7.254-3.168,5.567,3.942,12.084,2.967,18.415-.616,4-4.323,6.781-8.031,8.4s-7.793,2.588-10.969,5.1-5.088,7.344-2.75,10.647l20.715,6.516,4.217-7.29c-1.455,3.077-.8,6.836.939,9.762a25.4,25.4,0,0,0,7.174,7.166c10.726,7.839,23.737,13.283,37,12.548" transform="translate(-148.145 -2.897)" fill="#263238"/><path d="M267.148,38.295c.159-5.533-4.959-9.808-10.109-11.835s-10.877-2.791-15.468-5.881c-4.066-2.737-6.8-7-10.24-10.493a34.072,34.072,0,0,0-57.3,15.632c-1.977,7.88-.628,17.2,5.584,22.433,7.209,6.077,17.9,4.727,27.134,2.837s19.692-3.755,27.4,1.669c4.65,3.271,7.317,8.593,10.16,13.518s6.411,9.952,11.788,11.8,12.677-1.345,12.887-7.028" transform="translate(-25.149 0)" fill="#263238"/><path d="M266.154,43.141c-.609,4.638,2.748,8.79,6.088,12.064s7.116,6.747,7.705,11.387c.689,5.419-3.268,10.758-2.12,16.1.729,3.391,3.365,6,4.965,9.08a19.3,19.3,0,0,1,.985,14.218c-1.377,4.67-3.572,15.1-6.818,18.73-8.979,10.037-23.273,18.7-36.4,21.714s-26.757,3.033-40.2,2.206c-11-.676-23.657-.17-32.827-15.309-4.748-7.84-7.1-18.264-9.625-27.077-2.174-7.587-4.053-15.713-1.794-23.274,1.317-4.406,3.967-8.324,5.265-12.735,1.621-5.51,1.03-11.405,1.683-17.112a39.26,39.26,0,0,1,55.859-31" transform="translate(-24.527 -1.809)" fill="#263238"/><path d="M191.356,63.267c1.03-15.789,11.536-35.142,27.268-33.443l49.108,12.529A9.26,9.26,0,0,1,276,51.762L272.8,159.652a28.473,28.473,0,0,1-56.934-.8c-.014-7.689-.019-16.749-.022-16.71,0,0-20.169-3.394-24.291-29.727-2.05-13.1-1.344-31.607-.2-49.151" transform="translate(-47.552 -2.921)" fill="#ffbe9d"/><path d="M266.931,89.177a3.376,3.376,0,0,0,3.248,3.414,3.23,3.23,0,0,0,3.487-3.036,3.379,3.379,0,0,0-3.244-3.416,3.231,3.231,0,0,0-3.491,3.038" transform="translate(-114.365 -8.465)" fill="#263238"/><path d="M264.236,78.933c.417.441,2.979-1.445,6.612-1.428,3.629-.034,6.291,1.84,6.686,1.4.194-.2-.231-.992-1.39-1.84a9.264,9.264,0,0,0-5.351-1.662,8.892,8.892,0,0,0-5.264,1.686c-1.119.855-1.5,1.65-1.294,1.848" transform="translate(-115.801 -7.41)" fill="#263238"/><path d="M228.278,89.177a3.375,3.375,0,0,0,3.248,3.413,3.229,3.229,0,0,0,3.486-3.036,3.377,3.377,0,0,0-3.244-3.415,3.23,3.23,0,0,0-3.49,3.038" transform="translate(-40.856 -8.465)" fill="#263238"/><path d="M224.635,79.773c.419.441,2.984-1.445,6.614-1.428,3.629-.034,6.291,1.84,6.685,1.4.194-.2-.226-.992-1.39-1.84a9.264,9.264,0,0,0-5.351-1.664,8.908,8.908,0,0,0-5.265,1.687c-1.115.854-1.5,1.65-1.294,1.848" transform="translate(-40.492 -7.492)" fill="#263238"/><path d="M261.359,106.7c.017-.206-2.24-.6-5.9-1.078-.927-.1-1.805-.284-1.96-.917a4.715,4.715,0,0,1,.626-2.748q1.316-3.364,2.759-7.058c3.831-10.049,6.608-18.313,6.2-18.463s-3.842,7.871-7.674,17.921q-1.384,3.716-2.644,7.1c-.353,1.053-.96,2.248-.49,3.64a2.33,2.33,0,0,0,1.523,1.36,6.248,6.248,0,0,0,1.574.222c3.683.206,5.967.228,5.981.022" transform="translate(-90.46 -7.512)" fill="#263238"/><path d="M253.152,144.01s-8.566,18.081-34.908,15.559l-.007-6.192a66.315,66.315,0,0,0,34.915-9.367" transform="translate(-49.942 -14.152)" fill="#eb996e"/><path d="M240.739,119.448a6.547,6.547,0,0,1,5.874-2.418,5.971,5.971,0,0,1,4.122,2.224,3.785,3.785,0,0,1,.279,4.33c-.984,1.377-3.033,1.691-4.765,1.194A13.751,13.751,0,0,1,241.611,122a4,4,0,0,1-1.035-1.076,1.216,1.216,0,0,1,.008-1.353" transform="translate(-68.323 -11.497)" fill="#eb6f2d"/><path d="M253.171,112.816c-.591-.035-.607,3.908-3.988,6.7s-7.578,2.348-7.61,2.9c-.056.247.934.768,2.708.82a9.813,9.813,0,0,0,6.352-2.2,8.545,8.545,0,0,0,3.091-5.617c.154-1.648-.283-2.626-.553-2.6" transform="translate(-71.586 -11.087)" fill="#263238"/><path d="M221.99,68.065c.355.988,3.985.528,8.245,1.051,4.272.437,7.706,1.693,8.274.808.253-.423-.344-1.353-1.731-2.313a14.455,14.455,0,0,0-12.585-1.418c-1.566.628-2.354,1.4-2.2,1.871" transform="translate(-38.723 -6.423)" fill="#263238"/><path d="M263.846,67.252c.637.827,3.142-.023,6.152-.058,3.007-.139,5.557.567,6.145-.295.258-.418-.142-1.245-1.254-2.029a8.9,8.9,0,0,0-9.907.285c-1.065.845-1.417,1.694-1.135,2.1" transform="translate(-114.052 -6.241)" fill="#263238"/><path d="M252.606,128.346A23.375,23.375,0,0,1,224.8,102.5c.819-6.464,4.3-13.043,2.063-19.162-2.964-8.091-14.3-10.58-17.314-18.653-1.749-4.693-.179-10.181-2.162-14.779-1.864-4.325-6.413-6.814-10.841-8.416s-9.176-2.706-12.894-5.6-6.037-8.345-3.638-12.4A249.447,249.447,0,0,1,237.533,37.47c4.3,1.6,8.809,3.533,11.348,7.352,2.688,4.041,2.559,9.261,2.333,14.108l-3.308,70.91" transform="translate(-14.045 -2.309)" fill="#263238"/><path d="M121.382,12.441c-.679,6.635-1.343,13.458.467,19.878s6.7,12.43,13.274,13.53c3.115.52,6.611,0,9.174,1.849,5.437,3.919.986,13.1,4.193,18.987,2.875,5.277,10.6,5.752,14.432,10.381,4.223,5.1,2.041,12.786-.908,18.714s-6.588,12.456-4.62,18.778c2.2,7.067,10.639,10.816,12.714,17.922,1.336,4.576-.069,10.215,3.2,13.683,2.528,2.679,6.717,2.73,10.385,2.395A103.88,103.88,0,0,0,226.5,134.835a24.372,24.372,0,0,1-3.531-12.12l7.367,5.368,16.989-21.173a34.478,34.478,0,0,0-19.092-19.161c-5.137-2.043-11.717-3.78-12.922-9.176-.666-2.987,2.919-8.424.983-15.36,0,0-3.233-13.208-10.876-16.933s-6.585-5.957-8.253-11.043" transform="translate(43.849 -1.223)" fill="#263238"/><path d="M246.7,106.114c-.011-.179-2.372-.1-6.605-.05a63.536,63.536,0,0,1-7.657-.352,30.167,30.167,0,0,1-9.609-2.605,23.165,23.165,0,0,1-4.821-3.085,17.144,17.144,0,0,1-3.9-4.676,17.794,17.794,0,0,1-1.973-6.224c-.358-2.286-.483-4.73-.867-7.288a19.656,19.656,0,0,0-2.637-7.679,11.045,11.045,0,0,0-3.048-3.184,12.361,12.361,0,0,0-4.11-1.717c-2.867-.667-5.715-.6-8.413-.915-2.691-.29-5.269-1.021-6.99-2.944a14.947,14.947,0,0,1-3.274-7.139c-.57-2.639-.757-5.445-1.3-8.21a17.822,17.822,0,0,0-3.252-7.855,15.355,15.355,0,0,0-3.064-2.888,18,18,0,0,0-3.568-1.925,30.2,30.2,0,0,0-14.537-1.529c-4.5.454-8.579,1.2-12.309,1.348a31.533,31.533,0,0,1-5.276-.151,20.808,20.808,0,0,1-4.531-1.1,16.828,16.828,0,0,1-6.309-3.923,11.691,11.691,0,0,1-2.617-3.923c-.415-1.014-.548-1.594-.651-1.574a3.692,3.692,0,0,0,.2,1.725,10.74,10.74,0,0,0,2.392,4.391,17.058,17.058,0,0,0,6.5,4.528,21.547,21.547,0,0,0,4.8,1.354,31.975,31.975,0,0,0,5.54.331c3.877-.052,8.033-.712,12.428-1.068a38.445,38.445,0,0,1,6.74-.041,23.79,23.79,0,0,1,6.8,1.629,13.892,13.892,0,0,1,5.687,4.191,15.675,15.675,0,0,1,2.762,6.911c.506,2.6.671,5.376,1.279,8.267A17.1,17.1,0,0,0,184.356,67a10.478,10.478,0,0,0,4,2.666,18.005,18.005,0,0,0,4.442.991c2.906.319,5.677.26,8.154.834a10.17,10.17,0,0,1,3.36,1.363,8.808,8.808,0,0,1,2.439,2.52,17.673,17.673,0,0,1,2.38,6.8c.393,2.407.553,4.866.966,7.28a19.626,19.626,0,0,0,2.319,6.858,18.827,18.827,0,0,0,4.44,5.109,24.421,24.421,0,0,0,5.281,3.2,30.449,30.449,0,0,0,10.18,2.4,53.987,53.987,0,0,0,7.815-.041c4.26-.327,6.58-.719,6.571-.863" transform="translate(40.28 -2.607)" fill="#e0e0e0"/><path d="M176.447,25.214c-.284.132-.149,1.171.5,2.693a19.56,19.56,0,0,0,3.56,5.341,20.479,20.479,0,0,0,5,4.011c1.445.793,2.458,1.043,2.621.775.344-.583-2.747-2.926-5.892-6.376-3.192-3.408-5.175-6.716-5.792-6.444" transform="translate(52.864 -2.476)" fill="#ffb338"/><path d="M157.76,356.728l-4.846,49.987L305.1,406.66l-29.4-59.352Z" transform="translate(-42.99 -34.131)" fill="#ffb338"/><path d="M357.667,287.565,328.054,331.2s-6.052-47.9-6.612-46.821,33.19-45.869,33.19-45.869Z" transform="translate(-247.514 -23.439)" fill="#eb996e"/><path d="M266.7,174.158c1.178,0,38.917,15.36,43.231,22.419S287.278,336.61,287.278,336.61l-138.21,2.842L147.7,275.921l-10.3-85.008,57.152-19.262,7.621-6.639,15.482,26.939,42.533-27.258Z" transform="translate(-34.297 -16.185)" fill="#ffb338"/><g transform="translate(128.82 257.783)" opacity="0.3"><g transform="translate(0)"><g transform="translate(0)" clip-path="url(#t)"><path d="M288.819,396.265c-9.162-2.386-16.717-9.119-21.972-16.995s-8.49-16.9-11.59-25.844-6.159-18.008-11.121-26.072c-3.656-5.941-8.274-11.222-12.869-16.471a35.676,35.676,0,0,0-7.219-6.84c-3.473-2.232-7.591-3.183-11.616-4.1l-21.168-4.805a24.127,24.127,0,0,1-7.639-2.665c-2.294-1.443-4.146-3.887-4.132-6.6,10.557,1.069,21.22.739,31.771,1.871s21.26,3.878,29.687,10.328c8.488,6.5,13.934,16.172,18.2,25.974,10.364,23.827,15.218,50.151,28.935,72.218" transform="translate(-179.493 -285.877)"/></g></g></g><path d="M147.789,200.051s11.465,7.516,14.473,31.463c2.235,17.791,6.7,68.148,6.7,68.148l-54.528-4.556Z" transform="translate(127.847 -19.66)" fill="#ffb338"/><path d="M169.229,304.322a1.173,1.173,0,0,0-.275-.047l-.809-.091-3.117-.3-11.472-1.033L115.7,299.614l-.975-.082.213.265c1.92-14.483,3.652-27.547,4.909-37.028.6-4.705,1.088-8.52,1.43-11.192.156-1.3.278-2.316.365-3.042.034-.327.062-.589.084-.793a1.244,1.244,0,0,0,.013-.272,1.21,1.21,0,0,0-.06.266c-.032.2-.076.462-.129.786-.107.724-.259,1.739-.452,3.031-.376,2.668-.913,6.476-1.577,11.173-1.292,9.475-3.073,22.532-5.048,37.009l-.033.244.246.021.975.082,37.874,3.095,11.483.885,3.124.216.813.045a1.244,1.244,0,0,0,.279,0" transform="translate(127.581 -24.32)" fill="#263238"/><path d="M186.793,192.8a5.434,5.434,0,0,0,.891-.244l2.49-.8,8.9-2.976-.232-.085c1.265,2.139,2.67,4.516,4.171,7.056l.106.179.188-.091c2.183-1.061,4.515-2.241,6.9-3.511a197.854,197.854,0,0,0,17.5-10.513c2.169-1.457,3.884-2.694,5.065-3.554l1.344-1.013a2.683,2.683,0,0,0,.449-.379,2.767,2.767,0,0,0-.5.3l-1.394.94c-1.212.812-2.954,2.005-5.143,3.426-4.37,2.849-10.507,6.64-17.539,10.376-2.377,1.267-4.7,2.45-6.875,3.519l.293.087-4.224-7.025-.083-.137-.149.052L190.1,191.54l-2.454.9a5.464,5.464,0,0,0-.853.356" transform="translate(-3.004 -17.381)" fill="#263238"/><path d="M240.609,172.638a1.529,1.529,0,0,0,.014.436c.027.284.06.7.141,1.239a40.29,40.29,0,0,0,.876,4.5,46.256,46.256,0,0,0,2.14,6.464c.494,1.184,1.06,2.408,1.707,3.646.326.618.669,1.24,1.035,1.862a4.88,4.88,0,0,0,.646.932,1.408,1.408,0,0,0,1.157.509,1.873,1.873,0,0,0,1.082-.591c.278-.272.5-.555.737-.824l1.379-1.61,2.6-3.047a4.839,4.839,0,0,1,1.332-1.172,1.285,1.285,0,0,1,1.446.087,5.925,5.925,0,0,1,1.045,1.188l.915,1.209,2.785,3.63.776.973c.182.219.283.33.3.32a1.569,1.569,0,0,0-.22-.376l-.706-1.025-2.665-3.721-.891-1.226a6.126,6.126,0,0,0-1.1-1.284,1.7,1.7,0,0,0-1.865-.144,5.165,5.165,0,0,0-1.473,1.257q-1.258,1.451-2.625,3.032l-1.384,1.605c-.466.526-.926,1.178-1.509,1.252-.578.059-1.018-.618-1.355-1.211-.363-.615-.7-1.229-1.031-1.839-.646-1.223-1.214-2.43-1.714-3.6a50.085,50.085,0,0,1-2.218-6.38c-.511-1.857-.818-3.388-1.016-4.447a13.859,13.859,0,0,0-.335-1.646" transform="translate(-79.677 -16.966)" fill="#263238"/><path d="M233.615,334.271c-.061.114,11.906,6.818,26.726,14.971S287.234,363.918,287.3,363.8s-11.9-6.816-26.729-14.973-26.89-14.674-26.953-14.56" transform="translate(-97.954 -32.85)" fill="#263238"/><path d="M245.787,363.485c-.007.13,7.7.646,17.207,1.153s17.228.813,17.234.684-7.7-.646-17.209-1.152-17.225-.813-17.232-.684" transform="translate(-101.861 -35.718)" fill="#263238"/><path d="M321.738,294.792l7.743-7.961-7.771-40.713-7.77,27.327Z" transform="translate(-212.57 -24.187)" fill="#ffb338"/><path d="M317.264,346.379a.711.711,0,0,0,.017-.209c0-.166,0-.367,0-.612q-.011-.867-.028-2.353c-.041-2.087-.1-5.032-.166-8.653-.144-7.306-.344-17.4-.465-28.545s-.1-21.246.088-28.548c.077-3.651.231-6.6.349-8.64q.109-1.48.173-2.344c.013-.245.023-.446.032-.612a.721.721,0,0,0,0-.21.7.7,0,0,0-.043.2c-.022.164-.047.363-.079.607q-.1.863-.261,2.341c-.174,2.037-.379,4.991-.5,8.645-.271,7.307-.342,17.408-.226,28.562s.374,21.245.6,28.55c.132,3.619.239,6.564.315,8.649q.073,1.484.116,2.351c.017.245.032.445.043.611a.725.725,0,0,0,.031.207" transform="translate(-202.324 -26.106)" fill="#263238"/><path d="M284.906,169.408a4.812,4.812,0,0,1,4.8.977c2.144,2.011,1.877,4.29,1.207,6.435a4.672,4.672,0,0,1-2.011,2.814l-8.848-4.155Z" transform="translate(-143.937 -16.622)" fill="#eb996e"/><path d="M275.313,185.007s3.705,2.536,3.839,3.3c.1.551-.579,1.245-1.627.889a31.712,31.712,0,0,1-3.473-1.856Z" transform="translate(-126.281 -18.181)" fill="#eb6f2d"/><path d="M338.144,171.272l10.208,9.625-2.271,3.152-11.028-3.934-56.288-31.948a4.139,4.139,0,0,1,4.033-7.23Z" transform="translate(-197.831 -13.8)" fill="#455a64"/><path d="M284.8,293.232c.63-9.136,57.876-88.205,61.454-93.138l9.9-20.526,4.2-17.3s22.468-12.931,24.247-12.931,10.507,11.153,10.668,12.931a4.211,4.211,0,0,1-1.132,3.071l-1.132,11.315a6.338,6.338,0,0,1,.324,4.81c-.97,2.3-4.849,2.3-4.849,2.3l1.454,4.895s-.323,5.45-1.293,6.42c-.375.375-2.29.648-4.418.253-1.86-.347-2.381-3.058-2.294-4.357-.6.966-2.623,0-2.623,0-.195,2.3-2.591,4.013-2.591,4.013s-3.429,13.833-3.914,15.612-3.556,6.3-8.082,7.921a11.83,11.83,0,0,0-1.117.47c-3.311,12.406-26.2,97.717-31.026,103.446-5.2,6.18-19.3,10.051-31.984,9.4s-16.444-29.177-15.794-38.608" transform="translate(-252.041 -14.676)" fill="#ffbe9d"/><path d="M286.73,161.4a21.188,21.188,0,0,0,3.19.2c1.972.063,4.7.115,7.708.126,1.506.005,2.941,0,4.246-.028.654-.013,1.274-.031,1.859-.066a2.8,2.8,0,0,1,1.458.337,8.513,8.513,0,0,1,1.854,1.338,4.454,4.454,0,0,0,.642.568,2.323,2.323,0,0,0-.512-.7,7.324,7.324,0,0,0-1.831-1.5,3.087,3.087,0,0,0-1.633-.432c-.573.018-1.191.023-1.842.023l-4.24-.009-7.706.011a21.866,21.866,0,0,0-3.194.129" transform="translate(-166.243 -15.846)" fill="#eb996e"/><path d="M295.987,160.923a2.492,2.492,0,0,0,1.232-.562,12.708,12.708,0,0,0,2.413-2.179l.256-.3-.393-.248a1.418,1.418,0,0,0-.023,1,2.816,2.816,0,0,0,.4.746,5.765,5.765,0,0,0,.934.987c.583.491,1,.706,1.031.658s-.3-.355-.812-.89a7.2,7.2,0,0,1-.806-.993,1.468,1.468,0,0,1-.3-1.3l.657-1.473-1.051,1.225-.246.287a19.941,19.941,0,0,1-2.257,2.221c-.619.523-1.065.761-1.034.829" transform="translate(-168.74 -15.366)" fill="#eb996e"/><path d="M287.986,172.589a23.965,23.965,0,0,0,2.787.108c1.719.047,4.09.17,6.7.4a15.657,15.657,0,0,1,6.362,1.734c1.5.811,2.3,1.529,2.355,1.464.02-.023-.16-.224-.523-.546A11.438,11.438,0,0,0,304,174.537a14.546,14.546,0,0,0-6.486-1.913,65.248,65.248,0,0,0-6.742-.26,12.523,12.523,0,0,0-2.789.224" transform="translate(-165.882 -16.938)" fill="#eb996e"/><path d="M291.4,172.654a4.471,4.471,0,0,0,4.514-3.512,15.4,15.4,0,0,1-1.911,2.2,15.328,15.328,0,0,1-2.6,1.31" transform="translate(-158.688 -16.622)" fill="#eb996e"/><path d="M292.98,180.012a5.7,5.7,0,0,0,1.87.959,29.739,29.739,0,0,0,4.913,1.188,24.67,24.67,0,0,1,4.819,1.254c1.178.479,1.833.937,1.882.867a5.2,5.2,0,0,0-1.747-1.171,19.2,19.2,0,0,0-4.867-1.412,46.628,46.628,0,0,1-4.9-1.041c-1.222-.363-1.938-.714-1.975-.644" transform="translate(-170.652 -17.689)" fill="#eb996e"/><path d="M300.361,190.169c-.027-.049-.48.116-1.068.621a4.067,4.067,0,0,0-1.366,2.664,2.665,2.665,0,0,0,.322,1.681,3.7,3.7,0,0,0,.866,1.061c.633.5,1.157.5,1.159.457.026-.076-.436-.2-.937-.7a4.062,4.062,0,0,1-.707-1.021,2.388,2.388,0,0,1-.235-1.427,4.268,4.268,0,0,1,1.131-2.474c.491-.531.876-.8.836-.858" transform="translate(-168.995 -18.688)" fill="#eb996e"/><path d="M299.8,189.379c-.055.028.051.4.31.972a4.791,4.791,0,0,0,1.544,1.958,2.844,2.844,0,0,0,1.335.509,2.27,2.27,0,0,0,1.154-.192c.621-.295.784-.727.734-.745-.059-.048-.3.266-.854.436a2.4,2.4,0,0,1-2.1-.393,5.872,5.872,0,0,1-1.519-1.731c-.327-.518-.541-.843-.6-.812" transform="translate(-175.202 -18.611)" fill="#eb996e"/><path d="M303.009,196.558c-.01.054.381.193,1.036.123a3.576,3.576,0,0,0,3.159-3.519c0-.658-.18-1.032-.233-1.017-.072.015-.015.4-.1.994a3.745,3.745,0,0,1-2.886,3.216c-.582.146-.971.132-.977.2" transform="translate(-180.435 -18.882)" fill="#eb996e"/><path d="M344.661,151.563a20.951,20.951,0,0,0,5.067-7.984c-.116-.049-1.064,1.838-2.474,4.031-1.382,2.207-2.686,3.869-2.592,3.953" transform="translate(-260.527 -14.11)" fill="#263238"/><path d="M335,150.82q7.226,4.2,14.671,8l.086.059a.58.58,0,0,1-.325.83,1.473,1.473,0,0,1-1.013-.1,16.236,16.236,0,0,1-2.394-1.195l-9.784-5.577a3.445,3.445,0,0,1-1.049-.792A1.173,1.173,0,0,1,335,150.82" transform="translate(-251.836 -14.822)" fill="#263238"/><path d="M152.012,312.05l15.844,24.445.851-30.757,44.239,3.7c.078,1.2-3.179,37.4-8.084,68.622C202.723,391.677,188.839,402,175.052,402a28,28,0,0,1-25.367-16.147l-27.108-67.867Z" transform="translate(76.522 -30.046)" fill="#ffbe9d"/><path d="M300.857,204.891c.066-.413-1.346-6.123-1.346-6.123s-68.727-3.432-68.875-3.344l-4.143,2.494Z" transform="translate(-105.094 -19.205)" fill="#fff"/><path d="M301.58,204.868s-.139-.024-.395-.054l-1.133-.124-4.329-.44-15.894-1.562-52.591-5.026.1.435,2.3-1.383,1.279-.77c.213-.1.425-.308.638-.331a5.96,5.96,0,0,0,.623.048l2.946.129,5.8.27,11.167.532,20.159.96,27.983,1.287-.086-.07,1.109,4.519c.246,1.037.327,1.582.327,1.582a6.483,6.483,0,0,0-.234-1.6c-.212-1.041-.554-2.573-1.023-4.543l-.015-.067-.069,0-27.973-1.491-20.156-1.019-11.168-.547-5.8-.274-2.949-.13c-.277-.01-.578-.008-.859,0a2.638,2.638,0,0,0-.662.344l-1.279.77-2.3,1.384-.613.37.712.065,52.775,4.853,15.855,1.415,4.283.367,1.1.087a2.836,2.836,0,0,0,.367.017" transform="translate(-105.817 -19.181)" fill="#263238"/><path d="M150.032,204.992l.362-1.125.911-5.732L215.725,185l6.27,4.717-9.439,83.622-65.465,16.3Z" transform="translate(45.37 -18.18)" fill="#fff"/><path d="M150.01,204.969s-.015.132-.031.393-.032.66-.057,1.167c-.043,1.044-.106,2.569-.189,4.554-.152,4-.375,9.841-.657,17.255-.537,14.863-1.3,36.023-2.216,61.271l-.01.275.268-.067,65.472-16.276.159-.039.018-.162c.223-1.974.464-4.1.7-6.237,3.178-28.245,6.159-54.748,8.705-77.388l.014-.115-.094-.07-6.274-4.712-.071-.053-.087.018-64.4,13.264-.045.009-.006.045c-.466,3.1-.746,4.959-.864,5.74v0c-.311.986-.344,1.131-.344,1.131s.058-.141.378-1.12v0c.131-.779.441-2.635.959-5.725l-.052.054,64.447-13.007-.157-.035,6.265,4.722-.08-.186c-2.565,22.637-5.566,49.139-8.766,77.38-.242,2.137-.482,4.263-.7,6.238l.177-.2-65.459,16.328.257.209c.842-25.24,1.548-46.394,2.043-61.252.234-7.419.417-13.263.543-17.268.055-1.988.1-3.518.127-4.563.011-.509.019-.9.024-1.173s0-.4,0-.4" transform="translate(45.392 -18.157)" fill="#263238"/><path d="M294.445,189.462l-6.06,84.478-71.3,14.778L145.2,275.8l-.83-78.764L216,201.1s.436,3.208,5.69,3.094l3.531-1.208,65.627-12.818Z" transform="translate(-24.628 -18.619)" fill="#455a64"/><line x1="1.865" y2="91.389" transform="translate(189.507 182.478)" fill="#fff"/><path d="M231.362,293.754c.13,0,.652-20.455,1.167-45.688s.828-45.7.7-45.7-.652,20.451-1.167,45.692-.828,45.694-.7,45.7" transform="translate(-41.855 -19.887)" fill="#263238"/><path d="M221.085,291.551a.811.811,0,0,0,.034-.224c.014-.176.032-.392.053-.658q.058-.927.16-2.534c.137-2.2.277-5.388.442-9.327.317-7.878.624-18.765.855-30.79s.357-22.92.408-30.8c.012-3.912.021-7.091.028-9.336-.009-1.072-.015-1.92-.021-2.538-.007-.267-.013-.483-.018-.66a.818.818,0,0,0-.022-.225.8.8,0,0,0-.026.225c-.007.177-.017.393-.029.66q-.024.928-.068,2.537c-.042,2.244-.1,5.422-.177,9.334-.14,7.915-.333,18.787-.545,30.8-.232,12.025-.485,22.909-.718,30.788-.123,3.91-.222,7.087-.292,9.33q-.046,1.608-.072,2.537c0,.267,0,.484-.006.66a.816.816,0,0,0,.014.226" transform="translate(-22.41 -20.092)" fill="#263238"/><path d="M213.094,331.367l.276.115-.276-.115" transform="translate(-5.523 -32.564)" fill="#ffbe9d"/><path d="M213.439,331.33l.044.019-.044-.019" transform="translate(-5.947 -32.561)" fill="#ffbe9d"/><path d="M213.488,331.314l.034.014-.034-.014" transform="translate(-6.03 -32.559)" fill="#ffbe9d"/><path d="M213.4,331.35l.036.015-.036-.015" transform="translate(-5.863 -32.563)" fill="#ffbe9d"/><path d="M195.305,275.072c-3.491-3.441-6.909-6.948-7.693-8.222-1.722-2.8,1.076-4.736,3.013-5.6s27.334,20.877,27.334,20.877-21.308-18.94-22.6-20.231-2.152-3.014-.861-6.457,5.382-2.152,6.888-1.937S227,273.952,227,273.952s-13.989-13.559-15.282-14.635-1.721-3.014-1.291-5.6,3.229-2.368,5.166-2.368,32.219,26.9,32.219,26.9l-1.441,14.2,5.127,21.755-23.852,9.238c-4.089-1.721-11.838-11.8-13.344-13.775s-10.117-16.573-10.117-16.573c-3.444-1.937-8.393-9.685-10.331-11.837s-1.291-3.229-.215-4.951c.579-.926,6.2,3.566,11.276,7.915l-1.161-1.028s-4.276-4.021-8.449-8.135" transform="translate(-20.188 -24.701)" fill="#ffbe9d"/><path d="M192.929,287.01a2.511,2.511,0,0,0,1.34.621,5.2,5.2,0,0,0,5.984-3.02,2.513,2.513,0,0,0,.3-1.445c-.076-.015-.181.535-.6,1.3a5.383,5.383,0,0,1-5.623,2.838c-.863-.123-1.369-.365-1.4-.295" transform="translate(25.454 -27.827)" fill="#eb996e"/><path d="M206.16,295.846a2.092,2.092,0,0,0,1.271.106,4.858,4.858,0,0,0,4.22-4.052,2.1,2.1,0,0,0-.055-1.273,10.18,10.18,0,0,0-.27,1.2,5.175,5.175,0,0,1-3.951,3.794,10.235,10.235,0,0,0-1.215.221" transform="translate(2.398 -28.561)" fill="#eb996e"/><path d="M217.54,304.72a2.829,2.829,0,0,0,1.5-.135,6.391,6.391,0,0,0,4.621-5.206,2.834,2.834,0,0,0-.041-1.5c-.076,0-.075.57-.284,1.437a6.895,6.895,0,0,1-4.4,4.952c-.836.31-1.4.377-1.393.452" transform="translate(-19.879 -29.273)" fill="#eb996e"/><path d="M151.091,334.451c-.108.071,4.92,7.9,11.228,17.476s11.513,17.292,11.621,17.22-4.918-7.9-11.229-17.478-11.512-17.29-11.621-17.218" transform="translate(89.817 -32.867)" fill="#eb996e"/><path d="M252.459,237.509c-.019.128,8.408,1.467,18.82,2.991s18.871,2.655,18.889,2.526-8.407-1.467-18.822-2.991-18.869-2.654-18.888-2.526" transform="translate(-117.818 -23.34)" fill="#263238"/><path d="M257.354,241.528c-.02.128,7.563,1.431,16.935,2.911s16.99,2.574,17.011,2.446-7.562-1.431-16.938-2.911-16.989-2.574-17.008-2.446" transform="translate(-123.364 -23.735)" fill="#263238"/></g><g clip-path="url(#a)"><path d="M6.39,413.1c0,.13,87.357.234,195.092.234,107.772,0,195.11-.1,195.11-.234s-87.339-.234-195.11-.234c-107.736,0-195.092.1-195.092.234" transform="translate(-2.355 -40.574)" fill="#263238"/></g></g></svg>