<svg xmlns="http://www.w3.org/2000/svg" xmlns:xlink="http://www.w3.org/1999/xlink" width="400.001" height="369.886" viewBox="0 0 400.001 369.886"><defs><clipPath id="a"><rect width="400.001" height="369.885" fill="none"/></clipPath><clipPath id="c"><rect width="282.001" height="133.973" fill="none"/></clipPath><clipPath id="d"><rect width="88.687" height="16.421" fill="none"/></clipPath><clipPath id="e"><rect width="32.235" height="17.809" fill="none"/></clipPath><clipPath id="f"><rect width="48.017" height="29.27" fill="none"/></clipPath></defs><g transform="translate(0)" clip-path="url(#a)"><g transform="translate(0)"><g clip-path="url(#a)"><path d="M29.85,308.36h407.1V41.2s-17.8,13.865-27.856,16.408-43.341,6.21-48.757,5.293c-5.419-.932-54.843,50.413-57.251,59.406-2.421,8.978-67.085,49.239-78.984,56.909-11.9,7.655-46.427,23.115-54.932,33.823s-41.023,46.035-52.638,50.172S92.544,281.44,76.291,283.033C60.039,284.643,29.85,308.36,29.85,308.36" transform="translate(-29.47 11.567)" fill="#b5c4c9"/><path d="M29.85,308.36H58.72a65.594,65.594,0,0,0,22.567-11.806c12.936-10.122,29.316-9.52,43.443-16.213,29.649-14.046,42.7-56.157,70.235-75.242,7.838-5.444,16.561-8.783,25.218-12.107q38.692-14.8,77.4-29.612a32.928,32.928,0,0,0,7.34-3.535c3.1-2.18,5.546-5.4,7.952-8.557,13.641-17.777,28.729-35.583,48.169-42.7,24.539-8.978,52.716.377,75.91-12.241V41.2s-17.8,13.865-27.856,16.408-43.341,6.21-48.757,5.293c-5.419-.932-54.843,50.413-57.251,59.406-2.421,8.978-67.085,49.239-78.984,56.909-11.9,7.655-46.427,23.115-54.932,33.823s-41.023,46.035-52.638,50.172S92.544,281.44,76.291,283.033C60.039,284.643,29.85,308.36,29.85,308.36" transform="translate(-29.47 11.567)" fill="#ced8db"/><path d="M73.059,303.706l267.012-6.186V184.084c-8.517,6.634-46.479,3.535-62.321,3.535s-106.405-9.734-119.558-12.6-59.593.551-61.924,0h-.1c-2.421.32-9.17,29.676-8.4,33.493.7,3.586,10.015,28.945,10.195,36.45a4.4,4.4,0,0,1-.141,1.473c-1.55,4.649-18.571,14.716-20.121,19.352s-4.636,37.923-4.636,37.923" transform="translate(12.07 48.808)" fill="#556077"/><path d="M243.915,208.252c.7,3.586,10.016,28.945,10.195,36.449,7.941,1.871,23.745,5.328,23.361,2.857-.512-3.279-13.294-27.037-13.294-27.037S251,193.587,252.419,174.76h-.1c-2.421.32-9.17,29.675-8.4,33.492" transform="translate(-144.084 49.064)" fill="#394559"/><path d="M24.719,310.829H353.642V149.85c-.295-.012-.6-.024-.911-.024-6.735-.282-36.526-2.907-41.649.024-5.418,3.1-38.7,52.229-44.122,58.237s-19.352,15.292-31.737,16.061S180.241,240.4,168.65,241.182s-27.254-1.55-36.45,5.418-33.966,28.625-47.119,34.824-37.923,9.285-43.341,11.6-17.021,17.8-17.021,17.8" transform="translate(60.41 41.685)" fill="#394559"/><path d="M25.43,310.829h7.364c13.294-4.547,27.049-9.3,27.6-9.657-.935,0,46.914-26.729,53.958-31.007s75.539-14.37,75.539-14.37,56.43-7.019,70.557-13.845,51.089-73.541,51.089-73.541,27.575-18.584,41.9-18.584c-6.736-.282-36.526-2.907-41.649.024-5.418,3.1-38.7,52.229-44.122,58.237s-19.352,15.292-31.737,16.061-54.983,16.253-66.574,17.034-27.254-1.55-36.45,5.418-33.966,28.625-47.119,34.824-37.923,9.285-43.341,11.6-17.021,17.8-17.021,17.8" transform="translate(59.699 41.685)" fill="#455060"/><g transform="translate(163.71 235.912)" opacity="0.45" style="mix-blend-mode:multiply;isolation:isolate"><g clip-path="url(#c)"><path d="M263.571,184.2c-9.654,2.044-37.737,24.092-40.369,30.62s-32.774,23.776-41.4,30.948-48.994,18.582-62.159,15.949S31.635,276,31.635,276L0,318.171H282Z" transform="translate(0 -184.198)" fill="#394559"/></g></g><path d="M137.447,272.676A114.3,114.3,0,0,0,153.1,228.063c1.214-9.4.719-20.249-6.372-26.545-1.607-1.428-3.846-2.583-5.852-1.808-2.266.875-3.014,3.651-3.42,6.045a233.54,233.54,0,0,0-2.261,60.682c.227-13.4-.1-27-3.885-39.859s-11.429-25.043-23-31.814a3.79,3.79,0,0,0-2.207-.71c-1.633.164-2.354,2.126-2.555,3.754-.921,7.418,1.349,14.83,3.778,21.9a421.5,421.5,0,0,0,16.458,40.833,75.364,75.364,0,0,0-35.369-40.715c-3.244-1.712-7.9-2.891-10.046.085a6.381,6.381,0,0,0-.99,3.63c-.128,6.025,3.454,11.452,7.2,16.172a137.232,137.232,0,0,0,32,29.284,56.6,56.6,0,0,0-30.634-18.231c-1.472-.32-3.11-.556-4.4.218-2.618,1.564-1.712,5.593-.093,8.178,5.628,8.987,15.419,14.35,24.784,19.324,8.367,4.445,17.867,9.024,26.938,6.286,7.432-2.243,10.679-8.441,16.328-12.983,5.059-4.066,8.969-7.056,11.944-13.225.858-1.779,1.546-4,.414-5.622a4.125,4.125,0,0,0-4.37-1.294c-7.685,1.936-15.062,12.277-18.465,18.835" transform="translate(184.138 54.478)" fill="#9a9e49"/><path d="M119.571,267.355a52.309,52.309,0,0,0,7.165-20.413c.556-4.3.329-9.266-2.915-12.147a2.763,2.763,0,0,0-2.678-.827c-1.036.4-1.379,1.67-1.564,2.766a106.8,106.8,0,0,0-1.035,27.765c.1-6.131-.045-12.355-1.778-18.238S111.537,234.8,106.243,231.7a1.73,1.73,0,0,0-1.009-.324c-.747.074-1.077.973-1.169,1.717-.421,3.394.617,6.785,1.729,10.021a193.059,193.059,0,0,0,7.531,18.684,34.481,34.481,0,0,0-16.185-18.63c-1.484-.784-3.614-1.323-4.6.038a2.927,2.927,0,0,0-.453,1.661c-.058,2.756,1.58,5.24,3.294,7.4a62.789,62.789,0,0,0,14.644,13.4,25.907,25.907,0,0,0-14.018-8.343,2.79,2.79,0,0,0-2.015.1c-1.2.716-.784,2.559-.044,3.742,2.576,4.112,7.056,6.566,11.341,8.842,3.829,2.034,8.175,4.129,12.326,2.877,3.4-1.026,4.887-3.863,7.472-5.941,2.314-1.861,4.1-3.229,5.465-6.052a2.621,2.621,0,0,0,.19-2.572,1.885,1.885,0,0,0-2-.593c-3.517.886-6.892,5.619-8.449,8.618" transform="translate(196.752 64.959)" fill="#89893a"/><path d="M255.855,201.494c-3.262-4.434-9.7-5.615-14.954-3.977s-9.494,5.549-13.042,9.759A71.235,71.235,0,0,0,212.113,241.5a11.788,11.788,0,0,0-21.1,7.282c-.7-4.007-5.88-5.835-9.739-4.545s-6.616,4.621-9.159,7.8c-9.954-8.459-26.842-6.782-34.938,3.471-12.357-14.739-36.63-17.484-51.967-5.877-7.3-7.421-21.529-5.724-26.877,3.2-.879,1.468-1.6,3.135-3.021,4.084-2.768,1.846-6.406.059-9.725-.179-9.739-.7-14.61,11.356-16.479,20.939,57.448,14.417,117.441,13.945,176.667,13.386l34.442-.325c2.519-.023,5.264-.127,7.184-1.756,2.267-1.922,2.578-5.246,2.722-8.215,1.274-26.19,5.735-54.554,5.735-79.271" transform="translate(152.58 55.256)" fill="#7f7f33"/><path d="M93.05,190.03c4.867.461,9.466.871,13.641,1.217,1.345.115,2.65.218,3.906.32.218.026.435.038.652.064,6.98.538,12.385.871,15.292.871,6.378,0,16.355.5,26.537.666,4.662.077,9.388.077,13.819-.064a2.04,2.04,0,0,0,.077-.384,4.56,4.56,0,0,0-1.844-3.676,13.172,13.172,0,0,0-6.7-3.151,7.523,7.523,0,0,0,6.353-5.354c.961-3.458-.525-7.287-3.151-9.721a16.573,16.573,0,0,0-9.785-3.97,12.428,12.428,0,0,0-7.787,1.37,7.081,7.081,0,0,0-1.7,1.511,12.764,12.764,0,0,0,.026-2.1c-.192-2.536-1.575-5.149-3.945-6.045a9.41,9.41,0,0,0-5.354.051,52.875,52.875,0,0,0-11.245,3.97c-2.485,1.217-5.251,3.535-4.366,6.148a32.922,32.922,0,0,0-6.02-11.9c-1.615-2.024-4.048-4.009-6.506-3.227a6.138,6.138,0,0,0-3.126,2.971,20.951,20.951,0,0,0,1.857,23.451,15.426,15.426,0,0,0-8-4.79c-8.029-1.87-5.866,7.019-2.626,11.77" transform="translate(163.276 43.925)" fill="#9a9e49"/><path d="M101.124,178.778c.526,3.01,1.167,6.045,1.524,9.068,6.981.538,12.385.871,15.294.871,6.377,0,16.354.5,26.536.666.488-1.87-.909-3.958-2.728-4.752-1.984-.884-4.265-.666-6.417-.423,2.268-1.524,1.449-5.418-.882-6.839s-5.329-1.076-7.98-.4c1.191-2.446-.423-5.635-2.957-6.634a7.53,7.53,0,0,0-7.544,1.78,14.206,14.206,0,0,0-3.791,7.1,29.831,29.831,0,0,0-4.83-5.174c-1.241-1.037-2.868-2.024-4.392-1.486-2.23.807-2.23,3.906-1.833,6.224" transform="translate(171.878 47.711)" fill="#89893a"/><path d="M295.9,254.509a22.9,22.9,0,0,0,9.235-1.005,29.312,29.312,0,0,0,4.355-1.669,16.359,16.359,0,0,0-2.695-2.855,15.256,15.256,0,0,0-7.714-3.513c-6.668-.848-13.434,3.231-13.434,3.231a14.79,14.79,0,0,0,2.691,2.588,15.936,15.936,0,0,0,7.562,3.222" transform="translate(-229.631 68.883)" fill="#505123"/><path d="M283.421,251.71a19.839,19.839,0,0,1-3.645,8.208,25.5,25.5,0,0,1-2.85,3.358,15.921,15.921,0,0,1-1.55-3.356,16.424,16.424,0,0,1-.833-8.119c.957-6.382,6.045-11.824,6.045-11.824A17.085,17.085,0,0,1,282.4,243.4a15.943,15.943,0,0,1,1.019,8.308" transform="translate(-189.263 67.374)" fill="#505123"/><path d="M262.55,224.131l1.493.46A320.174,320.174,0,0,1,323.057,300.9l-1.418.811a319.073,319.073,0,0,0-59.089-77.583" transform="translate(-213.607 62.925)" fill="#7b8131"/><path d="M311.922,225.834A21.208,21.208,0,0,0,319.553,230c1.155.352,2.138.6,2.845.736s1.127.191,1.127.191-.063-.421-.233-1.127a19.71,19.71,0,0,0-.9-2.819,19.3,19.3,0,0,0-4.958-7.331,18.44,18.44,0,0,0-3.984-2.656,22.539,22.539,0,0,0-3.877-1.411,20.676,20.676,0,0,0-4.033-.693,22.213,22.213,0,0,0,1.363,3.859,23.17,23.17,0,0,0,1.976,3.535,17.7,17.7,0,0,0,3.047,3.555" transform="translate(-269.129 60.33)" fill="#505123"/><path d="M306.852,243.2c6.541.467,13.389-3.541,13.389-3.541A16.434,16.434,0,0,0,317.359,237a15.047,15.047,0,0,0-7.921-3.007,20,20,0,0,0-9.11,1.89,26.707,26.707,0,0,0-4.084,2.2,14.768,14.768,0,0,0,2.86,2.4,15.576,15.576,0,0,0,7.749,2.727" transform="translate(-253.944 65.683)" fill="#505123"/><path d="M304.164,226.331c-.224,6.578-4.964,12.3-4.964,12.3a15.739,15.739,0,0,1-1.992-3.125,17.288,17.288,0,0,1-1.87-7.971,22.379,22.379,0,0,1,2.308-8.7,26.265,26.265,0,0,1,2.194-3.82s.283.292.708.834a15.845,15.845,0,0,1,1.531,2.349,16.01,16.01,0,0,1,2.085,8.131" transform="translate(-236.712 60.367)" fill="#505123"/><path d="M293.366,238.675c-.652,6.55-5.752,11.969-5.752,11.969a15.8,15.8,0,0,1-1.774-3.249,16.951,16.951,0,0,1-1.354-8.061,22.327,22.327,0,0,1,2.85-8.521,26.449,26.449,0,0,1,2.436-3.676,16.767,16.767,0,0,1,2.04,3.3,16.383,16.383,0,0,1,1.554,8.238" transform="translate(-211.986 63.769)" fill="#505123"/><path d="M63.123,209.373c6.349,3.406,14.206,2.193,14.206,2.193a19.592,19.592,0,0,0-2.02-4.033,19.13,19.13,0,0,0-6.885-6.636c-6.441-3.466-14.256-1.86-14.256-1.86s2.595,6.888,8.955,10.336" transform="translate(299.006 55.776)" fill="#1b1b0c"/><path d="M51.956,214.58A18.619,18.619,0,0,1,46.274,222a21.725,21.725,0,0,1-3.685,2.455A23.4,23.4,0,0,1,43.1,211.3a21.433,21.433,0,0,1,5.342-7.632,23.467,23.467,0,0,1,3.482-2.755,20.909,20.909,0,0,1,1,4.317,18.984,18.984,0,0,1-.962,9.353" transform="translate(338.99 56.406)" fill="#1b1b0c"/><path d="M52.419,241.413A29.927,29.927,0,0,0,60.41,246.2a35.931,35.931,0,0,0,4.437,1.586s.032-.457.009-1.232a15.9,15.9,0,0,0-4.862-11.122,17.657,17.657,0,0,0-8.637-3.874,24.019,24.019,0,0,0-4.648-.388,10.486,10.486,0,0,0,.246,1.041,15.83,15.83,0,0,0,.834,2.544,18.853,18.853,0,0,0,1.715,3.279,16.308,16.308,0,0,0,2.916,3.379" transform="translate(321.025 64.9)" fill="#1b1b0c"/><path d="M45.39,171.515l1.354,1.116c8.406,16.551,16.277,33.376,23.146,50.609a137.745,137.745,0,0,1,7.761,26.631,69.244,69.244,0,0,1-.441,27.441l-1.593-.361a68.195,68.195,0,0,0,.6-27.224,139.883,139.883,0,0,0-7.7-26.8c-3.361-8.741-7.133-17.37-10.977-25.944q-5.794-12.856-12.148-25.464" transform="translate(308.77 48.153)" fill="#484b1c"/><path d="M71.185,171.779a28.718,28.718,0,0,0,10.094,10.275,26.761,26.761,0,0,0-2.8-14.211,26.678,26.678,0,0,0-10.34-10.14,28.8,28.8,0,0,0,3.049,14.075" transform="translate(277.115 44.276)" fill="#1b1b0c"/><path d="M71.166,193c6.482,3.224,14.3,1.682,14.3,1.682s-2.734-7.1-9.3-10.337-14.31-1.355-14.31-1.355a21.455,21.455,0,0,0,2.232,3.8A19.8,19.8,0,0,0,71.166,193" transform="translate(281.029 51.223)" fill="#1b1b0c"/><path d="M66.315,180.124c-2.02,6.659-8.256,10.77-8.256,10.77s-2.777-6.483-.807-13.1,8.039-10.957,8.039-10.957,3.048,6.623,1.023,13.29" transform="translate(306.281 46.839)" fill="#1b1b0c"/><path d="M58.758,197.018c-2.258,6.584-8.631,10.473-8.631,10.473s-2.55-6.566-.347-13.112S58.2,183.711,58.2,183.711s2.816,6.716.557,13.307" transform="translate(323.467 51.577)" fill="#1b1b0c"/><path d="M57.345,225.391a24.8,24.8,0,0,0,9.063,3.064,30.023,30.023,0,0,0,4.714.371,19.057,19.057,0,0,0-1.513-4.177,17.228,17.228,0,0,0-6.221-7.034,19.726,19.726,0,0,0-9.326-2.6,24.659,24.659,0,0,0-4.691.206,18.75,18.75,0,0,0,1.815,3.774,19.534,19.534,0,0,0,2.455,3.307,16.7,16.7,0,0,0,3.7,3.089" transform="translate(311.357 60.358)" fill="#1b1b0c"/><path d="M46.26,234.692a16.974,16.974,0,0,1-7.038,6.337,20.082,20.082,0,0,1-4.136,1.593s-.029-.438-.009-1.182c0-.743.127-1.8.25-3.032a26.374,26.374,0,0,1,.839-4.155,20.019,20.019,0,0,1,1.887-4.6,23.267,23.267,0,0,1,6.313-7,23.589,23.589,0,0,1,3.783-2.368s.119.485.247,1.318a21.707,21.707,0,0,1,.246,3.435,20.527,20.527,0,0,1-.479,4.689,16.094,16.094,0,0,1-1.9,4.964" transform="translate(352.152 61.846)" fill="#1b1b0c"/><path d="M54.65,140.147c6.828,2.3,14.373-.207,14.373-.207a19.656,19.656,0,0,0-2.664-3.64,19.129,19.129,0,0,0-7.9-5.395c-6.929-2.342-14.366.544-14.366.544s3.708,6.359,10.553,8.7" transform="translate(320.211 36.495)" fill="#505123"/><path d="M41.739,141.614a18.627,18.627,0,0,1-4.364,8.263,21.781,21.781,0,0,1-3.225,3.037,23.4,23.4,0,0,1-1.692-13.06,21.417,21.417,0,0,1,3.993-8.416,23.563,23.563,0,0,1,2.974-3.3,20.987,20.987,0,0,1,1.7,4.091,18.988,18.988,0,0,1,.611,9.383" transform="translate(362.509 35.976)" fill="#505123"/><path d="M38.188,170.228a29.927,29.927,0,0,0,8.677,3.389,35.954,35.954,0,0,0,4.64.824s-.046-.456-.2-1.217a15.9,15.9,0,0,0-6.65-10.155A17.644,17.644,0,0,0,35.5,160.69a23.954,23.954,0,0,0-4.647.392,10.2,10.2,0,0,0,.416.985,15.727,15.727,0,0,0,1.245,2.369,18.794,18.794,0,0,0,2.239,2.946,16.3,16.3,0,0,0,3.439,2.846" transform="translate(354.696 45.114)" fill="#505123"/><path d="M29.019,103.945l1.52.875c11.049,14.916,21.617,30.192,31.263,46.039a137.739,137.739,0,0,1,12.1,24.962,69.247,69.247,0,0,1,4.143,27.13l-1.632-.09a68.167,68.167,0,0,0-3.954-26.942,139.891,139.891,0,0,0-12.061-25.144c-4.772-8.058-9.93-15.936-15.151-23.749q-7.857-11.711-16.225-23.082" transform="translate(330.399 29.183)" fill="#7b8131"/><path d="M68.606,104.857A28.711,28.711,0,0,0,80.27,113.3a26.741,26.741,0,0,0-5.132-13.544,26.68,26.68,0,0,0-11.887-8.274,28.783,28.783,0,0,0,5.355,13.37" transform="translate(284.433 25.685)" fill="#505123"/><path d="M65.318,125.318c6.929,2.1,14.379-.727,14.379-.727s-3.879-6.545-10.9-8.64S54.465,117,54.465,117a21.444,21.444,0,0,0,2.836,3.375,19.8,19.8,0,0,0,8.018,4.941" transform="translate(296.258 32.351)" fill="#505123"/><path d="M61.583,110c-.88,6.9-6.344,12-6.344,12s-3.819-5.93-2.982-12.787,6.1-12.144,6.1-12.144,4.11,6.022,3.226,12.934" transform="translate(317.228 27.25)" fill="#505123"/><path d="M51.338,125.415c-1.128,6.869-6.764,11.766-6.764,11.766s-3.609-6.05-2.528-12.872,6.524-11.923,6.524-11.923,3.9,6.153,2.768,13.028" transform="translate(340.577 31.553)" fill="#505123"/><path d="M46.08,155.086a24.817,24.817,0,0,0,9.447,1.509,30.079,30.079,0,0,0,4.711-.42,19.052,19.052,0,0,0-2.189-3.865,17.219,17.219,0,0,0-7.307-5.9,19.722,19.722,0,0,0-9.629-1.009,24.755,24.755,0,0,0-4.592.985,18.692,18.692,0,0,0,2.419,3.42,19.493,19.493,0,0,0,2.971,2.851,16.711,16.711,0,0,0,4.168,2.428" transform="translate(338.698 40.77)" fill="#505123"/><g transform="translate(155.59 255.652)" opacity="0.59"><g clip-path="url(#d)"><path d="M214.13,215c-4.6.352-9.191.843-13.8.986-11.245.35-22.439-1.363-33.558-3.069-1.518-.233-3.363-.761-3.663-2.267a5.073,5.073,0,0,1,.233-1.994c.617-2.953-3.541-6.846-6.064-8.5,2.751-1.908,8.94,1.68,12.03,2.969,4.392,1.83,9.424.074,14.152.61,2.933.332,5.685,1.542,8.539,2.3,6.75,1.789,13.868,1.008,20.849.816,3.833-.105,33.7.693,33.107,4.8-.556,3.82-10.609,2.684-12.606,2.672q-9.619-.058-19.219.676" transform="translate(-157.276 -199.611)" fill="#394559"/></g></g><path d="M159.585,157.227c.669,2.819,7.957,25.737,12.194,40.51a102.14,102.14,0,0,1,3,11.935h11.055s-.152-5.161-.352-11.935c-.315-10.647-.74-25.3-.885-30.278-.234-8.133-4.877-17.32-4.877-17.32l2.3-14.166-20.8,5.77c-1.634,6.034-2.574,11.55-1.634,15.484" transform="translate(55.969 38.175)" fill="#dba782"/><path d="M183.262,197.265h2.391c-.318-10.651-.744-25.3-.89-30.281-.232-8.126-4.881-17.313-4.881-17.313l1.587-9.735-7.052-2.282-13.03,3.612a58.007,58.007,0,0,0-1.9,9.638c5.124,1.4,15.775.549,18.349,4.051,3.172,4.307,6.344,23.339,6.112,32.819-.085,3.769-.389,6.734-.683,9.492" transform="translate(55.798 38.647)" fill="#d1866f"/><path d="M173.264,196.13H162.209l-3-11.931h13.7Z" transform="translate(68.534 51.714)" fill="#fff"/><path d="M181.763,193.515c.5,3.193,3.68,9.916,4.493,13.114s1.493,7.92-2.848,8.377-13.02-.61-17.9,0-8.682.152-10.04-2.132,3.571-5.735,7.777-7.715,7.467-11.643,7.467-11.643Z" transform="translate(60.035 54.33)" fill="#3b4150"/><path d="M159.31,196.131h3.257l-.024-1.037c-.012-.219-.012-.475-.024-.756l-.292-10.14h-2.391a67.169,67.169,0,0,0-.525,11.933" transform="translate(79.222 51.714)" fill="#efeded"/><path d="M159.211,192.705l.024,1.037h.013s-.013-.366-.037-1.037" transform="translate(82.553 54.102)" fill="#d1866f"/><path d="M155.241,212.218a1.623,1.623,0,0,0,.219.658c1.355,2.282,5.149,2.733,10.041,2.123s13.555.464,17.9,0,3.66-5.173,2.855-8.37-4-9.919-4.5-13.115h-3.258q.019.6.074,1.244c.683,8.8,3.635,13.152,1.146,16.715s-17.252,1.782-20.753,1.586a15.983,15.983,0,0,1-3.721-.841" transform="translate(60.036 54.33)" fill="#2f343f"/><path d="M191.659,198.407a103.776,103.776,0,0,1,.082,13.173h11.814s1.148-5.891,2.449-13.173c1.49-8.345,3.188-18.526,3.585-23.8.76-9.877-.749-21.447,0-22.3s9.051-17.5,7.8-18.344-23.376,0-23.376,0c-2.015,5.364-4.029,16.082-4.526,23.708-.361,5.476,1.482,26.1,2.177,40.734" transform="translate(-14.422 37.505)" fill="#dba782"/><path d="M198.5,197.371H210.32s1.146-5.891,2.448-13.173H198.423a103.535,103.535,0,0,1,.082,13.173" transform="translate(-21.187 51.714)" fill="#fff"/><path d="M226.509,193.515c-.475,2.91.068,9.916.881,13.114s1.493,7.92-2.848,8.377-10.31-.61-15.194,0-8.683.152-10.04-2.132,1.762-4.722,5.97-6.7,9.274-12.658,9.274-12.658Z" transform="translate(-37.134 54.33)" fill="#3b4150"/><path d="M203.946,195c-.3,1.2-.61,2.33-.879,3.4h3.4c1.488-8.345,3.2-18.533,3.586-23.8.757-9.871-.744-21.449,0-22.29a118.065,118.065,0,0,0,6.175-12.615c-2.038-2.6-4.014-4.722-4.014-4.722l-3.954-1.378c-6.454.085-13.786.366-13.786.366a88.411,88.411,0,0,0-3.673,15.983c6.332,2.83,16.362,2.135,17.74,7.417,1.66,6.356-2.062,27.794-4.6,37.639" transform="translate(-14.895 37.508)" fill="#d1866f"/><path d="M198.426,196.131h3.563c.4-2.111,1.256-6.65,2.2-11.933h-3.4a64.949,64.949,0,0,0-2.355,11.933" transform="translate(-12.608 51.714)" fill="#efeded"/><path d="M198.989,212.767c.024.037.037.073.061.11,1.354,2.281,5.16,2.733,10.041,2.122s10.845.464,15.188,0,3.66-5.173,2.856-8.37a45.507,45.507,0,0,1-.891-13.066.069.069,0,0,0,.013-.049h-3.563c-.024.415-.049.83-.061,1.245a30.257,30.257,0,0,0,.562,6.771c1.55,8.1,1.159,12.152-6.943,11.773-7.259-.353-12.956,1.318-17.263-.537" transform="translate(-36.876 54.33)" fill="#2f343f"/><path d="M176.9,25.911c.336,1.612-1.345,11.784-1.345,11.784s15.251-.631,15.386-1.571-1.747-10.213-1.747-10.213Z" transform="translate(29.924 7.275)" fill="#dba782"/><path d="M176.783,12.587c-2.956,10.078.269,19.484,1.075,20.559s7.19,1.075,7.19,1.075l14.041-.671L196.67,19.977l-8.6-7.39Z" transform="translate(21.775 3.534)" fill="#dba782"/><path d="M164.777,14.527a107.673,107.673,0,0,0,4.2,10.834c2.367,5.661,4.917,11.432,5.209,11.871.538.806,11.688-.671,12.763-.671s14.457-12.189,14.262-16.9a.715.715,0,0,0-.013-.17c-.537-4.563-7.394-13.03-11.017-15.042s-15.726-.4-17.263,0c0,0,.866-1.611,0-2.417s-10.419.94-8.138,12.494" transform="translate(33.913 0.522)" fill="#684330"/><g transform="translate(202.887 20.185)" opacity="0.39" style="mix-blend-mode:multiply;isolation:isolate"><g transform="translate(0)"><g clip-path="url(#e)"><path d="M164.425,21.458c2.367,5.661,4.917,11.432,5.21,11.871.537.806,11.687-.671,12.761-.671s14.457-12.189,14.262-16.9c-8.407,4.746-28.9,1.953-30.355,2.342-.537.147-1.221,1.574-1.879,3.356" transform="translate(-164.425 -15.76)" fill="#684330"/></g></g></g><path d="M186.486,20.218a4.329,4.329,0,0,1-.078-.67c-.108-3.375,4.583-3.2,5.278-.674.738,2.687-1.411,8.733-3.427,8.2s-1.773-6.853-1.773-6.853" transform="translate(15.137 4.771)" fill="#dba782"/><path d="M188.014,20.58a2.014,2.014,0,0,1-.038-.334c-.055-1.688,2.29-1.6,2.638-.338.369,1.345-.706,4.367-1.714,4.1s-.886-3.426-.886-3.426" transform="translate(14.273 5.325)" fill="#d1866f"/><path d="M158.14,157.956c.5,1.634,25.646,5.187,27.158,3.82s8.3-20.18,8.3-20.18,1.172,17.445,2.221,19.36,26.317-.547,27.377-3c.647-1.477,2.453-17.847,1.94-34.259-.329-10.943-1.683-21.9-5.124-28.451-8.564-16.349-47.74,0-47.74,0-1.329,1.6-2.757,4.7-4.16,8.686a196.186,196.186,0,0,0-7.455,30.575c-2.513,15.276-3.014,21.815-2.513,23.448" transform="translate(18.174 24.701)" fill="#fcb85b"/><path d="M158.036,103.933c11.1,13.433,37.308,20.424,57.024,19.765-.329-10.944-1.683-21.9-5.124-28.452-8.564-16.348-47.74,0-47.74,0-1.329,1.6-2.757,4.7-4.16,8.687" transform="translate(28.246 24.701)" fill="#f98d5d"/><path d="M161.83,79.453c-1.005,6.947,0,23.539,0,23.539-.251,4.777-2.514,8.046-2.263,9.3s21.369,1.76,21.369,1.76,28.159-2.011,29.666-3.016,0-15.588,2.012-24.638,2.514-21.873,0-35.952-12.571-15.336-12.571-15.336H178.422Z" transform="translate(27.055 9.858)" fill="#9d5965"/><path d="M230.8,60.48l18.337,178.743-1.857,0L225.074,60.48Z" transform="translate(-91.686 16.98)" fill="#936767"/><path d="M242.492,63.379c-1.61,1.88-4.274,2.514-5.028,3.268s-21.118,8.58-22.626,8.061-4.023-5.757-5.03-5.652-3.771,1.865-5.53,1.361-1.76,1.76,0,2.514a22.193,22.193,0,0,1,3.268,1.776s-7.291-.688-8.046.024,1.007,2.473,1.007,2.473,1.256,7.04,3.267,8.3,10.309,0,11.565,0,30.42-2.011,32.935-4.023,7.827-13.409,8.088-14.111-13.871-3.99-13.871-3.99" transform="translate(-65.926 17.794)" fill="#dba782"/><path d="M215.936,36.094c-7.558.013-13.575.754-17.6,9.051s-11.816,25.643-11.816,26.649,11.314,9.805,14.708,10.56,13.7-24.89,15.965-28.41,3.751-17.858-1.259-17.85" transform="translate(-12.47 10.133)" fill="#9d5965"/><path d="M190.644,77.377a.5.5,0,0,1-.327-.878c5.771-5,11.9-21.416,11.956-21.581a.5.5,0,0,1,.938.347c-.015.042-1.575,4.238-3.841,9.007-3.059,6.439-5.885,10.807-8.4,12.983A.5.5,0,0,1,190.644,77.377Z" transform="translate(-1.199 15.467)" fill="#b27481"/><path d="M195.979,35.995c.5-2.263,1.005-4.023-7.291-4.023s-17.1,1.509-17.85,2.012,0,5.279,0,5.279Z" transform="translate(31.119 8.976)" fill="#fff"/><path d="M177.011,133.977a.5.5,0,0,1-.449-.72c3.179-6.5,7.187-16.435,7.227-16.535a.5.5,0,1,1,.928.374c-.04.1-4.061,10.069-7.256,16.6A.5.5,0,0,1,177.011,133.977Z" transform="translate(34.751 32.822)" fill="#f98d5d"/><path d="M191.478,46.647c9.138,9.517,10.67,21.1,9.463,27.591s-49.561,8.434-49.4,6.487,3.612-36.847,3.612-36.847h35.893Z" transform="translate(50.323 12.319)" fill="#7a8234"/><path d="M155.784,102.487c1.956,9.762.388,25.45-1.046,26.038s-6.017,0-6.017,0-.145-21.918,0-24.717,7.063-1.32,7.063-1.32" transform="translate(98.619 28.664)" fill="#4c3434"/><path d="M193.264,91.015c-1.742,18.132-1.807,35.586,0,35.882a41.446,41.446,0,0,0,6.21,0s1.589-20.274,1.551-25.52-7.761-10.361-7.761-10.361" transform="translate(-1.135 25.553)" fill="#4c3434"/><path d="M145,104.278c1.916,6.613,11.03,13.494,26.682,15.08s29.514-.195,34.674-2.378c2.66-1.123,4.685-5.1,5.758-9.981a35.927,35.927,0,0,0,.183-14.384s-53.1-13.079-55.609-13.249c-2.074-.146-10.028,12.494-11.627,20.595a9.576,9.576,0,0,0-.061,4.319" transform="translate(47.346 22.282)" fill="#7a8234"/><path d="M145.643,99.782c1.916,6.613,11.03,13.494,26.682,15.08s29.514-.195,34.674-2.378c2.66-1.123,4.685-5.1,5.758-9.981l-.012-.024c-24.047,7.162-56.964-1.122-62.113-5.758a5.868,5.868,0,0,0-4.928-1.256,9.576,9.576,0,0,0-.061,4.319" transform="translate(46.702 26.778)" fill="#686b2a"/><path d="M196.855,37.093c-4.777-.918-9.542,6.537-9.011,26.327s-2.827,52.123,2.121,54.774,9.894-1.934,10.247-24.731,5.831-54.6-3.357-56.37" transform="translate(3.778 10.393)" fill="#9a9e49"/><path d="M197.232,36.693c-5.8-3.952-37.988-3.689-45.409,1.259,0,0,5.436,4.009,5.368,13.135s-.629,14.074,3.1,15.135,38.182,1.414,40.478-2.12,3.18-22.837-3.534-27.409" transform="translate(48.81 9.535)" fill="#686b2a"/><g transform="translate(201.607 44.331)" opacity="0.54"><g transform="translate(0)"><g clip-path="url(#f)"><path d="M173.913,63.6c-1.966,0-3.8-.057-5.428-.2a18.152,18.152,0,0,1-5.411-1.116,3.565,3.565,0,0,1-2.476-2.717c-.071-.55-.143-1.328-.227-2.23A79.444,79.444,0,0,0,158.617,45.6c-1.226-4.87-2.979-7.822-5.211-8.774a.5.5,0,1,1,.392-.92,7.94,7.94,0,0,1,3.632,3.643,24.189,24.189,0,0,1,2.156,5.806,80.274,80.274,0,0,1,1.779,11.89c.083.892.155,1.663.224,2.2.1.8.717,1.429,1.878,1.925a17.236,17.236,0,0,0,5.1,1.039,130.5,130.5,0,0,0,16.767-.216c5.926-.336,9.856-1.4,12.015-3.255,2.045-1.756,2.4-4.153,2.476-6.48.183-5.52-2-14.568-8.75-16.871a.5.5,0,0,1,.323-.947,11.238,11.238,0,0,1,4.711,3.137,16.157,16.157,0,0,1,2.919,4.74,25.263,25.263,0,0,1,1.8,9.974c-.085,2.556-.486,5.2-2.824,7.206a12.2,12.2,0,0,1-4.677,2.321,36.674,36.674,0,0,1-7.932,1.173C181.475,63.414,177.481,63.6,173.913,63.6Z" transform="translate(-152.962 -34.473)" fill="#8c8c42"/></g></g></g><path d="M201.616,64.193c-1.8-3.463-11.885-4.112-30.508-3.518s-22.584.793-25.356,4.557-3.316,29.489-.866,34.356,53.957,5.66,56.73,2.094,3.368-31,0-37.489" transform="translate(58.222 16.98)" fill="#686b2a"/><path d="M166.983,52.583c0,1.551.9,2.809,2,2.809s2-1.258,2-2.809-.9-2.809-2-2.809-2,1.258-2,2.809" transform="translate(60.863 13.974)" fill="#fff"/><path d="M163.738,86.677c0,1.552.9,2.81,2,2.81s2-1.258,2-2.81-.9-2.809-2-2.809-2,1.258-2,2.809" transform="translate(68.263 23.546)" fill="#fff"/><path d="M183.516,60.942c4.319,3.065,3.526,40.654,2.77,41.891s-9.124-.219-9.2-.442c-.8-2.345,2.725-29.877-2.234-40.577Z" transform="translate(34.886 17.11)" fill="#4c3434"/><path d="M177.574,72.6h3.27a2.706,2.706,0,0,1,2.71,2.71v6.819a2.706,2.706,0,0,1-2.71,2.71h-3.27a2.714,2.714,0,0,1-2.719-2.71V75.314a2.714,2.714,0,0,1,2.719-2.71m-1.083,8.78a.992.992,0,0,0,.994.994h3.45a.989.989,0,0,0,.984-.994v-5.32a.989.989,0,0,0-.984-.994h-3.45a.992.992,0,0,0-.994.994Z" transform="translate(38.211 20.384)" fill="#f5e3cf"/><path d="M157.366,61.129c4.317,3.065,3.525,40.654,2.77,41.891s-8.888,1.012-9.075.87,1.994-32.709-2.965-43.41Z" transform="translate(95.306 16.98)" fill="#4c3434"/><path d="M150.815,72.648h3.27a2.707,2.707,0,0,1,2.71,2.71v6.82a2.705,2.705,0,0,1-2.71,2.709h-3.27a2.713,2.713,0,0,1-2.719-2.709v-6.82a2.715,2.715,0,0,1,2.719-2.71m-1.083,8.78a.991.991,0,0,0,.994.994h3.45a.989.989,0,0,0,.985-.994V76.109a.989.989,0,0,0-.985-.994h-3.45a.991.991,0,0,0-.994.994Z" transform="translate(99.242 20.396)" fill="#f5e3cf"/></g></g></g></svg>