<svg xmlns="http://www.w3.org/2000/svg" xmlns:xlink="http://www.w3.org/1999/xlink" width="105.312" height="126.251" viewBox="0 0 105.312 126.251"><defs><clipPath id="a"><rect width="105.312" height="126.251" fill="none"/></clipPath><clipPath id="c"><rect width="21.923" height="17.942" fill="none"/></clipPath><clipPath id="d"><rect width="102.307" height="71.948" fill="none"/></clipPath><clipPath id="e"><rect width="46.879" height="33.654" fill="none"/></clipPath></defs><g transform="translate(38)"><g transform="translate(-38)" clip-path="url(#a)"><g clip-path="url(#a)"><path d="M90.838,22.465a11.382,11.382,0,1,1,13.687-8.474,11.394,11.394,0,0,1-13.687,8.474m4.215-17.92a7.027,7.027,0,1,0,5.231,8.448,7.034,7.034,0,0,0-5.231-8.448" transform="translate(-26.156 0)" fill="#7d5533"/><g transform="translate(56.749 4.827)" opacity="0.39" style="mix-blend-mode:multiply;isolation:isolate"><g clip-path="url(#c)"><path d="M103.122,7.085A11.365,11.365,0,0,1,83.3,17.906,11.37,11.37,0,1,0,103.122,7.085" transform="translate(-83.299 -7.085)" fill="#634329"/></g></g><path d="M103.626,95.575a52.1,52.1,0,1,0-62.645,38.787,52.1,52.1,0,0,0,62.645-38.787" transform="translate(-0.255 -10.051)" fill="#7c5533"/><path d="M52.1-.8A52.913,52.913,0,0,1,72.691,100.842,52.572,52.572,0,0,1,52.1,105h0A52.913,52.913,0,0,1,31.509,3.358,52.569,52.569,0,0,1,52.1-.8Zm0,104.2A51.3,51.3,0,1,0,.8,52.1,51.359,51.359,0,0,0,52.1,103.4Z" transform="matrix(0.517, -0.856, 0.856, 0.517, -18.884, 91.225)" fill="#7d5533"/><g transform="translate(2.456 53.758)" opacity="0.39" style="mix-blend-mode:multiply;isolation:isolate"><g clip-path="url(#d)"><path d="M101.969,78.909A52.1,52.1,0,0,1,3.605,112.7a52.1,52.1,0,1,0,98.364-33.792" transform="translate(-3.605 -78.909)" fill="#634329"/></g></g><path d="M98.886,97.816a42.722,42.722,0,1,0-51.369,31.8,42.722,42.722,0,0,0,51.369-31.8" transform="translate(-4.643 -14.44)" fill="#ffeabe"/><path d="M0,5.868a1.6,1.6,0,0,1-.367-.043A1.6,1.6,0,0,1-1.556,3.9l1-4.269A1.6,1.6,0,0,1,1.37-1.556,1.6,1.6,0,0,1,2.56.366l-1,4.269A1.6,1.6,0,0,1,0,5.868Z" transform="translate(60.604 36.739)" fill="#2a435f"/><path d="M0,3.108A.8.8,0,0,1-.68,2.73a.8.8,0,0,1,.259-1.1L3.308-.68a.8.8,0,0,1,1.1.259A.8.8,0,0,1,4.149.68L.421,2.989A.8.8,0,0,1,0,3.108Z" transform="translate(81.898 54.021)" fill="#2a435f"/><path d="M4.27,2.6A1.6,1.6,0,0,1,3.9,2.56l-4.269-1A1.6,1.6,0,0,1-1.556-.366,1.6,1.6,0,0,1,.366-1.556l4.269,1A1.6,1.6,0,0,1,4.27,2.6Z" transform="translate(86.121 82.221)" fill="#2a435f"/><path d="M2.309,4.528a.8.8,0,0,1-.681-.379L-.68.421A.8.8,0,0,1-.421-.68a.8.8,0,0,1,1.1.259L2.988,3.308a.8.8,0,0,1-.679,1.22Z" transform="translate(70.799 103.515)" fill="#2a435f"/><path d="M0,5.868a1.6,1.6,0,0,1-.367-.043A1.6,1.6,0,0,1-1.556,3.9l1-4.269A1.6,1.6,0,0,1,1.37-1.556,1.6,1.6,0,0,1,2.56.366l-1,4.269A1.6,1.6,0,0,1,0,5.868Z" transform="translate(43.904 107.738)" fill="#2a435f"/><path d="M0,3.108A.8.8,0,0,1-.68,2.729a.8.8,0,0,1,.259-1.1L3.308-.68a.8.8,0,0,1,1.1.259A.8.8,0,0,1,4.149.68L.421,2.988A.8.8,0,0,1,0,3.108Z" transform="translate(19.885 92.416)" fill="#2a435f"/><path d="M4.27,2.6A1.6,1.6,0,0,1,3.9,2.56l-4.269-1A1.6,1.6,0,0,1-1.556-.366,1.6,1.6,0,0,1,.366-1.556l4.269,1A1.6,1.6,0,0,1,4.27,2.6Z" transform="translate(15.122 65.521)" fill="#2a435f"/><path d="M2.31,4.528a.8.8,0,0,1-.68-.379L-.68.421A.8.8,0,0,1-.421-.68a.8.8,0,0,1,1.1.259L2.989,3.308A.8.8,0,0,1,2.31,4.528Z" transform="translate(32.404 41.502)" fill="#2a435f"/><path d="M66.958,101.563l-9.306-24.7L75.067,96.311s-2.589-4.318-6.68-1.429a4.678,4.678,0,0,0-1.428,6.681" transform="translate(-18.376 -24.5)" fill="#f14d24"/><path d="M71.143,110.565l17.769,19.513-9.406-24.349s2.67,4.269-1.764,6.6a4.677,4.677,0,0,1-6.6-1.764" transform="translate(-22.676 -33.699)" fill="#f14d24"/><path d="M67.73,94.048,57.652,76.867,74.457,95.631Z" transform="translate(-18.376 -24.5)" fill="#b8401e"/><path d="M81.88,114.257l10.454,16.916-8.519-22.01Z" transform="translate(-26.098 -34.794)" fill="#b8401e"/><path d="M80.4,106.714a5.909,5.909,0,1,1-5.731-6.081,5.909,5.909,0,0,1,5.731,6.081" transform="translate(-21.859 -32.074)" fill="#2a435f"/><path d="M78.928,107.923a3.15,3.15,0,1,1-3.055-3.241,3.15,3.15,0,0,1,3.055,3.241" transform="translate(-23.15 -33.365)" fill="#ffeabe"/><path d="M78.277,108.461a1.923,1.923,0,1,1-1.866-1.979,1.923,1.923,0,0,1,1.866,1.979" transform="translate(-23.724 -33.939)" fill="#f14d24"/><path d="M92.978,31.323h0a3.005,3.005,0,0,1-2.237-3.614l1.323-5.626a3.006,3.006,0,0,1,5.851,1.376l-1.324,5.627a3,3,0,0,1-3.613,2.237" transform="translate(-28.896 -6.3)" fill="#a87244"/><g transform="translate(19.706 34.778)" opacity="0.65"><g clip-path="url(#e)"><path d="M58.55,80.678c-12.483,6.032-25.372,5.191-28.788-1.88S33.7,61.107,46.18,55.076s25.372-5.191,28.788,1.879S71.033,74.646,58.55,80.678" transform="translate(-28.925 -51.049)" fill="#fff9f8"/></g></g></g></g></g></svg>