<svg xmlns="http://www.w3.org/2000/svg" width="132.501" height="132.501" viewBox="0 0 132.501 132.501"><g transform="translate(-389 -12650)"><g transform="translate(0 118)"><circle cx="66.251" cy="66.251" r="66.251" transform="translate(389 12532)" fill="#fcd03e"/><g transform="translate(389.001 12525.001)"><path d="M89.514,125.643H43.5a8.627,8.627,0,0,1-8.627-8.627V52.548a5.032,5.032,0,0,0-2.782-4.5L32,48H84.481a5.032,5.032,0,0,1,5.032,5.032Z" transform="translate(-6.563 -13.125)" fill="#e8e8e8"/><rect width="23.005" height="5.751" rx="2.876" transform="translate(72.885 89.513)" fill="#92d1f7"/><path d="M142.011,427.5h0a8.627,8.627,0,0,0,8.627-8.627V416H104.627v2.876A8.627,8.627,0,0,1,96,427.5Z" transform="translate(-59.061 -314.984)" fill="#accbea"/><path d="M344.282,44.322h0a21.325,21.325,0,0,0-7.544,7.706L334.7,55.591A50.864,50.864,0,0,0,328,80.827h0a9.687,9.687,0,0,0,4.313,8.06h0a33.388,33.388,0,0,0,7.552-6.924l2.513-3.141-1.438-4.314h2.876l4.313-8.627-2.876-2.876,4.313-1.438,2.876-8.627-1.438-2.876,2.876-1.438L356.757,40l-7.362,2.1a21.319,21.319,0,0,0-5.113,2.219Z" transform="translate(-249.363 -6.563)" fill="#eae9e4"/><path d="M305.991,389.243a8.38,8.38,0,0,1-2.323-2.323L301.722,384H287.343l-1.946,2.92a8.381,8.381,0,0,1-2.323,2.323,6.554,6.554,0,0,0-2.886,4.822h28.689A6.554,6.554,0,0,0,305.991,389.243Z" transform="translate(-210.144 -288.736)" fill="#5ebef7"/><path d="M280.034,440c-.02.209-.034.42-.034.633a6.556,6.556,0,0,0,6.556,6.556H302.2a6.556,6.556,0,0,0,6.556-6.556c0-.213-.013-.424-.034-.633Z" transform="translate(-209.99 -334.671)" fill="#0a71cd"/><circle cx="5.751" cy="5.751" r="5.751" transform="translate(49.88 43.502)" fill="#accbea"/><path d="M273.438,218.876h2.876a1.438,1.438,0,1,0,0-2.876h-2.876a1.438,1.438,0,1,0,0,2.876Z" transform="translate(-203.428 -150.931)"/><path d="M107,32.055l-7.362,2.1a22.768,22.768,0,0,0-5.458,2.368h0a22.811,22.811,0,0,0-8.052,8.226l-1.738,3.042V39.907a6.477,6.477,0,0,0-6.47-6.47H25.437a1.438,1.438,0,0,0-.643,2.724l.093.047a3.575,3.575,0,0,1,1.987,3.215v64.468a10.076,10.076,0,0,0,10.065,10.065H92.21a7.994,7.994,0,0,0,4.434-14.645,6.908,6.908,0,0,1-1.925-1.925l-.56-.84a4.314,4.314,0,0,0-1.145-8.472H84.388s.005-4.756.008-5A34.777,34.777,0,0,0,91.625,76.3l2.513-3.141a1.438,1.438,0,0,0,.241-1.353l-.807-2.422h.881a1.438,1.438,0,0,0,1.286-.795l4.314-8.627a1.438,1.438,0,0,0-.27-1.66l-1.23-1.23,2.106-.7a1.438,1.438,0,0,0,.909-.909l2.876-8.627a1.438,1.438,0,0,0-.078-1.1l-.795-1.59,1.59-.795a1.438,1.438,0,0,0,.721-.831l2.876-8.627A1.438,1.438,0,0,0,107,32.055ZM36.939,111.08a7.2,7.2,0,0,1-7.189-7.189V39.423a6.47,6.47,0,0,0-.79-3.11H77.918a3.6,3.6,0,0,1,3.595,3.595V53.381c0,.027,0,.054,0,.08a52.4,52.4,0,0,0-4.317,20.8,11.1,11.1,0,0,0,4.322,8.8c0,.247-.008,5.01-.008,5.01H75.761a4.314,4.314,0,0,0-1.145,8.472l-.56.84a6.9,6.9,0,0,1-1.925,1.925c-.128.085-.252.175-.375.267H45.567a1.438,1.438,0,0,0-1.438,1.438v2.876a7.2,7.2,0,0,1-7.189,7.189ZM75.761,93.826a1.438,1.438,0,0,1,0-2.876h5.751v2.876ZM81.513,96.7v7.189H71.886a5.109,5.109,0,0,1,1.841-2.188,9.761,9.761,0,0,0,2.722-2.722L77.968,96.7ZM43.977,111.08A10.035,10.035,0,0,0,47,103.891v-1.438h22.38a7.977,7.977,0,0,0,1.046,8.627Zm48.234,0H76.566a5.126,5.126,0,0,1-5.055-4.314H97.265a5.126,5.126,0,0,1-5.055,4.314Zm2.84-9.377a5.108,5.108,0,0,1,1.84,2.188h-12.5V96.7h6.42l1.519,2.279a9.766,9.766,0,0,0,2.722,2.722ZM93.015,90.951a1.438,1.438,0,0,1,0,2.876H84.388V90.951Zm10.327-49.906L101,42.216a1.438,1.438,0,0,0-.643,1.929l1.171,2.343-2.46,7.38-3.631,1.21a1.438,1.438,0,0,0-.562,2.381L97.018,59.6l-3.453,6.905H91.577A1.438,1.438,0,0,0,90.213,68.4l1.19,3.571L89.38,74.5a31.92,31.92,0,0,1-4.839,4.865A65.494,65.494,0,0,1,99.864,41.555a1.438,1.438,0,1,0-2.2-1.858,68.375,68.375,0,0,0-16,39.446,8.232,8.232,0,0,1-1.6-4.88,49.507,49.507,0,0,1,6.512-24.522l2.036-3.563a19.932,19.932,0,0,1,7.035-7.186h0a19.9,19.9,0,0,1,4.77-2.068l4.741-1.355Z" transform="translate(0 0)"/><path d="M167.189,102.378A7.189,7.189,0,1,0,160,95.189,7.189,7.189,0,0,0,167.189,102.378Zm0-11.5a4.314,4.314,0,1,1-4.313,4.314A4.314,4.314,0,0,1,167.189,90.876Z" transform="translate(-111.558 -45.936)"/><path d="M96.438,282.876h34.688a1.438,1.438,0,0,0,0-2.876H96.438a1.438,1.438,0,0,0,0,2.876Z" transform="translate(-58.24 -203.428)"/><path d="M129.438,218.876H139.5a1.438,1.438,0,0,0,0-2.876H129.438a1.438,1.438,0,0,0,0,2.876Z" transform="translate(-85.309 -150.931)"/><path d="M216,217.438a1.438,1.438,0,0,0,1.438,1.438h4.313a1.438,1.438,0,1,0,0-2.876h-4.313A1.438,1.438,0,0,0,216,217.438Z" transform="translate(-157.493 -150.931)"/><path d="M97.438,250.876h11.5a1.438,1.438,0,0,0,0-2.876h-11.5a1.438,1.438,0,0,0,0,2.876Z" transform="translate(-59.061 -177.179)"/><path d="M210.692,248H193.438a1.438,1.438,0,0,0,0,2.876h17.254a1.438,1.438,0,1,0,0-2.876Z" transform="translate(-137.806 -177.179)"/><path d="M129.438,328a1.438,1.438,0,1,0,0,2.876h8.627a1.438,1.438,0,1,0,0-2.876Z" transform="translate(-85.309 -242.801)"/><path d="M209.438,328a1.438,1.438,0,1,0,0,2.876h8.627a1.438,1.438,0,1,0,0-2.876Z" transform="translate(-150.931 -242.801)"/><path d="M127.632,361.438A1.438,1.438,0,0,0,126.195,360H97.438a1.438,1.438,0,0,0,0,2.876h28.757A1.438,1.438,0,0,0,127.632,361.438Z" transform="translate(-59.061 -269.049)"/></g></g></g></svg>