<svg xmlns="http://www.w3.org/2000/svg" xmlns:xlink="http://www.w3.org/1999/xlink" width="319.658" height="208.94" viewBox="0 0 319.658 208.94"><defs><filter id="a" x="4.791" y="0" width="297.153" height="208.94" filterUnits="userSpaceOnUse"><feOffset dy="3" input="SourceAlpha"/><feGaussianBlur stdDeviation="3" result="b"/><feFlood flood-opacity="0.161"/><feComposite operator="in" in2="b"/><feComposite in="SourceGraphic"/></filter><clipPath id="c"><rect width="149.542" height="170.211" fill="none"/></clipPath><clipPath id="e"><rect width="105.472" height="154.851" fill="none"/></clipPath><clipPath id="f"><rect width="16.492" height="10.725" fill="none"/></clipPath><clipPath id="g"><rect width="278.761" height="192.795" fill="none"/></clipPath><clipPath id="i"><rect width="62.021" height="28.517" fill="none"/></clipPath><clipPath id="j"><rect width="14.183" height="13.119" fill="none"/></clipPath></defs><g transform="translate(-650.457 -5233.795)"><g transform="matrix(1, 0, 0, 1, 650.46, 5233.79)" filter="url(#a)"><path d="M313.339,346.849c6.106,0,33.633.007,68.558,0,9.643,0,19.853-.005,30.329-.009,7.949,0,16.054-.007,24.186-.012l13.775-.009c61.47-.048,71.267.639,81.023.029,18.149,0,64.633-70.531,9.3-116.841-21.488-17.982,6.09-41.873-29.6-59.816-23.47-11.8-40.518,8.93-68.851,1.462-20.932-5.517-25.19-18.459-66.573-14.873-39.8,3.449-40.6,36.124-27.972,63.106,7.971,17.035-31.111,11.775-49.184,37.2C267.477,300.481,313.065,346.2,313.339,346.849Z" transform="translate(-273.83 -150.16)" fill="#ffe293"/></g><g transform="translate(0 84)"><g transform="translate(650.457 5155.795)"><g clip-path="url(#c)"><g clip-path="url(#c)"><path d="M128.823,20.071l25.627-1.082a8.309,8.309,0,0,1,8.658,8.113l.906,39.583a8.31,8.31,0,0,1-7.445,8.455h0a2.761,2.761,0,0,0-2.472,2.852l3.219,83.6a10.372,10.372,0,0,1-9.9,10.761l-97.9,4.346a2.761,2.761,0,0,1-2.883-2.676L42.3,28.9a2.761,2.761,0,0,1,2.564-2.837Z" transform="translate(-14.473 -6.495)" fill="#ff725e"/><g transform="translate(32.075 12.681)" opacity="0.3"><g clip-path="url(#e)"><path d="M48.759,171.385l.082,2.744,105.389-9.69L152.216,19.278s-25.583,3.877-26.048,3.877-77.409,148.23-77.409,148.23" transform="translate(-48.759 -19.278)"/></g></g><path d="M106.859,7.824l30.585-1.865L140.6,156.414,32.955,167.332,17.1,17.666Z" transform="translate(-5.852 -2.039)" fill="#ebebeb"/><path d="M106.8,7.789s-.537.069-1.585.189l-4.653.525L82.682,10.492,17.054,17.734l.091-.114c4.257,40.1,9.786,92.191,15.888,149.662l-.151-.122,24.128-2.448,83.518-8.464-.118.134C139.059,90.6,137.951,36.644,137.32,5.925l.068.062L114.628,7.345l-5.848.34c-1.312.074-1.98.1-1.98.1s.666-.052,1.977-.137l5.845-.373L137.38,5.86l.066,0v.066c.658,30.718,1.815,84.671,3.225,150.454l0,.121-.121.013-83.517,8.477-24.129,2.446-.137.014-.014-.137c-6.074-57.474-11.58-109.568-15.819-149.67l-.011-.1.1-.011,65.641-7.152,17.884-1.933,4.655-.5c1.049-.11,1.588-.159,1.588-.159" transform="translate(-5.792 -2.004)" fill="#263238"/><path d="M8.97,10.693,23.543,162.115l112.739-10.62L120.024.187Z" transform="translate(-3.069 -0.064)" fill="#fff"/><path d="M8.97,10.63,120.013.011,120.125,0l.012.111c4.571,42.476,10.2,94.794,16.284,151.3l.015.139-.14.013-.8.076L23.554,162.175l-.124.012-.012-.124C14.863,72.405,9.075,11.734,8.97,10.63c.107,1.1,6,61.765,14.7,151.409l-.136-.112L135.47,151.368l.8-.075-.124.153C130.081,94.933,124.469,42.613,119.911.136l.123.1L8.97,10.63" transform="translate(-3.069)" fill="#263238"/><path d="M140.406,182.113a16.617,16.617,0,1,1,16.578,16.657,16.636,16.636,0,0,1-16.578-16.657m32.929.078a16.312,16.312,0,1,0-16.35,16.273,16.33,16.33,0,0,0,16.35-16.273" transform="translate(-48.044 -56.643)" fill="#e0e0e0"/><path d="M143.287,183.222a14.493,14.493,0,1,1,14.459,14.527,14.509,14.509,0,0,1-14.459-14.527m26.848.063a12.355,12.355,0,1,0-12.384,12.326,12.37,12.37,0,0,0,12.384-12.326" transform="translate(-49.03 -57.747)" fill="#e0e0e0"/><path d="M148.709,188.565a10.617,10.617,0,0,1,1.149-4.807l1.908.965a8.5,8.5,0,0,0-.918,3.848,8.585,8.585,0,0,0,13.056,7.348l1.116,1.824a10.724,10.724,0,0,1-16.309-9.177" transform="translate(-50.885 -62.878)" fill="#e0e0e0"/><path d="M157.486,176.014a10.724,10.724,0,0,1,14.022,15.227L169.7,190.1a8.585,8.585,0,0,0-7.247-13.156,8.482,8.482,0,0,0-3.979.966Z" transform="translate(-53.888 -59.815)" fill="#e0e0e0"/><path d="M124.287,59.4c.007.076-21.267,2.147-47.512,4.625s-47.536,4.426-47.543,4.35,21.263-2.146,47.517-4.626,47.531-4.425,47.539-4.349" transform="translate(-10.002 -20.326)" fill="#263238"/><path d="M72.5,57.592c.007.077-9.811,1.066-21.926,2.21s-21.948,2.009-21.955,1.933,9.809-1.066,21.928-2.21,21.945-2.01,21.952-1.934" transform="translate(-9.792 -19.705)" fill="#263238"/><path d="M124.917,68.782c.007.076-21.268,2.147-47.512,4.625s-47.536,4.426-47.543,4.35,21.263-2.146,47.517-4.626,47.532-4.425,47.539-4.349" transform="translate(-10.218 -23.535)" fill="#263238"/><path d="M125.547,78.161c.007.076-21.267,2.147-47.512,4.625S30.5,87.212,30.491,87.136s21.263-2.146,47.517-4.626,47.532-4.425,47.539-4.349" transform="translate(-10.433 -26.744)" fill="#263238"/><path d="M126.177,87.54c.007.076-21.268,2.147-47.512,4.625s-47.536,4.426-47.543,4.35,21.263-2.146,47.517-4.626,47.531-4.425,47.539-4.349" transform="translate(-10.649 -29.954)" fill="#263238"/><path d="M126.807,96.919c.007.076-21.267,2.147-47.512,4.625s-47.536,4.426-47.543,4.35,21.263-2.146,47.517-4.625,47.532-4.426,47.539-4.35" transform="translate(-10.865 -33.163)" fill="#263238"/><path d="M127.437,106.3c.007.077-21.268,2.148-47.512,4.625s-47.536,4.426-47.543,4.35,21.263-2.146,47.517-4.624,47.532-4.426,47.539-4.35" transform="translate(-11.08 -36.372)" fill="#263238"/><path d="M128.712,115.677c.007.076-20.99,2.121-46.892,4.567s-46.915,4.367-46.922,4.291,20.985-2.121,46.9-4.567,46.911-4.367,46.918-4.29" transform="translate(-11.941 -39.581)" fill="#263238"/><path d="M92.367,133.716c.007.076-12.668,1.28-28.307,2.688s-28.328,2.488-28.335,2.412,12.666-1.279,28.31-2.688,28.326-2.488,28.332-2.412" transform="translate(-12.224 -45.754)" fill="#263238"/><path d="M80.5,211.234c.007.076-7.708.794-17.228,1.6s-17.247,1.4-17.253,1.326,7.706-.793,17.229-1.6,17.245-1.4,17.251-1.326" transform="translate(-15.746 -72.277)"/><path d="M65.842,220.186c.007.076-4.321.506-9.665.96s-9.682.76-9.689.683,4.32-.506,9.666-.96,9.682-.76,9.688-.683" transform="translate(-15.907 -75.339)"/><path d="M62.26,154.18c.008.076-5.084.641-11.372,1.26s-11.393,1.06-11.4.984,5.083-.64,11.373-1.26,11.391-1.06,11.4-.984" transform="translate(-13.512 -52.754)" fill="#ff725e"/><g transform="translate(17.794 125.705)" opacity="0.3"><g clip-path="url(#f)"><path d="M27.406,201.818l10.349-2,5.787-8.724L27.049,196.51Z" transform="translate(-27.049 -191.094)"/></g></g><path d="M0,189.085l27.633-2.616,6.653,3.042-5.311,5.974L.906,198.511Z" transform="translate(0 -63.806)" fill="#ff725e"/><path d="M17.168,193.088l.355,3.544-.82.082-.145-1.452-1.61.161.146,1.453-.82.082-.356-3.544.82-.082.14,1.4,1.61-.161-.14-1.4Z" transform="translate(-4.762 -66.071)" fill="#fff"/><path d="M22.95,195.442l-2.06.207a.73.73,0,0,0,.835.468.928.928,0,0,0,.657-.332l.466.414a1.435,1.435,0,0,1-1.08.553,1.421,1.421,0,0,1-1.695-1.247,1.393,1.393,0,0,1,1.312-1.548,1.355,1.355,0,0,1,1.56,1.27c.006.061,0,.149.006.214m-2.117-.253,1.341-.134a.684.684,0,0,0-1.341.134" transform="translate(-6.866 -66.366)" fill="#fff"/><path d="M26.721,193.408l.073.73c-.066,0-.117,0-.178.007a.672.672,0,0,0-.648.832l.129,1.285-.789.08-.274-2.724.755-.075.036.359a1.1,1.1,0,0,1,.9-.494" transform="translate(-8.566 -66.18)" fill="#fff"/><path d="M31.055,194.629l-2.06.207a.729.729,0,0,0,.834.469.927.927,0,0,0,.657-.332l.466.414a1.6,1.6,0,0,1-2.775-.693,1.393,1.393,0,0,1,1.312-1.549,1.357,1.357,0,0,1,1.56,1.27c.006.061,0,.149.006.214m-2.117-.253,1.341-.135a.684.684,0,0,0-1.341.135" transform="translate(-9.639 -66.087)" fill="#fff"/><path d="M104.3,153.146s.032.009.095.032a1.287,1.287,0,0,1,.269.127,3.825,3.825,0,0,1,.889.752,12.738,12.738,0,0,1,2.239,3.861,16.178,16.178,0,0,1,1.161,6.953,10.484,10.484,0,0,1-.378,2.119,14.06,14.06,0,0,1-.849,2.127,14.25,14.25,0,0,1-2.951,3.986,14.743,14.743,0,0,1-4.565,2.987,12.51,12.51,0,0,1-5.831.917,12.791,12.791,0,0,1-10.238-7.312,10.44,10.44,0,0,1-.926-3.384,7.948,7.948,0,0,1,.372-3.571,5.744,5.744,0,0,1,2.127-2.981,4.119,4.119,0,0,1,1.773-.662,4.223,4.223,0,0,1,1.9.222A5.589,5.589,0,0,1,92.3,161.74a8.973,8.973,0,0,1,1.159,3.692,16.121,16.121,0,0,1-1.137,7.752,15.253,15.253,0,0,1-4.684,6.274,14.06,14.06,0,0,1-7.05,2.836,13.21,13.21,0,0,1-7.236-1.178,12.363,12.363,0,0,1-5.147-4.782,11.991,11.991,0,0,1-1.741-6.457,8.748,8.748,0,0,1,.621-3.179,6.293,6.293,0,0,1,1.821-2.556,3.763,3.763,0,0,1,2.888-.855,4.325,4.325,0,0,1,2.547,1.418,5.418,5.418,0,0,1,1.278,2.5,7.032,7.032,0,0,1,0,2.687,13.942,13.942,0,0,1-1.9,4.583,21.974,21.974,0,0,1-2.661,3.538,24.177,24.177,0,0,1-2.832,2.61,24.448,24.448,0,0,1-2.7,1.793,20.765,20.765,0,0,1-4.09,1.805c-.976.31-1.5.418-1.5.418s.127-.045.378-.121.629-.17,1.108-.35a21.493,21.493,0,0,0,4.055-1.846,24.644,24.644,0,0,0,2.668-1.8,24.133,24.133,0,0,0,2.8-2.61,21.934,21.934,0,0,0,2.624-3.524,13.8,13.8,0,0,0,1.854-4.527,6.846,6.846,0,0,0,0-2.61,5.221,5.221,0,0,0-1.235-2.4,4.11,4.11,0,0,0-2.419-1.341,3.537,3.537,0,0,0-2.714.814,6.064,6.064,0,0,0-1.745,2.467,8.511,8.511,0,0,0-.6,3.094,11.758,11.758,0,0,0,1.718,6.32,12.107,12.107,0,0,0,5.043,4.674,12.954,12.954,0,0,0,7.091,1.147,13.793,13.793,0,0,0,6.91-2.784,14.989,14.989,0,0,0,4.6-6.161,15.858,15.858,0,0,0,1.12-7.617,8.7,8.7,0,0,0-1.119-3.579,5.326,5.326,0,0,0-2.776-2.309,3.964,3.964,0,0,0-1.775-.211,3.863,3.863,0,0,0-1.654.617,5.481,5.481,0,0,0-2.026,2.844,7.686,7.686,0,0,0-.364,3.459,10.178,10.178,0,0,0,.9,3.3A12.561,12.561,0,0,0,94.4,176.776a12.3,12.3,0,0,0,5.73-.886,14.582,14.582,0,0,0,4.51-2.931,13.978,13.978,0,0,0,3.777-6.018,10.354,10.354,0,0,0,.382-2.085,16.154,16.154,0,0,0-1.108-6.9,12.95,12.95,0,0,0-2.179-3.863,3.994,3.994,0,0,0-.862-.765,3.86,3.86,0,0,0-.349-.183" transform="translate(-20.51 -52.403)"/><path d="M109.493,32.059s-.015-.091-.036-.261-.05-.43-.088-.758c-.075-.673-.184-1.654-.326-2.927-.278-2.556-.682-6.278-1.194-10.986l.092.074L50.422,23.264h0l.124-.153c.534,5.127,1.056,10.129,1.558,14.942l-.149-.121L93,33.707l12.092-1.224,3.26-.322.848-.08c.192-.017.295-.022.295-.022s-.09.015-.276.037l-.83.1-3.227.355-12.053,1.3L51.979,38.2l-.135.014-.014-.136c-.5-4.812-1.027-9.815-1.564-14.941L50.252,23l.138-.014h0l57.529-5.954.084-.009.009.084c.474,4.734.85,8.476,1.107,11.046.124,1.267.218,2.243.284,2.913.03.322.053.568.069.745s.017.247.017.247" transform="translate(-17.195 -5.826)" fill="#455a64"/></g></g></g><g transform="translate(691.354 5154.499)"><g clip-path="url(#g)"><g clip-path="url(#g)"><path d="M137.145,32.7a2.53,2.53,0,0,1,.919-1.473,6.266,6.266,0,0,1,3.885-.962,16.5,16.5,0,0,0,1.592-5.157,3.291,3.291,0,0,1-1.832-.522,1.833,1.833,0,0,1-.3-.092c-1.305-.6-1.434-2.548-.611-3.725a7.446,7.446,0,0,1,3.57-2.294,12.438,12.438,0,0,0-2.764,1c-.941.292-2.265-.031-2.377-1.01a2.142,2.142,0,0,1,.15-.883q.274-.867.55-1.736a1.935,1.935,0,0,1,.766-1.21,4.545,4.545,0,0,1,1-.241c1.1-.3,1.669-1.632,2.766-1.94a5.047,5.047,0,0,1,2.457.364c.816.194,1.9.033,2.15-.767a7.828,7.828,0,0,1-2.8-2.364,2.686,2.686,0,0,1,.265-3.381,3.956,3.956,0,0,1,2.765-.567c1.075.048,2.412.292,2.7,1.331a2.8,2.8,0,0,1,3.434,2.195l2.77-.281c-.774-.832-1.873-1.338-2.541-2.258s-.544-2.575.568-2.813a7.66,7.66,0,0,0,1.235-.109c.279-.11.508-.363.808-.373a1.071,1.071,0,0,1,.6.235l5.851,3.817q-.79-1.839-1.582-3.677c-.486-1.13-.864-2.689.149-3.389.979-.677,2.408.3,2.615,1.472a1.9,1.9,0,0,1,2.312,1.75,1.987,1.987,0,0,1,2.25.612,1.986,1.986,0,0,1,.016,2.331,5.472,5.472,0,0,1,2.784.831,1.677,1.677,0,0,1,2.71-1.155,2.918,2.918,0,0,1,.429-1.668,1.01,1.01,0,0,1,1.51-.169,1.96,1.96,0,0,1,3.173-1.917l.965-1.167a2.579,2.579,0,0,1,2.486,1.291c.407.9-.274,2.2-1.261,2.115.694-.012.537,1.1.132,1.659q-.846,1.176-1.693,2.353a2.167,2.167,0,0,1,2.685-.238,1.678,1.678,0,0,1,2.426.019,1.359,1.359,0,0,1,2.44.412c.172-.453.794-.48,1.276-.428a3.162,3.162,0,0,1,1.934.665c.495.488.491,1.5-.161,1.743.592-.332,1.356.321,1.366,1a2.431,2.431,0,0,1-.973,1.719,5.676,5.676,0,0,0-1.394,1.469,2.864,2.864,0,0,1,1.956-.413,7.426,7.426,0,0,1,3.54.706c.207-.478.874-.5,1.385-.4a8.292,8.292,0,0,1,4.22,2.3c.539.548,1.022,1.369.654,2.042a2.059,2.059,0,0,1-.775.689l-3.755,2.324A10.22,10.22,0,0,1,203.67,26c.751.435,1.7.482,2.383,1.024s.63,1.973-.24,1.972a1.593,1.593,0,0,1,.461,1.848,1.527,1.527,0,0,1-.587.646,2.133,2.133,0,0,1-.411.465,2.952,2.952,0,0,1-1.009.529,1.965,1.965,0,0,1-1.679.774,7.989,7.989,0,0,1,1.785,2.115,3.351,3.351,0,0,1,0,3.444,1.716,1.716,0,0,1-.133.147,1.637,1.637,0,0,1-.719,1.041,1.383,1.383,0,0,1,.133.915,3.664,3.664,0,0,1,.824,6.424c-.864.61-2.466.5-2.546-.556a2.851,2.851,0,0,1-2.167,1.576,2.765,2.765,0,0,1-1.446,3.806,2.944,2.944,0,0,1-.927,4.817,2.255,2.255,0,1,1-4.261,1.479,4.8,4.8,0,0,1-1.689,2.115,1.656,1.656,0,0,1-2.335-.61,3.1,3.1,0,0,1-4.553,1.473,2,2,0,0,1-3.983.353l-5.174-.05a18.51,18.51,0,0,1-3.42-.246,9.264,9.264,0,0,1-3.942-1.824,3.128,3.128,0,0,0-1.195-.726,3.213,3.213,0,0,0-1.582.243,8.376,8.376,0,0,1-7.953-1.88,4.191,4.191,0,0,0-1.048-.837,3.779,3.779,0,0,0-1.527-.211,15.135,15.135,0,0,1-3.76-.542,4,4,0,0,1-2.654-1.741c-.495-.97.087-2.469,1.177-2.451a2.341,2.341,0,0,0-.578-1.965,1.408,1.408,0,0,0-1.91-.08,1.014,1.014,0,0,0,.465,1.652c-1.17.807-2.988-.326-3.017-1.747a2.8,2.8,0,0,1,2.8-2.611,6.435,6.435,0,0,1-.08-3.13,2.3,2.3,0,0,1-3.135.356,3.967,3.967,0,0,1-2.566,1.845,2.377,2.377,0,0,1-2.623-1.432,1.711,1.711,0,0,1,1.626-2.2,2.044,2.044,0,0,1,1.817-2.958,3.18,3.18,0,0,1,1.941-3.376,1.674,1.674,0,0,1-2.381-.92c-.659,1.039-2.262.785-3.324.162a2.234,2.234,0,0,1-1.385-2.431" transform="translate(-3.055 -0.004)" fill="#263238"/><path d="M137.145,32.7a1.564,1.564,0,0,0-.06.422,1.828,1.828,0,0,0,.4,1.192,4.041,4.041,0,0,0,1.721,1.181,3.5,3.5,0,0,0,1.341.228A1.672,1.672,0,0,0,141.907,35l-.112-.017a1.744,1.744,0,0,0,2.48.966l-.066-.133a3.27,3.27,0,0,0-2,3.46l.1-.1a1.973,1.973,0,0,0-1.778.955,2.013,2.013,0,0,0-.131,2.143l.1-.153a1.722,1.722,0,0,0-1.733,1.3,1.887,1.887,0,0,0,.874,2.145,2.734,2.734,0,0,0,2.493.231,4.417,4.417,0,0,0,2.021-1.722l-.18.028a2.433,2.433,0,0,0,3.313-.372l-.229-.109a6.592,6.592,0,0,0,.077,3.194l.129-.172a3.14,3.14,0,0,0-1.926.716,2.637,2.637,0,0,0-1.013,1.864,2.2,2.2,0,0,0,1.021,1.919,1.976,1.976,0,0,0,2.216.117l.33-.228-.4-.042a.82.82,0,0,1-.577-.972.9.9,0,0,1,.981-.715,1.389,1.389,0,0,1,1.181.718,2.4,2.4,0,0,1,.261,1.49l.159-.138a1.346,1.346,0,0,0-1.03.478,2,2,0,0,0-.46,1.023A1.964,1.964,0,0,0,148.147,54a2.647,2.647,0,0,0,.693.889,5.368,5.368,0,0,0,1.992.969,15.219,15.219,0,0,0,2.177.45c1.461.306,3.153-.288,4.109,1.069a8.431,8.431,0,0,0,4.175,2.148,8.611,8.611,0,0,0,2.422.143,12.3,12.3,0,0,0,2.378-.52,1.462,1.462,0,0,1,1.063.118,8.732,8.732,0,0,1,.965.713,9.573,9.573,0,0,0,2.206,1.233,13.246,13.246,0,0,0,5.05.727l5.192.054-.192-.165a2.2,2.2,0,0,0,4.377-.387l-.318.166a3.3,3.3,0,0,0,4.864-1.572l-.385.006a1.505,1.505,0,0,0,1.1.919,2.156,2.156,0,0,0,1.458-.167,4.837,4.837,0,0,0,1.835-2.229l-.377-.028a2.463,2.463,0,1,0,4.654-1.615l-.134.269a2.942,2.942,0,0,0,1.879-2.239,2.978,2.978,0,0,0-.881-2.943l-.066.365a2.98,2.98,0,0,0,1.563-4.112l-.158.319a3.077,3.077,0,0,0,2.333-1.7l-.41-.076a1.12,1.12,0,0,0,.335.717,1.485,1.485,0,0,0,.678.352,2.45,2.45,0,0,0,1.442-.12,3.657,3.657,0,0,0,1.853-2.152,3.753,3.753,0,0,0-.151-2.884,3.967,3.967,0,0,0-2.143-2l.138.249a1.618,1.618,0,0,0-.153-1.058l-.083.286a1.861,1.861,0,0,0,.82-1.179l-.05.095a3.261,3.261,0,0,0,.419-3.268,7.136,7.136,0,0,0-2.085-2.746l-.166.384a2.186,2.186,0,0,0,1.873-.861l-.11.077a2.763,2.763,0,0,0,1.538-1.081l-.065.063a1.657,1.657,0,0,0,.81-1.35,1.816,1.816,0,0,0-.668-1.5l-.137.4a.847.847,0,0,0,.7-.354,1.291,1.291,0,0,0,.224-.7,1.613,1.613,0,0,0-.55-1.313,16.739,16.739,0,0,0-2.405-1.039l.066.06a10.48,10.48,0,0,0-5.246-3.718l.052.4,1.72-1.064,1.3-.808a10.906,10.906,0,0,0,1.309-.872,1.326,1.326,0,0,0,.417-.792,1.651,1.651,0,0,0-.136-.859,3.754,3.754,0,0,0-.975-1.275,8.54,8.54,0,0,0-2.619-1.654,8.381,8.381,0,0,0-1.488-.443,2.286,2.286,0,0,0-.833-.014.984.984,0,0,0-.75.548l.316-.1a6.32,6.32,0,0,0-2.846-.7c-.482-.022-.946-.051-1.442-.036a2.4,2.4,0,0,0-1.461.466l.337.272c.42-.832,1.443-1.271,2.046-2.2a1.654,1.654,0,0,0,.2-1.65,1.436,1.436,0,0,0-.618-.626.987.987,0,0,0-.93,0l.184.4a1,1,0,0,0,.591-.636,1.462,1.462,0,0,0,.015-.814,1.406,1.406,0,0,0-.415-.7,2.089,2.089,0,0,0-.659-.4,5.416,5.416,0,0,0-1.421-.285,2.453,2.453,0,0,0-.761.034.909.909,0,0,0-.68.541l.422.053a1.574,1.574,0,0,0-2.855-.482l.362-.047a1.889,1.889,0,0,0-2.753-.021l.292-.03a2.382,2.382,0,0,0-2.962.253l.324.285q.722-1,1.435-2a2.821,2.821,0,0,0,.6-1.153,1.47,1.47,0,0,0,0-.709.686.686,0,0,0-.233-.363.676.676,0,0,0-.42-.133l-.016.429a1.462,1.462,0,0,0,1.388-.853,1.813,1.813,0,0,0,.064-1.608,2.806,2.806,0,0,0-2.666-1.371l-.095,0-.062.074-.964,1.166.3-.027a2.171,2.171,0,0,0-3.514,2.126l.37-.174a1.014,1.014,0,0,0-1-.329,1.386,1.386,0,0,0-.856.523,3.158,3.158,0,0,0-.456,1.762l.355-.136a1.882,1.882,0,0,0-3.062,1.306l.315-.179a5.665,5.665,0,0,0-2.889-.86l.159.326a2.184,2.184,0,0,0-.036-2.6,2.185,2.185,0,0,0-2.468-.655l.277.188A2.1,2.1,0,0,0,165.845,1.7l.25.156A2.349,2.349,0,0,0,165.31.53,2,2,0,0,0,163.863,0a1.538,1.538,0,0,0-1.24.92,2.626,2.626,0,0,0-.118,1.487,12.373,12.373,0,0,0,.959,2.64q.543,1.263,1.079,2.506l.279-.235L161.207,4.97l-1.768-1.152a4.566,4.566,0,0,0-.954-.546.849.849,0,0,0-.631.1c-.169.093-.3.2-.434.251a2.754,2.754,0,0,1-.952.079,1.354,1.354,0,0,0-1.024.5,2.24,2.24,0,0,0-.206,2.106,3.877,3.877,0,0,0,1.341,1.566A12.617,12.617,0,0,1,158.073,9.1l.11-.291-2.77.283.187.148a2.962,2.962,0,0,0-3.651-2.33l.208.114a1.907,1.907,0,0,0-1.41-1.232,6.863,6.863,0,0,0-1.784-.228,5.05,5.05,0,0,0-1.766.2,2.175,2.175,0,0,0-1.327,1.177,3.221,3.221,0,0,0,.575,3.257,9.3,9.3,0,0,0,2.545,1.981l-.064-.17a1.14,1.14,0,0,1-.964.7,2.82,2.82,0,0,1-1.309-.11,9.451,9.451,0,0,0-1.342-.333,2.077,2.077,0,0,0-1.375.265c-.8.487-1.266,1.28-2,1.624a11.539,11.539,0,0,1-1.207.312,1.6,1.6,0,0,0-.818,1.008q-.371,1.166-.725,2.283a1.416,1.416,0,0,0,.09,1.213,1.616,1.616,0,0,0,1,.649,2.626,2.626,0,0,0,1.147.017,5.192,5.192,0,0,0,1.032-.388,5.5,5.5,0,0,1,1.914-.671l-.047-.211a13.1,13.1,0,0,0-2.27,1.089,4.212,4.212,0,0,0-1.591,1.7,3.1,3.1,0,0,0-.154,2.136,1.916,1.916,0,0,0,1.376,1.37l-.022-.01a3.327,3.327,0,0,0,1.879.528l-.079-.088a16.517,16.517,0,0,1-1.564,5.144l.049-.031a9.766,9.766,0,0,0-2.6.315,3.64,3.64,0,0,0-1.571.921,2.5,2.5,0,0,0-.557.914,1.56,1.56,0,0,0-.079.341,2.592,2.592,0,0,1,.678-1.215,3.619,3.619,0,0,1,1.555-.879,9.728,9.728,0,0,1,2.574-.285h.033l.016-.03a16.358,16.358,0,0,0,1.618-5.173l.013-.089h-.093a3.183,3.183,0,0,1-1.785-.515l-.013-.008-.01,0a1.74,1.74,0,0,1-1.247-1.26,2.922,2.922,0,0,1,.157-2,4.029,4.029,0,0,1,1.526-1.605,12.977,12.977,0,0,1,2.239-1.059l.64-.252-.687.042a5.68,5.68,0,0,0-2,.681,4.981,4.981,0,0,1-.984.367,2.371,2.371,0,0,1-1.041-.02,1.378,1.378,0,0,1-.851-.549,1.165,1.165,0,0,1-.058-1.013l.728-2.262a1.354,1.354,0,0,1,.678-.856,9.779,9.779,0,0,0,1.22-.313c.824-.4,1.3-1.2,2.021-1.627a3,3,0,0,1,2.5.1,3.106,3.106,0,0,0,1.436.121,1.429,1.429,0,0,0,1.195-.9l.034-.11-.1-.061a9.006,9.006,0,0,1-2.46-1.918,2.919,2.919,0,0,1-.527-2.939A1.86,1.86,0,0,1,147.3,6.062a4.783,4.783,0,0,1,1.653-.174,6.6,6.6,0,0,1,1.7.218,1.581,1.581,0,0,1,1.184,1.007l.044.165.165-.051a2.632,2.632,0,0,1,3.215,2.06l.025.162.161-.016,2.771-.278.35-.034-.24-.257A12.757,12.757,0,0,0,156.8,7.593a3.563,3.563,0,0,1-1.224-1.414,1.9,1.9,0,0,1,.154-1.755.979.979,0,0,1,.758-.36,2.908,2.908,0,0,0,1.081-.107c.363-.177.592-.412.829-.329a4.75,4.75,0,0,1,.843.5L161,5.282l3.61,2.36.527.344-.248-.579L163.817,4.9a12.123,12.123,0,0,1-.928-2.552,2.246,2.246,0,0,1,.092-1.264A1.145,1.145,0,0,1,163.9.4,1.9,1.9,0,0,1,165.7,1.923l.04.219.21-.063a1.706,1.706,0,0,1,2.057,1.558v.3l.277-.112a1.784,1.784,0,0,1,2,.533,1.781,1.781,0,0,1,.027,2.1l-.24.318.4.009a5.273,5.273,0,0,1,2.678.8l.331.208-.016-.386a1.475,1.475,0,0,1,2.356-1l.331.333.023-.469a2.785,2.785,0,0,1,.374-1.534c.261-.374.939-.524,1.192-.184l.579.779-.209-.953a1.75,1.75,0,0,1,2.832-1.711l.163.137.136-.165.965-1.165-.155.077a2.393,2.393,0,0,1,2.265,1.13c.381.728-.2,1.926-1.029,1.848l-.016.429c.135.008.188.043.234.185a1.082,1.082,0,0,1-.01.5,2.384,2.384,0,0,1-.528.991q-.716.994-1.436,2l.324.285a1.954,1.954,0,0,1,2.406-.222l.162.122.131-.153a1.463,1.463,0,0,1,2.1.017l.224.267.139-.314a1.148,1.148,0,0,1,2.027.342l.1,1.1.326-1.042c.086-.278.572-.339.99-.293a5.081,5.081,0,0,1,1.3.256,1.214,1.214,0,0,1,.811.8c.1.376-.016.822-.332.927l.184.4c.3-.185.76.075.94.446a1.221,1.221,0,0,1-.177,1.21c-.488.8-1.52,1.227-2.068,2.237l-.52.96.858-.688c.644-.516,1.674-.348,2.595-.329a5.918,5.918,0,0,1,2.649.644l.226.131.089-.236c.119-.312.655-.363,1.094-.274a7.949,7.949,0,0,1,1.4.418,8.092,8.092,0,0,1,2.482,1.568,3.325,3.325,0,0,1,.866,1.12.963.963,0,0,1-.178,1.158,11.441,11.441,0,0,1-1.237.815l-1.3.807-1.72,1.065-.416.258.468.144a10.04,10.04,0,0,1,5.021,3.558l.028.038.039.022c.828.466,1.749.513,2.352,1a1.184,1.184,0,0,1,.382.946c-.013.36-.194.649-.479.633l-.7-.041.566.438a1.376,1.376,0,0,1,.5,1.133,1.208,1.208,0,0,1-.606,1l-.04.024-.024.039a2.321,2.321,0,0,1-1.3.906l-.068.021-.042.057a1.749,1.749,0,0,1-1.484.688l-.666-.063.5.447a6.7,6.7,0,0,1,1.966,2.567,2.832,2.832,0,0,1-.333,2.829l-.037.04-.013.056a1.428,1.428,0,0,1-.618.9l-.176.1.094.183a1.178,1.178,0,0,1,.114.771l-.04.183.177.066a3.535,3.535,0,0,1,1.9,1.778,3.319,3.319,0,0,1,.134,2.555,3.252,3.252,0,0,1-1.6,1.892,2.023,2.023,0,0,1-1.179.1.789.789,0,0,1-.684-.68l-.05-.845-.36.768a2.652,2.652,0,0,1-2,1.457l-.318.038.158.281a2.561,2.561,0,0,1-1.328,3.5l-.372.116.306.249a2.559,2.559,0,0,1,.738,2.525,2.522,2.522,0,0,1-1.594,1.928l-.207.064.073.205a2.047,2.047,0,1,1-3.868,1.343l-.154-.462-.224.434a4.492,4.492,0,0,1-1.656,2.055A1.448,1.448,0,0,1,189.3,59.9l-.2-.583-.189.59a2.755,2.755,0,0,1-1.871,1.7,2.724,2.724,0,0,1-2.37-.328l-.329-.243.012.41a1.806,1.806,0,0,1-3.591.318l-.023-.165h-.168l-5.191-.047a12.9,12.9,0,0,1-4.916-.692,9.158,9.158,0,0,1-2.121-1.181,8.644,8.644,0,0,0-1.016-.741,1.83,1.83,0,0,0-1.309-.152,12.146,12.146,0,0,1-2.335.518,8.262,8.262,0,0,1-2.32-.133,8.077,8.077,0,0,1-4.006-2.049,4.478,4.478,0,0,0-.918-.749,2.651,2.651,0,0,0-1.169-.27,18.119,18.119,0,0,1-2.217-.133,14.822,14.822,0,0,1-2.13-.435,5.041,5.041,0,0,1-1.871-.9,1.827,1.827,0,0,1-.729-1.716,1.308,1.308,0,0,1,1.167-1.235l.143,0,.017-.143a2.719,2.719,0,0,0-.307-1.686A1.7,1.7,0,0,0,147.9,49a1.207,1.207,0,0,0-1.287.976,1.113,1.113,0,0,0,.837,1.312l-.065-.27A1.687,1.687,0,0,1,145.5,50.9a1.911,1.911,0,0,1-.9-1.663,2.7,2.7,0,0,1,2.656-2.324h.178l-.048-.171a6.316,6.316,0,0,1-.085-3.063l.125-.557-.354.449a2.185,2.185,0,0,1-2.955.34l-.1-.088-.076.115a4.187,4.187,0,0,1-1.9,1.638,2.5,2.5,0,0,1-2.288-.2,1.668,1.668,0,0,1-.792-1.9,1.52,1.52,0,0,1,1.507-1.164l.2.024-.1-.178a1.953,1.953,0,0,1,1.723-2.815l.113.012-.018-.114a3.115,3.115,0,0,1,1.88-3.293l-.066-.133a1.612,1.612,0,0,1-2.282-.873l-.036-.141-.076.124a1.554,1.554,0,0,1-1.265.678,3.406,3.406,0,0,1-1.3-.206,4.026,4.026,0,0,1-1.7-1.131,1.829,1.829,0,0,1-.414-1.153c0-.281.04-.42.027-.422" transform="translate(-3.055 0)" fill="#455a64"/><path d="M184.818,37.4a16.493,16.493,0,0,0-16.179-17.38,16.981,16.981,0,0,0-17.2,15.517c-.678,7.68-1.186,15.421-.97,18.207.652,8.4,5.872,11.35,7.966,12.2a11.237,11.237,0,0,0,2.289.4.056.056,0,0,1,.052.063l-1.278,9.774c-.454,6.379-1.853,28.07,4.635,28.575,6.51.506,16.6-20.959,17.173-27.351Z" transform="translate(-3.352 -0.446)" fill="#ffbe9d"/><path d="M154.053,42.09a1.341,1.341,0,0,0,1.2,1.449,1.3,1.3,0,0,0,1.5-1.1,1.344,1.344,0,0,0-1.2-1.45,1.306,1.306,0,0,0-1.5,1.1" transform="translate(-3.433 -0.913)" fill="#263238"/><path d="M153.628,38.063c.154.188,1.247-.481,2.708-.364,1.463.1,2.475.92,2.649.757.084-.072-.062-.4-.5-.77a3.77,3.77,0,0,0-2.1-.821,3.653,3.653,0,0,0-2.174.507c-.478.3-.656.607-.58.691" transform="translate(-3.423 -0.821)" fill="#263238"/><path d="M168.033,43.2a1.341,1.341,0,0,0,1.2,1.449,1.3,1.3,0,0,0,1.5-1.1,1.344,1.344,0,0,0-1.2-1.45,1.306,1.306,0,0,0-1.5,1.1" transform="translate(-3.744 -0.938)" fill="#263238"/><path d="M168.311,39.482c.154.187,1.248-.481,2.709-.364,1.462.1,2.475.92,2.648.756.084-.071-.06-.4-.5-.769a3.77,3.77,0,0,0-2.1-.821,3.657,3.657,0,0,0-2.174.507c-.476.3-.656.606-.58.691" transform="translate(-3.75 -0.853)" fill="#263238"/><path d="M161.893,49.714a9.85,9.85,0,0,0-2.341-.606c-.371-.066-.718-.167-.76-.422a1.85,1.85,0,0,1,.339-1.068l1.337-2.708c1.865-3.858,3.247-7.042,3.088-7.115s-1.8,3-3.663,6.856q-.676,1.427-1.292,2.728a2.1,2.1,0,0,0-.314,1.425.929.929,0,0,0,.57.585,2.607,2.607,0,0,0,.627.136,9.732,9.732,0,0,0,2.408.191" transform="translate(-3.527 -0.842)" fill="#263238"/><path d="M161.007,67.348s5.609.895,13.02-2.726c-.448.221-2.589,8.478-13.364,5.36Z" transform="translate(-3.58 -1.44)" fill="#eb996e"/><path d="M162.31,53.558a2.678,2.678,0,0,1,2.442-.777,2.408,2.408,0,0,1,1.589,1,1.481,1.481,0,0,1-.025,1.722,1.8,1.8,0,0,1-1.957.328,5.536,5.536,0,0,1-1.778-1.242,1.591,1.591,0,0,1-.382-.458.475.475,0,0,1,.046-.535" transform="translate(-3.613 -1.175)" fill="#eb996e"/><path d="M166.181,51.345c-.237-.032-.37,1.527-1.821,2.528s-3.127.7-3.157.915c-.03.1.352.332,1.065.407a4.025,4.025,0,0,0,2.628-.676,3.4,3.4,0,0,0,1.425-2.128c.114-.647-.03-1.048-.14-1.047" transform="translate(-3.592 -1.144)" fill="#263238"/><path d="M168.359,34.734c.111.4,1.588.33,3.287.667,1.706.3,3.049.9,3.306.572.115-.159-.1-.546-.624-.968a5.618,5.618,0,0,0-2.4-1.041,5.679,5.679,0,0,0-2.623.1c-.65.2-.993.482-.946.673" transform="translate(-3.752 -0.755)" fill="#263238"/><path d="M154.392,34.2c.231.346,1.266.086,2.478.165,1.216.036,2.219.393,2.484.07.117-.158-.017-.5-.44-.842a3.651,3.651,0,0,0-4-.189c-.456.3-.625.627-.524.795" transform="translate(-3.44 -0.733)" fill="#263238"/><path d="M149.149,25.3a10.46,10.46,0,0,1,.207-1.4,4.225,4.225,0,0,1,1.24-1.741c1.777-1.744,3.651-3.546,5.887-4.124,1.367-.352,2.785-.221,4.153-.56a23.921,23.921,0,0,0,2.483-.9,20.329,20.329,0,0,1,10.545-.569,16.747,16.747,0,0,1,5.665,1.838,20.285,20.285,0,0,1,5.078,4.621,30.954,30.954,0,0,1,5.659,9.11,15.147,15.147,0,0,1,.814,8.6c-.674,2.867-2.7,5.439-5.182,5.836q-.431-.59-.864-1.178l-1.381-1.745c.229.7,0,.645-.582.977a1.189,1.189,0,0,1-1.642-.61c-.5.565-1.475-.136-1.267-.91-.582.264-1.246-.544-1.008-1.226-.666.194-.961-.88-1.24-1.605a11.075,11.075,0,0,0-.571-1.116,7.242,7.242,0,0,1-.733-3.962,7.072,7.072,0,0,1-.9-3.894l-.1-2.582c-.143-.21-.285-.421-.427-.633a1.393,1.393,0,0,1-1.031,1.25,2.977,2.977,0,0,1-1.547-.153l-1.5-.423-.975.2a3.877,3.877,0,0,1-.487,2.465,2.409,2.409,0,0,1-1,1.316.724.724,0,0,1-.943-.855.8.8,0,0,1-1.222-.3,2.637,2.637,0,0,1-.216-1.6,6.746,6.746,0,0,1,1.529-3.6l-2.856,2.269a1.248,1.248,0,0,1-.682.345.7.7,0,0,1-.81.713,1.826,1.826,0,0,1-.928-.746c-.591-.732-1.18-1.942-.542-2.66a.576.576,0,0,1-.187-.861l-3.2,2.044c.315-.15.609.345.51.728a1.6,1.6,0,0,1-.7.841,2.365,2.365,0,0,1,.23,1.457c.581-.442,1.322.526,1.083,1.291a1.709,1.709,0,0,1-1.693,1.113,1.188,1.188,0,0,1-1.27-.987c-.673.085-1.236-.876-.939-1.6-.5.281-.854-.613-.827-1.265a9.39,9.39,0,0,1,.756-3.312.175.175,0,0,1-.249.05.2.2,0,0,1-.054-.132l-1.906,3.738a9.69,9.69,0,0,0-1.212,3.369c-.05.493-.162,1.166-.58,1.176a.614.614,0,0,1-.32-.112,6.21,6.21,0,0,1-2.456-3.38,4.67,4.67,0,0,1-.3-1.489,20.071,20.071,0,0,1,.682-3.11" transform="translate(-3.309 -0.347)" fill="#263238"/><path d="M183.925,42.813c.147-.053,5.869-1.342,5.326,4.38s-6.176,4-6.17,3.831.845-8.211.845-8.211" transform="translate(-4.08 -0.951)" fill="#ffbe9d"/><path d="M185.078,49.067c.027-.016.093.079.254.173a1.008,1.008,0,0,0,.744.086,2.482,2.482,0,0,0,1.351-2.105,3.3,3.3,0,0,0-.144-1.454,1.156,1.156,0,0,0-.677-.836.509.509,0,0,0-.614.217c-.092.153-.067.271-.1.278s-.114-.108-.046-.34a.641.641,0,0,1,.26-.336.755.755,0,0,1,.565-.094,1.405,1.405,0,0,1,.956.987,3.4,3.4,0,0,1,.195,1.628,2.6,2.6,0,0,1-1.689,2.333,1.072,1.072,0,0,1-.9-.239c-.164-.157-.182-.288-.161-.3" transform="translate(-4.124 -0.995)" fill="#eb996e"/><path d="M162.717,24.079a1.431,1.431,0,0,1-.322-.77,1.016,1.016,0,0,1,.331-.84,1.083,1.083,0,0,1,1.119-.188l.232.1-.083-.24a1.135,1.135,0,0,1,.411-1.243,1.112,1.112,0,0,1,1.419.172l.2-.16a.5.5,0,0,1-.066-.151.641.641,0,0,1,.138-.531.733.733,0,0,1,.491-.255,1.235,1.235,0,0,1,.571.074,1.533,1.533,0,0,0,.63.2c.279-.025.417-.218.566-.3a2.116,2.116,0,0,1,.466-.237,2.474,2.474,0,0,1,.938-.132,2.524,2.524,0,0,1,1.306.435c.273.191.392.339.411.323a1.132,1.132,0,0,0-.349-.4,2.451,2.451,0,0,0-1.355-.539,2.6,2.6,0,0,0-1.02.111,2.325,2.325,0,0,0-.523.249c-.176.106-.313.251-.454.249a1.507,1.507,0,0,1-.527-.19,1.462,1.462,0,0,0-.691-.1.992.992,0,0,0-.661.345.9.9,0,0,0-.19.754.739.739,0,0,0,.107.24l.2-.16a1.319,1.319,0,0,0-2.233,1.316l.148-.138a1.266,1.266,0,0,0-1.329.258,1.185,1.185,0,0,0-.072,1.6c.1.115.179.153.184.146" transform="translate(-3.616 -0.432)" fill="#455a64"/><path d="M156.027,25.131a1.77,1.77,0,0,1-.426-.759,1.284,1.284,0,0,1,.142-.964,1.344,1.344,0,0,1,1.07-.646l.186-.009-.112-.151a1.606,1.606,0,0,1-.318-1.436.86.86,0,0,1,.564-.534.683.683,0,0,1,.751.165l.663.839-.453-.971a1.334,1.334,0,0,1,.023-1.123,1.229,1.229,0,0,1,.951-.682,1.3,1.3,0,0,1,.849.159l.287.171-.1-.321c-.137-.456.355-.929.806-.948a2.186,2.186,0,0,1,1.328.455l.236.154-.055-.274a.949.949,0,0,1,.387-.889,1.767,1.767,0,0,1,.912-.316,4.48,4.48,0,0,1,1.642.18,7.248,7.248,0,0,1,1.338.614,1.255,1.255,0,0,0-.3-.251,4.268,4.268,0,0,0-.992-.5,4.438,4.438,0,0,0-1.7-.241,1.938,1.938,0,0,0-1.027.337,1.166,1.166,0,0,0-.487,1.106l.181-.12a2.4,2.4,0,0,0-1.479-.51,1.209,1.209,0,0,0-.789.385.924.924,0,0,0-.243.891l.191-.15a1.552,1.552,0,0,0-1.021-.195,1.486,1.486,0,0,0-1.145.827,1.58,1.58,0,0,0-.018,1.343l.21-.132a.926.926,0,0,0-1.021-.238,1.094,1.094,0,0,0-.7.686,1.8,1.8,0,0,0,.377,1.634l.073-.159a1.5,1.5,0,0,0-1.2.765,1.42,1.42,0,0,0,.231,1.661c.111.11.187.147.191.141" transform="translate(-3.464 -0.376)" fill="#455a64"/><path d="M141.832,25.153a.973.973,0,0,1,.393-.676,1.238,1.238,0,0,1,.879-.234,3.666,3.666,0,0,1,1.2.395l.138.065-.007-.154a1.114,1.114,0,0,1,.994-1,3.235,3.235,0,0,1,1.8.449l.775.367-.642-.568a.916.916,0,0,1,.182-1.3,2.074,2.074,0,0,1,1.633-.241l.077.014.5.09-.4-.321a.981.981,0,0,1,.242-1.536,1.485,1.485,0,0,1,1.633.3l.492.462-.3-.6a2.224,2.224,0,0,1,.2-2.253,2.073,2.073,0,0,1,1.6-.839,2.341,2.341,0,0,1,1.2.26c.256.136.374.245.386.232s-.022-.035-.077-.09a1.5,1.5,0,0,0-.271-.208,2.289,2.289,0,0,0-1.239-.338,2.216,2.216,0,0,0-1.759.864,2.422,2.422,0,0,0-.251,2.48l.189-.141a1.721,1.721,0,0,0-1.916-.353,1.247,1.247,0,0,0-.636.891,1.1,1.1,0,0,0,.352,1.076l.1-.231-.08-.015a2.3,2.3,0,0,0-1.838.3,1.327,1.327,0,0,0-.461.814.955.955,0,0,0,.276.87l.133-.2a3.4,3.4,0,0,0-1.937-.444,1.307,1.307,0,0,0-1.143,1.228l.132-.089a3.7,3.7,0,0,0-1.266-.373,1.334,1.334,0,0,0-.953.3.933.933,0,0,0-.333.536.394.394,0,0,0,0,.22" transform="translate(-3.16 -0.388)" fill="#455a64"/><path d="M150.376,12.537a.766.766,0,0,0,.329.151,4.424,4.424,0,0,0,1,.139,2.985,2.985,0,0,1,1.423.34.916.916,0,0,1,.45.67.667.667,0,0,1-.328.733l.166.14c.081-.327.509-.5.9-.687a4.294,4.294,0,0,1,1.252-.417,1.564,1.564,0,0,1,1.211.294,1.039,1.039,0,0,1,.449,1l-.067.313.259-.191a2.868,2.868,0,0,1,1.743-.548,3.23,3.23,0,0,1,1.425.331,4.149,4.149,0,0,1,1.046.8,1.041,1.041,0,0,0-.2-.3,2.768,2.768,0,0,0-.781-.633,3.254,3.254,0,0,0-1.49-.4,3.042,3.042,0,0,0-1.893.559l.192.122a1.277,1.277,0,0,0-.53-1.25,1.813,1.813,0,0,0-1.4-.351,4.468,4.468,0,0,0-1.329.443,5.44,5.44,0,0,0-.591.313.943.943,0,0,0-.434.549l-.057.241.223-.1a.9.9,0,0,0,.457-.99,1.132,1.132,0,0,0-.565-.811,3.019,3.019,0,0,0-1.526-.316,5.619,5.619,0,0,1-.985-.066,3.1,3.1,0,0,0-.348-.073" transform="translate(-3.351 -0.279)" fill="#455a64"/><path d="M163.9,8.593a2.694,2.694,0,0,1,.669.153,1.636,1.636,0,0,1,.61.464,1.421,1.421,0,0,1,.338.9v.141l.136-.034a.855.855,0,0,1,.9.611,2.589,2.589,0,0,1-.072,1.428l-.122.5.35-.388.055-.061a1.1,1.1,0,0,1,.919-.291,1.232,1.232,0,0,1,.812.44,1.96,1.96,0,0,1,.388,1.569,3.609,3.609,0,0,1-.385,1.09,2.005,2.005,0,0,0-.194.391c.014.01.123-.1.282-.339a3.2,3.2,0,0,0,.478-1.11,2.11,2.11,0,0,0-.385-1.756,1.445,1.445,0,0,0-2.1-.175c-.024.027-.049.054-.07.079l.228.111a2.759,2.759,0,0,0,.053-1.576,1.075,1.075,0,0,0-1.184-.737l.136.107a1.576,1.576,0,0,0-.421-1.021,1.68,1.68,0,0,0-.7-.465,1.371,1.371,0,0,0-.531-.077c-.123.014-.185.033-.184.043" transform="translate(-3.652 -0.19)" fill="#455a64"/><path d="M174.746,17.449a.68.68,0,0,0,.346-.048,2.149,2.149,0,0,0,.826-.483,2.3,2.3,0,0,0,.7-1.245,1.18,1.18,0,0,1,.231-.689c.162-.169.487-.256.707-.539a1.3,1.3,0,0,0-.183-1.772l0,.19a4.173,4.173,0,0,0,1.234-1.438,1.657,1.657,0,0,0,.242-.69c-.028-.011-.127.238-.366.619a4.569,4.569,0,0,1-1.248,1.316l-.131.091.126.1a1.072,1.072,0,0,1,.127,1.424c-.151.21-.441.287-.683.519a1.359,1.359,0,0,0-.287.828,2.21,2.21,0,0,1-.592,1.155,3.291,3.291,0,0,1-1.044.663" transform="translate(-3.894 -0.239)" fill="#455a64"/><path d="M177.945,20.14c0,.011.072.03.213.049a2.965,2.965,0,0,0,.618,0,3.462,3.462,0,0,0,2-.92l-.167-.018a2.233,2.233,0,0,0,1.45.934,2.331,2.331,0,0,0,.974-.031,1.416,1.416,0,0,0,.878-.574,3.038,3.038,0,0,0,.134-.363.515.515,0,0,1,.182-.227,1.631,1.631,0,0,1,.619-.213,2.069,2.069,0,0,0,.688-.214.738.738,0,0,0,.421-.605l-.173.1a2.288,2.288,0,0,0,1.574.172,2.482,2.482,0,0,0,1.091-.56,2.036,2.036,0,0,0,.484-.628.68.68,0,0,0,.087-.268,3.237,3.237,0,0,1-.662.787,2.439,2.439,0,0,1-1.042.477,2.118,2.118,0,0,1-1.421-.188l-.167-.088-.007.188a.5.5,0,0,1-.305.4,1.87,1.87,0,0,1-.616.18,1.817,1.817,0,0,0-.722.252.779.779,0,0,0-.273.337c-.054.134-.073.253-.121.336a1.2,1.2,0,0,1-.717.451,2.1,2.1,0,0,1-.863.035,2.03,2.03,0,0,1-1.312-.81l-.074-.109-.093.091a3.508,3.508,0,0,1-1.865.951c-.51.086-.811.046-.813.076" transform="translate(-3.966 -0.374)" fill="#455a64"/><path d="M197.774,29.951c.006,0,.019-.027.038-.086a1.5,1.5,0,0,0,.065-.265,2.753,2.753,0,0,0-.035-1.038,6.136,6.136,0,0,0-.571-1.511,5.62,5.62,0,0,0-.5-.867,1.538,1.538,0,0,0-.42-.385.686.686,0,0,0-.634-.054l.154.12a1.726,1.726,0,0,0-2.674-1.737l.2.12a1.189,1.189,0,0,0-.4-1.01,1.144,1.144,0,0,0-1.091-.23,1.174,1.174,0,0,0-.541.341l.226.108a.743.743,0,0,0-.22-.632,1.02,1.02,0,0,0-.563-.293,2.342,2.342,0,0,0-1.129.188l.152.063a1.845,1.845,0,0,0-1.052-.877,2.583,2.583,0,0,0-1.267-.109,6.529,6.529,0,0,0-2.032.8l.126.128a.457.457,0,0,0-.013-.454.792.792,0,0,0-.3-.271,1.323,1.323,0,0,0-.68-.163,3.751,3.751,0,0,0-1.056.223,3.447,3.447,0,0,0-.612.293.7.7,0,0,0-.19.142c.013.022.285-.162.835-.336a3.892,3.892,0,0,1,1.028-.173,1.2,1.2,0,0,1,.592.161c.189.106.341.305.231.489l-.165.273.291-.145a6.558,6.558,0,0,1,1.978-.746,2.383,2.383,0,0,1,1.153.11,1.613,1.613,0,0,1,.908.764l.05.1.1-.036a2.149,2.149,0,0,1,1.006-.172c.307.044.62.336.569.629l-.079.452.305-.345a.929.929,0,0,1,.419-.263.885.885,0,0,1,.846.174.942.942,0,0,1,.315.787l-.033.28.233-.159a1.525,1.525,0,0,1,1.716.02,1.545,1.545,0,0,1,.6,1.468l-.037.211.191-.092c.29-.14.607.114.806.364a5.766,5.766,0,0,1,.5.825,6.374,6.374,0,0,1,.605,1.456,3.473,3.473,0,0,1,.056,1.361" transform="translate(-4.073 -0.485)" fill="#455a64"/><path d="M195.7,37.513c.007,0,.057-.047.144-.154a3.947,3.947,0,0,0,.348-.493,1.844,1.844,0,0,0,.287-.929,1.343,1.343,0,0,0-.145-.609.97.97,0,0,0-.53-.484l.042.144a1.211,1.211,0,0,0-1.13-1.962l.1.194a.976.976,0,0,0,.061-1.154,1.444,1.444,0,0,0-1.059-.609,5.507,5.507,0,0,1-.578-.052.5.5,0,0,1-.331-.34,2.126,2.126,0,0,0-.286-.587,1.112,1.112,0,0,0-.58-.388,6.4,6.4,0,0,0-1.376-.152,1.5,1.5,0,0,1-1.088-.419c-.117-.144-.193-.338-.312-.525a1.29,1.29,0,0,0-.488-.448,1.365,1.365,0,0,0-1.216-.038l.138.173a1.03,1.03,0,0,0-.038-1.2,1.455,1.455,0,0,0-.927-.562,4.6,4.6,0,0,0-1.709.066,5.616,5.616,0,0,0-1.048.318,1.281,1.281,0,0,0-.345.177,12.949,12.949,0,0,1,1.417-.364A4.683,4.683,0,0,1,186.7,27.1a1.272,1.272,0,0,1,.8.5.82.82,0,0,1,.032.944l-.309.382.448-.209a1.139,1.139,0,0,1,1,.046,1.06,1.06,0,0,1,.394.368,5.218,5.218,0,0,0,.325.55,1.358,1.358,0,0,0,.586.394,3.016,3.016,0,0,0,.678.125,6.439,6.439,0,0,1,1.316.142.86.86,0,0,1,.456.3,1.972,1.972,0,0,1,.253.529.755.755,0,0,0,.5.486,4.784,4.784,0,0,0,.613.055,1.2,1.2,0,0,1,.883.488.743.743,0,0,1-.023.867l-.227.247.33-.054a1.024,1.024,0,0,1,1.063.546,1.048,1.048,0,0,1-.112,1.073l-.08.1.122.042a.987.987,0,0,1,.589.923,1.806,1.806,0,0,1-.231.877c-.244.453-.424.681-.4.7" transform="translate(-4.092 -0.599)" fill="#455a64"/><path d="M196.724,51.844a.6.6,0,0,0,.258-.06,1.8,1.8,0,0,0,.631-.415,1.858,1.858,0,0,0,.529-1.058,1.976,1.976,0,0,0-.406-1.489v.139a3.585,3.585,0,0,0,.783-1.229,1.462,1.462,0,0,0,.011-.833,1.065,1.065,0,0,0-.557-.692l.006.23a1.505,1.505,0,0,0,.762-1.294,1.683,1.683,0,0,0-.194-.866,1.422,1.422,0,0,0-.624-.592c-.238-.131-.341-.256-.328-.506a2.058,2.058,0,0,0-.109-.772,2.624,2.624,0,0,0-.875-1.115c-.327-.282-.627-.547-.914-.78a4.321,4.321,0,0,0-1.515-.878,2.042,2.042,0,0,0-.472-.08c-.11,0-.167,0-.167.014,0,.025.23.023.608.163a4.63,4.63,0,0,1,1.428.922l.89.8a2.447,2.447,0,0,1,.791,1.031,1.831,1.831,0,0,1,.087.694.745.745,0,0,0,.107.439,1,1,0,0,0,.339.286,1.344,1.344,0,0,1,.067,2.306l-.232.118.238.111a1.031,1.031,0,0,1,.421,1.224,3.466,3.466,0,0,1-.719,1.158l-.057.07.057.068a1.807,1.807,0,0,1,.4,1.33,1.759,1.759,0,0,1-.446.993,2.575,2.575,0,0,1-.8.56" transform="translate(-4.313 -0.881)" fill="#455a64"/><path d="M174.6,28.677a1.948,1.948,0,0,0,.792-.241,2.191,2.191,0,0,0,.747-.544,1.434,1.434,0,0,0,.349-1.1,1.131,1.131,0,0,0-.083-.28l-.069.174a1.238,1.238,0,0,0,.71-.8,1.13,1.13,0,0,0-.094-.854c-.247-.438-.578-.507-.578-.481-.024.034.249.161.419.556a1,1,0,0,1,.03.71,1.042,1.042,0,0,1-.585.628l-.119.048.05.126a.84.84,0,0,1,.061.211,1.244,1.244,0,0,1-.278.912,2.272,2.272,0,0,1-.645.531,3.926,3.926,0,0,0-.707.4" transform="translate(-3.891 -0.547)" fill="#455a64"/><path d="M168.69,25.311a1.523,1.523,0,0,1-.1-.961,1.074,1.074,0,0,1,.679-.758,1.164,1.164,0,0,1,1.219.3l.149.167.062-.216a2.129,2.129,0,0,1,.36-.737.98.98,0,0,1,.685-.406c.418-.022.849.4.707.734l.24.07a1.976,1.976,0,0,1,.819-1.228,1.938,1.938,0,0,1,1.145-.33,3,3,0,0,1,1.068.288c.007-.01-.067-.09-.24-.193a1.98,1.98,0,0,0-.818-.254,2.034,2.034,0,0,0-1.273.308,2.167,2.167,0,0,0-.947,1.359l.241.07a.73.73,0,0,0-.193-.773,1.037,1.037,0,0,0-.756-.313,1.218,1.218,0,0,0-.879.508,2.322,2.322,0,0,0-.4.831l.209-.049a1.368,1.368,0,0,0-1.474-.33,1.226,1.226,0,0,0-.754.919,1.253,1.253,0,0,0,.084.772c.08.164.156.23.164.223" transform="translate(-3.753 -0.485)" fill="#455a64"/><path d="M184.353,76.66l15.323,7.307-2.135,27.941S195.733,114.026,192.8,129s6.879,63.666,6.879,63.666l-72.112,1.8s8.464-79.99,9.443-87.988l3.6-30.557,14.5-.792h4.181l3.6,26.047L181.031,75.92Z" transform="translate(-2.843 -1.674)" fill="#455a64"/><path d="M87.347,123.936l25.684-.224,9.715-28.687a111.924,111.924,0,0,1,5.079-10.116c5.148-9.462,11.684-8.966,11.684-8.966L147.393,88.2l-8.371,18.782s-8.01,35.417-17.29,36.972c-15.412,2.584-42.993-8.068-42.993-8.068Z" transform="translate(-1.755 -1.692)" fill="#455a64"/><g transform="translate(130.624 128.221)" opacity="0.2"><g clip-path="url(#i)"><path d="M133.653,133.959c-.025-.977-.268-2.234.575-2.653a2.846,2.846,0,0,1,2.183.164c21.282,7.544,33.6-1.213,54.876,6.332l4.334,21.857c-9.442.077-13.759-2.13-23.046-5.1-9.469-3.03-18.945-6.063-28.233-9.657a25.744,25.744,0,0,1-7.3-3.824,9.278,9.278,0,0,1-3.386-7.118" transform="translate(-133.601 -131.143)"/></g></g><path d="M138.88,97.048a7.37,7.37,0,0,1-.5,1.449,24.38,24.38,0,0,0-.89,3.546c-.5,2.825-.6,5.167-.747,5.164a15.008,15.008,0,0,1,.246-5.255,15.478,15.478,0,0,1,1.056-3.588,3.486,3.486,0,0,1,.83-1.316" transform="translate(-3.045 -2.163)" fill="#263238"/><path d="M278.561,138.79l-5.887-.152.333-12.925,5.886.152a6.1,6.1,0,0,1,5.943,6.255l-.019.727a6.1,6.1,0,0,1-6.256,5.943" transform="translate(-6.077 -2.802)" fill="#ff725e"/><path d="M9.452,119.909,62.036,114.6l197.577,5.083a3.484,3.484,0,0,1,3.393,3.573l-.477,18.544a3.483,3.483,0,0,1-3.572,3.393l-198.327-5.1L9.2,129.54Z" transform="translate(-0.205 -2.554)" fill="#ff725e"/><path d="M9.164,122.8l-4.833-.124L.226,124.067c-.339.255-.253.58-.023.929l4.131,1.345,4.737.122Z" transform="translate(0 -2.734)" fill="#263238"/><rect width="25.517" height="4.101" transform="translate(61.174 137.557) rotate(-88.525)" fill="#263238"/><path d="M267.027,120.792h0a4.542,4.542,0,0,1-4.658,4.424l-98.619-2.537a4.543,4.543,0,1,1,.234-9.082l98.619,2.537a4.543,4.543,0,0,1,4.424,4.658" transform="translate(-3.551 -2.531)" fill="#ff725e"/><path d="M267.021,120.786a5.127,5.127,0,0,0-.557-2.188,4.506,4.506,0,0,0-1.929-1.89,4.449,4.449,0,0,0-1.665-.471c-.621-.039-1.3-.032-2.015-.055l-24.195-.541c-10.219-.248-22.38-.542-35.88-.868l-21.188-.531-11.207-.285-2.856-.073a10.429,10.429,0,0,0-2.789.109,4.288,4.288,0,0,0-.22,8.212,10.414,10.414,0,0,0,2.781.254q1.433.035,2.857.073l11.21.293,21.191.56c13.5.368,25.662.7,35.881.978l24.188.7c.712.016,1.393.058,2.016.049a4.432,4.432,0,0,0,1.687-.385,4.513,4.513,0,0,0,2.023-1.789,5.127,5.127,0,0,0,.669-2.156,3.445,3.445,0,0,1-.03.584,4.341,4.341,0,0,1-.549,1.625,4.6,4.6,0,0,1-3.793,2.3c-.644.016-1.31-.018-2.027-.026-5.731-.127-13.992-.314-24.193-.542-10.22-.247-22.381-.541-35.883-.869-6.754-.168-13.843-.345-21.192-.53l-11.21-.285-2.857-.072-1.435-.037a5.2,5.2,0,0,1-1.49-.241,4.8,4.8,0,0,1,.245-9.186,5.251,5.251,0,0,1,1.5-.163l1.435.038,2.856.072q5.692.151,11.207.293l21.187.56c13.5.367,25.659.7,35.878.978l24.19.7c.716.028,1.383.028,2.026.077a4.589,4.589,0,0,1,3.669,2.488,4.364,4.364,0,0,1,.466,1.65,3.513,3.513,0,0,1,0,.585" transform="translate(-3.545 -2.526)" fill="#263238"/><path d="M268.811,122.167l5.066,2.574L273.5,139.4l-5.206,2.921Z" transform="translate(-5.979 -2.722)" fill="#263238"/><path d="M207.337,131.623l-11.193-17.247h0l-1-1.546,0,0-1.509-2.333,6.573-26.774s5.618,2.578,8.7,6.881a102.249,102.249,0,0,1,6.859,12.219s10.949,25.05,12.749,28.789,4.708,10.661,0,14.538-36.214,4.007-36.214,4.007l-2.123-15.827Z" transform="translate(-4.238 -1.866)" fill="#455a64"/><path d="M193.6,107.769c.083-.017-.161-1.174-.265-3.064a24.35,24.35,0,0,1,3.594-14.084c1-1.61,1.765-2.508,1.7-2.563-.023-.022-.234.187-.592.585a15.726,15.726,0,0,0-1.385,1.8A22.112,22.112,0,0,0,193,104.728a15.684,15.684,0,0,0,.354,2.243,2.87,2.87,0,0,0,.241.8" transform="translate(-4.299 -1.962)" fill="#263238"/><path d="M185.808,138.249a10.841,10.841,0,0,0-2.837-3.746c-2.064-1.792-6.592-3.179-7.179-4.9s-2.3-.385-1.9,1.755c.255,1.361,3.06,4.931,3.06,4.931s-3.293.825-5.484-.438-9.868-3.532-10.687-2.46c-.928,1.215,1.081,1.618,1.944,2.108.657.372,5.757,2.9,5.757,2.9s-10.152-.346-11.429.136c-1.39.525.033,1.753.673,1.778.4.017,2.142,1.569,3.375,2.717a4.6,4.6,0,0,0,3.075,1.235l2.36.034-7.167.754s-1.239,1.132.485,1.723c.768.263,20.631,2.059,22.317,2,3.822-.127,9.147-.391,9.147-.391l-.933-10.758Z" transform="translate(-3.487 -2.871)" fill="#ffbe9d"/><path d="M157.565,140.713a21.454,21.454,0,0,0,9.862,1.76c0-.139-2.239-.267-4.953-.758s-4.865-1.133-4.909-1" transform="translate(-3.511 -3.135)" fill="#eb996e"/><g transform="translate(79.123 125.028)" opacity="0.3"><g clip-path="url(#j)"><path d="M80.926,127.963c1.951-.427,3.836.82,5.444,2a24.484,24.484,0,0,1,2.88,2.351c2.474,2.474,3.777,5.867,5.858,8.679l-11.7-1.782Z" transform="translate(-80.926 -127.878)"/></g></g><path d="M98.682,141.459l-5.111-1.065s-4.6-7.336-7.012-8.222l-1.36-.606s-1.775-3.887-4.186-3.393c-1.433-.939-2.719-.563-2.856.867,0,0-.711-3.256-3.374-1.914s3.682,12.612,3.682,12.612,2.224,5.775,4.993,3.846c0,0,2.762.645,4.613-.387,0,0,1.713,2.411,5.763.573Z" transform="translate(-1.652 -2.826)" fill="#ffbe9d"/><path d="M87.874,142.178c-.024,0-.083.191-.032.545a2.427,2.427,0,0,0,.709,1.314,3.34,3.34,0,0,0,2.007.943,6.878,6.878,0,0,0,2.667-.289,16.781,16.781,0,0,0,4.387-1.921,5.822,5.822,0,0,0,1.564-1.217,30.468,30.468,0,0,1-6.076,2.687,6.953,6.953,0,0,1-2.5.312,3.134,3.134,0,0,1-1.827-.755,2.988,2.988,0,0,1-.9-1.617" transform="translate(-1.957 -3.154)" fill="#eb996e"/><path d="M82.759,139.294c.118-.082-1.415-2.294-2.73-5.314-1.336-3.013-1.927-5.638-2.068-5.606a5.574,5.574,0,0,0,.267,1.75,24.6,24.6,0,0,0,3.422,7.789,5.567,5.567,0,0,0,1.109,1.381" transform="translate(-1.737 -2.861)" fill="#eb996e"/><path d="M85.762,139.044c.119-.07-1.174-2.372-2.434-5.361S81.3,128.169,81.17,128.2a20.76,20.76,0,0,0,1.728,5.661,20.745,20.745,0,0,0,2.865,5.178" transform="translate(-1.809 -2.857)" fill="#eb996e"/><path d="M81.849,141.96c-.127.006-.016.938.818,1.631s1.765.647,1.748.522c.015-.135-.753-.284-1.447-.881-.709-.58-.989-1.309-1.119-1.272" transform="translate(-1.823 -3.164)" fill="#eb996e"/><path d="M89.044,137.514a18.177,18.177,0,0,0-1.655-2.85,18.1,18.1,0,0,0-1.772-2.779,13.756,13.756,0,0,0,3.427,5.629" transform="translate(-1.908 -2.939)" fill="#eb996e"/></g></g></g></g></g></svg>