<svg xmlns="http://www.w3.org/2000/svg" xmlns:xlink="http://www.w3.org/1999/xlink" width="297.153" height="208.983" viewBox="0 0 297.153 208.983"><defs><filter id="a" x="0" y="0.043" width="297.153" height="208.94" filterUnits="userSpaceOnUse"><feOffset dy="3" input="SourceAlpha"/><feGaussianBlur stdDeviation="3" result="b"/><feFlood flood-opacity="0.161"/><feComposite operator="in" in2="b"/><feComposite in="SourceGraphic"/></filter><clipPath id="c"><rect width="191.167" height="195.983" fill="none"/></clipPath><clipPath id="e"><rect width="11.229" height="15.161" fill="none"/></clipPath><clipPath id="f"><rect width="24.257" height="10.468" fill="none"/></clipPath><clipPath id="g"><rect width="111.141" height="70.631" fill="none"/></clipPath><clipPath id="h"><rect width="36.853" height="31.915" fill="none"/></clipPath></defs><g transform="translate(6526.246 6466.979)"><g transform="matrix(1, 0, 0, 1, -6526.25, -6466.98)" filter="url(#a)"><path d="M541.049,346.85c-6.106,0-33.633.007-68.558,0-9.643,0-19.853-.005-30.329-.009-7.949,0-16.054-.007-24.186-.012L404.2,346.82c-61.47-.048-71.267.639-81.023.029-18.149,0-64.633-70.531-9.3-116.841,21.488-17.982-6.09-41.873,29.6-59.816,23.47-11.8,40.518,8.93,68.851,1.462,20.932-5.517,25.19-18.459,66.573-14.873,39.8,3.449,40.6,36.124,27.972,63.106-7.971,17.035,31.111,11.775,49.184,37.2C586.91,300.481,541.323,346.2,541.049,346.85Z" transform="translate(-278.62 -150.12)" fill="#ffe293"/></g><g transform="translate(-6473.023 -6466.979)"><g clip-path="url(#c)"><g clip-path="url(#c)"><path d="M135.381,40l-.632,50.914c-.108,8.658,1.5,21.4,15.2,20.944,11.854-1.291,15-12.512,15.091-20.592.043-3.833.088-7.029.118-7.422,0,0,12.976-1.058,14.071-13.875.529-6.193.581-19.039.493-30.661a23.96,23.96,0,0,0-22.223-23.7l-1.237-.09C142.858,15.321,135.2,26.6,135.381,40" transform="translate(-67.756 -7.801)" fill="#ffbe9d"/><path d="M179.391,146.73a31.074,31.074,0,0,1-16.342-6.158s3.391,9.668,16.275,9.447Z" transform="translate(-81.989 -70.687)" fill="#eb996e"/><path d="M173.167,71.646c-.255.26-1.735-.932-3.882-.99-2.144-.089-3.75,1-3.976.719-.111-.123.154-.6.854-1.088a5.375,5.375,0,0,1,3.192-.905,5.185,5.185,0,0,1,3.081,1.121c.646.539.856,1.028.731,1.143" transform="translate(-83.113 -34.887)" fill="#263238"/><path d="M176.718,81.159a1.737,1.737,0,0,1-1.8,1.626,1.662,1.662,0,0,1-1.672-1.693,1.739,1.739,0,0,1,1.8-1.628,1.663,1.663,0,0,1,1.673,1.694" transform="translate(-87.117 -39.959)" fill="#263238"/><path d="M191.96,87.3a13.066,13.066,0,0,1,3.244-.344c.507-.015.991-.08,1.1-.418a2.569,2.569,0,0,0-.227-1.517q-.576-1.878-1.209-3.942c-1.669-5.608-2.838-10.2-2.612-10.271s1.763,4.428,3.432,10.036q.6,2.073,1.145,3.96a2.925,2.925,0,0,1,.116,2,1.265,1.265,0,0,1-.881.675,3.435,3.435,0,0,1-.864.057,12.857,12.857,0,0,1-3.245-.233" transform="translate(-96.527 -35.608)" fill="#263238"/><path d="M171.216,56.071c-.207.476-1.926.118-3.985.223-2.06.062-3.75.56-3.989.1-.105-.219.215-.658.915-1.083a6.494,6.494,0,0,1,3.014-.848,6.426,6.426,0,0,1,3.061.6c.726.367,1.075.778.984,1" transform="translate(-82.077 -27.385)" fill="#263238"/><path d="M212.356,64.019c-.225.388-1.9-.043-3.931-.105-2.031-.1-3.716.2-3.93-.208-.094-.193.241-.542.949-.85a7.092,7.092,0,0,1,3-.5,7.323,7.323,0,0,1,2.986.735c.7.364,1.023.739.924.925" transform="translate(-102.822 -31.354)" fill="#263238"/><path d="M127.639,83.386c-.212-.11-8.624-3.25-8.984,5.54s8.54,7.339,8.565,7.088.419-12.628.419-12.628" transform="translate(-59.66 -41.612)" fill="#ffbe9d"/><path d="M126.93,95.4c-.038-.03-.158.1-.421.209a1.532,1.532,0,0,1-1.146-.023c-.915-.379-1.636-1.885-1.614-3.471a5.07,5.07,0,0,1,.519-2.175,1.772,1.772,0,0,1,1.2-1.129.781.781,0,0,1,.886.457c.108.251.045.424.09.441.024.023.195-.14.139-.506a.976.976,0,0,0-.323-.565,1.156,1.156,0,0,0-.838-.258,2.153,2.153,0,0,0-1.656,1.3,5.2,5.2,0,0,0-.631,2.429c-.016,1.774.823,3.468,2.079,3.888a1.641,1.641,0,0,0,1.41-.175c.281-.206.336-.4.306-.418" transform="translate(-61.919 -44.441)" fill="#eb996e"/><path d="M183.081,110.5c.1-.222-1.626-.738-2.837-2.353a9.852,9.852,0,0,1-1.217-2.3c-.257-.638-.451-1.039-.546-1.009s-.068.46.074,1.154a6.483,6.483,0,0,0,1.131,2.571,5.255,5.255,0,0,0,2.246,1.719c.671.272,1.126.289,1.148.214" transform="translate(-89.723 -52.72)" fill="#263238"/><path d="M185.3,20a2.077,2.077,0,0,0-.975-1.213,6.388,6.388,0,0,0-3.277-.531,18.51,18.51,0,0,1-9.639-2.93,43.119,43.119,0,0,0-4.485-5.436c-3.885-4.006-7.082-6.732-10.388-8.063C152.254.107,145.1-.591,140.642.579s-8.464,4.788-9.084,9.357c-2.5-2.114-6.256-2.1-9.3-.872l-.077-.033c-3.392,1.209-5.319,4.793-6.32,8.253s-1.428,7.158-3.26,10.259c-.383.648-.838,1.425-.5,2.1a1.431,1.431,0,0,0,1.5.652,4.193,4.193,0,0,0,1.579-.714L114.037,32.3a8.018,8.018,0,0,0,3.69-.247,78.658,78.658,0,0,0,2.413,9.122,5.226,5.226,0,0,1,3.59.883c1.188,1.068,1.72,3.078,3.694,2.315,1-.388,1.921-2.5,2.258-3.52a50.02,50.02,0,0,0,2.166-21.174,16.075,16.075,0,0,1,4.965-3.583l-.152.137c3.582-1.244,7.634-2.468,11.032-.786,2.636,1.3,4.186,4.04,6.157,6.223a20.123,20.123,0,0,0,14.342,6.625c.189,3.609-.113,8.71.076,12.319L171.3,34.83l0,.029c.249-.423.454-.85.653-1.277l.068-.13v-.016a22.373,22.373,0,0,1,1.015-2.053l.034.031a2.255,2.255,0,0,0,3.295-3.016,5.084,5.084,0,0,0-1.09-1.1,3.567,3.567,0,0,0,3.4.881,2.8,2.8,0,0,0,1.98-2.768,2.38,2.38,0,0,0-1.419-1.909,8.041,8.041,0,0,0,4.572-1.008c.9-.515,1.788-1.362,1.482-2.5" transform="translate(-56.309 0)" fill="#263238"/><path d="M140.444,22.946a11.029,11.029,0,0,0-1.286,1.176,9.193,9.193,0,0,0-1.968,4.257,16.133,16.133,0,0,0-.328,3.258c-.005,1.181.089,2.445.18,3.778a33.889,33.889,0,0,1,.1,4.2,14.8,14.8,0,0,1-.289,2.218,4.625,4.625,0,0,1-.9,2.152,1.934,1.934,0,0,1-1.809.608,2.879,2.879,0,0,1-1.628-.919,6.652,6.652,0,0,1-1.236-3.26l.269.032a10.731,10.731,0,0,1-1.56,2.686,3.817,3.817,0,0,1-2.494,1.358,2.463,2.463,0,0,1-1.321-.231,2.134,2.134,0,0,1-.9-.885,2.2,2.2,0,0,1-.272-1.136,1.6,1.6,0,0,1,.412-1l.136.121a8.27,8.27,0,0,1-2.754,2.067,7.384,7.384,0,0,1-.854.331,1.42,1.42,0,0,1-.306.076,1.55,1.55,0,0,1,.289-.123c.19-.079.474-.192.827-.372a8.515,8.515,0,0,0,2.658-2.1l.136.121a1.644,1.644,0,0,0-.085,1.905,1.923,1.923,0,0,0,.812.783,2.236,2.236,0,0,0,1.2.195,3.58,3.58,0,0,0,2.315-1.291,10.577,10.577,0,0,0,1.5-2.628l.184-.411.085.444a6.428,6.428,0,0,0,1.176,3.115,2.59,2.59,0,0,0,1.457.823,1.633,1.633,0,0,0,1.538-.515,4.378,4.378,0,0,0,.835-2.013,14.7,14.7,0,0,0,.287-2.173,34.31,34.31,0,0,0-.079-4.17c-.083-1.332-.169-2.6-.153-3.8a16.076,16.076,0,0,1,.369-3.3,9.069,9.069,0,0,1,2.089-4.29,5.2,5.2,0,0,1,1.373-1.1" transform="translate(-61.161 -11.538)" fill="#455a64"/><path d="M199.581,28.141s-.032.034-.1.087l-.32.234a4.324,4.324,0,0,1-.543.349,6.837,6.837,0,0,1-.781.41,11.365,11.365,0,0,1-5.488.987,14.527,14.527,0,0,1-7.738-2.857,25.168,25.168,0,0,1-6.647-7.662c-.933-1.553-1.692-3.144-2.53-4.614a17.009,17.009,0,0,0-2.865-3.9,8.754,8.754,0,0,0-3.695-2.242,6.272,6.272,0,0,0-1.948-.224,6.9,6.9,0,0,0-1.784.343,7.42,7.42,0,0,0-4.12,3.486,8.882,8.882,0,0,0-.662,1.922.426.426,0,0,1,.01-.135c.016-.106.037-.235.061-.392a6.434,6.434,0,0,1,.487-1.448,7.3,7.3,0,0,1,1.435-1.946,7.5,7.5,0,0,1,2.72-1.688,7.056,7.056,0,0,1,1.84-.373,6.491,6.491,0,0,1,2.027.216,8.966,8.966,0,0,1,3.82,2.283,17.13,17.13,0,0,1,2.928,3.956c.848,1.481,1.609,3.068,2.533,4.606a25.177,25.177,0,0,0,6.552,7.591A14.437,14.437,0,0,0,192.36,30a11.548,11.548,0,0,0,5.426-.882,18.087,18.087,0,0,0,1.794-.974" transform="translate(-80.635 -4.259)" fill="#455a64"/><path d="M227.859,36.7a2,2,0,0,1-.46.32,9.91,9.91,0,0,1-1.361.692,13.261,13.261,0,0,1-2.156.708,13.958,13.958,0,0,1-5.532.177,13.292,13.292,0,0,1-2.2-.568,9.936,9.936,0,0,1-1.4-.6,2.013,2.013,0,0,1-.479-.29c.025-.051.733.313,1.948.692a15.191,15.191,0,0,0,2.174.5,14.974,14.974,0,0,0,5.427-.174,15.118,15.118,0,0,0,2.137-.635c1.189-.455,1.873-.864,1.9-.815" transform="translate(-107.747 -18.454)" fill="#455a64"/><path d="M212.544,73.272c-.255.26-1.735-.932-3.882-.99-2.144-.089-3.751,1-3.976.719-.111-.123.154-.6.854-1.088a5.379,5.379,0,0,1,3.192-.906,5.188,5.188,0,0,1,3.081,1.121c.646.539.856,1.028.731,1.143" transform="translate(-102.914 -35.705)" fill="#263238"/><path d="M212.6,82.414a1.738,1.738,0,0,1-1.8,1.626,1.662,1.662,0,0,1-1.672-1.693,1.739,1.739,0,0,1,1.8-1.628,1.663,1.663,0,0,1,1.673,1.694" transform="translate(-105.162 -40.59)" fill="#263238"/><path d="M348.936,173.385a3.539,3.539,0,0,0-3.559-3.725,2.484,2.484,0,0,0-2.881-1.133l-5.762,3.887c-.847,1.457-6.44,6.963-6.44,6.963-1.525-1.133-1.525-3.4-3.353-6.154s-5.968-2.429-5.968-2.429,3.22,7.287,3.559,11.821-2.475,17.181-2.475,17.181l16.29,4.578s1.028-6.938,2.854-7.5c2.2-.674,3.419-3.916,3.419-3.916,2.375-4.811,7.2-11.8,7.875-15.365s-3.559-4.21-3.559-4.21" transform="translate(-161.402 -84.686)" fill="#ffbe9d"/><path d="M104.389,162.217c10.376,6.52,20.833,8.973,31.423,4.751l15.92,4.066L167.4,275.68l-91.835.8,4.525-24.305,11.385-87.327Z" transform="translate(-37.995 -81.571)" fill="#455a64"/><path d="M228.778,179.952s12.382,5.142,17.108,14.148,12.321,34.288,12.321,34.288L272.2,202.694l25.967,6.638s-19.328,53.313-24.18,58.167c-5.313,5.314-19.789,10.671-26.878,6.537s-8.531-19.83-8.531-19.83Z" transform="translate(-115.041 -90.489)" fill="#455a64"/><path d="M230.364,246.992c-.072,0-.129-4.648-.129-10.38s.058-10.382.129-10.382.129,4.647.129,10.382-.058,10.38-.129,10.38" transform="translate(-115.774 -113.76)" fill="#263238"/><path d="M236.536,191.98a15.591,15.591,0,0,1-.6,1.714c-.39,1.051-.907,2.51-1.413,4.142s-.9,3.13-1.174,4.217a15.381,15.381,0,0,1-.47,1.755,1.8,1.8,0,0,1,.048-.488c.047-.311.129-.758.244-1.309.227-1.1.6-2.612,1.1-4.252s1.056-3.1,1.49-4.132c.217-.519.4-.934.539-1.218a1.8,1.8,0,0,1,.236-.43" transform="translate(-117.098 -96.537)" fill="#263238"/><path d="M51.794,206.445l2.873-39.43S33.051,169.02,25.9,184.271C19.87,197.122,3.231,235.787,1.449,241.077c-5.226,15.521,2.938,36.86,36.6,35.624l3.837-21.1Z" transform="translate(0 -83.984)" fill="#455a64"/><path d="M55.5,345.6a2.465,2.465,0,0,1,.176-.378l.549-1.061,2.062-3.879L58.971,339a3.808,3.808,0,0,1,.989-1.27,2.688,2.688,0,0,1,1.662-.478,7.568,7.568,0,0,1,1.792.29,18.378,18.378,0,0,1,3.617,1.368,9.587,9.587,0,0,1,1.737,1.106l.2.174a.65.65,0,0,1,.17.267,2.248,2.248,0,0,1,.109.543,8.46,8.46,0,0,1,.023,1.07c-.052,1.425-.23,2.8-.407,4.124s-.385,2.6-.587,3.806c-.407,2.42-.814,4.592-1.163,6.414l-.845,4.311-.231,1.171a3.33,3.33,0,0,1-.087.408,2.036,2.036,0,0,1,.035-.416c.036-.271.1-.67.183-1.181l.764-4.326c.326-1.826.714-4,1.107-6.419.2-1.21.393-2.481.571-3.8s.348-2.693.4-4.1a8.341,8.341,0,0,0-.022-1.037,1.98,1.98,0,0,0-.094-.478.38.38,0,0,0-.1-.168l-.19-.166a9.393,9.393,0,0,0-1.687-1.079,18.393,18.393,0,0,0-3.562-1.363,7.389,7.389,0,0,0-1.734-.293,2.474,2.474,0,0,0-1.532.423,3.623,3.623,0,0,0-.942,1.195l-.7,1.274-2.134,3.84-.592,1.038a2.5,2.5,0,0,1-.222.353" transform="translate(-27.906 -169.587)" fill="#263238"/><path d="M24.056,316.362a.937.937,0,0,1,.254-.008l.726.028c.629.031,1.54.084,2.664.188a34.6,34.6,0,0,1,3.925.571,20.09,20.09,0,0,1,4.617,1.53,18.1,18.1,0,0,1,4.062,2.68,10.851,10.851,0,0,1,2.466,3.116,6.9,6.9,0,0,1,.747,2.572,4.58,4.58,0,0,1,.014.729.93.93,0,0,1-.021.253c-.028,0-.018-.351-.093-.97a7.241,7.241,0,0,0-.81-2.5,10.979,10.979,0,0,0-2.461-3.022,18.43,18.43,0,0,0-4.016-2.625,20.6,20.6,0,0,0-4.554-1.53,38.194,38.194,0,0,0-3.894-.622c-1.118-.127-2.025-.208-2.652-.27l-.722-.077a.935.935,0,0,1-.251-.044" transform="translate(-12.097 -159.079)" fill="#263238"/><path d="M66.1,312.367a9.355,9.355,0,0,1-.537,1.552c-.37.944-.922,2.231-1.555,3.641l-1.622,3.606a11.5,11.5,0,0,1-.706,1.481,9.317,9.317,0,0,1,.537-1.552c.37-.944.922-2.232,1.555-3.641l1.622-3.606a11.429,11.429,0,0,1,.706-1.48" transform="translate(-31.016 -157.074)" fill="#263238"/><path d="M94.509,238.652c-.072,0-.129-2.5-.129-5.581s.058-5.582.129-5.582.129,2.5.129,5.582-.058,5.581-.129,5.581" transform="translate(-47.459 -114.393)" fill="#263238"/><g transform="translate(20.185 168.942)" opacity="0.3"><g clip-path="url(#e)"><path d="M51.83,339.822c-5.686,1.984-9.53,7.144-11.083,12.962a2.009,2.009,0,0,0,.137,1.813,1.431,1.431,0,0,0,1.785.146,4.175,4.175,0,0,0,1.266-1.458,149.339,149.339,0,0,0,7.9-13.463" transform="translate(-40.601 -339.822)"/></g></g><g transform="translate(6.411 155.104)" opacity="0.3"><g clip-path="url(#f)"><path d="M30.845,314.575a22.929,22.929,0,0,0-9.788-2.567,14.867,14.867,0,0,0-3.957.348c-1.774.373-3.816,1.27-4.2,2.544,4.082-1.278,10.089-.436,14.267.477a15.328,15.328,0,0,1,9.99,7.078,14.25,14.25,0,0,0-6.308-7.88" transform="translate(-12.896 -311.986)"/></g></g><path d="M79.882,201.959a3.166,3.166,0,0,1-.2-.622c-.106-.4-.28-.986-.515-1.7a27.368,27.368,0,0,0-5.874-9.983c-.506-.55-.93-.983-1.232-1.273a3.186,3.186,0,0,1-.448-.475,3.155,3.155,0,0,1,.516.4c.324.267.77.684,1.3,1.221a24.648,24.648,0,0,1,5.916,10.054c.214.721.361,1.313.437,1.727a3.157,3.157,0,0,1,.1.646" transform="translate(-36.012 -94.49)" fill="#263238"/><path d="M79.467,320.575,55.381,262.462c-1.1-2.652.28-4.8,3.08-4.8h4.846c1.978,0,3.325-1.089,3.452-2.79l.161-2.137c.128-1.7,1.478-2.789,3.458-2.789H93.4a8.059,8.059,0,0,1,5.332,2.359l1.869,1.811a8.055,8.055,0,0,0,5.328,2.359h29.328a8.184,8.184,0,0,1,7,4.8l23.878,59.3Z" transform="translate(-27.658 -125.685)" fill="#ff725e"/><g transform="translate(27.345 124.259)" opacity="0.3"><g clip-path="url(#g)"><path d="M79.467,320.575,55.381,262.462c-1.1-2.652.28-4.8,3.08-4.8h4.846c1.978,0,3.325-1.089,3.452-2.79l.161-2.137c.128-1.7,1.478-2.789,3.458-2.789H93.4a8.059,8.059,0,0,1,5.332,2.359l1.869,1.811a8.055,8.055,0,0,0,5.328,2.359h29.328a8.184,8.184,0,0,1,7,4.8l23.878,59.3Z" transform="translate(-55.003 -249.944)"/></g></g><path d="M86.884,312.106,77.8,276.983c-.6-2.313.917-4.633,3.025-4.633H152.03a3.247,3.247,0,0,1,3.032,2.616l13.224,52.866c.581,2.321-.347,3.714-2.458,3.687l-71.643.022a3.25,3.25,0,0,1-2.992-2.6Z" transform="translate(-39.056 -136.952)" fill="#e0e0e0"/><path d="M102.181,329.2l-3.87-55.311a3.392,3.392,0,0,1,3.384-3.629h73.777V329.2Z" transform="translate(-49.432 -135.902)" fill="#ebebeb"/><path d="M104.443,330.469l8.777-57.021a4.085,4.085,0,0,1,4.011-3.185h74.634a4.034,4.034,0,0,1,3.768,5.62l-16.116,52.183Z" transform="translate(-52.519 -135.902)" fill="#fafafa"/><path d="M104.213,334.193l18.1-53.4a5.359,5.359,0,0,1,5.034-3.713h76.941a3.76,3.76,0,0,1,3.436,4.989l-16.835,52.154Z" transform="translate(-52.404 -139.328)" fill="#ff725e"/><g transform="translate(53.379 162.975)" opacity="0.3"><g clip-path="url(#h)"><path d="M143,350.769s-2.9.133-4.244.224a39.535,39.535,0,0,1-18.7-3.316c-1.811-.807-3.725-1.945-4.272-3.85-.613-2.134.768-4.354,2.452-5.8s3.733-2.475,5.2-4.145,2.155-4.373.714-6.061l-.4.291c-1.042,2.637-3.939,3.91-6.34,5.418a22.371,22.371,0,0,0-9.4,12.28c-.845,2.765-1.07,5.99.606,8.345a10.4,10.4,0,0,0,5.059,3.334c5.821,2.159,12.042,2.239,18.25,2.246,1.961,0,7.981-.081,7.981-.081,1.893-.515,2.517-1.5,3.657-3.1,1.046-1.466.817-4.64-.57-5.789" transform="translate(-107.37 -327.821)"/></g></g><path d="M128.066,349.482,108,346.465l-7.791-4.483a3.514,3.514,0,0,1-1.791-2.83c0-.022,0-.044,0-.066a3.557,3.557,0,0,1,2.205-3.4c2.471-1.042,6.387-2.427,8.057-5.352,2.4-4.2,0-5.076,0-5.076l-16.757,6.7-11.862,8.074L77.669,353.5,94.221,358.9s18.444,1.04,23.533.469,5.089-2.942,5.089-2.942c.944-.3,2.856-1.973,2.854-3.537,2.47-2.317,2.369-3.41,2.369-3.41" transform="translate(-39.056 -163.558)" fill="#ffbe9d"/><path d="M127.413,385.63a3.964,3.964,0,0,1,.827.158c.524.127,1.287.3,2.232.484a47.176,47.176,0,0,0,14.977.585c.957-.114,1.731-.223,2.264-.309a4.011,4.011,0,0,1,.836-.093,3.905,3.905,0,0,1-.812.224c-.527.127-1.3.272-2.256.418a40.767,40.767,0,0,1-15.06-.588c-.944-.22-1.7-.425-2.216-.592a4.009,4.009,0,0,1-.792-.286" transform="translate(-64.07 -193.912)" fill="#eb996e"/><path d="M131.1,379.39a4.154,4.154,0,0,1,.839.16c.532.129,1.307.3,2.268.482a48.728,48.728,0,0,0,7.585.839,51.5,51.5,0,0,0,7.627-.35c.971-.117,1.756-.229,2.3-.316a4.135,4.135,0,0,1,.849-.1,4.1,4.1,0,0,1-.824.226c-.535.128-1.317.277-2.289.425a43.162,43.162,0,0,1-7.67.452,41.212,41.212,0,0,1-7.624-.943c-.96-.216-1.73-.421-2.254-.59a4.06,4.06,0,0,1-.8-.288" transform="translate(-65.923 -190.775)" fill="#eb996e"/><path d="M317.75,173.755,282.094,180.8a4.547,4.547,0,0,1-5.342-3.58L267,127.866a4.547,4.547,0,0,1,3.58-5.342l22.613-4.466,21.067,14.584,7.065,35.772a4.547,4.547,0,0,1-3.58,5.342" transform="translate(-134.22 -59.365)" fill="#ebebeb"/><path d="M319.779,118.057l2.743,13.889a4.23,4.23,0,0,0,4.969,3.33l13.355-2.636Z" transform="translate(-160.801 -59.365)" fill="#f5f5f5"/><path d="M326.148,147.881a4.7,4.7,0,0,0,4.543,3.753,4.4,4.4,0,0,0,.458.012c1.806-.032,13.688-.258,13.636-.521l-.737-3.732-13.355,2.637s-3.357.545-4.546-2.149" transform="translate(-164.004 -74.117)" fill="#e0e0e0"/><path d="M317.622,173.622s.064-.022.192-.057a3.88,3.88,0,0,0,.561-.183,4.513,4.513,0,0,0,2.821-4.809c-.261-1.445-.616-3.109-.982-4.973l-6.183-31.07.044.068L293,118.026l.094.019-13.048,2.581-6.825,1.349-1.732.342a11.62,11.62,0,0,0-1.7.4,4.42,4.42,0,0,0-2.468,2.312,4.362,4.362,0,0,0-.358,2.363c.126.8.311,1.62.463,2.425q.478,2.424.95,4.814.943,4.78,1.857,9.412c1.217,6.171,2.389,12.122,3.507,17.793q.837,4.253,1.631,8.286l.781,3.97q.192.977.381,1.939a10.454,10.454,0,0,0,.454,1.865,4.454,4.454,0,0,0,2.6,2.48,4.408,4.408,0,0,0,1.768.257,16.962,16.962,0,0,0,1.766-.3l6.732-1.321,20.317-3.971,5.526-1.067,1.439-.271c.324-.06.492-.084.492-.084s-.164.041-.487.109l-1.433.3-5.517,1.115-20.3,4.052-6.729,1.337a16.871,16.871,0,0,1-1.792.308,4.612,4.612,0,0,1-1.851-.265,4.666,4.666,0,0,1-2.726-2.594,10.592,10.592,0,0,1-.47-1.9l-.385-1.938q-.387-1.954-.787-3.968-.8-4.028-1.642-8.284L269.98,144.1l-1.861-9.412q-.472-2.389-.952-4.813c-.153-.813-.334-1.607-.465-2.443a4.62,4.62,0,0,1,.379-2.5,4.679,4.679,0,0,1,2.614-2.447,11.8,11.8,0,0,1,1.744-.414l1.732-.342L280,120.375l13.049-2.573.052-.01.043.03,21.058,14.6.036.025.008.043c2.533,12.921,4.629,23.617,6.094,31.089.358,1.869.7,3.526.955,4.985a4.565,4.565,0,0,1-1.025,3.522,4.511,4.511,0,0,1-1.879,1.331,3.376,3.376,0,0,1-.569.168c-.13.03-.2.041-.2.041" transform="translate(-134.092 -59.232)" fill="#263238"/><path d="M340.844,132.641a1.77,1.77,0,0,1-.338.093l-.979.218-3.61.754-5.36,1.086-3.171.627a4.363,4.363,0,0,1-4.541-2.2,5.049,5.049,0,0,1-.53-1.657l-.618-3.17c-.387-2.015-.737-3.834-1.033-5.371-.28-1.509-.509-2.74-.674-3.626l-.17-.988a1.757,1.757,0,0,1-.042-.348,1.726,1.726,0,0,1,.093.338l.218.979c.184.882.441,2.107.755,3.609.312,1.535.68,3.35,1.087,5.361.2,1.01.414,2.07.633,3.167a4.8,4.8,0,0,0,.507,1.582,4.121,4.121,0,0,0,4.274,2.076l3.167-.611,5.371-1.032,3.626-.674.988-.17a1.754,1.754,0,0,1,.348-.042" transform="translate(-160.799 -59.365)" fill="#263238"/><path d="M304.321,143.251c.014.07-4.186.959-9.38,1.985s-9.418,1.8-9.431,1.731,4.186-.959,9.381-1.985,9.417-1.8,9.43-1.731" transform="translate(-143.569 -72.032)" fill="#263238"/><path d="M316,153.643c.014.07-6.185,1.354-13.843,2.866s-13.88,2.683-13.894,2.613,6.183-1.353,13.844-2.867,13.879-2.682,13.893-2.612" transform="translate(-144.953 -77.258)" fill="#263238"/><path d="M318.751,167.58c.014.07-6.185,1.354-13.843,2.866s-13.88,2.683-13.894,2.613,6.183-1.353,13.844-2.867,13.879-2.682,13.893-2.612" transform="translate(-146.337 -84.266)" fill="#263238"/><path d="M293.767,187c-.014-.07,6.184-1.354,13.843-2.866s13.88-2.683,13.894-2.613-6.183,1.353-13.844,2.867-13.879,2.682-13.893,2.612" transform="translate(-147.721 -91.275)" fill="#263238"/><path d="M324.257,195.454c.014.07-6.184,1.354-13.843,2.866s-13.88,2.683-13.894,2.613,6.183-1.353,13.844-2.867,13.879-2.682,13.893-2.612" transform="translate(-149.105 -98.283)" fill="#263238"/><path d="M327.009,209.391c.014.07-6.185,1.354-13.843,2.866s-13.88,2.683-13.894,2.613,6.183-1.353,13.844-2.867,13.879-2.682,13.893-2.612" transform="translate(-150.489 -105.291)" fill="#263238"/><path d="M294.446,204.839l-26.166,5.168a2.1,2.1,0,0,1-2.465-1.652l-1.874-9.49a2.1,2.1,0,0,1,1.652-2.466l26.166-5.168a2.1,2.1,0,0,1,2.465,1.653l1.875,9.489a2.1,2.1,0,0,1-1.653,2.466" transform="translate(-132.703 -96.141)" fill="#ff725e"/><path d="M279.85,207.9l2.336-.461a2.633,2.633,0,1,1,1.016,5.142l-2.336.461Zm3.1,3.715a1.627,1.627,0,1,0-.63-3.188l-1.086.215.63,3.188Z" transform="translate(-140.723 -104.273)" fill="#fff"/><path d="M292.367,208.015a2.873,2.873,0,1,1,3.339,2.1,2.713,2.713,0,0,1-3.339-2.1m4.422-.873a1.64,1.64,0,1,0-1.284,1.963,1.6,1.6,0,0,0,1.284-1.963" transform="translate(-146.989 -102.952)" fill="#fff"/><path d="M304.833,205.555a2.887,2.887,0,0,1,4.562-2.717l-.625.856a1.686,1.686,0,0,0-1.412-.347,1.677,1.677,0,1,0,.65,3.291,1.672,1.672,0,0,0,1.172-.865l.9.554a2.882,2.882,0,0,1-5.251-.772" transform="translate(-153.258 -101.716)" fill="#fff"/><path d="M353.073,154.162s2.633-3.334,4.661-1.47,1.443,2.823-.485,5.77c0,0,4.3-.226,2.924,4.2,0,0,4.289-.474,3.877,3.143,0,0,3.239,3.169,1.555,5.213s-7.793,5.731-9.336,5.1-1.555-2.819-1.555-2.819a6.009,6.009,0,0,1-2.342-1.794c-.507-.967.363-2.323.363-2.323s-1.548-1.581-1.931-2.022.21-2.492.21-2.492l2.47-2.4s-3.4,1.479-4.11.915-1.508-1.051-.749-2.08a34.437,34.437,0,0,1,3.457-3.329Z" transform="translate(-175.152 -76.496)" fill="#ffbe9d"/><path d="M361.873,187.374a11.733,11.733,0,0,1,1.115-1.354,13.021,13.021,0,0,1,3.142-2.878,30.315,30.315,0,0,0,3.532-2.27,16.64,16.64,0,0,0,1.2-1.239,3.139,3.139,0,0,1-1.011,1.455,20.868,20.868,0,0,1-3.506,2.4,15.806,15.806,0,0,0-3.148,2.727,5.533,5.533,0,0,1-1.328,1.158" transform="translate(-181.967 -90.328)" fill="#eb996e"/><path d="M357.079,180.459a33.081,33.081,0,0,1,3.53-3.813c1.019-1,1.893-1.966,2.645-2.559a3.182,3.182,0,0,1,1.324-.782c.029.055-.464.355-1.133,1-.681.628-1.516,1.623-2.546,2.631a33.048,33.048,0,0,1-3.82,3.522" transform="translate(-179.556 -87.144)" fill="#eb996e"/><path d="M358.706,168.479a15.178,15.178,0,0,1,1.979-1.91,25.671,25.671,0,0,0,1.744-2.081,4.127,4.127,0,0,1-1.458,2.374,6.907,6.907,0,0,1-2.266,1.617" transform="translate(-180.374 -82.712)" fill="#eb996e"/><path d="M352.94,154.052a1.085,1.085,0,0,1-.044.247l-.17.7-.693,2.681-.006.025-.021.019c-.5.437-1.055.939-1.658,1.507a14.728,14.728,0,0,0-1.836,1.962,1.026,1.026,0,0,0-.186.623.986.986,0,0,0,.332.581,6.657,6.657,0,0,0,.606.5.916.916,0,0,0,.686.136A13.167,13.167,0,0,0,353.284,162l.8-.329-.614.6L351,164.678l.037-.053a3.141,3.141,0,0,0-.127,2.5,6.983,6.983,0,0,0,1.948,1.986l.167.126-.135.159c-.537.635-.918,1.639-.215,2.259a9.144,9.144,0,0,0,2.333,1.6l-.289.161,0-.048s0-.022,0-.013v0c.051.06-.115-.143.118.175.555-.262.161-.108.281-.151h0v0l0,.094,0,.2a3.834,3.834,0,0,0,.037.405,3.162,3.162,0,0,0,.214.78,2.063,2.063,0,0,0,.437.655,1.222,1.222,0,0,0,.638.366,3.882,3.882,0,0,0,1.627-.321,14.462,14.462,0,0,0,1.616-.726,26.631,26.631,0,0,0,2.876-1.74,16.759,16.759,0,0,0,2.516-2.064,2.037,2.037,0,0,0,.653-1.295,3.148,3.148,0,0,0-.265-1.449,8.235,8.235,0,0,0-1.693-2.46l-.061-.064,0-.095a3.1,3.1,0,0,0-.146-1.414,2.1,2.1,0,0,0-.867-1.025,4.635,4.635,0,0,0-2.654-.508l-.248.016.059-.244c.065-.269.142-.534.2-.8a4.475,4.475,0,0,0,.062-.791,2.2,2.2,0,0,0-.444-1.4,3.228,3.228,0,0,0-2.562-1h-.288l.154-.234a23.928,23.928,0,0,0,1.386-2.261,3.321,3.321,0,0,0,.352-1.12,1.836,1.836,0,0,0-.221-1.043,4.653,4.653,0,0,0-1.353-1.471,1.988,1.988,0,0,0-1.61-.165,5.388,5.388,0,0,0-2,1.253c-.2.185-.348.338-.447.438a.979.979,0,0,1-.155.149.693.693,0,0,1,.122-.178,5.934,5.934,0,0,1,.42-.471,6.549,6.549,0,0,1,.772-.681,4.1,4.1,0,0,1,1.243-.671,2.162,2.162,0,0,1,1.762.149l.412.3.372.356a4.246,4.246,0,0,1,.676.875,2.078,2.078,0,0,1,.265,1.177,3.557,3.557,0,0,1-.362,1.218,23.724,23.724,0,0,1-1.379,2.308l-.134-.233a4.5,4.5,0,0,1,1.5.214,2.774,2.774,0,0,1,1.338.887,2.531,2.531,0,0,1,.527,1.595,4.844,4.844,0,0,1-.061.859c-.056.281-.134.56-.2.845l-.188-.228a4.954,4.954,0,0,1,2.886.543,2.473,2.473,0,0,1,1.025,1.2,3.472,3.472,0,0,1,.176,1.6l-.056-.159a8.576,8.576,0,0,1,1.789,2.584,3.53,3.53,0,0,1,.3,1.638,2.539,2.539,0,0,1-.239.841,3.672,3.672,0,0,1-.518.69,17.044,17.044,0,0,1-2.577,2.124,26.8,26.8,0,0,1-2.921,1.768,14.8,14.8,0,0,1-1.662.746,4.185,4.185,0,0,1-1.829.34A2.032,2.032,0,0,1,355,175.022a3.535,3.535,0,0,1-.241-.881,4.113,4.113,0,0,1-.041-.448l0-.226.006-.119,0-.023v-.006c.121-.044-.273.108.283-.154.233.316.067.114.118.175v.017l0,.04,0,.058-.027.3-.262-.14a9.448,9.448,0,0,1-2.446-1.69,1.917,1.917,0,0,1-.419-.671,1.584,1.584,0,0,1-.034-.794,3.046,3.046,0,0,1,.672-1.315l.032.284a7.258,7.258,0,0,1-2.057-2.13,2.615,2.615,0,0,1-.227-1.46,4.63,4.63,0,0,1,.362-1.362l.012-.028.025-.025,2.479-2.388.181.271a13.262,13.262,0,0,1-3.447,1.029,1.21,1.21,0,0,1-.888-.206,6.865,6.865,0,0,1-.626-.531,1.256,1.256,0,0,1-.4-.754,1.282,1.282,0,0,1,.236-.789,14.38,14.38,0,0,1,1.908-1.985c.616-.56,1.185-1.051,1.694-1.48l-.028.044q.5-1.7.78-2.672l.212-.686a.925.925,0,0,1,.086-.226" transform="translate(-175.017 -76.398)" fill="#eb996e"/></g></g></g></g></svg>