<svg xmlns="http://www.w3.org/2000/svg" xmlns:xlink="http://www.w3.org/1999/xlink" width="297.153" height="216.054" viewBox="0 0 297.153 216.054"><defs><filter id="a" x="0" y="7.115" width="297.153" height="208.939" filterUnits="userSpaceOnUse"><feOffset dy="3" input="SourceAlpha"/><feGaussianBlur stdDeviation="3" result="b"/><feFlood flood-opacity="0.161"/><feComposite operator="in" in2="b"/><feComposite in="SourceGraphic"/></filter><clipPath id="c"><rect width="237.883" height="203.243" fill="none"/></clipPath><clipPath id="f"><rect width="10.591" height="13.525" fill="none"/></clipPath><clipPath id="g"><rect width="2.343" height="28.412" fill="none"/></clipPath><clipPath id="h"><rect width="6.717" height="13.983" fill="none"/></clipPath><clipPath id="i"><rect width="19.564" height="5.679" fill="none"/></clipPath><clipPath id="j"><rect width="10.069" height="12.58" fill="none"/></clipPath><clipPath id="k"><rect width="19.612" height="9.969" fill="none"/></clipPath><clipPath id="l"><rect width="16.186" height="7.74" fill="none"/></clipPath><clipPath id="m"><rect width="13.332" height="19.007" fill="none"/></clipPath></defs><g transform="translate(7228.245 6474.356)"><g transform="matrix(1, 0, 0, 1, -7228.25, -6474.36)" filter="url(#a)"><path d="M541.049,346.849c-6.106,0-33.633.007-68.558,0-9.643,0-19.853-.005-30.329-.009-7.949,0-16.054-.007-24.186-.012L404.2,346.82c-61.47-.048-71.267.639-81.023.029-18.149,0-64.633-70.531-9.3-116.841,21.488-17.982-6.09-41.873,29.6-59.816,23.47-11.8,40.518,8.93,68.851,1.462,20.932-5.517,25.19-18.459,66.573-14.873,39.8,3.449,40.6,36.124,27.972,63.106-7.971,17.035,31.111,11.775,49.184,37.2C586.91,300.481,541.323,346.2,541.049,346.849Z" transform="translate(-278.62 -143.05)" fill="#ffe293"/></g><g transform="translate(-7201.892 -6474.356)"><g clip-path="url(#c)"><g clip-path="url(#c)"><path d="M53.109,34.556s.369.274,1.071.809l3.1,2.369,11.792,9.048.4.31L69,46.9c-2.725-1.125-5.825-2.238-9.223-3.422s-7.095-2.443-10.954-4.03l.128-.072L46,58.649l-.032.211-.152-.149-13.352-13.1.153.013-16.6,11.54-.263.183.065-.314c1.1-5.319,2.272-10.979,3.471-16.772l.11.147L.376,37.425,0,37.366l.33-.192,12.92-7.511,2.008-1.168-.043.2c-1.653-2.405-3.1-4.906-4.525-7.395S7.918,16.3,6.6,13.812l-.213-.4.4.225,15.1,8.5-.2.106q.381-5.538.749-10.9.164-2.679.325-5.311.067-1.315.134-2.619.024-.651.049-1.3l.013-.646,0-.32c0-.093-.021-.237-.011-.25L23.1.677l.047.065L34.143,15.791l-.188,0L45.874.193,46.021,0l.039.24q1.717,10.68,3.1,19.3l-.092-.073,15.8-.493.138,0-.084.11-8.76,11.494-2.273,2.972c-.513.669-.783,1.011-.783,1.011s.247-.34.748-1.008l2.239-2.98L64.819,19l.055.105-15.791.535-.08,0-.013-.075q-1.4-8.63-3.138-19.294l.186.047-11.9,15.611-.1.125-.093-.126L22.948.89l.2-.148a1.093,1.093,0,0,1,.06.391l0,.328-.012.652q-.024.65-.048,1.3-.066,1.3-.133,2.622-.159,2.632-.322,5.313-.365,5.358-.744,10.9l-.014.208-.182-.1-15.1-8.49.186-.18q1.968,3.733,4.084,7.474c1.417,2.485,2.869,4.984,4.511,7.373l.084.122-.126.074L13.387,29.9.466,37.408l-.047-.251,19.014,2.991.137.021-.026.126c-1.2,5.8-2.378,11.467-3.483,16.791l-.2-.131L32.475,45.429l.082-.056.071.07L45.964,58.555l-.184.061c1.082-6.98,2.09-13.487,2.987-19.271l.018-.118.11.045c3.848,1.591,7.544,2.85,10.937,4.05s6.5,2.315,9.221,3.45l-.067.115L57.209,37.757l-3.065-2.385c-.69-.538-1.035-.815-1.035-.815" fill="#263238"/><path d="M55.679,40.361l.564,8.908a1.445,1.445,0,0,0,2.879.067l.989-8.953a1.134,1.134,0,0,0-1.143-1.258l-2.172.03a1.134,1.134,0,0,0-1.116,1.206" transform="translate(-26.58 -18.678)" fill="#263238"/><path d="M60,68.1a2.174,2.174,0,1,1-1.378-2.748A2.174,2.174,0,0,1,60,68.1" transform="translate(-26.622 -31.143)" fill="#263238"/><path d="M68.671,40.361l.564,8.908a1.445,1.445,0,0,0,2.879.067l.989-8.953a1.134,1.134,0,0,0-1.143-1.258l-2.173.03a1.134,1.134,0,0,0-1.116,1.206" transform="translate(-32.782 -18.678)" fill="#263238"/><path d="M72.995,68.1a2.174,2.174,0,1,1-1.378-2.748A2.174,2.174,0,0,1,72.995,68.1" transform="translate(-32.824 -31.143)" fill="#263238"/></g><g clip-path="url(#c)"><path d="M240.228,69.82c.692-5.087,6.336-9.509,4.466-14.29-1.254-3.207-5.405-4.522-6.691-7.716-.891-2.212-.193-4.868-1.278-6.99-1.484-2.9-5.494-3.447-7.654-5.889-1.488-1.682-1.917-4.061-3.212-5.9s-4.384-2.835-5.635-.97l12.937,36.4c1.94,9,2.865,18.03,4.805,27.033,2.728,1.349,6.073-1.268,6.63-4.26s-.758-5.983-2.074-8.728-2.7-5.68-2.293-8.7" transform="translate(-105.132 -12.924)" fill="#263238"/><path d="M179.86,77.416l-15.178-39.8-6.559-8.552c-1.495-4.308-7.393-1.96-10.4,1.463s-2.3,13.038-1.448,17.517.454,5.635.1,10.181c-.482,6.136-4.464,12.126-2.757,18.039,1.2,4.164,4.953,7.069,6.92,10.931,2.458,4.825,1.9,10.574,2.928,15.89s5.091,11.05,10.462,10.357q-.229-2.254-.457-4.508a15.322,15.322,0,0,0,18.283-6.624c4.184-7.525,1.18-16.852-1.888-24.9" transform="translate(-68.357 -12.761)" fill="#263238"/><path d="M161.258,45.1A21.9,21.9,0,0,1,178.5,20.9l1.11-.233c12.117-1.81,20.424,7.469,21.9,19.632l11.17,64.771H184.228l-4.352-21.429s-11.883.623-14.437-10.853c-1.233-5.542-2.845-17.162-4.181-27.695" transform="translate(-76.899 -9.759)" fill="#ffbe9d"/><path d="M196.855,134.465a28.515,28.515,0,0,0,14.151-7.573s-1.81,9.024-13.507,10.395Z" transform="translate(-93.977 -60.577)" fill="#eb996e"/><path d="M171.37,83.764a1.678,1.678,0,0,0,1.932,1.325,1.606,1.606,0,0,0,1.383-1.836,1.68,1.68,0,0,0-1.931-1.327,1.607,1.607,0,0,0-1.384,1.838" transform="translate(-81.8 -39.101)" fill="#263238"/><path d="M168.367,75.114c.248.171,1.3-1.011,3.069-1.377,1.762-.391,3.25.247,3.4-.01.074-.116-.215-.459-.866-.752a4.6,4.6,0,0,0-2.775-.257,4.423,4.423,0,0,0-2.387,1.363c-.456.531-.559.957-.438,1.032" transform="translate(-80.355 -34.665)" fill="#263238"/><path d="M201.831,77.2a1.678,1.678,0,0,0,1.932,1.325,1.606,1.606,0,0,0,1.383-1.836,1.68,1.68,0,0,0-1.931-1.327,1.606,1.606,0,0,0-1.384,1.838" transform="translate(-96.341 -35.969)" fill="#263238"/><path d="M201.754,68.772c.249.171,1.3-1.011,3.07-1.376,1.761-.391,3.25.246,3.4-.01.074-.116-.213-.459-.866-.751a4.6,4.6,0,0,0-2.775-.257,4.423,4.423,0,0,0-2.387,1.363c-.455.53-.559.957-.439,1.032" transform="translate(-96.294 -31.638)" fill="#263238"/><path d="M190.382,85.108a11.925,11.925,0,0,0-2.98.084c-.461.049-.907.048-1.048-.244a2.351,2.351,0,0,1,.021-1.4q.293-1.772.614-3.718c.828-5.284,1.326-9.589,1.114-9.621s-1.057,4.226-1.885,9.509c-.193,1.3-.379,2.54-.554,3.727a2.671,2.671,0,0,0,.137,1.821,1.157,1.157,0,0,0,.881.5,3.13,3.13,0,0,0,.789-.054,11.8,11.8,0,0,0,2.911-.606" transform="translate(-88.588 -33.516)" fill="#263238"/><path d="M199.081,60.54c.4.334,1.841-.778,3.8-1.628,1.941-.89,3.73-1.218,3.75-1.74,0-.246-.489-.493-1.326-.555a7.185,7.185,0,0,0-5.751,2.566c-.513.663-.656,1.194-.472,1.357" transform="translate(-95.003 -27.022)" fill="#263238"/><path d="M168.747,66.119c.218.471,1.526.335,2.989.651,1.474.265,2.631.888,3.012.536.171-.175.07-.62-.383-1.123a4.431,4.431,0,0,0-4.836-.956c-.609.292-.874.665-.782.892" transform="translate(-80.55 -30.975)" fill="#263238"/><path d="M230.553,34.653s-.511-2.559-4.226-4.869l-6.97,1.536c2.413.741,2.023,3.87,1.686,4.6a10.817,10.817,0,0,0,5.8,11.7l1.116,7.084c.1,1.844,1.067,3.143,2.876,2.775h0s.946-5.686.988-7.942c.08-4.374.1-10.733-1.275-14.885" transform="translate(-104.719 -14.219)" fill="#263238"/><path d="M238.517,74.473c.178-.126,7.415-4,8.813,3.923s-6.84,7.689-6.894,7.464-1.919-11.387-1.919-11.387" transform="translate(-113.866 -35.049)" fill="#ffbe9d"/><path d="M244.074,84.961c.031-.031.155.072.407.138a1.4,1.4,0,0,0,1.035-.161c.782-.455,1.253-1.907,1.039-3.341a4.634,4.634,0,0,0-.735-1.907,1.617,1.617,0,0,0-1.224-.875.713.713,0,0,0-.747.522c-.067.24.011.389-.028.41-.019.024-.193-.1-.188-.441a.894.894,0,0,1,.224-.551,1.055,1.055,0,0,1,.727-.336,1.968,1.968,0,0,1,1.658.973,4.752,4.752,0,0,1,.868,2.123c.231,1.6-.322,3.242-1.409,3.775a1.5,1.5,0,0,1-1.3.013c-.28-.153-.353-.322-.328-.341" transform="translate(-116.308 -37.433)" fill="#eb996e"/><path d="M218.274,32.2l-.013-.005c-.052.008-.1.022-.156.027Z" transform="translate(-104.121 -15.37)" fill="#263238"/><path d="M196.961,29.614c-.62-1.936-.3-4.082-1.27-5.87s-2.966-3.96-4.9-4.594a13.654,13.654,0,0,0-4.1-.76s0,.093-.04-.094c-.661-3.3-7.443-7.06-9.52-7.576-6.618-1.644-9.228,1.6-15.652,3.89S148.716,21.538,147.82,28.3a4.854,4.854,0,0,0,3.158.6,24.233,24.233,0,0,0-1.432,13.223A48.611,48.611,0,0,0,154.292,56c-1.216-2.344-.753-5.206.121-7.7s2.136-4.886,2.479-7.5c.509-3.889-.173-6.851,1.087-10.565,1.305-3.847,5.968-4.96,5.968-4.96,2.862.047,5.252-2.126,7.531-3.856a9.707,9.707,0,0,1,7.106-1.563c2.463.32,2.816,1.072,5.11,2.012a7.517,7.517,0,0,1,2.238,3.1,10.379,10.379,0,0,1-.063,2.979c-1.177,4.287,1.447,8.889,5.114,11.4s8.175,3.4,12.543,4.231a60.032,60.032,0,0,1-6.566-13.972" transform="translate(-70.568 -4.904)" fill="#263238"/><path d="M243.09,102.575l-4.934-18.568a24.459,24.459,0,0,0-1.755-5.071,38.45,38.45,0,0,1-1.926-3.524,13.482,13.482,0,0,1-.639-5.362,22.632,22.632,0,0,0-.2-5.421,6.23,6.23,0,0,0-2.968-4.344l-5.5-.356c2.3,2.563,2.488,6.368,2.171,9.8s-1,6.963-.01,10.262c1.272,4.235,5.138,7.449,5.858,11.811.379,2.3-.172,4.632-.485,6.941s-.341,4.822.931,6.774a3.179,3.179,0,0,0,1.986,1.5,4.345,4.345,0,0,0,2.165-.367l3.908-1.38a1.807,1.807,0,0,0,1.395-2.695" transform="translate(-107.495 -28.609)" fill="#263238"/><path d="M166.972,111.788s-.1.016-.3.033a2.6,2.6,0,0,1-.886-.133,3.833,3.833,0,0,1-2.316-2.428,5.083,5.083,0,0,1-.125-2.483,9.829,9.829,0,0,1,1.013-2.784c.49-.945,1.115-1.894,1.7-2.941a9.783,9.783,0,0,0,1.267-3.526,11.664,11.664,0,0,0-2.428-8.091c-1.828-2.545-4.482-4.638-7.171-6.909a34.842,34.842,0,0,1-3.909-3.77,15.15,15.15,0,0,1-2.928-4.849,14.1,14.1,0,0,1-.619-5.832,34.466,34.466,0,0,1,1.209-5.921c.538-1.964,1.113-3.891,1.515-5.825a20.582,20.582,0,0,0,.471-5.776c-.325-3.814-1.776-7.284-2.5-10.745a17.178,17.178,0,0,1-.43-5.151,12.706,12.706,0,0,1,1.312-4.694,17.308,17.308,0,0,1,2.539-3.781,17.61,17.61,0,0,1,3.1-2.829,10.05,10.05,0,0,1,6.792-2.074,6.273,6.273,0,0,1,2.774,1.024,6.817,6.817,0,0,1,1.8,1.722,5.382,5.382,0,0,1,.863,1.79,5.193,5.193,0,0,1,.152.784c.011.244.016.466.013.663q-.036.292-.064.517a3.445,3.445,0,0,1-.094.364c-.055.194-.09.291-.09.291s.017-.1.064-.3c.019-.1.061-.217.079-.364l.05-.513c0-.195-.01-.413-.026-.653a5.226,5.226,0,0,0-.161-.77,5.343,5.343,0,0,0-.871-1.749,6.747,6.747,0,0,0-1.781-1.675,6.149,6.149,0,0,0-2.719-.981,9.909,9.909,0,0,0-6.665,2.079,17.513,17.513,0,0,0-3.058,2.81,17.156,17.156,0,0,0-2.494,3.741,12.491,12.491,0,0,0-1.276,4.614,16.962,16.962,0,0,0,.436,5.079c.726,3.432,2.188,6.9,2.525,10.777a20.829,20.829,0,0,1-.471,5.852c-.4,1.949-.981,3.881-1.517,5.842a34.254,34.254,0,0,0-1.2,5.874,13.847,13.847,0,0,0,.6,5.719,14.909,14.909,0,0,0,2.873,4.768,34.75,34.75,0,0,0,3.874,3.748c2.677,2.272,5.346,4.384,7.192,6.968a11.844,11.844,0,0,1,2.434,8.247,8.788,8.788,0,0,1-.5,1.906,13.409,13.409,0,0,1-.811,1.678c-.591,1.051-1.22,1.995-1.712,2.928a9.718,9.718,0,0,0-1.021,2.736,4.984,4.984,0,0,0,.1,2.425,3.794,3.794,0,0,0,2.233,2.41,2.943,2.943,0,0,0,1.172.152" transform="translate(-71.7 -10.137)" fill="#455a64"/><path d="M190.048,13.56a1.3,1.3,0,0,1,.469.006,4.26,4.26,0,0,1,1.232.349,4.941,4.941,0,0,1,1.558,1.1,4.6,4.6,0,0,1,1.2,4.36,4.939,4.939,0,0,1-.78,1.738,4.253,4.253,0,0,1-.882.929,1.282,1.282,0,0,1-.4.244A8.081,8.081,0,0,0,193.564,21a4.944,4.944,0,0,0,.651-3.9,4.943,4.943,0,0,0-2.548-3.017,8.038,8.038,0,0,0-1.619-.529" transform="translate(-90.727 -6.466)" fill="#455a64"/><path d="M208.2,15.913a2.181,2.181,0,0,1,.464.894,4.918,4.918,0,0,1-.921,4.623,2.174,2.174,0,0,1-.771.648c-.03-.037.262-.283.62-.768a5.4,5.4,0,0,0,.886-4.451c-.145-.584-.321-.924-.279-.946" transform="translate(-98.807 -7.596)" fill="#455a64"/><path d="M237.141,91.574c-.007-.022.275-.071.746-.32a4.191,4.191,0,0,0,1.6-1.629A5.834,5.834,0,0,0,240.2,86.1a11.1,11.1,0,0,0-1.788-4.482,55.484,55.484,0,0,1-3.153-5.044,8.988,8.988,0,0,1-.919-3.2,9.711,9.711,0,0,1,.406-3.509,49.057,49.057,0,0,1,3.087-6.882,17.14,17.14,0,0,0,1.252-3.741,8.012,8.012,0,0,0-.13-3.99,6.637,6.637,0,0,0-2.328-3.206,19.307,19.307,0,0,0-3.4-2.015,32.781,32.781,0,0,1-3.39-1.849,9.177,9.177,0,0,1-2.657-2.594,11.522,11.522,0,0,1-1.406-3.241,28.264,28.264,0,0,1-.662-3.255,31.087,31.087,0,0,0-1.2-5.789,8.033,8.033,0,0,0-2.7-3.937,6.3,6.3,0,0,0-3.4-1.208,4.264,4.264,0,0,0-2.226.521,3.117,3.117,0,0,0-.5.334,1.237,1.237,0,0,1-.171.119,1.174,1.174,0,0,1,.153-.141,2.7,2.7,0,0,1,.493-.36,4.23,4.23,0,0,1,2.256-.579,6.352,6.352,0,0,1,3.488,1.19,8.162,8.162,0,0,1,2.8,4,30.894,30.894,0,0,1,1.243,5.819,16.238,16.238,0,0,0,2.055,6.394,8.923,8.923,0,0,0,2.591,2.515,32.874,32.874,0,0,0,3.365,1.828,19.5,19.5,0,0,1,3.448,2.04,6.908,6.908,0,0,1,2.419,3.336,8.273,8.273,0,0,1,.136,4.124,17.365,17.365,0,0,1-1.275,3.8,49.459,49.459,0,0,0-3.089,6.841,9.483,9.483,0,0,0-.408,3.42,8.763,8.763,0,0,0,.884,3.125,56.733,56.733,0,0,0,3.113,5.04,11.2,11.2,0,0,1,1.775,4.566,5.911,5.911,0,0,1-.768,3.6,4.166,4.166,0,0,1-1.671,1.624,3.177,3.177,0,0,1-.57.221,1.137,1.137,0,0,1-.2.051" transform="translate(-102.594 -13.389)" fill="#455a64"/><path d="M234.422,90.787a1.765,1.765,0,0,1-.681-.134,2.965,2.965,0,0,1-1.465-1.325,4.052,4.052,0,0,1-.5-1.361,6.875,6.875,0,0,1-.046-1.72c.05-.616.161-1.264.265-1.95a19.135,19.135,0,0,0,.2-2.179,17.955,17.955,0,0,0-2.874-10.209,20.511,20.511,0,0,0-1.916-2.451,19.689,19.689,0,0,1-2.044-2.572,5.358,5.358,0,0,1-.9-3.287,13.131,13.131,0,0,1,.963-3.376,10.864,10.864,0,0,0,.479-1.663,6.025,6.025,0,0,0,.06-1.686,10.408,10.408,0,0,0-.987-3.177c-.465-1-.985-1.961-1.426-2.942a12.514,12.514,0,0,1-.974-3,32.218,32.218,0,0,1-.344-5.8,23.225,23.225,0,0,0-.431-5,8.78,8.78,0,0,0-1.7-3.713,6.754,6.754,0,0,0-2.426-1.906,5.109,5.109,0,0,0-1.9-.459c-.451-.019-.689.024-.69,0a3,3,0,0,1,.691-.06,4.972,4.972,0,0,1,1.945.417,6.779,6.779,0,0,1,2.5,1.906,8.874,8.874,0,0,1,1.774,3.767,23.108,23.108,0,0,1,.469,5.036,32.374,32.374,0,0,0,.364,5.75c.333,2.011,1.444,3.867,2.4,5.877a10.627,10.627,0,0,1,1.014,3.261,6.3,6.3,0,0,1-.062,1.763,11.072,11.072,0,0,1-.49,1.706,13.009,13.009,0,0,0-.949,3.3,5.1,5.1,0,0,0,.856,3.126,19.559,19.559,0,0,0,2.013,2.541,20.591,20.591,0,0,1,1.931,2.486,18.038,18.038,0,0,1,2.856,10.352,19.023,19.023,0,0,1-.222,2.2c-.111.687-.227,1.331-.284,1.937a6.8,6.8,0,0,0,.022,1.686,3.976,3.976,0,0,0,.462,1.329,2.962,2.962,0,0,0,1.394,1.327,3.818,3.818,0,0,0,.661.185" transform="translate(-102.678 -14.718)" fill="#455a64"/><path d="M201.215,107.452a3.247,3.247,0,0,0-3.536-1.909c-1.1.222-2.019,1.013-3.121,1.225l-.09.554,1.189,3.57a1.346,1.346,0,0,0,1.855,1.124,6.318,6.318,0,0,0,2.472-.738,3.246,3.246,0,0,0,1.231-3.826" transform="translate(-92.837 -50.359)" fill="#eb996e"/><path d="M196.4,112.062c-.008-.037.2-.119.586-.241a16.354,16.354,0,0,0,1.587-.564,4.57,4.57,0,0,0,1.9-1.43,2.8,2.8,0,0,0,.535-1.241,2.381,2.381,0,0,0-.237-1.4,2.8,2.8,0,0,0-2.239-1.533,3.974,3.974,0,0,0-2.312.49,5.334,5.334,0,0,1-1.636.591c-.422.047-.649-.042-.643-.071,0-.045.229-.032.6-.137a6.928,6.928,0,0,0,1.5-.725,4.175,4.175,0,0,1,2.539-.646,3.422,3.422,0,0,1,1.521.5,3.206,3.206,0,0,1,1.155,1.289,2.86,2.86,0,0,1,.275,1.719,3.221,3.221,0,0,1-.662,1.465,4.7,4.7,0,0,1-2.16,1.483,9.121,9.121,0,0,1-1.681.413c-.4.06-.627.071-.635.035" transform="translate(-92.589 -50.191)" fill="#263238"/><path d="M185.666,150.137c.217.593,5.652,15.021,16.183,13.237s13.866-19.812,13.866-19.812l16.058,13.387-11.54,114.646H181.266l-7.8-74.149Z" transform="translate(-82.812 -68.535)" fill="#455a64"/><path d="M136.026,159.11s-18.744,4.047-21.437,7.348c-2.162,2.65-17.721,29.586-17.721,29.586l-7.047,16.344s-5.248,3-6.148,6.6-.3,12.6,2.249,15.745c0,0,1.649,10.8,8.4,11.246s12.916-2.457,17.393-6.448c3.956-3.525,10.69-27.563,10.347-28.789Z" transform="translate(-39.757 -75.958)" fill="#ff725e"/><path d="M157.42,155.275l-1.2,45v71.276h21.288l1.072-68.881s4.691-38.833,4.092-42.281-4.733-16.916-4.733-16.916l-7.091,8.171Z" transform="translate(-74.578 -68.493)" fill="#ff725e"/><g transform="translate(65.19 137.722)" opacity="0.3"><g clip-path="url(#f)"><path d="M134.212,268.366a12.637,12.637,0,0,0-7.441-4.762c-.721-.153-1.669-.13-1.959.548a1.55,1.55,0,0,0,.5,1.546l.922,1.109a16.7,16.7,0,0,1,5.081,10.244A9.017,9.017,0,0,0,128,267.08c2.907.584,5.123,2.87,7.141,5.042.524-1.246-.122-2.673-.93-3.756" transform="translate(-124.74 -263.527)"/></g></g><g transform="translate(79.838 108.688)" opacity="0.3"><g clip-path="url(#g)"><path d="M154.666,207.971a50.651,50.651,0,0,0,.274,28.412c-.022-9.149.544-19.3-.274-28.412" transform="translate(-152.768 -207.971)"/></g></g><path d="M138.751,276.011c-.042.024-.353-.527-.97-1.331a14.007,14.007,0,0,0-6.28-4.62c-.951-.35-1.569-.483-1.559-.53a1.426,1.426,0,0,1,.444.049,8.786,8.786,0,0,1,1.178.3,12.5,12.5,0,0,1,6.372,4.688,8.849,8.849,0,0,1,.636,1.036,1.441,1.441,0,0,1,.179.409" transform="translate(-62.033 -128.668)" fill="#263238"/><path d="M161.39,173.038a.922.922,0,0,1-.246.079l-.714.176-2.633.623-8.682,2.071c-3.393.805-6.469,1.517-8.7,1.994-1.117.24-2.024.422-2.653.539l-.725.125a.92.92,0,0,1-.257.026.946.946,0,0,1,.246-.079l.714-.176,2.632-.623,8.684-2.071c3.392-.8,6.467-1.516,8.7-1.993,1.117-.24,2.025-.422,2.653-.539l.726-.126a.919.919,0,0,1,.257-.026" transform="translate(-65.296 -82.605)" fill="#fff"/><path d="M191.6,150.7a12.527,12.527,0,0,1-1.157,1.107c-.722.673-1.693,1.628-2.689,2.754s-1.823,2.211-2.4,3.01a12.644,12.644,0,0,1-.955,1.285,7.462,7.462,0,0,1,.8-1.394,27.458,27.458,0,0,1,5.12-5.8,7.473,7.473,0,0,1,1.285-.964" transform="translate(-88.028 -71.944)" fill="#fff"/><path d="M196.684,167.473a16.893,16.893,0,0,1-1.373,1.242c-.855.756-2.01,1.829-3.209,3.09s-2.209,2.472-2.92,3.366a16.575,16.575,0,0,1-1.169,1.436,1.8,1.8,0,0,1,.245-.435c.171-.272.434-.654.771-1.117a35.745,35.745,0,0,1,6.157-6.486c.445-.361.814-.643,1.076-.828a1.8,1.8,0,0,1,.422-.267" transform="translate(-89.755 -79.949)" fill="#fff"/><path d="M180.78,213.453c0,.075-5.385.441-12.036.816s-12.048.619-12.052.545,5.384-.441,12.037-.816,12.047-.62,12.051-.545" transform="translate(-74.803 -101.894)" fill="#fff"/><path d="M178.05,255.5a4.71,4.71,0,0,1-.809.132c-.523.069-1.282.151-2.221.236-1.878.171-4.48.334-7.358.374s-5.485-.054-7.367-.175c-.941-.06-1.7-.121-2.226-.176a4.724,4.724,0,0,1-.813-.11,4.7,4.7,0,0,1,.819,0l2.228.089c1.881.071,4.481.132,7.354.095s5.469-.172,7.347-.294l2.225-.149a4.669,4.669,0,0,1,.819-.027" transform="translate(-75.073 -121.967)" fill="#fff"/><path d="M177.954,303.865a5.2,5.2,0,0,1-.862.034l-2.347.019c-1.981.021-4.718.093-7.733.288s-5.739.481-7.706.716l-2.33.285a5.185,5.185,0,0,1-.859.077,5.251,5.251,0,0,1,.843-.182c.546-.1,1.338-.229,2.32-.371,1.964-.285,4.69-.6,7.714-.8s5.766-.237,7.751-.21c.992.014,1.795.038,2.349.067a5.211,5.211,0,0,1,.86.072" transform="translate(-74.529 -144.992)" fill="#fff"/><path d="M177.735,365.662a5.432,5.432,0,0,1-.827.285c-.269.086-.6.184-.989.274s-.83.214-1.327.3a28.815,28.815,0,0,1-3.509.477,29.676,29.676,0,0,1-8.632-.631,28.923,28.923,0,0,1-3.4-.982c-.479-.157-.9-.341-1.269-.489s-.686-.29-.939-.414a5.422,5.422,0,0,1-.777-.4,5.342,5.342,0,0,1,.819.3c.259.109.576.239.953.37s.795.3,1.276.449a32.4,32.4,0,0,0,3.394.919,31.523,31.523,0,0,0,8.562.626,32.258,32.258,0,0,0,3.492-.415c.5-.073.937-.18,1.327-.259s.725-.157,1-.228a5.429,5.429,0,0,1,.855-.182" transform="translate(-74.501 -173.807)" fill="#fff"/><path d="M110.182,285.439a2.2,2.2,0,0,1,.064.4c.014.131.041.292.052.484s.01.419.016.665a10.567,10.567,0,0,1-.922,4.116,11.911,11.911,0,0,1-3.95,4.828,12.773,12.773,0,0,1-7.283,2.237,14.9,14.9,0,0,1-7.393-1.928,17.587,17.587,0,0,1-4.794-4.026,19.6,19.6,0,0,1-2.335-3.52c-.225-.446-.391-.8-.49-1.039a2.274,2.274,0,0,1-.145-.374,2.176,2.176,0,0,1,.194.35c.114.236.3.576.534,1.012a21.17,21.17,0,0,0,2.388,3.446,17.746,17.746,0,0,0,4.769,3.931,14.8,14.8,0,0,0,7.269,1.875,12.632,12.632,0,0,0,7.14-2.17,11.86,11.86,0,0,0,3.919-4.7,10.884,10.884,0,0,0,.992-4.04q0-.365.008-.658c0-.191-.02-.351-.025-.482a2.218,2.218,0,0,1-.009-.4" transform="translate(-39.624 -136.266)" fill="#fff"/><path d="M111.01,320.14a2.942,2.942,0,0,1-.582.283,7.55,7.55,0,0,1-.707.278c-.28.1-.6.218-.956.313a18.148,18.148,0,0,1-2.56.556,18.881,18.881,0,0,1-6.395-.186,18.1,18.1,0,0,1-2.524-.7c-.355-.115-.663-.256-.936-.368a7.541,7.541,0,0,1-.689-.318,2.956,2.956,0,0,1-.564-.317c.022-.047.847.363,2.252.82a20.457,20.457,0,0,0,2.51.639,20.185,20.185,0,0,0,6.314.183,20.625,20.625,0,0,0,2.542-.492c1.429-.375,2.276-.737,2.3-.688" transform="translate(-45.398 -152.609)" fill="#fff"/><path d="M139.581,284.621c-.053,0-.082-.877-.357-2.26a17.868,17.868,0,0,0-.655-2.383,17.639,17.639,0,0,0-2.937-5.259,17.774,17.774,0,0,0-1.685-1.807c-1.033-.959-1.767-1.446-1.737-1.489a2.7,2.7,0,0,1,.531.316,6.457,6.457,0,0,1,.59.422c.222.176.484.364.745.608a15.858,15.858,0,0,1,1.75,1.792,16.556,16.556,0,0,1,2.98,5.336,15.876,15.876,0,0,1,.607,2.429c.071.35.094.673.127.953a6.524,6.524,0,0,1,.05.724,2.7,2.7,0,0,1-.009.618" transform="translate(-63.115 -129.574)" fill="#fff"/><path d="M149.977,250.82a11.919,11.919,0,0,0-6.455-3.129,3.055,3.055,0,0,1,1.084.043A8.805,8.805,0,0,1,149.272,250a3.088,3.088,0,0,1,.7.824" transform="translate(-68.516 -118.232)" fill="#fff"/><path d="M141.352,212.3a3.676,3.676,0,0,1-.646-.324l-1.716-.956c-1.449-.808-3.459-1.906-5.71-3.06s-4.319-2.142-5.821-2.845l-1.778-.835a3.655,3.655,0,0,1-.64-.334,3.726,3.726,0,0,1,.683.237c.433.168,1.054.426,1.816.756,1.524.66,3.609,1.623,5.866,2.779s4.256,2.284,5.681,3.136c.713.425,1.285.778,1.675,1.032a3.636,3.636,0,0,1,.592.415" transform="translate(-59.693 -97.359)" fill="#fff"/><path d="M131.715,281.854c-.053,0,.041-.854-.037-2.222a17.049,17.049,0,0,0-.311-2.378,16.831,16.831,0,0,0-2.142-5.439,17.046,17.046,0,0,0-1.394-1.952c-.875-1.053-1.523-1.611-1.488-1.65a2.517,2.517,0,0,1,.475.368,6.31,6.31,0,0,1,.517.479c.192.2.422.41.643.678a15.119,15.119,0,0,1,1.461,1.945,15.83,15.83,0,0,1,2.175,5.523,15.174,15.174,0,0,1,.257,2.419c.02.346,0,.659-.008.934a6.212,6.212,0,0,1-.052.7,2.524,2.524,0,0,1-.1.593" transform="translate(-60.314 -128.041)" fill="#263238"/><path d="M114.514,300.733a.881.881,0,0,1-.158.2c-.113.12-.27.307-.5.522a15.942,15.942,0,0,1-2.047,1.694,17.383,17.383,0,0,1-16.76,1.811,15.877,15.877,0,0,1-2.361-1.218c-.269-.16-.463-.31-.6-.4a.884.884,0,0,1-.2-.158,8.479,8.479,0,0,1,.849.47,18.978,18.978,0,0,0,2.379,1.13,17.767,17.767,0,0,0,16.579-1.792,18.993,18.993,0,0,0,2.084-1.612,8.54,8.54,0,0,1,.729-.641" transform="translate(-43.869 -143.567)" fill="#263238"/><path d="M156.075,207.753a.526.526,0,0,1,.018.134l.026.4q.026.554.072,1.522c.062,1.321.121,3.235.181,5.6.113,4.729.142,11.267.022,18.483s-.249,13.751-.283,18.48c-.015,2.348-.027,4.256-.035,5.6-.007.644-.012,1.153-.016,1.523,0,.16-.008.291-.01.4a.51.51,0,0,1-.013.135.494.494,0,0,1-.015-.135c0-.105-.009-.235-.016-.4-.008-.369-.02-.879-.036-1.523-.029-1.322-.045-3.237-.051-5.6-.015-4.731.085-11.266.2-18.484s.121-13.747.057-18.476c-.04-2.348-.072-4.255-.1-5.6-.009-.644-.016-1.153-.021-1.523,0-.161,0-.292,0-.4a.513.513,0,0,1,.01-.135" transform="translate(-74.433 -99.179)" fill="#263238"/><g transform="translate(100.518 92.266)" opacity="0.3"><g clip-path="url(#h)"><path d="M192.339,186.893l1.08,2.886c.139.372.4.82.794.746.243-.047.393-.285.512-.5a42.051,42.051,0,0,0,4.211-11.342,2.954,2.954,0,0,0,.075-1.28,1.054,1.054,0,0,0-.859-.85c-.615-.049-1.5,1.282-1.769,1.838-1.586,3.281-2.579,5.168-4.044,8.5" transform="translate(-192.339 -176.549)"/></g></g><path d="M194.573,167.465a3.1,3.1,0,0,0-1.081.391,5.815,5.815,0,0,0-1.919,2.506l-4.582,9.968-.177.385-.076-.418c-.2-1.118-.415-2.279-.631-3.466-.914-5.126-1.741-9.765-2.346-13.159l-.68-3.993c-.072-.451-.128-.813-.171-1.088a2,2,0,0,1-.042-.383,2.044,2.044,0,0,1,.1.373l.222,1.079c.187.969.446,2.32.765,3.978.626,3.39,1.48,8.024,2.424,13.145.215,1.187.424,2.349.627,3.467l-.253-.032c1.852-3.969,3.477-7.449,4.668-9.932a5.738,5.738,0,0,1,2.026-2.51,2.558,2.558,0,0,1,.826-.3,1.386,1.386,0,0,1,.3-.014" transform="translate(-87.298 -75.527)" fill="#263238"/><g transform="translate(48.527 159.373)" opacity="0.3"><g clip-path="url(#i)"><path d="M102.37,308.136a19.125,19.125,0,0,1-9.515-2.291,8.862,8.862,0,0,0,5.55,4.422,11.854,11.854,0,0,0,7.712-.667,18.554,18.554,0,0,0,6.3-4.643,19.121,19.121,0,0,1-10.049,3.179" transform="translate(-92.855 -304.957)"/></g></g><path d="M252.987,225.4l2.357,42.221,32.042-.183s-4.117-46.718-4.117-47.168c0-.279,1.954-52.473,1.954-52.473-.535-10.857,1.177-20.645-.551-21.23-3.405-1.154-19.185-.455-19.185-.455L253.8,134.854l-1.169,2.689,1.947,10.058-.453,28.92c-.04-.472-1.137,48.88-1.137,48.88" transform="translate(-120.603 -64.378)" fill="#ff725e"/><path d="M306.945,156.9s7.357,2.263,11.646,14.665c2.567,7.421,8.948,44.34,8.948,44.34l19.527,7.474S341.443,242.1,334.21,244.31l-12.054-5.849s-8.358,1.065-11.251-3.033a47.3,47.3,0,0,1-4.807-9.178l-5.35-42.711Z" transform="translate(-143.574 -74.901)" fill="#ff725e"/><g transform="translate(135.423 90.907)" opacity="0.3"><g clip-path="url(#j)"><path d="M268.815,182.149a17.167,17.167,0,0,1,.09-8.2,16.781,16.781,0,0,0-1.429,10.512,10.278,10.278,0,0,1-4.3-6.794,3.493,3.493,0,0,0-.72-2.068c-.417-.4-1.2-.7-1.611-.289a2.851,2.851,0,0,0-.884,1.378,9.031,9.031,0,0,0-.516,6.06,2.938,2.938,0,0,0,1.7,2.077,13.435,13.435,0,0,0,2.2.034,6.169,6.169,0,0,1,2.3,1.1,2.716,2.716,0,0,0,2.431.425,2.179,2.179,0,0,0,1.113-1.927,8.52,8.52,0,0,0-.378-2.3" transform="translate(-259.128 -173.948)"/></g></g><path d="M259.938,168.227a1.178,1.178,0,0,1,.077-.285,4.955,4.955,0,0,1,.338-.781,2.733,2.733,0,0,1,.894-1.03,1.339,1.339,0,0,1,1.726.273,4.276,4.276,0,0,1,.748,2.089,10.233,10.233,0,0,0,4.248,6.931l-.205.147a10.324,10.324,0,0,1-.361-3.15,31.077,31.077,0,0,1,1.4-6.912,21.18,21.18,0,0,0,.921-5.626,9.2,9.2,0,0,0-.714-3.748c-.377-.827-.7-1.224-.673-1.244a5.294,5.294,0,0,1,.768,1.2,8.958,8.958,0,0,1,.811,3.79,20.786,20.786,0,0,1-.871,5.693,31.714,31.714,0,0,0-1.375,6.856,10.135,10.135,0,0,0,.346,3.067l.1.362-.308-.214a10.348,10.348,0,0,1-4.3-7.118,4.166,4.166,0,0,0-.675-2.007,1.186,1.186,0,0,0-1.523-.269,2.709,2.709,0,0,0-.881.957c-.364.635-.472,1.03-.5,1.02" transform="translate(-124.091 -73.944)" fill="#263238"/><g transform="translate(137.402 137.189)" opacity="0.3"><g clip-path="url(#k)"><path d="M275.049,269.29,263,264.762l-.082.12A50.092,50.092,0,0,0,273.21,271.7c1.138.566,2.492,1.091,3.637.538a4.1,4.1,0,0,0,1.444-1.409,31.347,31.347,0,0,0,4.236-8.325,72.248,72.248,0,0,1-7.478,6.783" transform="translate(-262.915 -262.507)"/></g></g><path d="M262.221,219.81s.119-.013.361-.025l1.078-.046,4.128-.156,14.912-.51.117,0v.118c.006,6.457.014,14.168.022,22.481v.063l-.048.041-1.935,1.657-6.109,5.227-.059.051-.074-.026-12.434-4.5-.079-.029v-.084c0-7.232.008-13.294.011-17.561.018-2.117.033-3.789.043-4.945q.02-.843.031-1.306c0-.146.016-.267.022-.34a.673.673,0,0,1,.013-.108c.005,1.03.049,9.931.12,24.26l-.079-.112,12.443,4.469-.132.025,6.107-5.231,1.935-1.656-.048.1c.008-8.312.016-16.024.022-22.481l.117.113-14.854.4-4.151.1-1.1.019c-.249,0-.383,0-.383,0" transform="translate(-125.125 -104.581)" fill="#263238"/><path d="M313.339,193.507a.553.553,0,0,1,0,.142c0,.109-.008.246-.014.415-.019.385-.047.918-.08,1.6-.078,1.406-.188,3.4-.324,5.864-.272,4.951-.618,11.793-.91,19.353s-.471,14.411-.581,19.369c-.053,2.463-.1,4.463-.128,5.871-.018.677-.032,1.211-.042,1.6-.007.169-.014.306-.018.415a.547.547,0,0,1-.015.142.559.559,0,0,1-.013-.142c0-.11-.005-.246-.009-.415,0-.386,0-.92-.008-1.6,0-1.387.01-3.394.041-5.874.06-4.96.211-11.811.5-19.376s.668-14.4.989-19.354c.16-2.475.3-4.477.411-5.86.056-.675.1-1.207.131-1.591.017-.169.03-.3.041-.414a.539.539,0,0,1,.023-.14" transform="translate(-148.565 -92.378)" fill="#263238"/><path d="M317.637,277.949a4.478,4.478,0,0,1,.523-.605c.173-.191.39-.42.66-.667s.561-.547.919-.839a24.723,24.723,0,0,1,2.584-1.952,25.526,25.526,0,0,1,7.2-3.27,24.649,24.649,0,0,1,3.171-.66c.455-.077.872-.1,1.236-.14s.679-.053.937-.057a4.537,4.537,0,0,1,.8,0,4.524,4.524,0,0,1-.793.1c-.256.02-.568.049-.928.1s-.773.089-1.222.178a27.627,27.627,0,0,0-3.131.711,27.126,27.126,0,0,0-7.136,3.24,27.617,27.617,0,0,0-2.6,1.889c-.363.28-.664.565-.939.8s-.5.452-.688.631a4.509,4.509,0,0,1-.6.53" transform="translate(-151.637 -128.775)" fill="#263238"/><path d="M341.561,296.735a1.234,1.234,0,0,1-.053-.294c-.019-.195-.073-.481-.084-.853a14.739,14.739,0,0,1,.152-3.15,15.818,15.818,0,0,1,14.047-13.39,14.716,14.716,0,0,1,3.153,0c.371.029.654.1.848.125a1.22,1.22,0,0,1,.292.066c0,.025-.411-.032-1.149-.086a16.57,16.57,0,0,0-7.579,1.281,15.424,15.424,0,0,0-8.015,7.641,16.575,16.575,0,0,0-1.643,7.509c.018.739.056,1.149.031,1.151" transform="translate(-162.98 -133.175)" fill="#263238"/><g transform="translate(167.592 139.599)" opacity="0.3"><g clip-path="url(#l)"><path d="M327.309,267.96a11.865,11.865,0,0,0-6.627,6.9c5.09-2.626,10.246-5.275,15.826-6.568l.361.016a11.866,11.866,0,0,0-9.56-.348" transform="translate(-320.683 -267.119)"/></g></g><g transform="translate(189.475 150.403)" opacity="0.3"><g clip-path="url(#m)"><path d="M363.717,306.8c-1.59-4.268-1.7-9.268.64-13.175s7.037-6.443,11.531-5.7c-2.439,8.846-8.049,17.826-12.171,18.878" transform="translate(-362.556 -287.793)"/></g></g><path d="M267.136,166.8a2.132,2.132,0,0,1-.417-.357c-.256-.242-.619-.6-1.064-1.045-.9-.881-2.092-2.157-3.447-3.5a6.876,6.876,0,0,0-2.183-1.483,3.621,3.621,0,0,0-2.105-.164,2.75,2.75,0,0,0-1.27.66c-.247.241-.343.413-.366.4s.01-.05.054-.134a1.749,1.749,0,0,1,.235-.339,2.663,2.663,0,0,1,1.3-.773,3.716,3.716,0,0,1,2.24.116,6.842,6.842,0,0,1,2.28,1.52c1.375,1.36,2.536,2.643,3.4,3.562.427.463.769.84,1,1.1a2.14,2.14,0,0,1,.34.431" transform="translate(-122.347 -76.358)" fill="#fff"/><path d="M256.661,140.857c.017.08-.925.3-1.972.839s-1.787,1.156-1.842,1.1a5.7,5.7,0,0,1,3.814-1.934" transform="translate(-120.705 -67.235)" fill="#fff"/><path d="M286.224,210.367c.007.075-6.963.794-15.565,1.606s-15.585,1.41-15.592,1.335,6.961-.794,15.566-1.606,15.583-1.41,15.591-1.335" transform="translate(-121.767 -100.424)" fill="#fff"/><path d="M325.991,192.262c.019.073-2.5.8-5.62,1.619s-5.671,1.428-5.69,1.355,2.5-.8,5.62-1.619,5.67-1.428,5.689-1.355" transform="translate(-150.226 -91.781)" fill="#fff"/><path d="M298.533,159.976a4.456,4.456,0,0,1-.793.073l-2.161.121c-1.824.1-4.343.277-7.116.558s-5.276.621-7.084.887l-2.142.318a4.5,4.5,0,0,1-.791.088,4.381,4.381,0,0,1,.772-.192c.5-.108,1.228-.246,2.13-.4,1.8-.316,4.306-.685,7.087-.968s5.306-.425,7.135-.48c.915-.028,1.655-.039,2.167-.034a4.461,4.461,0,0,1,.8.032" transform="translate(-132.928 -76.355)" fill="#fff"/><path d="M271.738,246.907c-.075,0-.4-5.865-.714-13.105s-.517-13.116-.442-13.119.395,5.864.714,13.107.517,13.114.442,13.117" transform="translate(-129.165 -105.352)" fill="#fff"/><path d="M287.872,247.125a1.059,1.059,0,0,1-.052-.273c-.026-.211-.058-.471-.1-.788-.079-.685-.18-1.677-.294-2.9-.228-2.453-.5-5.847-.717-9.6s-.346-7.157-.4-9.62c-.029-1.232-.045-2.228-.046-2.918,0-.319,0-.581,0-.793a.14.14,0,1,1,.055,0c.013.212.028.474.047.792.033.728.078,1.714.132,2.914.108,2.46.265,5.858.484,9.61s.458,7.144.637,9.6c.086,1.2.156,2.183.208,2.909.018.319.033.581.046.792a1.075,1.075,0,0,1,0,.278" transform="translate(-136.658 -105.004)" fill="#fff"/><path d="M332.014,250.484a4.478,4.478,0,0,1-.794.043c-.51,0-1.249.035-2.157.1s-1.987.186-3.175.376a33.965,33.965,0,0,0-7.511,2.149c-1.109.467-2.09.931-2.894,1.36s-1.448.79-1.883,1.056a4.444,4.444,0,0,1-.7.383,4.433,4.433,0,0,1,.64-.473c.419-.294,1.049-.686,1.848-1.135a30.464,30.464,0,0,1,2.888-1.423,31.315,31.315,0,0,1,7.569-2.165,30.4,30.4,0,0,1,3.2-.321c.916-.04,1.658-.042,2.169-.014a4.447,4.447,0,0,1,.793.063" transform="translate(-149.377 -119.539)" fill="#fff"/><path d="M282.746,303.617a1.4,1.4,0,0,1-.317.049l-.913.089c-.793.074-1.943.155-3.365.232-2.844.156-6.78.256-11.125.136s-8.272-.444-11.1-.76c-1.416-.157-2.559-.3-3.346-.42l-.906-.14a1.387,1.387,0,0,1-.314-.067,1.417,1.417,0,0,1,.32.013l.912.089,3.353.334c2.832.266,6.752.556,11.09.679s8.267.051,11.11-.056l3.366-.146.916-.037a1.418,1.418,0,0,1,.321.005" transform="translate(-119.996 -144.521)" fill="#fff"/><path d="M288.336,361.47a1.526,1.526,0,0,1-.325.073l-.939.156c-.815.134-2,.3-3.466.478-2.933.361-7,.73-11.512.877s-8.6.038-11.546-.132c-1.475-.084-2.667-.172-3.49-.253l-.946-.1a1.522,1.522,0,0,1-.329-.052,1.576,1.576,0,0,1,.333,0l.95.045c.824.048,2.017.107,3.492.166,2.949.121,7.026.2,11.528.052s8.564-.486,11.5-.8c1.467-.155,2.654-.291,3.474-.391l.945-.106a1.518,1.518,0,0,1,.332-.019" transform="translate(-122.109 -172.561)" fill="#fff"/><path d="M346.413,274.667a1.125,1.125,0,0,1-.265.1l-.771.236-.557.165c-.2.066-.415.155-.649.241a16.354,16.354,0,0,0-1.558.635l-.888.413c-.307.146-.609.333-.931.507-.653.337-1.3.785-1.985,1.236a24.282,24.282,0,0,0-7.177,7.849,23.34,23.34,0,0,0-1.054,2.088c-.145.337-.305.654-.423.973s-.226.627-.332.921a16.444,16.444,0,0,0-.494,1.609c-.065.239-.134.46-.182.667s-.079.4-.114.57c-.067.317-.122.578-.167.788a1.1,1.1,0,0,1-.077.273,1.072,1.072,0,0,1,.022-.281c.031-.213.07-.478.117-.8q.042-.266.091-.578c.041-.21.1-.434.162-.677a15.2,15.2,0,0,1,.459-1.633q.152-.448.318-.935c.113-.325.27-.646.412-.988a22.448,22.448,0,0,1,1.043-2.121A23.707,23.707,0,0,1,338.666,278a22.488,22.488,0,0,1,2.019-1.228c.328-.171.634-.356.947-.5l.9-.4a15.356,15.356,0,0,1,1.586-.6c.237-.079.454-.162.66-.222l.568-.143.787-.188a1.074,1.074,0,0,1,.278-.048" transform="translate(-156.959 -131.122)" fill="#fff"/><path d="M359.776,292.124a13.224,13.224,0,0,1-.8-1.119,14.431,14.431,0,0,0-4.943-4.288,13.3,13.3,0,0,1-1.222-.637,4.752,4.752,0,0,1,1.308.464,12.165,12.165,0,0,1,5.016,4.351,4.747,4.747,0,0,1,.644,1.229" transform="translate(-168.427 -136.57)" fill="#fff"/><path d="M367.892,283.5s-4.938-2.324-4.936-4.772c0-1.375.966-3.669,2.68-5.915a11.382,11.382,0,0,1,5.549-3.766l4.827.032s-.076-.379,1.29-3.339,3.8-3.947,5.01-7.438a45.515,45.515,0,0,0,1.973-6.946c.531-2.466,1.366-4.515,3.112-3.832s1.9,2.809,1.442,5.237-2.2,6.527-.759,8.577,1.9,2.353,5.465,2.429,12.448-1.062,12.448-1.062,2.96-.532,3.339.987-4.629,3.036-4.629,3.036,6.375-2.277,6.452.987l-.38,1.215-8.045,2.96s4.022-.835,4.857-.3,1.442,1.822.759,2.656-7.893,1.822-7.893,1.822l-5.921.152s-.227.607,1.29.684,5.769-.152,5.313,1.593-4.554,1.594-4.554,1.594-6-.3-7.438.152a76.5,76.5,0,0,1-8.425,2.049c-2.2.3-12.827,1.215-12.827,1.215" transform="translate(-173.272 -118.102)" fill="#ffbe9d"/><path d="M384.65,299.086c-.014.01-.119-.1-.281-.325a4.911,4.911,0,0,1-.542-1.038,5.636,5.636,0,0,1-.065-3.821,9.513,9.513,0,0,1,.991-1.879,7.149,7.149,0,0,0,.759-1.5,3.843,3.843,0,0,0,.172-1.531,2.173,2.173,0,0,1,.012,1.587,6.607,6.607,0,0,1-.728,1.577,10.274,10.274,0,0,0-.95,1.839,5.79,5.79,0,0,0-.011,3.668,13.583,13.583,0,0,0,.642,1.427" transform="translate(-183.06 -137.96)" fill="#eb996e"/><path d="M409.8,277.66a3.065,3.065,0,0,1,.285,1.087,7.728,7.728,0,0,1-1.177,5.215,3.061,3.061,0,0,1-.724.859,9.694,9.694,0,0,0,1.616-7.161" transform="translate(-194.86 -132.552)" fill="#eb996e"/><path d="M436.894,283.442c.015.074-2.517.643-5.654,1.271s-5.693,1.078-5.708,1,2.516-.643,5.654-1.271,5.693-1.078,5.707-1" transform="translate(-203.145 -135.309)" fill="#eb996e"/><path d="M431.7,294.331a5.8,5.8,0,0,1-1.326.274,29.879,29.879,0,0,1-6.52.2,5.765,5.765,0,0,1-1.34-.191,7.862,7.862,0,0,1,1.35,0c.832.021,1.98.036,3.248,0s2.412-.126,3.241-.2a7.906,7.906,0,0,1,1.348-.083" transform="translate(-201.704 -140.504)" fill="#eb996e"/><path d="M197.591,43.034a6.4,6.4,0,0,0,.912-.168,2.213,2.213,0,0,0,1.081-3.53c-.343-.454-.687-.607-.662-.65a1.381,1.381,0,0,1,.811.528,2.316,2.316,0,0,1-1.174,3.836,1.381,1.381,0,0,1-.967-.017" transform="translate(-94.328 -18.467)" fill="#263238"/><path d="M208.4,37.608a1.678,1.678,0,0,1-.835.368,3.5,3.5,0,0,1-3.837-1.671,1.682,1.682,0,0,1-.3-.862c.042-.014.154.314.462.759a3.684,3.684,0,0,0,3.638,1.584c.536-.078.852-.219.87-.179" transform="translate(-97.11 -16.92)" fill="#263238"/><path d="M204.761,48.758c-.043.01-.109-.257-.336-.616a2.418,2.418,0,0,0-2.84-1.038c-.405.127-.628.289-.654.253s.165-.246.586-.433a2.367,2.367,0,0,1,3.076,1.124c.2.415.2.707.168.71" transform="translate(-95.922 -22.308)" fill="#263238"/><path d="M210.686,44.559c0,.028-.308.03-.693-.245a1.729,1.729,0,0,1,.334-3.02c.435-.184.735-.115.729-.088,0,.046-.277.052-.644.26a1.621,1.621,0,0,0-.3,2.7c.312.283.585.35.572.394" transform="translate(-99.896 -19.655)" fill="#263238"/><path d="M87.734,187.787a2.42,2.42,0,0,0-1.2,1.49,2.247,2.247,0,0,0,.163,1.47l7.095,15.783,4.609,9.278,13.642-3.293-8.814-21.986s-.722-3.046-3.5-3.046H88.906a2.353,2.353,0,0,0-1.172.3" transform="translate(-41.284 -89.503)" fill="#455a64"/><path d="M92.511,194.379h-1.77a.714.714,0,1,1,0-1.427h1.77a.714.714,0,0,1,0,1.427" transform="translate(-42.978 -92.113)" fill="#fff"/><path d="M91.285,205.064a4.724,4.724,0,0,0-.882,3.38c.294,1.911.417,4.262.417,4.262s1.346,1.323,1.493,5-.294,5.878.588,7.642-1.273,12.2-1.273,12.2-1.761,1.616-1.273,2.645-.1,8.523,3.574,11.9l7.788,2.2s3.38-.294,4.409-3.233,0-12.2,0-12.2a12.178,12.178,0,0,0,4.957-4.318s5.518-3.865,6.8-4.867,2.058-5.141,1.911-5.914-2.454-.949-2.454-.949,1.192-3.408-1.1-5.153c0,0,.648-2.841-.8-3.488a2.407,2.407,0,0,0-2.492.249s-2.592,2.742-4.436,3.489-5.682,3.937-6.678,3.339-1.545-.947-1-2.542,2.151-5.967,3.144-6.647,2.6-2.553,2.2-3.635-1.454-2.478-2.849-1.73a29.276,29.276,0,0,0-7.028,7.326l-.7.9Z" transform="translate(-43.094 -97.896)" fill="#ffbe9d"/><path d="M130.3,228.755c.009,0,.016.048.019.138a1.821,1.821,0,0,1-.023.4,3.24,3.24,0,0,1-.562,1.358,6.8,6.8,0,0,1-1.533,1.543,25.2,25.2,0,0,1-2.211,1.452,30.945,30.945,0,0,1-4.3,2.123c-.57.228-1.039.39-1.366.5a2,2,0,0,1-.518.132c-.014-.039.694-.309,1.809-.806a40.63,40.63,0,0,0,4.236-2.18,12.7,12.7,0,0,0,3.726-2.873,3.923,3.923,0,0,0,.722-1.785" transform="translate(-57.196 -109.205)" fill="#eb996e"/><path d="M134.073,239.23a5.887,5.887,0,0,1-.956,1.174,15.981,15.981,0,0,1-6.1,3.949,5.872,5.872,0,0,1-1.462.392,14.2,14.2,0,0,1,1.393-.572,19.442,19.442,0,0,0,6.032-3.907,14.334,14.334,0,0,1,1.092-1.037" transform="translate(-59.939 -114.205)" fill="#eb996e"/><path d="M98.545,231.86a1.721,1.721,0,0,1-.645-1.071,7.652,7.652,0,0,1,.07-3.012,23.831,23.831,0,0,1,.646-2.93,4.814,4.814,0,0,1,.425-1.169,6.84,6.84,0,0,1-.239,1.217c-.167.745-.384,1.775-.563,2.924a8.806,8.806,0,0,0-.152,2.927,3.974,3.974,0,0,0,.458,1.115" transform="translate(-46.678 -106.782)" fill="#eb996e"/><path d="M108.343,246.205c0,.033-.174.064-.437-.016a1.487,1.487,0,0,1-1.005-1.706c.057-.27.167-.405.2-.39a2.569,2.569,0,0,0,.215,1.3c.377.637,1.053.744,1.03.816" transform="translate(-51.02 -116.527)" fill="#eb996e"/><path d="M116.331,253.888c0,.032-.2.1-.549.051a2.007,2.007,0,0,1-1.715-1.845c-.02-.346.059-.549.091-.544s.034.21.1.517a2.166,2.166,0,0,0,1.564,1.683c.3.088.507.1.509.137" transform="translate(-54.453 -120.088)" fill="#eb996e"/><path d="M124.478,258.814c0,.032-.174.065-.443-.009a1.751,1.751,0,0,1-1.219-1.632c.005-.279.086-.435.117-.426a2.263,2.263,0,0,0,1.545,2.067" transform="translate(-58.631 -122.568)" fill="#eb996e"/><path d="M114.27,270.388a3.365,3.365,0,0,1-.945.407,17.336,17.336,0,0,1-4.864.886,3.351,3.351,0,0,1-1.027-.048c0-.082,1.558-.141,3.443-.489s3.367-.834,3.394-.756" transform="translate(-51.288 -129.077)" fill="#eb996e"/><path d="M108.8,209.653a1.761,1.761,0,0,1-.145-.326l-.366-.953-1.3-3.523L102.8,193.2a5.309,5.309,0,0,0-1.894-2.8,5.676,5.676,0,0,0-3.118-.552l-5.568.063-3.754.019-1.021-.009a1.731,1.731,0,0,1-.356-.021,1.772,1.772,0,0,1,.355-.033l1.02-.042,3.753-.106,5.567-.121a11.956,11.956,0,0,1,1.625.046,3.915,3.915,0,0,1,1.638.53,5.54,5.54,0,0,1,2.008,2.93c1.63,4.559,3.077,8.688,4.118,11.684l1.218,3.552.318.97a1.741,1.741,0,0,1,.094.344" transform="translate(-41.575 -90.508)" fill="#263238"/></g></g></g></g></svg>